<svg width="37" height="48" viewBox="0 0 37 48" fill="none" xmlns="http://www.w3.org/2000/svg">
    <path fill-rule="evenodd" clip-rule="evenodd"
        d="M18.7888 40.0946C25.2791 40.0946 30.5486 41.6679 30.5486 43.6058C30.5486 45.5436 25.2791 47.1169 18.7888 47.1169C12.2986 47.1169 7.02899 45.5436 7.02899 43.6058C7.02899 41.6679 12.2986 40.0946 18.7888 40.0946Z"
        fill="#B0B0B0" />
    <path fill-rule="evenodd" clip-rule="evenodd"
        d="M17.2667 42.1782C15.472 43.5213 12.9243 43.1546 11.5812 41.3599L8.90081 37.778C7.55774 35.9833 7.92444 33.4357 9.71917 32.0926C11.5139 30.7495 14.0615 31.1162 15.4046 32.911L18.085 36.4928C19.4281 38.2875 19.0614 40.8351 17.2667 42.1782Z"
        fill="#3B4BC4" />
    <path fill-rule="evenodd" clip-rule="evenodd"
        d="M18.7888 0.308533C28.6599 0.308533 36.6744 8.32309 36.6744 18.1942C36.6744 28.0653 28.6599 36.0798 18.7888 36.0798C8.91769 36.0798 0.903137 28.0653 0.903137 18.1942C0.903137 8.32309 8.91769 0.308533 18.7888 0.308533Z"
        fill="#3A86FF" />
    <path fill-rule="evenodd" clip-rule="evenodd"
        d="M19.6836 0.919708C28.4358 0.919708 35.5419 8.02579 35.5419 16.778C35.5419 25.5301 28.4358 32.6362 19.6836 32.6362C10.9315 32.6362 3.82538 25.5301 3.82538 16.778C3.82538 8.02579 10.9315 0.919708 19.6836 0.919708Z"
        fill="#5898FF" />
    <path fill-rule="evenodd" clip-rule="evenodd"
        d="M24.6694 35.4172C22.8088 36.6675 20.2831 36.1719 19.0328 34.3114L16.5376 30.5981C15.2874 28.7376 15.7829 26.2118 17.6435 24.9616C19.5041 23.7113 22.0298 24.2068 23.2801 26.0674L25.7753 29.7806C27.0255 31.6412 26.53 34.167 24.6694 35.4172Z"
        fill="#3B4BC4" />
    <path fill-rule="evenodd" clip-rule="evenodd"
        d="M24.3063 10.4289C26.6964 10.4289 28.637 12.3695 28.637 14.7595C28.637 17.1496 26.6964 19.0902 24.3063 19.0902C21.9163 19.0902 19.9757 17.1496 19.9757 14.7595C19.9757 12.3695 21.9163 10.4289 24.3063 10.4289Z"
        fill="white" />
    <path fill-rule="evenodd" clip-rule="evenodd"
        d="M26.0638 12.2463C27.1083 12.2463 27.9565 13.285 27.9565 14.5642C27.9565 15.8435 27.1083 16.8822 26.0638 16.8822C25.0192 16.8822 24.171 15.8435 24.171 14.5642C24.171 13.285 25.0192 12.2463 26.0638 12.2463Z"
        fill="black" />
    <path fill-rule="evenodd" clip-rule="evenodd"
        d="M32.5077 10.4289C34.8978 10.4289 36.8383 12.3695 36.8383 14.7595C36.8383 17.1496 34.8978 19.0902 32.5077 19.0902C30.1176 19.0902 28.1771 17.1496 28.1771 14.7595C28.1771 12.3695 30.1176 10.4289 32.5077 10.4289Z"
        fill="white" />
    <path fill-rule="evenodd" clip-rule="evenodd"
        d="M34.2652 12.2463C35.3098 12.2463 36.1579 13.285 36.1579 14.5642C36.1579 15.8435 35.3098 16.8822 34.2652 16.8822C33.2206 16.8822 32.3724 15.8435 32.3724 14.5642C32.3724 13.285 33.2206 12.2463 34.2652 12.2463Z"
        fill="black" />
    <path d="M26.545 19.9047C26.7967 23.1142 30.5372 23.2299 30.5172 19.7181" stroke="black"
        stroke-width="0.585813" stroke-linecap="round" stroke-linejoin="round" />
</svg>
    