<svg width="99" height="93" viewBox="0 0 99 93" fill="none" xmlns="http://www.w3.org/2000/svg">
<path d="M14.417 85.0123C33.6396 95.6628 64.8058 95.6628 84.0285 85.0123C103.251 74.3618 103.251 57.0918 84.0285 46.4413C64.8058 35.7908 33.6396 35.7908 14.417 46.439C-4.80565 57.0871 -4.80565 74.3595 14.417 85.0123Z" fill="#F5F5F5"/>
<path d="M85.1469 45.8288C85.282 44.1466 86.5798 41.2783 88.4997 39.2349C90.4197 37.1915 93.493 36.2059 95.3896 37.0307C97.1534 37.7973 96.7666 40.1622 94.4366 41.5626C92.1066 42.9629 88.6372 44.6801 87.4466 47.3317L85.1445 50.5145L85.1469 45.8288Z" fill="#BA68C8"/>
<path opacity="0.1" d="M85.1469 45.8288C85.282 44.1466 86.5798 41.2783 88.4997 39.2349C90.4197 37.1915 93.493 36.2059 95.3896 37.0307C97.1534 37.7973 96.7666 40.1622 94.4366 41.5626C92.1066 42.9629 88.6372 44.6801 87.4466 47.3317L85.1445 50.5145L85.1469 45.8288Z" fill="black"/>
<path d="M84.904 48.0314H84.8691C84.8543 48.0267 84.8406 48.019 84.8288 48.0089C84.817 47.9988 84.8073 47.9865 84.8004 47.9726C84.7934 47.9587 84.7893 47.9435 84.7883 47.928C84.7873 47.9125 84.7894 47.897 84.7945 47.8823C86.6842 42.1784 92.0455 38.3549 94.2707 37.9891C94.2857 37.9864 94.3011 37.9868 94.316 37.9902C94.3308 37.9936 94.3449 37.9999 94.3572 38.0088C94.3696 38.0177 94.3801 38.029 94.388 38.042C94.396 38.055 94.4012 38.0695 94.4035 38.0846C94.4062 38.0997 94.4058 38.1153 94.4024 38.1303C94.3991 38.1453 94.3928 38.1595 94.3839 38.1721C94.375 38.1846 94.3637 38.1953 94.3507 38.2035C94.3377 38.2117 94.3231 38.2172 94.308 38.2197C92.1317 38.5762 86.8775 42.3369 85.0159 47.9569C85.0072 47.9793 84.9918 47.9985 84.9718 48.0119C84.9518 48.0252 84.9281 48.0321 84.904 48.0314Z" fill="white"/>
<path d="M85.3983 52.7713C85.7455 51.8392 87.0294 50.3807 88.9959 49.2413C91.1768 47.9807 93.8446 47.5357 94.5367 46.4755C95.3685 45.201 94.3456 43.852 92.2066 43.9428C90.0677 44.0337 86.0997 46.6317 85.1514 50.9329L85.3983 52.7713Z" fill="#BA68C8"/>
<path d="M85.3001 51.0207C85.2816 51.0202 85.2635 51.0162 85.2465 51.0091C85.2195 50.9947 85.1991 50.9704 85.1895 50.9413C85.18 50.9122 85.182 50.8806 85.1952 50.853C87.0406 47.1785 90.934 45.4613 92.9448 45.0279C92.9757 45.0214 93.008 45.0275 93.0344 45.0448C93.0608 45.062 93.0793 45.0891 93.0858 45.12C93.0923 45.1509 93.0863 45.1831 93.069 45.2095C93.0517 45.2359 93.0247 45.2544 92.9938 45.2609C91.0249 45.6873 87.2084 47.3696 85.4049 50.9648C85.3939 50.9825 85.3784 50.997 85.36 51.0068C85.3416 51.0166 85.3209 51.0214 85.3001 51.0207Z" fill="white"/>
<path d="M17.8161 57.8888L19.708 56.796C19.708 56.796 20.71 52.3387 19.2187 46.6767C17.7275 41.0148 13.4426 36.7812 11.1895 37.6712C8.93639 38.5613 9.00862 40.2343 10.2435 41.9305C11.2687 43.3425 14.5937 46.7303 16.1944 50.6494C17.1477 52.9512 17.6963 55.4003 17.8161 57.8888Z" fill="#E0E0E0"/>
<path d="M18.8228 57.4224H18.8018C18.7864 57.4204 18.7716 57.4153 18.7582 57.4075C18.7449 57.3998 18.7332 57.3894 18.7238 57.377C18.7145 57.3646 18.7077 57.3505 18.7039 57.3355C18.7001 57.3205 18.6993 57.3049 18.7016 57.2896C19.9971 47.9695 14.2187 40.4342 11.5904 38.8638C11.5772 38.8559 11.5657 38.8455 11.5565 38.8331C11.5474 38.8207 11.5408 38.8066 11.5371 38.7917C11.5334 38.7767 11.5327 38.7612 11.5351 38.746C11.5374 38.7308 11.5428 38.7162 11.5508 38.703C11.5585 38.6899 11.5687 38.6784 11.5809 38.6693C11.593 38.6602 11.6069 38.6536 11.6217 38.6499C11.6364 38.6462 11.6518 38.6455 11.6668 38.6478C11.6819 38.6502 11.6963 38.6555 11.7092 38.6634C14.3771 40.2595 20.2418 47.8926 18.9323 57.3222C18.9281 57.3488 18.915 57.3733 18.8951 57.3915C18.8752 57.4097 18.8497 57.4206 18.8228 57.4224Z" fill="white"/>
<path d="M17.8161 57.8896L14.9758 59.5206C14.3837 59.2243 13.7425 59.0388 13.0838 58.973C11.8745 58.8216 11.0707 57.6566 11.1895 56.7875C11.2711 56.2003 11.4575 55.5316 11.3689 54.9398C11.2874 54.4085 10.7724 53.9286 10.2924 53.7445C9.88384 53.6171 9.45752 53.5557 9.02958 53.5627C8.34688 53.5325 7.63157 53.4532 7.05606 53.0967C6.48054 52.7403 6.05648 52.0273 6.24521 51.3702C6.36929 51.0276 6.57293 50.7194 6.83936 50.4708C7.10406 50.2223 7.31912 49.9258 7.47313 49.5971C7.72477 48.9377 7.28207 48.5206 6.75082 48.2154C4.88681 47.1412 4.04801 46.2954 4.71905 45.4846C5.3901 44.6737 7.23547 44.3196 9.12511 45.3122C11.0148 46.3048 12.5805 45.2399 13.8271 45.4496C15.7796 45.7758 15.8961 47.1552 15.6538 48.3552C15.4115 49.5551 17.8207 50.0607 18.4289 51.4937C18.8692 52.5445 19.2374 55.9766 17.8161 57.8896Z" fill="#EBEBEB"/>
<path d="M16.8674 58.5509C16.8373 58.5509 16.8083 58.5393 16.7866 58.5185C16.7649 58.4976 16.7521 58.4692 16.7509 58.4391C16.5179 51.7869 7.99238 45.9852 5.98158 45.6543C5.9664 45.6518 5.95188 45.6462 5.93884 45.6381C5.92581 45.6299 5.91453 45.6192 5.90565 45.6066C5.89676 45.5941 5.89046 45.5799 5.8871 45.5649C5.88373 45.5498 5.88338 45.5343 5.88605 45.5192C5.8883 45.5041 5.89356 45.4896 5.9015 45.4766C5.90944 45.4636 5.91991 45.4523 5.93229 45.4434C5.94467 45.4345 5.95871 45.4281 5.97358 45.4247C5.98845 45.4213 6.00384 45.421 6.01886 45.4236C8.13684 45.7731 16.7509 51.5306 16.9839 58.4321C16.9845 58.4473 16.9821 58.4624 16.9768 58.4767C16.9715 58.4909 16.9634 58.5039 16.953 58.515C16.9426 58.5261 16.93 58.535 16.9161 58.5411C16.9022 58.5473 16.8873 58.5506 16.8721 58.5509H16.8674Z" fill="white"/>
<path d="M92.7014 26.8715C92.2866 26.7946 91.9418 26.5965 91.35 26.5336C90.9413 26.5223 90.5415 26.412 90.185 26.2121C89.719 25.9581 88.7427 24.7768 87.9458 23.5838C87.1003 22.2212 86.4943 20.7239 86.154 19.1568C85.8162 17.2602 85.7509 14.4968 85.6205 13.3853C85.49 12.2739 85.0263 11.9501 84.4228 11.6984C83.7122 11.4025 82.9689 11.8312 82.9619 13.4389C82.9934 15.6523 83.2709 17.8552 83.7891 20.0072C84.2174 21.5937 84.9056 23.0983 85.8255 24.4599C86.6643 25.7274 87.5287 26.5569 88.6215 27.6147C88.9221 27.9013 89.0735 28.1879 89.5838 28.8007C89.7812 29.0668 90.0167 29.3023 90.2828 29.4997C90.6231 29.7253 90.9944 29.9003 91.3849 30.0193C91.8783 30.1723 92.4038 30.19 92.9064 30.0706C93.1825 30.0038 93.4394 29.8738 93.6567 29.6908C93.8737 29.5057 94.0181 29.2499 94.0644 28.9685C94.0784 28.9133 94.0776 28.8555 94.0621 28.8007C94.0117 28.7106 93.9281 28.6437 93.8291 28.6143C93.2979 28.3813 92.6897 28.2229 92.1864 27.9409C91.7624 27.7079 91.4874 27.4749 91.5876 27.4447C91.6878 27.4144 91.9185 27.5705 92.3426 27.5821C92.7666 27.5938 93.1534 27.3654 93.1417 27.1394C93.1301 26.9134 93.1161 26.9484 92.7014 26.8715Z" fill="#FFA8A7"/>
<path d="M83.1897 18.6094C83.1897 18.6094 82.803 15.5268 82.7028 13.8142C82.6026 12.1016 83.1268 11.6054 83.7699 11.1766C85.1889 11.0671 86.0021 12.5513 86.2421 13.5416C86.482 14.5318 86.6055 16.9993 86.6055 18.6047C86.6055 20.2101 88.8493 24.8398 88.8493 24.8398C88.8493 24.8398 87.7169 25.3641 87.3744 26.3916C87.3744 26.3916 85.5733 24.2666 84.9046 23.1832C83.679 21.191 83.3435 19.9724 83.1897 18.6094Z" fill="#BA68C8"/>
<path opacity="0.1" d="M83.1897 18.6094C83.1897 18.6094 82.803 15.5268 82.7028 13.8142C82.6026 12.1016 83.1268 11.6054 83.7699 11.1766C85.1889 11.0671 86.0021 12.5513 86.2421 13.5416C86.482 14.5318 86.6055 16.9993 86.6055 18.6047C86.6055 20.2101 88.8493 24.8398 88.8493 24.8398C88.8493 24.8398 87.7169 25.3641 87.3744 26.3916C87.3744 26.3916 85.5733 24.2666 84.9046 23.1832C83.679 21.191 83.3435 19.9724 83.1897 18.6094Z" fill="black"/>
<path d="M77.2862 54.6318H79.2178V51.3279H77.2862V54.6318Z" fill="#FFA8A7"/>
<path d="M83.5815 52.2278L85.5108 52.2954L85.6087 48.798L83.6794 48.7305L83.5815 52.2278Z" fill="#FFA8A7"/>
<path d="M79.2171 53.6776V53.4003C79.4012 53.4819 79.8299 55.1199 80.5965 55.8165C81.2046 56.3734 82.0364 57.0142 82.2485 57.6339C82.4605 58.2537 81.0835 58.6335 80.5219 58.5333C79.8602 58.4145 78.7162 57.9508 78.4249 57.5198C78.1337 57.0887 78.0032 56.4503 77.7702 56.1334C77.5372 55.8165 76.9966 55.4647 76.8708 55.0989C76.8009 54.8985 76.8708 54.4581 76.9803 54.0853C77.0898 53.7125 77.1667 53.37 77.2832 53.4003V53.6123C77.5595 53.8271 77.9003 53.9421 78.2502 53.9385C78.5344 53.9479 79.2195 53.8919 79.2171 53.6776Z" fill="#263238"/>
<path d="M85.5317 51.7006C85.6319 51.7006 85.7134 51.845 85.9348 52.085C86.2653 52.4184 86.6487 52.6947 87.0695 52.9029C87.7941 53.264 89.1991 53.8209 89.8352 54.1075C90.2313 54.2869 90.2127 54.7669 89.8026 55.0395C89.3925 55.3121 88.4046 55.5055 87.2093 55.2445C86.5616 55.0977 85.7158 54.4989 85.1822 54.5315C84.6486 54.5641 83.6467 54.5572 83.2529 54.2845C82.8592 54.0119 83.0199 53.4318 83.1271 52.9331C83.2483 52.3879 83.423 51.5538 83.6048 51.5911V51.7635C83.8378 52.1153 85.0191 52.2574 85.5294 51.9965L85.5317 51.7006Z" fill="#263238"/>
<path d="M77.4136 25.1288C77.4136 26.9719 77.4136 38.4821 77.4136 38.4821C77.3693 39.0111 76.9755 39.9314 76.8707 42.1892C76.7402 44.9573 76.6377 52.5461 76.6377 52.5461C76.6377 52.5461 78.08 53.4781 79.3568 52.5787C79.3568 52.5787 81.0717 41.6976 81.4166 38.9551C81.7195 36.5622 82.2297 30.0591 82.2297 30.0591L83.3947 39.8452C83.3947 39.8452 83.0802 41.644 83.0126 42.9138C82.945 44.1837 83.0126 50.759 83.0126 50.759C83.0126 50.759 84.5364 51.6351 85.6572 51.0363C85.6572 51.0363 86.9783 40.8821 87.1787 39.7357C87.3791 38.5893 86.454 25.1172 86.454 25.1172L77.4136 25.1288Z" fill="#263238"/>
<path d="M82.2158 30.0591C83.2141 29.7477 84.1319 29.2212 84.9047 28.5166C84.9047 28.5166 84.3874 29.4882 82.8449 30.3923L82.8775 35.6534L82.2158 30.0591Z" fill="black"/>
<path d="M79.2683 11.7918C78.9975 11.8281 78.7307 11.8897 78.4714 11.9759C77.9402 12.1832 77.6979 12.8356 77.572 13.4111C77.4654 13.8931 77.4122 14.3854 77.4136 14.879V25.1311C78.7673 26.6037 83.4856 27.2887 86.4424 25.1311C86.4424 25.1311 86.3842 16.0767 86.1628 14.5901C85.7784 12.0061 84.5318 11.0951 83.2992 11.1813L80.3145 11.6054L79.2683 11.7918Z" fill="#BA68C8"/>
<path d="M80.4102 16.2581C80.4102 16.2581 82.0272 16.1929 82.6912 15.9342V15.6104C82.0272 15.869 80.4102 15.9342 80.4102 15.9342V16.2581Z" fill="#37474F"/>
<path d="M83.1407 13.0962L80.3144 11.0155L80.3027 10.5029C80.3027 10.5029 79.7039 10.5938 79.5571 11.7402C80.0011 12.729 80.763 13.541 81.7217 14.0469L82.3089 13.0007L83.1407 13.0962Z" fill="#BA68C8"/>
<path opacity="0.1" d="M83.1407 13.0962L80.3144 11.0155L80.3027 10.5029C80.3027 10.5029 79.7039 10.5938 79.5571 11.7402C80.0011 12.729 80.763 13.541 81.7217 14.0469L82.3089 13.0007L83.1407 13.0962Z" fill="black"/>
<path d="M83.2972 10.626C83.479 10.6531 83.6537 10.7159 83.8112 10.8107C83.9688 10.9054 84.106 11.0303 84.2152 11.1782C84.4948 11.6442 84.4296 13.4034 84.4296 13.4034L83.6863 12.5506L83.1411 13.0958C83.1994 12.5063 83.2996 11.5184 83.2996 11.5184L83.2972 10.626Z" fill="#BA68C8"/>
<path opacity="0.1" d="M83.2972 10.626C83.479 10.6531 83.6537 10.7159 83.8112 10.8107C83.9688 10.9054 84.106 11.0303 84.2152 11.1782C84.4948 11.6442 84.4296 13.4034 84.4296 13.4034L83.6863 12.5506L83.1411 13.0958C83.1994 12.5063 83.2996 11.5184 83.2996 11.5184L83.2972 10.626Z" fill="black"/>
<path d="M79.1123 6.89844C79.1123 6.89844 79.555 8.99545 79.7344 9.32864C79.8519 9.54078 80.0475 9.69875 80.2796 9.76901L80.2494 8.30111L79.1123 6.89844Z" fill="#263238"/>
<path d="M79.6696 3.90824C79.5145 3.89023 79.3573 3.90772 79.21 3.95939C79.0626 4.01106 78.929 4.09555 78.8191 4.20648C78.4533 4.58161 78.656 5.75128 79.1127 6.89765L79.9492 6.99318L79.6696 3.90824Z" fill="#263238"/>
<path d="M80.201 6.99347C80.0333 7.09366 79.7933 6.76046 79.5859 6.55542C79.3785 6.35038 78.7028 6.04282 78.3673 6.75347C78.0318 7.46413 78.6632 8.43341 79.1968 8.59885C80.1125 8.88777 80.25 8.3006 80.25 8.3006L80.3199 11.6046C80.3199 11.6046 81.5152 12.8744 83.1415 13.0958L83.2999 11.5184V10.5118C83.7081 10.5769 84.1221 10.598 84.5348 10.5747C85.2106 10.4698 85.6346 9.9386 85.8373 9.20931C86.1659 8.0443 86.2917 7.09133 86.0121 4.78228C85.7069 2.25655 82.7687 2.21927 81.1843 3.22816C79.5999 4.23706 80.201 6.99347 80.201 6.99347Z" fill="#FFA8A7"/>
<path d="M80.2005 7.27808C80.1143 7.27808 79.7951 6.74684 79.5854 6.55578C79.2964 6.29249 79.6692 3.90889 79.6692 3.90889C80.0164 2.27788 82.852 2.04488 84.4364 2.56447C85.2589 2.81844 85.7902 3.18891 85.7599 3.88326C85.655 4.34926 84.6508 4.58226 84.2687 4.63119C83.1969 4.76167 81.5449 4.47275 81.3166 4.44246C81.0067 4.40052 80.9205 4.49838 80.7527 5.3232C80.6059 6.04551 80.4824 7.27109 80.2005 7.27808Z" fill="#263238"/>
<path d="M79.6716 4.10246L78.6558 3.55724C78.6882 3.4888 78.7341 3.42766 78.7908 3.37751C78.8476 3.32737 78.9139 3.28927 78.9858 3.26552C79.0577 3.24177 79.1337 3.23287 79.2091 3.23936C79.2845 3.24585 79.3579 3.26759 79.4247 3.30326C79.5607 3.37918 79.6622 3.50457 79.7082 3.65339C79.7542 3.80222 79.7411 3.96304 79.6716 4.10246Z" fill="#263238"/>
<path d="M83.2978 10.5124C83.2978 10.5124 81.7949 10.2095 81.2683 9.92994C80.9619 9.76708 80.7112 9.51635 80.5483 9.20996C80.6271 9.51762 80.7674 9.80614 80.9607 10.0581C81.3452 10.5497 83.3047 10.9132 83.3047 10.9132L83.2978 10.5124Z" fill="#F28F8F"/>
<path d="M83.0309 6.89854C83.0286 6.958 83.0088 7.01547 82.9741 7.06377C82.9393 7.11207 82.8911 7.14907 82.8355 7.17015C82.7799 7.19122 82.7192 7.19545 82.6612 7.18229C82.6032 7.16913 82.5503 7.13917 82.5092 7.09615C82.4681 7.05313 82.4406 6.99896 82.4301 6.94039C82.4195 6.88182 82.4265 6.82146 82.4501 6.76683C82.4737 6.7122 82.5128 6.66573 82.5627 6.63321C82.6125 6.6007 82.6708 6.58358 82.7303 6.58399C82.7707 6.5849 82.8105 6.59376 82.8475 6.61006C82.8845 6.62636 82.9178 6.64978 82.9458 6.67899C82.9737 6.7082 82.9956 6.74263 83.0102 6.7803C83.0248 6.81797 83.0318 6.85815 83.0309 6.89854Z" fill="#263238"/>
<path d="M82.7121 5.75674L82.0666 6.11324C82.0205 6.02484 82.0104 5.92195 82.0387 5.82631C82.067 5.73066 82.1313 5.64974 82.2181 5.60063C82.2606 5.57741 82.3073 5.56303 82.3554 5.55833C82.4036 5.55364 82.4522 5.55874 82.4984 5.57332C82.5445 5.5879 82.5872 5.61167 82.624 5.64319C82.6607 5.67472 82.6906 5.71334 82.7121 5.75674Z" fill="#263238"/>
<path d="M83.1622 8.70215L83.8496 8.96078C83.8354 9.00744 83.8119 9.05072 83.7804 9.08798C83.749 9.12524 83.7103 9.15571 83.6667 9.17751C83.6231 9.19932 83.5755 9.212 83.5268 9.2148C83.4781 9.2176 83.4294 9.21045 83.3836 9.19378C83.2892 9.15775 83.2129 9.08579 83.1714 8.99366C83.1299 8.90153 83.1266 8.79671 83.1622 8.70215Z" fill="#F28F8F"/>
<path d="M85.7204 6.00874L85.1309 5.55672C85.1584 5.51671 85.1938 5.48275 85.235 5.45692C85.2761 5.43109 85.3221 5.41394 85.3701 5.40653C85.4181 5.39911 85.4671 5.40158 85.5141 5.41378C85.5611 5.42599 85.6051 5.44767 85.6435 5.4775C85.7211 5.53991 85.7722 5.62941 85.7864 5.72799C85.8007 5.82657 85.7771 5.92689 85.7204 6.00874Z" fill="#263238"/>
<path d="M85.5387 6.80968C85.5364 6.86914 85.5166 6.9266 85.4819 6.9749C85.4471 7.0232 85.3989 7.0602 85.3433 7.08128C85.2877 7.10236 85.227 7.10658 85.169 7.09342C85.111 7.08026 85.0581 7.0503 85.017 7.00728C84.9759 6.96426 84.9484 6.91009 84.9379 6.85152C84.9274 6.79296 84.9343 6.73259 84.9579 6.67797C84.9815 6.62334 85.0207 6.57686 85.0705 6.54435C85.1203 6.51183 85.1786 6.49471 85.2381 6.49512C85.2785 6.49603 85.3183 6.50489 85.3553 6.52119C85.3923 6.53749 85.4257 6.56092 85.4536 6.59013C85.4815 6.61934 85.5034 6.65376 85.518 6.69143C85.5326 6.72911 85.5396 6.76929 85.5387 6.80968Z" fill="#263238"/>
<path d="M83.9077 6.24512L84.0079 8.05787L84.9539 7.73633L83.9077 6.24512Z" fill="#F28F8F"/>
<path d="M80.9971 5.00402C80.9971 5.00402 83.9935 6.67697 86.0765 5.40245C88.1595 4.12793 85.4614 3.03516 85.4614 3.03516L80.9971 5.00402Z" fill="#263238"/>
<path d="M85.4411 0.178658C83.6564 -0.0986133 81.7131 -0.182493 79.4717 0.907953C77.2302 1.9984 76.7339 3.45466 76.7339 3.45466C76.7339 3.45466 79.022 4.07677 80.8836 3.5432C82.7453 3.00962 85.4411 0.178658 85.4411 0.178658Z" fill="#BA68C8"/>
<path opacity="0.4" d="M85.4411 0.178658C83.6564 -0.0986133 81.7131 -0.182493 79.4717 0.907953C77.2302 1.9984 76.7339 3.45466 76.7339 3.45466C76.7339 3.45466 79.022 4.07677 80.8836 3.5432C82.7453 3.00962 85.4411 0.178658 85.4411 0.178658Z" fill="white"/>
<path d="M77.9851 4.14408C77.9851 4.14408 76.8387 3.74099 76.7339 3.44508C77.6432 3.43395 78.5436 3.26443 79.3948 2.94413C80.8836 2.40356 82.4238 0.767894 84.106 0.308881C85.7883 -0.150131 86.4966 0.614112 86.4966 0.614112C86.2756 1.33221 85.9556 2.01603 85.546 2.64588C85.546 2.64588 85.0264 3.83885 83.0552 4.34213C81.084 4.84542 77.9851 4.14408 77.9851 4.14408Z" fill="#BA68C8"/>
<path d="M77.9849 4.14453L78.0781 4.45908C78.1119 4.56317 78.1692 4.65808 78.2455 4.73647C78.3219 4.81485 78.4153 4.87461 78.5184 4.9111C80.0278 5.31807 81.6226 5.28004 83.1109 4.80159C84.5089 4.3752 85.1217 3.94182 85.371 3.63659C85.4621 3.55208 85.531 3.44645 85.5717 3.32902C85.6123 3.21158 85.6234 3.08595 85.604 2.96321L85.5574 2.65332C85.5574 2.65332 85.1287 3.30107 82.8639 4.02337C80.5991 4.74567 77.9849 4.14453 77.9849 4.14453Z" fill="#37474F"/>
<path d="M84.2762 0.963867C84.2622 1.30638 83.8941 2.00538 83.4048 1.77238V2.6508C83.4048 3.20068 83.7287 3.3498 84.2482 3.17505C84.508 3.09033 84.7348 2.92676 84.8973 2.7071C85.0597 2.48744 85.1497 2.22262 85.1546 1.94946C85.1546 1.7817 85.1546 1.19221 85.1546 1.19221C84.7702 1.75607 84.2762 1.09901 84.2762 0.963867Z" fill="#FAFAFA"/>
<path d="M48.1602 10.5062L20.8385 26.2804C20.5449 26.472 20.3006 26.73 20.1253 27.0336C19.95 27.3372 19.8487 27.6779 19.8296 28.0279V58.4835C19.8483 58.8336 19.9495 59.1744 20.1248 59.4781C20.3001 59.7817 20.5446 60.0397 20.8385 60.231L48.1602 76.0075C48.4729 76.1662 48.8185 76.2488 49.1691 76.2488C49.5197 76.2488 49.8654 76.1662 50.178 76.0075L77.5184 60.231C77.8122 60.0397 78.0568 59.7817 78.2321 59.4781C78.4074 59.1744 78.5085 58.8336 78.5273 58.4835V28.0279C78.5082 27.6779 78.4069 27.3372 78.2316 27.0336C78.0563 26.73 77.812 26.472 77.5184 26.2804L50.1943 10.5062C49.8796 10.3449 49.531 10.2607 49.1773 10.2607C48.8236 10.2607 48.475 10.3449 48.1602 10.5062Z" fill="#37474F"/>
<path d="M49.1783 43.462V76.2476C48.8276 76.2572 48.4803 76.177 48.1694 76.0146L20.8453 60.2404C20.5517 60.0488 20.3074 59.7908 20.1321 59.4872C19.9569 59.1836 19.8556 58.8429 19.8364 58.4929V28.028C19.8553 27.6983 19.9463 27.3769 20.1029 27.0862C20.2595 26.7956 20.4779 26.5428 20.7428 26.3457C20.2908 26.6696 20.3257 27.1449 20.8453 27.4455L48.1601 43.2197C48.473 43.3866 48.8237 43.47 49.1783 43.462Z" fill="#263238"/>
<path d="M77.5188 26.2801L50.1947 10.5059C49.882 10.3473 49.5364 10.2646 49.1858 10.2646C48.8352 10.2646 48.4896 10.3473 48.1769 10.5059L20.8552 26.2801C20.2983 26.6017 20.2983 27.1236 20.8552 27.4451L48.1606 43.2193C48.4732 43.378 48.8189 43.4606 49.1695 43.4606C49.5201 43.4606 49.8657 43.378 50.1784 43.2193L77.5188 27.4451C78.0663 27.1236 78.0663 26.6017 77.5188 26.2801Z" fill="#455A64"/>
<path d="M51.5736 44.6033L76.1203 30.4321C76.3976 30.2713 76.6236 30.4018 76.6236 30.7234V57.9845C76.614 58.1594 76.5634 58.3296 76.476 58.4813C76.3886 58.6331 76.2667 58.7622 76.1203 58.8583L51.5736 73.0178C51.2963 73.1785 51.0703 73.0504 51.0703 72.7265V45.477C51.0794 45.302 51.1297 45.1316 51.2172 44.9798C51.3046 44.8279 51.4268 44.6989 51.5736 44.6033Z" fill="#263238"/>
<path d="M51.5366 45.4765C51.5462 45.3841 51.5752 45.2948 51.6218 45.2145C51.6684 45.1342 51.7315 45.0646 51.8069 45.0105L76.1555 30.9512V57.9793C76.1455 58.0716 76.1163 58.1607 76.0698 58.241C76.0232 58.3212 75.9604 58.3909 75.8853 58.4453L51.5366 72.5023V45.4765Z" fill="#37474F"/>
<path d="M51.1572 47.0284L56.486 43.9458C56.5394 43.916 56.5996 43.9004 56.6607 43.9004C56.7219 43.9004 56.782 43.916 56.8355 43.9458L57.6976 44.4444L52.1055 47.5667L51.1572 47.0284Z" fill="#455A64"/>
<path d="M57.7831 44.6444V48.3165C57.7769 48.4211 57.7462 48.5228 57.6936 48.6135C57.641 48.7041 57.5679 48.7812 57.4802 48.8385L52.1025 51.9444V47.5733L57.4802 44.4697C57.6456 44.3742 57.7831 44.451 57.7831 44.6444Z" fill="#263238"/>
<path d="M51.1572 47.0293L52.1032 47.5745V51.948L51.1572 51.4004V47.0293Z" fill="black"/>
<path d="M54.382 47.9304C54.643 47.779 54.848 47.9001 54.848 48.203C54.8396 48.3666 54.7931 48.526 54.7122 48.6684C54.6313 48.8108 54.5182 48.9323 54.382 49.0232C54.1211 49.1723 53.916 49.0512 53.916 48.7483C53.924 48.5849 53.9704 48.4258 54.0514 48.2837C54.1323 48.1416 54.2456 48.0206 54.382 47.9304Z" fill="#455A64"/>
<path d="M56.2761 46.8386C56.537 46.6872 56.7421 46.8083 56.7421 47.1112C56.7337 47.2748 56.6872 47.4342 56.6063 47.5766C56.5254 47.719 56.4123 47.8405 56.2761 47.9314C56.0128 48.0805 55.8101 47.9594 55.8101 47.6565C55.8184 47.4932 55.865 47.3342 55.9459 47.1922C56.0268 47.0502 56.1399 46.9291 56.2761 46.8386Z" fill="#455A64"/>
<path d="M51.0683 47.0801L49.7588 47.8373C49.5817 47.9396 49.3808 47.9934 49.1763 47.9934C48.9718 47.9934 48.7709 47.9396 48.5938 47.8373L47.6361 47.2851C47.5831 47.2542 47.5228 47.2379 47.4614 47.2379C47.4 47.2379 47.3397 47.2542 47.2866 47.2851L46.4292 47.7791L48.5938 48.9301C48.7709 49.0324 48.9718 49.0862 49.1763 49.0862C49.3808 49.0862 49.5817 49.0324 49.7588 48.9301L52.0142 47.6276L51.0683 47.0801Z" fill="#455A64"/>
<path d="M46.6388 52.1738L48.5937 53.3038C48.7708 53.4061 48.9717 53.4599 49.1762 53.4599C49.3807 53.4599 49.5816 53.4061 49.7587 53.3038L52.0142 52.0014V47.6279L49.7587 48.9304C49.5816 49.0327 49.3807 49.0865 49.1762 49.0865C48.9717 49.0865 48.7708 49.0327 48.5937 48.9304L46.6388 47.8027C46.4734 47.7072 46.3359 47.784 46.3359 47.9774V51.6495C46.3418 51.7545 46.3723 51.8567 46.4249 51.9478C46.4775 52.0388 46.5508 52.1163 46.6388 52.1738Z" fill="#37474F"/>
<path d="M49.1831 53.4576C49.3862 53.458 49.5857 53.4041 49.7609 53.3015L52.0164 51.999V47.6279L49.7609 48.9304C49.5857 49.033 49.3862 49.0869 49.1831 49.0865V53.4576Z" fill="#263238"/>
<path d="M51.1572 65.615L56.486 62.5394C56.539 62.5085 56.5993 62.4922 56.6607 62.4922C56.7221 62.4922 56.7824 62.5085 56.8355 62.5394L57.6976 63.038L52.1055 66.1602L51.1572 65.615Z" fill="#455A64"/>
<path d="M57.7831 63.2247V66.8968C57.7772 67.0018 57.7468 67.1039 57.6941 67.195C57.6415 67.2861 57.5682 67.3635 57.4802 67.421L52.1025 70.5246V66.1535L57.4802 63.0522C57.6456 62.9544 57.7831 63.0313 57.7831 63.2247Z" fill="#263238"/>
<path d="M51.1572 65.6084L52.1032 66.1536V70.5247L51.1572 69.9795V65.6084Z" fill="black"/>
<path d="M54.382 66.5072C54.643 66.3557 54.848 66.4792 54.848 66.7798C54.8402 66.9435 54.7939 67.103 54.7129 67.2455C54.632 67.388 54.5186 67.5094 54.382 67.5999C54.1211 67.7514 53.916 67.6302 53.916 67.3273C53.9244 67.1638 53.9709 67.0044 54.0518 66.862C54.1327 66.7196 54.2458 66.5981 54.382 66.5072Z" fill="#455A64"/>
<path d="M56.2761 65.4154C56.537 65.2639 56.7421 65.3874 56.7421 65.688C56.734 65.8516 56.6877 66.0111 56.6067 66.1536C56.5258 66.296 56.4125 66.4175 56.2761 66.5081C56.0128 66.6596 55.8101 66.5384 55.8101 66.2355C55.8183 66.0719 55.8647 65.9125 55.9456 65.7701C56.0265 65.6277 56.1397 65.5062 56.2761 65.4154Z" fill="#455A64"/>
<path d="M51.0683 65.6602L49.7588 66.4174C49.5817 66.5197 49.3808 66.5735 49.1763 66.5735C48.9718 66.5735 48.7709 66.5197 48.5938 66.4174L47.6361 65.8652C47.5831 65.8343 47.5228 65.818 47.4614 65.818C47.4 65.818 47.3397 65.8343 47.2866 65.8652L46.4292 66.3592L48.5938 67.5102C48.7709 67.6124 48.9718 67.6663 49.1763 67.6663C49.3808 67.6663 49.5817 67.6124 49.7588 67.5102L52.0142 66.2077L51.0683 65.6602Z" fill="#455A64"/>
<path d="M46.6388 70.7529L48.5937 71.8806C48.7708 71.9829 48.9717 72.0367 49.1762 72.0367C49.3807 72.0367 49.5816 71.9829 49.7587 71.8806L52.0142 70.5781V66.207L49.7587 67.5095C49.5816 67.6118 49.3807 67.6656 49.1762 67.6656C48.9717 67.6656 48.7708 67.6118 48.5937 67.5095L46.6388 66.3818C46.4734 66.2839 46.3359 66.3631 46.3359 66.5565V70.2286C46.3422 70.3336 46.3728 70.4356 46.4254 70.5266C46.478 70.6176 46.5511 70.6951 46.6388 70.7529Z" fill="#37474F"/>
<path d="M49.1831 72.0367C49.386 72.0359 49.5852 71.9821 49.7609 71.8806L52.0164 70.5781V66.207L49.7609 67.5095C49.5848 67.61 49.3859 67.6637 49.1831 67.6656V72.0367Z" fill="#263238"/>
<path d="M67.667 47.8904L67.8254 47.6155L66.8631 47.0586H66.8445C66.0756 46.6299 65.0224 46.6974 63.8574 47.3708C61.5064 48.7292 59.5981 52.0308 59.5981 54.7476C59.5981 56.0804 60.0641 57.0217 60.8051 57.4784L60.8331 57.4947L60.861 57.511L61.8233 58.0679L61.9841 57.786C62.6449 57.7559 63.2869 57.5561 63.8481 57.2058C66.2014 55.8474 68.1074 52.5458 68.1074 49.829C68.1309 49.1555 67.9792 48.4876 67.667 47.8904Z" fill="#263238"/>
<path d="M67.9562 54.645C69.6194 51.7642 69.6198 48.6506 67.9571 47.6907C66.2943 46.7307 63.5981 48.2878 61.9349 51.1686C60.2717 54.0494 60.2712 57.163 61.934 58.123C63.5967 59.0829 66.2929 57.5258 67.9562 54.645Z" fill="#263238"/>
<path d="M67.8019 54.5581C69.4651 51.6773 69.4655 48.5637 67.8028 47.6037C66.14 46.6438 63.4438 48.2009 61.7806 51.0817C60.1174 53.9625 60.1169 57.0761 61.7797 58.036C63.4424 58.996 66.1386 57.4389 67.8019 54.5581Z" fill="#37474F"/>
<path d="M65.2303 49.5386C65.1348 49.5735 65.0766 49.4943 65.0999 49.3615L65.2956 48.2291C65.3055 48.1655 65.33 48.1051 65.3672 48.0525C65.4044 48 65.4532 47.9567 65.5099 47.9262C65.6031 47.8913 65.6637 47.9705 65.6404 48.1033L65.4447 49.2334C65.4351 49.2974 65.4107 49.3583 65.3735 49.4113C65.3363 49.4643 65.2873 49.5078 65.2303 49.5386Z" fill="#BA68C8"/>
<path d="M63.6247 50.7618C63.6138 50.7675 63.6018 50.7709 63.5895 50.7716C63.5773 50.7723 63.565 50.7704 63.5535 50.766C63.542 50.7616 63.5316 50.7548 63.523 50.746C63.5144 50.7372 63.5077 50.7267 63.5035 50.7152L63.1866 49.9742C63.1728 49.9122 63.1743 49.8478 63.1909 49.7865C63.2076 49.7252 63.2389 49.6689 63.2821 49.6224C63.373 49.5152 63.4755 49.5012 63.5151 49.5875L63.832 50.3284C63.8459 50.39 63.8444 50.4541 63.8277 50.515C63.8111 50.576 63.7798 50.6319 63.7365 50.6779C63.7081 50.7161 63.6692 50.7452 63.6247 50.7618Z" fill="#BA68C8"/>
<path d="M62.3988 52.8695C62.3819 52.8727 62.3645 52.8727 62.3476 52.8695L61.6486 52.802C61.5647 52.802 61.5391 52.6761 61.5903 52.5387C61.6416 52.4012 61.7511 52.3057 61.8233 52.3057L62.5223 52.3732C62.6039 52.3732 62.6318 52.4991 62.5806 52.6365C62.5673 52.6855 62.5444 52.7313 62.5131 52.7713C62.4819 52.8113 62.4431 52.8447 62.3988 52.8695Z" fill="#BA68C8"/>
<path d="M61.1923 55.6924C61.1177 55.7203 61.0618 55.6807 61.0571 55.5875C61.0571 55.5215 61.0716 55.4564 61.0999 55.3967C61.1281 55.3371 61.1692 55.2845 61.2202 55.2427L62.0474 54.6112C62.1452 54.5367 62.2315 54.5693 62.2384 54.6858C62.238 54.7517 62.2232 54.8167 62.1951 54.8763C62.1669 54.9358 62.126 54.9885 62.0753 55.0306L61.2459 55.6621C61.2298 55.6751 61.2117 55.6854 61.1923 55.6924Z" fill="#BA68C8"/>
<path d="M61.9982 57.5834C61.984 57.5916 61.9679 57.5959 61.9516 57.5959C61.9352 57.5959 61.9191 57.5916 61.905 57.5834C61.8421 57.5345 61.8514 57.39 61.9259 57.2619L62.5597 56.1714C62.6343 56.0433 62.7461 55.9803 62.809 56.0293C62.8719 56.0782 62.8626 56.225 62.788 56.3531L62.1566 57.4413C62.1201 57.5042 62.0647 57.5539 61.9982 57.5834Z" fill="#BA68C8"/>
<path d="M63.809 57.7534C63.7134 57.7884 63.6552 57.7092 63.6785 57.5764L63.8742 56.4463C63.8837 56.3826 63.9078 56.3219 63.9446 56.2689C63.9813 56.216 64.0298 56.1722 64.0862 56.1411C64.1818 56.1061 64.24 56.1853 64.2167 56.3182L64.021 57.4505C64.011 57.5138 63.9867 57.574 63.9499 57.6265C63.9132 57.6789 63.865 57.7224 63.809 57.7534Z" fill="#BA68C8"/>
<path d="M65.924 56.1417C65.913 56.1474 65.9008 56.1507 65.8884 56.1512C65.876 56.1518 65.8637 56.1497 65.8522 56.145C65.8407 56.1404 65.8303 56.1333 65.8218 56.1243C65.8133 56.1153 65.8068 56.1045 65.8028 56.0928L65.4859 55.3635C65.4721 55.3019 65.4736 55.2378 65.4903 55.1769C65.5069 55.116 65.5382 55.06 65.5815 55.014C65.6723 54.9068 65.7772 54.8905 65.8145 54.9791L66.129 55.7177C66.1428 55.7797 66.1414 55.8441 66.1247 55.9054C66.1081 55.9667 66.0768 56.023 66.0335 56.0695C66.0031 56.1017 65.9656 56.1264 65.924 56.1417Z" fill="#BA68C8"/>
<path d="M67.5411 53.3598C67.5242 53.3631 67.5068 53.3631 67.4899 53.3598L66.7909 53.2922C66.7093 53.2922 66.6837 53.1664 66.735 53.0289C66.7862 52.8914 66.8934 52.7959 66.968 52.7959L67.667 52.8635C67.7508 52.8635 67.7765 52.9893 67.7252 53.1268C67.6964 53.2254 67.6304 53.3089 67.5411 53.3598Z" fill="#BA68C8"/>
<path d="M67.2133 51.1022C67.141 51.1302 67.0851 51.0882 67.0781 50.995C67.0786 50.9295 67.0934 50.8648 67.1216 50.8056C67.1498 50.7464 67.1906 50.6942 67.2412 50.6525L68.0707 50.0187C68.1686 49.9442 68.2524 49.9791 68.2618 50.0956C68.2601 50.161 68.2448 50.2252 68.2167 50.2842C68.1886 50.3433 68.1484 50.3957 68.0987 50.4381L67.2669 51.0719C67.2505 51.0845 67.2325 51.0947 67.2133 51.1022Z" fill="#BA68C8"/>
<path d="M66.6002 49.6684C66.5861 49.6765 66.57 49.6808 66.5536 49.6808C66.5373 49.6808 66.5212 49.6765 66.507 49.6684C66.4441 49.6194 66.4534 49.475 66.528 49.3468L67.1594 48.2564C67.234 48.1282 67.3458 48.0653 67.4111 48.1142C67.4763 48.1632 67.4647 48.31 67.3901 48.4381L66.7563 49.5262C66.7206 49.5889 66.6659 49.6386 66.6002 49.6684Z" fill="#BA68C8"/>
<path d="M66.8584 50.2934C66.453 49.6922 65.6795 49.5711 64.7917 50.0837C63.4869 50.8386 62.4268 52.6747 62.4268 54.1822C62.4268 55.261 62.9673 55.8761 63.7525 55.8691L65.5723 55.911L67.8627 51.717L66.8584 50.2934Z" fill="#263238"/>
<path d="M66.334 51.6003C65.821 51.9371 65.3946 52.39 65.0894 52.9224C64.7841 53.4547 64.6087 54.0515 64.5771 54.6643C64.5771 55.7897 65.367 56.2441 66.341 55.6825C66.8543 55.3477 67.2815 54.8967 67.5879 54.366C67.8944 53.8353 68.0714 53.2398 68.1048 52.6279C68.1048 51.4955 67.3149 51.0388 66.334 51.6003Z" fill="#455A64"/>
<path d="M74.7554 43.9762C74.771 43.594 74.6818 43.2149 74.4974 42.8797C74.313 42.5446 74.0404 42.2663 73.7092 42.0749L70.5544 40.2552H70.5404C70.3899 40.1894 70.2249 40.1638 70.0615 40.181C69.8981 40.1981 69.742 40.2574 69.6084 40.3531C69.2175 40.6084 68.8925 40.9526 68.66 41.3575C68.4276 41.7625 68.2943 42.2167 68.271 42.6831C68.271 43.1491 68.4574 43.4799 68.7533 43.5918H68.7719L71.801 44.5518C72.1289 44.6557 72.4174 44.8573 72.6276 45.1296C72.8379 45.4019 72.96 45.732 72.9776 46.0756L73.3248 52.546C73.3339 52.6848 73.3954 52.8149 73.4968 52.9099C73.5983 53.005 73.7321 53.0579 73.8712 53.0579C74.0102 53.0579 74.1441 53.005 74.2455 52.9099C74.347 52.8149 74.4085 52.6848 74.4176 52.546L74.7554 43.9762Z" fill="#263238"/>
<path d="M75.6776 14.6641C75.6776 14.6641 71.7515 20.5054 71.0921 21.943C70.8707 22.43 70.6797 22.6863 71.4765 23.5065C72.2734 24.3266 75.2046 26.7685 75.4911 27.1343C75.7777 27.5001 75.7661 28.0663 75.9874 28.5673C76.2088 29.0682 75.9548 30.408 76.1552 31.2328C76.3556 32.0576 78.5178 30.846 78.5178 28.7373C78.5178 27.5537 78.5574 26.8733 77.8351 26.3165C77.1128 25.7596 74.1071 22.2366 74.1071 22.2366L76.8379 18.1195L75.6776 14.6641Z" fill="#FFA8A7"/>
<path d="M76.4863 19.2923C77.4183 18.0643 78.9491 16.2446 78.9491 16.2446C79.6621 15.2497 80.2422 12.675 79.1145 11.8176C78.3503 11.7034 77.628 11.7244 76.5515 13.0618C75.475 14.3992 74.4195 15.8765 73.3011 17.5191C72.1827 19.1618 70.6938 21.5524 70.6938 22.4121C70.6938 23.2719 72.4274 24.7072 73.9908 25.772C74.0995 25.3546 74.3357 24.9814 74.6665 24.7045C74.9972 24.4277 75.4061 24.2608 75.8362 24.2272L74.3683 22.1745C74.3683 22.1745 75.5566 20.5202 76.4863 19.2923Z" fill="#BA68C8"/>
<path opacity="0.05" d="M76.4863 19.2923C77.4183 18.0643 78.9491 16.2446 78.9491 16.2446C79.6621 15.2497 80.2422 12.675 79.1145 11.8176C78.3503 11.7034 77.628 11.7244 76.5515 13.0618C75.475 14.3992 74.4195 15.8765 73.3011 17.5191C72.1827 19.1618 70.6938 21.5524 70.6938 22.4121C70.6938 23.2719 72.4274 24.7072 73.9908 25.772C74.0995 25.3546 74.3357 24.9814 74.6665 24.7045C74.9972 24.4277 75.4061 24.2608 75.8362 24.2272L74.3683 22.1745C74.3683 22.1745 75.5566 20.5202 76.4863 19.2923Z" fill="black"/>
<path d="M76.5864 13.6192C76.7961 13.6482 76.9977 13.7191 77.1794 13.8275C77.3611 13.936 77.5192 14.0799 77.6443 14.2506L77.6839 14.1877C77.705 14.1562 77.7147 14.1185 77.7113 14.0807C77.7079 14.043 77.6916 14.0075 77.6652 13.9803C77.4387 13.7256 77.1394 13.5467 76.8078 13.4677C76.776 13.4617 76.7432 13.4651 76.7134 13.4776C76.6836 13.49 76.6581 13.5109 76.64 13.5376L76.5864 13.6192Z" fill="#37474F"/>
<path d="M77.0823 14.8742C76.8703 15.198 76.5021 15.3402 76.2575 15.1724C76.0128 15.0046 75.9872 14.6225 76.1992 14.2963C76.4113 13.9701 76.7817 13.8303 77.0241 13.9981C77.2664 14.1658 77.285 14.5503 77.0823 14.8742Z" fill="#37474F"/>
<path d="M46.092 73.0234L20.0844 58.0088L7.08057 65.5161L33.0882 80.5307L46.092 73.0234Z" fill="#BA68C8"/>
<path opacity="0.15" d="M8.44873 65.5163L33.0886 79.7293L44.7247 73.0119L20.0848 58.7988L8.44873 65.5163ZM9.13376 65.5163L20.0848 59.1926L44.0397 73.0212L33.0886 79.3449L9.13376 65.5163Z" fill="black"/>
<g opacity="0.15">
<path d="M27.0728 73.1559C25.2996 73.1559 23.4822 72.7481 22.0795 71.9373C20.7141 71.1498 19.9336 70.0733 19.9336 68.9898C19.9336 67.9926 20.5743 67.0746 21.737 66.4012C24.2231 64.9682 28.4195 65.0568 31.0944 66.5992C32.4574 67.3868 33.2403 68.4632 33.2403 69.549C33.2403 70.5439 32.5995 71.4643 31.4369 72.1353C30.2742 72.8064 28.6828 73.1559 27.0728 73.1559ZM26.1011 65.6136C24.533 65.6136 23.0046 65.9422 21.8535 66.6062C20.7654 67.2353 20.1666 68.0811 20.1666 68.9922C20.1666 69.9917 20.9052 70.9936 22.196 71.7392C24.8057 73.2444 28.8995 73.3353 31.3204 71.9373C32.4085 71.3082 33.0073 70.4601 33.0073 69.5514C33.0073 68.5495 32.2687 67.5499 30.9779 66.8043C29.6078 66.0121 27.83 65.6136 26.1011 65.6136Z" fill="black"/>
</g>
<g opacity="0.1">
<path d="M27.0724 72.3172C25.3878 72.3172 23.7219 71.9141 22.501 71.2081C21.4035 70.5743 20.7744 69.7658 20.7744 68.9899C20.7744 68.3072 21.266 67.6478 22.1584 67.1259C23.1767 66.5387 24.577 66.2148 26.1008 66.2148C27.7854 66.2148 29.4514 66.6203 30.6723 67.3239C31.7697 67.9577 32.3989 68.7662 32.3989 69.5444C32.3989 70.2271 31.9072 70.8865 31.0148 71.4084C29.9966 71.9933 28.5869 72.3172 27.0724 72.3172Z" fill="black"/>
</g>
<path opacity="0.1" d="M31.7183 77.9622L24.5698 73.8078L25.143 73.8824C25.6546 73.9477 26.1698 73.9804 26.6855 73.9802C28.4239 73.9489 30.1293 73.4997 31.6577 72.6708C32.9229 71.9415 34.1998 70.6343 34.1998 69.3621C34.1971 68.9184 34.0985 68.4804 33.9109 68.0783L33.7571 67.7451L41.5859 72.291L40.7285 72.7873C40.584 72.8712 40.4955 72.9737 40.4955 73.0808C40.5049 73.146 40.5315 73.2075 40.5724 73.2591C40.6133 73.3106 40.6672 73.3504 40.7285 73.3744L41.5882 73.8707L34.4561 77.9622L33.7128 77.5265C33.5183 77.4289 33.3036 77.3781 33.086 77.3781C32.8684 77.3781 32.6538 77.4289 32.4592 77.5265L31.7183 77.9622Z" fill="black"/>
<path d="M34.8781 75.0528C34.4621 75.0591 34.0514 74.9589 33.6851 74.7615C33.5369 74.6939 33.409 74.5886 33.3141 74.4562C33.2193 74.3237 33.1608 74.1687 33.1445 74.0066C33.1543 73.8628 33.2027 73.7243 33.2847 73.6057C33.3668 73.4872 33.4793 73.393 33.6105 73.3332C33.9615 73.1646 34.3472 73.0807 34.7365 73.0884C35.1259 73.0961 35.508 73.1951 35.852 73.3775C36.0005 73.4453 36.1287 73.551 36.2235 73.6839C36.3184 73.8168 36.3767 73.9723 36.3926 74.1348C36.3831 74.2787 36.3348 74.4173 36.2527 74.5359C36.1706 74.6545 36.0579 74.7486 35.9266 74.8081C35.6034 74.9772 35.2426 75.0614 34.8781 75.0528Z" fill="#BA68C8"/>
<path opacity="0.1" d="M19.4321 70.7908L11.6195 66.2892L12.477 65.7953C12.5418 65.7778 12.5991 65.7395 12.6399 65.6862C12.6807 65.6329 12.7029 65.5677 12.7029 65.5005C12.7029 65.4334 12.6807 65.3681 12.6399 65.3149C12.5991 65.2616 12.5418 65.2232 12.477 65.2058L11.6172 64.7095L18.7377 60.6553L19.4787 61.084C19.6729 61.1812 19.8871 61.2318 20.1043 61.2318C20.3214 61.2318 20.5356 61.1812 20.7299 61.084L21.4731 60.6553L28.6193 64.7677L28.0415 64.6932C27.5291 64.6277 27.0131 64.595 26.4967 64.5953C24.8027 64.5953 22.7803 65.1056 21.4615 65.8675C19.8165 66.8182 18.9824 67.8364 18.9824 68.8965C18.9877 69.4315 19.0895 69.9611 19.2829 70.46L19.4321 70.7908Z" fill="black"/>
<path d="M18.5011 65.6415C18.0844 65.6475 17.673 65.5473 17.3058 65.3503C17.1577 65.2821 17.0301 65.1764 16.9356 65.0435C16.8412 64.9106 16.7832 64.7553 16.7676 64.593C16.7772 64.4495 16.8257 64.3112 16.9077 64.193C16.9898 64.0748 17.1024 63.9811 17.2336 63.922C17.5844 63.7527 17.9702 63.6686 18.3596 63.6763C18.749 63.684 19.1312 63.7833 19.4751 63.9662C19.6232 64.0344 19.7508 64.1401 19.8453 64.273C19.9397 64.4059 19.9976 64.5612 20.0133 64.7235C20.0034 64.867 19.9549 65.0051 19.8728 65.1233C19.7908 65.2414 19.6783 65.3352 19.5473 65.3945C19.2255 65.5651 18.8652 65.6501 18.5011 65.6415Z" fill="#BA68C8"/>
<path d="M46.0927 73.0225V76.182L33.0889 83.6893V80.5298L46.0927 73.0225Z" fill="#BA68C8"/>
<g opacity="0.4">
<path d="M46.0922 73.0225V76.182L33.0884 83.6893V80.5298L46.0922 73.0225Z" fill="white"/>
</g>
<path d="M33.0889 81.2346L37.1944 78.9512L33.0889 81.4256V81.2346Z" fill="#BA68C8"/>
<path d="M46.0927 74.5234L44.7227 75.3925L46.0927 74.6819V74.5234Z" fill="#BA68C8"/>
<path d="M46.0923 75.2754L39.249 79.3436L46.0923 75.5084V75.2754Z" fill="#BA68C8"/>
<path d="M33.0889 81.9864L39.9321 78.1582L33.0889 82.2357V81.9864Z" fill="#BA68C8"/>
<path d="M33.0882 83.6897L7.08057 68.6751V65.5156L33.0882 80.5302V83.6897Z" fill="#BA68C8"/>
<g opacity="0.15">
<path d="M33.0882 83.6888L7.08057 68.6742V65.5146L33.0882 80.5293V83.6888Z" fill="black"/>
</g>
<g style="mix-blend-mode:multiply" opacity="0.3">
<path d="M33.0888 81.2349L31.7188 80.5312L33.0888 81.426V81.2349Z" fill="black"/>
</g>
<g style="mix-blend-mode:multiply" opacity="0.3">
<path d="M33.0889 81.9855L26.2061 78.1387L33.0889 82.2348V81.9855Z" fill="black"/>
</g>
<g style="mix-blend-mode:multiply" opacity="0.3">
<path d="M7.08154 67.0029L11.8721 69.8619L7.08154 67.1893V67.0029Z" fill="black"/>
</g>
<g style="mix-blend-mode:multiply" opacity="0.3">
<path d="M7.08154 67.7979L9.81931 69.4685L7.08154 67.9749V67.7979Z" fill="black"/>
</g>
<path d="M35.3533 66.2987L21.8975 74.0693L17.792 71.6997L31.2478 63.9268L35.3533 66.2987Z" fill="#FAFAFA"/>
<path d="M17.792 71.6992V75.1383L21.8975 77.5079V74.0688L17.792 71.6992Z" fill="#EBEBEB"/>
<path d="M21.8975 77.5087L22.1375 77.3689L21.8975 77.2314V77.5087Z" fill="#E0E0E0"/>
<path d="M35.3533 66.2979V66.8221L34.8989 66.5588L35.3533 66.2979Z" fill="#E0E0E0"/>
<g style="mix-blend-mode:multiply" opacity="0.3">
<path d="M22.1379 77.3663V74.2091L21.8979 74.0693V77.2288L22.1379 77.3663Z" fill="black"/>
</g>
<g style="mix-blend-mode:multiply" opacity="0.2">
<path d="M22.1379 74.209L35.1417 66.6994L34.8994 66.5596L21.8979 74.0692L22.1379 74.209Z" fill="black"/>
</g>
<path d="M34.913 66.0424L21.4525 73.813L21.1123 73.6149L34.5681 65.8467L34.913 66.0424Z" fill="#455A64"/>
<path d="M32.0356 64.3842L18.5775 72.1525L18.2373 71.9567L31.6931 64.1885L32.0356 64.3842Z" fill="#455A64"/>
<path d="M21.4525 73.8133V77.2524L21.1123 77.0543V73.6152L21.4525 73.8133Z" fill="#263238"/>
<path d="M18.5774 72.1508V75.5899L18.2349 75.3918L18.2372 71.9551L18.5774 72.1508Z" fill="#263238"/>
<path d="M46.092 69.2998L20.0844 54.2852L7.08057 61.7925L33.0882 76.8071L46.092 69.2998Z" fill="#BA68C8"/>
<path opacity="0.15" d="M8.44873 61.7926L33.0886 76.0057L44.7247 69.2883L20.0848 55.0752L8.44873 61.7926ZM9.13376 61.7926L20.0848 55.4713L44.0397 69.2999L33.0886 75.6236L9.13376 61.7926Z" fill="black"/>
<g opacity="0.15">
<path d="M27.0723 69.435C25.2991 69.435 23.4817 69.0249 22.079 68.2164C20.7137 67.4288 19.9331 66.3524 19.9331 65.2666C19.9331 64.2717 20.5739 63.3513 21.7365 62.6803C24.2227 61.245 28.419 61.3335 31.0939 62.8783C32.4569 63.6659 33.2398 64.7423 33.2398 65.8281C33.2398 66.823 32.5991 67.7411 31.4364 68.4144C30.2737 69.0878 28.6823 69.435 27.0723 69.435ZM26.1007 61.8857C24.5326 61.8857 23.0041 62.2143 21.853 62.8806C20.7649 63.5074 20.1661 64.3555 20.1661 65.2643C20.1661 66.2662 20.9047 67.2681 22.1956 68.0113C24.8052 69.5189 28.899 69.6074 31.3199 68.2094C32.408 67.5803 33.0068 66.7345 33.0068 65.8258C33.0068 64.8239 32.2682 63.822 30.9774 63.0764C29.6073 62.2888 27.8295 61.8857 26.1007 61.8857Z" fill="black"/>
</g>
<g opacity="0.1">
<path d="M27.0724 68.5958C25.3878 68.5958 23.7219 68.1904 22.501 67.4868C21.4035 66.853 20.7744 66.0445 20.7744 65.2663C20.7744 64.5836 21.266 63.9242 22.1584 63.4022C23.1767 62.8151 24.577 62.4912 26.1008 62.4912C27.7854 62.4912 29.4514 62.8943 30.6723 63.6003C31.7697 64.2341 32.3989 65.0426 32.3989 65.8208C32.3989 66.5035 31.9072 67.1629 31.0148 67.6848C29.9966 68.272 28.5869 68.5958 27.0724 68.5958Z" fill="black"/>
</g>
<path opacity="0.1" d="M31.7183 74.2353L24.5698 70.0832L25.143 70.1578C25.6546 70.2231 26.1698 70.2558 26.6855 70.2556C28.4239 70.2243 30.1293 69.7751 31.6577 68.9462C32.9229 68.2169 34.1998 66.9097 34.1998 65.6352C34.1968 65.1922 34.0983 64.7551 33.9109 64.3537L33.7571 64.0205L41.5859 68.564L40.7285 69.0603C40.6674 69.0847 40.6138 69.1247 40.573 69.1762C40.5321 69.2276 40.5054 69.2889 40.4955 69.3539C40.5045 69.4195 40.5309 69.4814 40.5718 69.5334C40.6128 69.5855 40.6669 69.6256 40.7285 69.6498L41.5882 70.1461L34.4561 74.2353L33.7128 73.8066C33.5183 73.709 33.3036 73.6582 33.086 73.6582C32.8684 73.6582 32.6538 73.709 32.4592 73.8066L31.7183 74.2353Z" fill="black"/>
<path d="M34.8781 71.331C34.4621 71.3373 34.0514 71.237 33.6851 71.0397C33.5366 70.9719 33.4084 70.8663 33.3136 70.7334C33.2187 70.6005 33.1604 70.445 33.1445 70.2825C33.1547 70.139 33.2033 70.001 33.2853 69.8829C33.3673 69.7648 33.4797 69.671 33.6105 69.6114C33.9614 69.4422 34.3471 69.358 34.7366 69.3657C35.126 69.3734 35.5081 69.4728 35.852 69.6557C36.0005 69.7235 36.1287 69.8291 36.2235 69.962C36.3184 70.0949 36.3767 70.2504 36.3926 70.413C36.3829 70.5565 36.3345 70.6948 36.2524 70.813C36.1704 70.9311 36.0577 71.0248 35.9266 71.084C35.604 71.2549 35.243 71.34 34.8781 71.331Z" fill="#BA68C8"/>
<path opacity="0.1" d="M19.4321 67.0695L11.6195 62.5679L12.477 62.0717C12.5383 62.0476 12.5921 62.0078 12.633 61.9563C12.674 61.9047 12.7005 61.8432 12.71 61.7781C12.71 61.6709 12.6307 61.5684 12.477 61.4845L11.6172 60.9859L18.7377 56.9316L19.4787 57.3627C19.6732 57.4587 19.8873 57.5086 20.1043 57.5086C20.3212 57.5086 20.5353 57.4587 20.7299 57.3627L21.4731 56.934L28.6193 61.0488L28.0415 60.9742C27.5292 60.9079 27.0132 60.8745 26.4967 60.874C24.8027 60.874 22.7803 61.3866 21.4615 62.1485C19.8165 63.0992 18.9824 64.1174 18.9824 65.1776C18.9882 65.7125 19.09 66.242 19.2829 66.741L19.4321 67.0695Z" fill="black"/>
<path d="M18.5011 61.9201C18.0844 61.9261 17.673 61.8259 17.3058 61.6288C17.1577 61.5607 17.0301 61.4549 16.9356 61.3221C16.8412 61.1892 16.7832 61.0339 16.7676 60.8716C16.7771 60.7277 16.8254 60.589 16.9075 60.4705C16.9895 60.3519 17.1022 60.2578 17.2336 60.1982C17.5846 60.0293 17.9705 59.9456 18.3599 59.9537C18.7493 59.9618 19.1314 60.0615 19.4751 60.2448C19.6228 60.3127 19.7503 60.4182 19.8447 60.5506C19.9391 60.683 19.9972 60.8379 20.0133 60.9997C20.0038 61.1436 19.9555 61.2823 19.8734 61.4009C19.7913 61.5195 19.6786 61.6135 19.5473 61.6731C19.2255 61.8436 18.8652 61.9287 18.5011 61.9201Z" fill="#BA68C8"/>
<path d="M46.0927 69.3008V72.4626L33.0889 79.9699V76.8081L46.0927 69.3008Z" fill="#BA68C8"/>
<g opacity="0.4">
<path d="M46.0927 69.2988V72.4607L33.0889 79.968V76.8061L46.0927 69.2988Z" fill="white"/>
</g>
<path d="M33.0889 77.5133L37.1944 75.2275L33.0889 77.7043V77.5133Z" fill="#BA68C8"/>
<path d="M46.0927 70.8018L44.7227 71.6709L46.0927 70.9602V70.8018Z" fill="#BA68C8"/>
<path d="M46.0923 71.5547L39.249 75.6229L46.0923 71.7877V71.5547Z" fill="#BA68C8"/>
<path d="M33.0889 78.2657L39.9321 74.4375L33.0889 78.5127V78.2657Z" fill="#BA68C8"/>
<path d="M33.0882 79.9684L7.08057 64.9538V61.792L33.0882 76.8066V79.9684Z" fill="#BA68C8"/>
<g opacity="0.15">
<path d="M33.0892 79.9674L7.08154 64.9528V61.791L33.0892 76.8056V79.9674Z" fill="black"/>
</g>
<g style="mix-blend-mode:multiply" opacity="0.3">
<path d="M33.0888 77.5136L31.7188 76.8076L33.0888 77.7047V77.5136Z" fill="black"/>
</g>
<g style="mix-blend-mode:multiply" opacity="0.3">
<path d="M33.0889 78.2658L26.2061 74.4189L33.0889 78.5128V78.2658Z" fill="black"/>
</g>
<g style="mix-blend-mode:multiply" opacity="0.3">
<path d="M7.08057 63.2812L11.8711 66.1402L7.08057 63.4677V63.2812Z" fill="black"/>
</g>
<g style="mix-blend-mode:multiply" opacity="0.3">
<path d="M7.08057 64.0762L9.81833 65.7445L7.08057 64.2533V64.0762Z" fill="black"/>
</g>
<path d="M35.3533 62.5757L21.8975 70.3463L17.792 67.9767L31.2478 60.2061L35.3533 62.5757Z" fill="#FAFAFA"/>
<path d="M17.792 67.9766V71.4157L21.8975 73.7853V70.3462L17.792 67.9766Z" fill="#EBEBEB"/>
<path d="M21.8975 73.7851L22.1375 73.6476L21.8975 73.5078V73.7851Z" fill="#E0E0E0"/>
<path d="M35.3533 62.5742V63.1008L34.8989 62.8375L35.3533 62.5742Z" fill="#E0E0E0"/>
<g style="mix-blend-mode:multiply" opacity="0.3">
<path d="M22.1375 73.645V70.4855L21.8975 70.3457V73.5075L22.1375 73.645Z" fill="black"/>
</g>
<g style="mix-blend-mode:multiply" opacity="0.2">
<path d="M22.1375 70.484L35.1413 62.9767L34.8989 62.8369L21.8975 70.3442L22.1375 70.484Z" fill="black"/>
</g>
<path d="M34.913 62.3211L21.4525 70.0894L21.1123 69.8936L34.5681 62.123L34.913 62.3211Z" fill="#455A64"/>
<path d="M32.0356 60.6629L18.5775 68.4312L18.2373 68.2331L31.6931 60.4648L32.0356 60.6629Z" fill="#455A64"/>
<path d="M21.4525 70.0893V73.5307L21.1123 73.3327V69.8936L21.4525 70.0893Z" fill="#263238"/>
<path d="M18.5774 68.4295V71.8686L18.2349 71.6705L18.2372 68.2314L18.5774 68.4295Z" fill="#263238"/>
</svg>
