<svg width="113" height="97" viewBox="0 0 113 97" fill="none" xmlns="http://www.w3.org/2000/svg">
<path d="M13.2983 9.53711V90.546" stroke="#263238" stroke-width="0.272933" stroke-miterlimit="10"/>
<path d="M13.2983 6.41309V7.96312" stroke="#263238" stroke-width="0.272933" stroke-miterlimit="10"/>
<path d="M42.7974 6.41309V90.5451" stroke="#263238" stroke-width="0.272933" stroke-miterlimit="10"/>
<path d="M72.2969 6.41309V90.5451" stroke="#263238" stroke-width="0.272933" stroke-miterlimit="10"/>
<path d="M101.796 18.4082V90.5448" stroke="#263238" stroke-width="0.272933" stroke-miterlimit="10"/>
<path d="M101.796 6.41309V16.3865" stroke="#263238" stroke-width="0.272933" stroke-miterlimit="10"/>
<path d="M86.2051 17.9092H18.6538V57.944H86.2051V17.9092Z" fill="#263238"/>
<path d="M85.8235 19.0479H19.0356V56.8062H85.8235V19.0479Z" fill="white" stroke="#263238" stroke-width="0.272933" stroke-linecap="round" stroke-linejoin="round"/>
<path d="M86.5844 17.2246H17.8833V19.3715H86.5844V17.2246Z" fill="#263238"/>
<path d="M53.1871 17.1946C54.254 17.1946 55.1189 16.3297 55.1189 15.2628C55.1189 14.1959 54.254 13.3311 53.1871 13.3311C52.1202 13.3311 51.2554 14.1959 51.2554 15.2628C51.2554 16.3297 52.1202 17.1946 53.1871 17.1946Z" fill="white" stroke="#263238" stroke-width="0.272933" stroke-linecap="round" stroke-linejoin="round"/>
<path d="M54.2048 15.2627C54.2053 15.4641 54.146 15.6611 54.0344 15.8288C53.9228 15.9966 53.764 16.1274 53.578 16.2048C53.3921 16.2822 53.1873 16.3027 52.9897 16.2637C52.7921 16.2246 52.6105 16.1279 52.4679 15.9856C52.3253 15.8433 52.2281 15.662 52.1887 15.4644C52.1492 15.2669 52.1692 15.0621 52.2462 14.876C52.3232 14.6899 52.4537 14.5307 52.6211 14.4188C52.7886 14.3068 52.9854 14.2471 53.1869 14.2471C53.4564 14.2471 53.715 14.354 53.9058 14.5444C54.0967 14.7348 54.2042 14.9931 54.2048 15.2627Z" fill="#92E3A9" stroke="#263238" stroke-width="0.272933" stroke-miterlimit="10"/>
<path d="M31.1627 43.5684H22.9082V35.1982H36.9464V43.5684H32.7336" stroke="#263238" stroke-width="0.272933" stroke-miterlimit="10"/>
<path d="M45.1895 47.5752H33.9854V54.2565H45.1895V47.5752Z" stroke="#263238" stroke-width="0.272933" stroke-miterlimit="10"/>
<path d="M57.5553 35.1982H58.9689V43.5684H44.9307V35.1982H56.2089" stroke="#263238" stroke-width="0.272933" stroke-miterlimit="10"/>
<path d="M46.0989 22.9629H62.5755V31.3354H41.3262V22.9629H44.528" stroke="#263238" stroke-width="0.272933" stroke-miterlimit="10"/>
<path d="M80.8634 35.1982H66.8252V43.5684H80.8634V35.1982Z" stroke="#263238" stroke-width="0.272933" stroke-miterlimit="10"/>
<path d="M40.1668 27.0859C40.1668 27.0859 32.7174 28.1201 28.3403 34.4312" stroke="#263238" stroke-width="0.272933" stroke-miterlimit="10"/>
<path d="M35.4014 44.4717L36.3869 47.3497" stroke="#263238" stroke-width="0.272933" stroke-miterlimit="10"/>
<path d="M45.5756 44.2119L44.6733 46.9164" stroke="#263238" stroke-width="0.272933" stroke-miterlimit="10"/>
<path d="M35.3042 46.4003L36.3869 47.3488L36.6576 46.0625" stroke="#263238" stroke-width="0.272933" stroke-miterlimit="10"/>
<path d="M44.2319 46.0625L44.6368 47.1452L45.7866 46.4674" stroke="#263238" stroke-width="0.272933" stroke-miterlimit="10"/>
<path d="M28.5416 33.1465L28.3403 34.4305L29.7585 33.5513" stroke="#263238" stroke-width="0.272933" stroke-miterlimit="10"/>
<path d="M59.3809 39.1641H66.4138" stroke="#263238" stroke-width="0.272933" stroke-miterlimit="10"/>
<path d="M64.9263 38.2852L66.4832 39.1643L65.0628 40.0434" stroke="#263238" stroke-width="0.272933" stroke-miterlimit="10"/>
<path d="M37.1802 39.1641H44.2132" stroke="#263238" stroke-width="0.272933" stroke-miterlimit="10"/>
<path d="M42.7256 38.2852L44.2802 39.1643L42.8621 40.0434" stroke="#263238" stroke-width="0.272933" stroke-miterlimit="10"/>
<path d="M51.8989 32.0039V34.1439" stroke="#263238" stroke-width="0.272933" stroke-miterlimit="10"/>
<path d="M52.7755 32.6543L51.8963 34.2113L51.0195 32.7908" stroke="#263238" stroke-width="0.272933" stroke-miterlimit="10"/>
<path d="M66.3466 41.6924H59.582" stroke="#263238" stroke-width="0.272933" stroke-miterlimit="10"/>
<path d="M61.0116 40.8135L59.5171 41.6926L60.882 42.5717" stroke="#263238" stroke-width="0.272933" stroke-miterlimit="10"/>
<path d="M45.7192 25.5723H58.4341" stroke="#263238" stroke-width="0.272933" stroke-miterlimit="10"/>
<path d="M45.7192 26.79H58.4341" stroke="#263238" stroke-width="0.272933" stroke-miterlimit="10"/>
<path d="M45.7192 28.0059H58.4341" stroke="#263238" stroke-width="0.272933" stroke-miterlimit="10"/>
<path d="M24.2129 38.2852H35.6438" stroke="#263238" stroke-width="0.272933" stroke-miterlimit="10"/>
<path d="M24.2129 39.5039H35.6438" stroke="#263238" stroke-width="0.272933" stroke-miterlimit="10"/>
<path d="M24.2129 40.7217H35.6438" stroke="#263238" stroke-width="0.272933" stroke-miterlimit="10"/>
<path d="M46.3975 38.2852H57.8261" stroke="#263238" stroke-width="0.272933" stroke-miterlimit="10"/>
<path d="M46.3975 39.5039H57.8261" stroke="#263238" stroke-width="0.272933" stroke-miterlimit="10"/>
<path d="M46.3975 40.7217H57.8261" stroke="#263238" stroke-width="0.272933" stroke-miterlimit="10"/>
<path d="M67.7671 38.2852H79.1957" stroke="#263238" stroke-width="0.272933" stroke-miterlimit="10"/>
<path d="M67.7671 39.5039H79.1957" stroke="#263238" stroke-width="0.272933" stroke-miterlimit="10"/>
<path d="M67.7671 40.7217H79.1957" stroke="#263238" stroke-width="0.272933" stroke-miterlimit="10"/>
<path d="M35.4404 49.8506H44.1646" stroke="#263238" stroke-width="0.272933" stroke-miterlimit="10"/>
<path d="M35.4404 51.0674H44.1646" stroke="#263238" stroke-width="0.272933" stroke-miterlimit="10"/>
<path d="M35.4404 52.2861H44.1646" stroke="#263238" stroke-width="0.272933" stroke-miterlimit="10"/>
<path d="M74.1262 26.6345C74.1015 26.6339 74.0776 26.6255 74.058 26.6103C74.0384 26.5951 74.0242 26.5741 74.0175 26.5503C74.0108 26.5265 74.0119 26.5011 74.0206 26.478C74.0294 26.4548 74.0453 26.4351 74.0661 26.4216L74.154 26.3661L74.1216 26.3846C74.0959 26.3957 74.067 26.3971 74.0403 26.3886C74.0136 26.38 73.9909 26.362 73.9765 26.338C73.9621 26.3139 73.9569 26.2855 73.9619 26.2579C73.9669 26.2303 73.9817 26.2054 74.0036 26.188L74.4663 25.8942L74.0615 26.1255C74.0356 26.1385 74.0057 26.1413 73.9778 26.1333C73.95 26.1253 73.9261 26.1072 73.911 26.0825C73.8958 26.0577 73.8905 26.0282 73.8961 25.9998C73.9017 25.9713 73.9178 25.946 73.9412 25.9289L74.7694 25.3875L73.9851 25.8502C73.9592 25.8649 73.9286 25.869 73.8997 25.8616C73.8709 25.8543 73.8459 25.8361 73.8301 25.8109C73.8149 25.7851 73.81 25.7546 73.8164 25.7254C73.8229 25.6962 73.8402 25.6705 73.8648 25.6536L75.1557 24.7906L73.8972 25.5148C73.8719 25.5295 73.8419 25.5339 73.8134 25.527C73.7849 25.5201 73.7603 25.5024 73.7445 25.4777C73.7362 25.4656 73.7304 25.452 73.7275 25.4376C73.7245 25.4232 73.7244 25.4084 73.7272 25.394C73.73 25.3795 73.7356 25.3658 73.7438 25.3536C73.7519 25.3414 73.7624 25.3309 73.7746 25.3227L75.711 23.9346L73.7769 25.0521C73.751 25.0667 73.7204 25.0708 73.6915 25.0635C73.6626 25.0562 73.6377 25.038 73.6219 25.0127C73.606 24.9878 73.6005 24.9576 73.6066 24.9286C73.6126 24.8997 73.6297 24.8742 73.6543 24.8577L75.0424 23.8953L73.6774 24.6842C73.6523 24.6986 73.6226 24.703 73.5943 24.6966C73.566 24.6902 73.5412 24.6734 73.5247 24.6495C73.5088 24.6246 73.5033 24.5944 73.5094 24.5654C73.5154 24.5365 73.5326 24.511 73.5571 24.4945L74.3437 23.9647L73.6011 24.3927C73.5752 24.4074 73.5446 24.4115 73.5157 24.4041C73.4868 24.3968 73.4619 24.3786 73.4461 24.3534C73.4304 24.3282 73.4253 24.2978 73.4317 24.2688C73.4382 24.2398 73.4558 24.2145 73.4808 24.1984L73.9874 23.856L73.5247 24.122C73.4995 24.1338 73.4708 24.1361 73.444 24.1284C73.4172 24.1208 73.3941 24.1037 73.3789 24.0803C73.3636 24.0569 73.3574 24.0289 73.3612 24.0012C73.3651 23.9736 73.3788 23.9483 73.3998 23.93L74.7532 22.9283L73.4137 23.701C73.3883 23.7146 73.3587 23.7183 73.3308 23.7112C73.3028 23.7042 73.2785 23.687 73.2626 23.6629C73.2467 23.6389 73.2403 23.6098 73.2447 23.5813C73.2491 23.5529 73.264 23.527 73.2865 23.509L74.4848 22.5836L73.2934 23.2614C73.2676 23.2757 73.2374 23.2799 73.2087 23.273C73.18 23.2662 73.1549 23.2488 73.1384 23.2244C73.1223 23.1997 73.1164 23.1697 73.122 23.1408C73.1276 23.1119 73.1443 23.0863 73.1685 23.0694L73.7538 22.6368L73.2124 22.9514C73.1866 22.9657 73.1564 22.9699 73.1277 22.963C73.099 22.9562 73.074 22.9388 73.0574 22.9144C73.0416 22.8898 73.0357 22.8602 73.0408 22.8314C73.046 22.8027 73.0618 22.777 73.0852 22.7594L73.5641 22.3962L73.1314 22.646C73.1061 22.6608 73.0761 22.6652 73.0476 22.6583C73.0192 22.6514 72.9945 22.6337 72.9788 22.609C72.9625 22.585 72.9558 22.5557 72.9601 22.527C72.9644 22.4983 72.9793 22.4722 73.0019 22.454L73.2332 22.2666L73.0482 22.373C73.0253 22.3866 72.9985 22.3917 72.9723 22.3875C72.946 22.3832 72.9221 22.37 72.9047 22.3499C72.8884 22.3291 72.8795 22.3035 72.8795 22.277C72.8795 22.2506 72.8884 22.2249 72.9047 22.2042L73.2703 21.7415L72.9371 21.9335C72.9182 21.9459 72.8961 21.9525 72.8735 21.9525C72.8509 21.9525 72.8288 21.9459 72.8099 21.9335C72.7922 21.92 72.7786 21.9017 72.7708 21.8808C72.7631 21.86 72.7614 21.8373 72.7659 21.8155L72.8006 21.6744C72.781 21.6731 72.762 21.6671 72.7451 21.6571C72.7282 21.647 72.714 21.6331 72.7035 21.6165C72.6891 21.5897 72.6856 21.5584 72.6938 21.529C72.702 21.4997 72.7212 21.4747 72.7474 21.4592L72.914 21.3621C72.9335 21.3512 72.9558 21.3462 72.9782 21.3478C73.0005 21.3493 73.0219 21.3573 73.0398 21.3708C73.0577 21.3842 73.0712 21.4026 73.0789 21.4236C73.0865 21.4447 73.0879 21.4675 73.0829 21.4893L73.0528 21.6073L73.6635 21.2556C73.6868 21.2428 73.7137 21.2384 73.7398 21.243C73.7659 21.2477 73.7896 21.2612 73.807 21.2812C73.8243 21.3013 73.8343 21.3267 73.8351 21.3532C73.8359 21.3797 73.8276 21.4057 73.8116 21.4268L73.4484 21.8895L74.5427 21.2579C74.568 21.2441 74.5975 21.2399 74.6256 21.2463C74.6537 21.2527 74.6786 21.2692 74.6954 21.2926C74.7114 21.3169 74.7177 21.3464 74.713 21.3751C74.7083 21.4039 74.6929 21.4298 74.6699 21.4477L74.4386 21.6374L75.0169 21.3019C75.0423 21.2883 75.0719 21.2846 75.0999 21.2917C75.1278 21.2987 75.1521 21.3159 75.168 21.3399C75.184 21.364 75.1903 21.3931 75.1859 21.4216C75.1815 21.45 75.1666 21.4758 75.1442 21.4939L74.6653 21.8571L75.4542 21.3944C75.48 21.3801 75.5102 21.376 75.5389 21.3828C75.5676 21.3897 75.5927 21.407 75.6092 21.4315C75.625 21.456 75.6309 21.4857 75.6257 21.5144C75.6206 21.5432 75.6048 21.5689 75.5814 21.5865L74.9938 22.0191L75.8752 21.5101C75.8877 21.5018 75.9017 21.4959 75.9164 21.493C75.9311 21.49 75.9462 21.49 75.9609 21.4929C75.9757 21.4958 75.9897 21.5016 76.0021 21.5099C76.0146 21.5182 76.0254 21.5289 76.0337 21.5413C76.0421 21.5538 76.0479 21.5678 76.0508 21.5825C76.0538 21.5972 76.0538 21.6123 76.0509 21.6271C76.048 21.6418 76.0422 21.6558 76.0339 21.6683C76.0256 21.6807 76.0149 21.6915 76.0025 21.6998L74.8041 22.6252L76.3842 21.6998C76.41 21.6855 76.4402 21.6814 76.4689 21.6882C76.4976 21.6951 76.5227 21.7124 76.5392 21.7368C76.555 21.7614 76.5609 21.791 76.5558 21.8198C76.5506 21.8485 76.5348 21.8743 76.5114 21.8918L75.1557 22.8936L76.8261 21.9312C76.8517 21.9163 76.8821 21.9118 76.911 21.9187C76.9398 21.9256 76.9649 21.9433 76.9811 21.9682C76.9971 21.9935 77.0027 22.024 76.9966 22.0534C76.9906 22.0827 76.9734 22.1086 76.9487 22.1255L76.4397 22.4656L77.0968 22.0862C77.1223 22.0739 77.1515 22.0715 77.1787 22.0794C77.206 22.0872 77.2294 22.1048 77.2445 22.1288C77.2597 22.1528 77.2654 22.1815 77.2608 22.2094C77.2562 22.2374 77.2414 22.2627 77.2194 22.2805L76.4351 22.8103L77.3605 22.2736C77.3861 22.2613 77.4152 22.2589 77.4425 22.2668C77.4697 22.2746 77.4931 22.2922 77.5083 22.3162C77.5234 22.3402 77.5292 22.3689 77.5245 22.3968C77.5199 22.4248 77.5052 22.4501 77.4831 22.4679L76.095 23.4303L77.6728 22.5188C77.6984 22.5066 77.7276 22.5041 77.7548 22.512C77.782 22.5198 77.8054 22.5374 77.8206 22.5614C77.8357 22.5854 77.8415 22.6141 77.8369 22.6421C77.8322 22.67 77.8175 22.6953 77.7954 22.7131L75.859 24.1012L78.0152 22.8542C78.0411 22.8396 78.0717 22.8355 78.1006 22.8428C78.1295 22.8501 78.1544 22.8683 78.1702 22.8936C78.1784 22.9058 78.184 22.9196 78.1868 22.9341C78.1896 22.9486 78.1895 22.9634 78.1865 22.9779C78.1835 22.9923 78.1776 23.006 78.1693 23.0181C78.1609 23.0303 78.1502 23.0406 78.1378 23.0486L76.8446 23.9161L78.2489 23.1041C78.2748 23.0911 78.3046 23.0883 78.3325 23.0963C78.3604 23.1043 78.3842 23.1224 78.3994 23.1471C78.4145 23.1719 78.4198 23.2014 78.4142 23.2298C78.4086 23.2583 78.3925 23.2836 78.3692 23.3007L77.5409 23.8421L78.427 23.3308C78.4528 23.3156 78.4836 23.3111 78.5126 23.3185C78.5417 23.3259 78.5666 23.3444 78.582 23.3702C78.5901 23.3826 78.5956 23.3965 78.5982 23.411C78.6008 23.4256 78.6005 23.4405 78.5973 23.455C78.594 23.4694 78.588 23.483 78.5794 23.4951C78.5708 23.5072 78.5599 23.5174 78.5473 23.5252L78.0846 23.8213L78.5635 23.5437C78.5893 23.5284 78.6201 23.524 78.6491 23.5313C78.6782 23.5387 78.7031 23.5573 78.7185 23.583C78.7337 23.6087 78.7386 23.6393 78.7322 23.6685C78.7257 23.6977 78.7084 23.7234 78.6838 23.7403L78.5959 23.7958L78.6954 23.738C78.7209 23.7258 78.7501 23.7233 78.7774 23.7312C78.8046 23.739 78.828 23.7566 78.8431 23.7806C78.8583 23.8046 78.8641 23.8333 78.8594 23.8613C78.8548 23.8892 78.84 23.9145 78.818 23.9323L77.4854 24.8809L78.8735 24.0781C78.899 24.0626 78.9296 24.0578 78.9586 24.0648C78.9876 24.0717 79.0127 24.0898 79.0285 24.1151C79.0445 24.1404 79.0501 24.1709 79.0441 24.2003C79.038 24.2296 79.0208 24.2555 78.9961 24.2724L78.966 24.2909C78.9918 24.2762 79.0221 24.272 79.0509 24.2791C79.0797 24.2861 79.1046 24.3039 79.1207 24.3288C79.1367 24.3538 79.1425 24.3839 79.137 24.413C79.1315 24.4421 79.115 24.4679 79.091 24.4852L78.8319 24.668L79.0771 24.5292C79.1004 24.5142 79.1284 24.5083 79.1558 24.5125C79.1833 24.5168 79.2081 24.5309 79.2258 24.5523C79.2435 24.5737 79.2527 24.6008 79.2517 24.6285C79.2508 24.6562 79.2397 24.6826 79.2205 24.7027L78.781 25.2094L79.2066 24.9641C79.2272 24.952 79.2511 24.9467 79.2749 24.9492C79.2986 24.9517 79.321 24.9618 79.3385 24.978C79.3566 24.9936 79.3695 25.0145 79.3753 25.0377C79.3811 25.0609 79.3796 25.0853 79.3709 25.1076L79.3246 25.2163C79.3471 25.2138 79.3698 25.218 79.39 25.2282C79.4101 25.2385 79.4268 25.2545 79.438 25.2741C79.4532 25.3006 79.4573 25.3319 79.4495 25.3614C79.4417 25.3908 79.4226 25.416 79.3964 25.4315L79.1511 25.5726C79.1304 25.585 79.1063 25.5906 79.0823 25.5884C79.0583 25.5862 79.0356 25.5763 79.0175 25.5603C78.9994 25.5443 78.9869 25.523 78.9818 25.4994C78.9767 25.4758 78.9793 25.4512 78.9892 25.4292L79.0285 25.332L78.2998 25.753C78.2761 25.7656 78.2489 25.7696 78.2226 25.7643C78.1964 25.759 78.1728 25.7447 78.1559 25.724C78.139 25.7033 78.1298 25.6773 78.1298 25.6505C78.1299 25.6238 78.1393 25.5978 78.1563 25.5772L78.5959 25.0706L76.9094 26.0376C76.8839 26.0518 76.8541 26.0559 76.8258 26.049C76.7975 26.0421 76.7728 26.0248 76.7567 26.0006C76.7484 25.9885 76.7426 25.9748 76.7396 25.9604C76.7366 25.946 76.7366 25.9312 76.7394 25.9168C76.7422 25.9024 76.7478 25.8887 76.7559 25.8764C76.764 25.8642 76.7745 25.8537 76.7867 25.8456L77.0459 25.6605L76.0858 26.2134C76.0598 26.2281 76.0292 26.2322 76.0004 26.2249C75.9715 26.2175 75.9466 26.1993 75.9308 26.1741C75.9151 26.1489 75.9099 26.1185 75.9164 26.0895C75.9229 26.0605 75.9405 26.0352 75.9655 26.0191L75.9932 25.9983L75.3524 26.3684C75.3271 26.3832 75.2971 26.3876 75.2686 26.3807C75.2401 26.3738 75.2154 26.3561 75.1997 26.3314C75.1914 26.3193 75.1856 26.3056 75.1827 26.2913C75.1797 26.2769 75.1796 26.262 75.1824 26.2476C75.1852 26.2332 75.1908 26.2195 75.1989 26.2073C75.2071 26.195 75.2176 26.1846 75.2298 26.1764L76.5693 25.2348L74.1841 26.6113C74.1676 26.6248 74.1474 26.6328 74.1262 26.6345Z" fill="#92E3A9"/>
<path d="M70.5617 29.8731C70.0388 29.4284 69.6177 28.8762 69.3271 28.2543C69.0365 27.6324 68.8831 26.9552 68.8774 26.2687C68.8774 23.5388 71.2441 21.3271 74.1637 21.3271C77.0834 21.3271 79.4524 23.5388 79.4524 26.2687C79.4524 28.9987 77.0857 31.2103 74.1637 31.2103C73.3987 31.2105 72.6419 31.053 71.9405 30.7476" stroke="#263238" stroke-width="0.272933" stroke-miterlimit="10"/>
<path d="M64.2207 25.2031H67.5591" stroke="#263238" stroke-width="0.272933" stroke-miterlimit="10"/>
<path d="M64.2207 26.3516H67.5591" stroke="#263238" stroke-width="0.272933" stroke-miterlimit="10"/>
<path d="M64.2207 27.5039H67.5591" stroke="#263238" stroke-width="0.272933" stroke-miterlimit="10"/>
<path d="M23.8662 44.832H29.7378" stroke="#263238" stroke-width="0.272933" stroke-miterlimit="10"/>
<path d="M23.8662 45.9844H29.7378" stroke="#263238" stroke-width="0.272933" stroke-miterlimit="10"/>
<path d="M22.647 29.8633H28.5186" stroke="#263238" stroke-width="0.272933" stroke-miterlimit="10"/>
<path d="M23.8662 47.1338H29.7378" stroke="#263238" stroke-width="0.272933" stroke-miterlimit="10"/>
<path d="M23.8662 49.5518H29.7378" stroke="#263238" stroke-width="0.272933" stroke-miterlimit="10"/>
<path d="M23.8662 50.7041H29.7378" stroke="#263238" stroke-width="0.272933" stroke-miterlimit="10"/>
<path d="M23.8662 51.8564H29.7378" stroke="#263238" stroke-width="0.272933" stroke-miterlimit="10"/>
<path d="M72.7568 21.4531L74.1843 26.6191L79.4058 25.4277" stroke="#263238" stroke-width="0.272933" stroke-miterlimit="10"/>
<path d="M22.7095 22.7744V28.5257H31.9449" stroke="#263238" stroke-width="0.272933" stroke-miterlimit="10"/>
<path d="M25.5854 23.5596H23.6675V28.5266H25.5854V23.5596Z" fill="#92E3A9" stroke="#263238" stroke-width="0.272933" stroke-miterlimit="10"/>
<path d="M30.4643 24.6914H28.5464V28.5248H30.4643V24.6914Z" fill="#92E3A9" stroke="#263238" stroke-width="0.272933" stroke-miterlimit="10"/>
<path d="M28.0258 21.9912H26.1079V28.5268H28.0258V21.9912Z" fill="#92E3A9" stroke="#263238" stroke-width="0.272933" stroke-miterlimit="10"/>
<path d="M11.5905 59.8409C11.5905 59.8409 11.5905 58.8739 10.2371 57.5274C8.8837 56.181 8.01384 55.4014 8.01384 55.4014C8.01384 55.4014 7.33599 57.6246 8.59452 58.978C9.51849 59.9301 10.5207 60.803 11.5905 61.5876V59.8409Z" fill="#92E3A9"/>
<path d="M9.62693 65.8797C9.62693 65.8797 9.62693 64.9127 8.27355 63.5663C6.92016 62.2198 6.05029 61.4355 6.05029 61.4355C6.05029 61.4355 5.37244 63.6588 6.62866 65.0122C7.55669 65.9644 8.5627 66.8373 9.63619 67.6218L9.62693 65.8797Z" fill="#92E3A9"/>
<path d="M11.505 61.4883C11.505 61.4883 11.6091 60.5259 13.0967 59.3229C14.5843 58.1199 15.5328 57.4443 15.5328 57.4443C15.5328 57.4443 15.9724 59.7254 14.5796 60.94C13.5588 61.7885 12.4693 62.5507 11.3223 63.2188L11.505 61.4883Z" fill="#92E3A9"/>
<path d="M9.13398 68.6181C9.13398 68.6181 9.33525 67.6742 10.9431 66.6331C12.551 65.592 13.562 65.0137 13.562 65.0137C13.562 65.0137 13.7586 67.3272 12.2456 68.389C11.1442 69.1258 9.9835 69.7696 8.77539 70.3139L9.13398 68.6181Z" fill="#92E3A9"/>
<path d="M9.5781 76.3937C9.5781 76.3937 9.5781 75.4266 10.9338 74.0802C12.2895 72.7337 13.1571 71.9541 13.1571 71.9541C13.1571 71.9541 13.8326 74.1774 12.5764 75.5307C11.6489 76.4835 10.6429 77.3565 9.56885 78.1403L9.5781 76.3937Z" fill="#92E3A9"/>
<path d="M9.55718 78.291C9.55718 78.291 9.69368 77.3356 8.54619 75.8017C7.39871 74.2679 6.64682 73.3818 6.64682 73.3818C6.64682 73.3818 5.66128 75.4871 6.71392 77.0047C7.49353 78.0781 8.36181 79.0841 9.30964 80.0123L9.55718 78.291Z" fill="#92E3A9"/>
<path d="M8.2225 83.9175C8.2225 83.9175 8.22251 82.9504 9.57589 81.604C10.9293 80.2575 11.7991 79.4756 11.7991 79.4756C11.7991 79.4756 12.477 81.6988 11.2185 83.0522C10.2912 84.0059 9.28515 84.8797 8.21094 85.6641L8.2225 83.9175Z" fill="#92E3A9"/>
<path d="M9.12442 89.0166C9.12442 89.0166 8.8815 88.0796 9.84622 86.4278C10.8109 84.776 11.4657 83.8066 11.4657 83.8066C11.4657 83.8066 12.6826 85.787 11.8104 87.4157C11.156 88.5707 10.4069 89.6696 9.57092 90.7008L9.12442 89.0166Z" fill="#92E3A9"/>
<path d="M11.7135 59.584C11.6452 60.5925 11.5217 61.5965 11.3433 62.5915C10.8089 65.3677 9.46938 67.1398 8.93497 69.6361C8.40056 72.1323 9.93671 75.3504 9.52491 78.5568C9.11311 81.7633 7.86614 83.5493 8.22242 85.6893C8.57869 87.8293 10.4526 93.6245 10.4526 93.6245" stroke="#263238" stroke-width="0.272933" stroke-linecap="round" stroke-linejoin="round"/>
<path d="M11.4937 62.1314L12.9511 61.0117" stroke="#263238" stroke-width="0.272933" stroke-linecap="round" stroke-linejoin="round"/>
<path d="M11.561 60.8399L10.9502 59.7549" stroke="#263238" stroke-width="0.272933" stroke-linecap="round" stroke-linejoin="round"/>
<path d="M9.01562 69.5321C9.01562 69.5321 10.2371 68.6067 11.4934 67.7021" stroke="#263238" stroke-width="0.272933" stroke-linecap="round" stroke-linejoin="round"/>
<path d="M9.62659 67.6173C9.62659 67.6173 8.60866 65.6231 7.45654 64.2998" stroke="#263238" stroke-width="0.272933" stroke-linecap="round" stroke-linejoin="round"/>
<path d="M9.62695 77.7701C10.3243 76.4849 11.2041 75.3075 12.2389 74.2744" stroke="#263238" stroke-width="0.272933" stroke-linecap="round" stroke-linejoin="round"/>
<path d="M9.39059 79.1266C9.01964 78.2548 8.57702 77.4152 8.06728 76.6165C7.35472 75.5662 7.25293 75.4297 7.25293 75.4297" stroke="#263238" stroke-width="0.272933" stroke-linecap="round" stroke-linejoin="round"/>
<path d="M8.22217 85.6937C8.53114 84.9249 8.89851 84.1809 9.32107 83.4682C9.74394 82.8084 10.2206 82.1848 10.7462 81.6035" stroke="#263238" stroke-width="0.272933" stroke-linecap="round" stroke-linejoin="round"/>
<path d="M9.56658 90.7007C9.49565 89.9668 9.62183 89.2273 9.93211 88.5584C10.4411 87.5752 11.0171 86.2843 11.2554 85.7822" stroke="#263238" stroke-width="0.272933" stroke-linecap="round" stroke-linejoin="round"/>
<path d="M2.73231 72.7565C2.73231 72.7565 2.62589 72.1504 3.32918 71.1556C4.03248 70.1608 4.48592 69.5801 4.48592 69.5801C4.48592 69.5801 5.15221 70.9011 4.50906 71.8936C4.033 72.5912 3.49901 73.2474 2.91276 73.8554L2.73231 72.7565Z" fill="#92E3A9"/>
<path d="M4.61561 76.3307C4.61561 76.3307 4.50919 75.7246 5.21249 74.7275C5.91578 73.7304 6.36923 73.1543 6.36923 73.1543C6.36923 73.1543 7.03319 74.4753 6.39236 75.4678C5.91597 76.1659 5.38201 76.8229 4.79606 77.4319L4.61561 76.3307Z" fill="#92E3A9"/>
<path d="M2.96364 73.7818C2.96364 73.7818 2.79476 73.1895 1.73056 72.5973C0.666359 72.005 7.58994e-05 71.6719 7.58994e-05 71.6719C7.58994e-05 71.6719 -0.0276857 73.1525 0.978678 73.754C1.70738 74.1842 2.47125 74.5518 3.26208 74.8529L2.96364 73.7818Z" fill="#92E3A9"/>
<path d="M5.2222 77.9951C5.2222 77.9951 4.99086 77.426 3.87113 76.9471C2.75141 76.4682 2.05273 76.2207 2.05273 76.2207C2.05273 76.2207 2.18229 77.6944 3.24649 78.1941C4.01907 78.5339 4.8184 78.8094 5.63632 79.0177L5.2222 77.9951Z" fill="#92E3A9"/>
<path d="M5.78677 82.9199C5.78677 82.9199 5.68266 82.3138 4.68555 81.6105C3.68844 80.9072 3.06611 80.5186 3.06611 80.5186C3.06611 80.5186 2.88103 81.9876 3.81799 82.7002C4.49809 83.1967 5.21855 83.6355 5.97184 84.0119L5.78677 82.9199Z" fill="#92E3A9"/>
<path d="M6.00603 84.1068C6.00603 84.1068 5.81632 83.5215 6.36924 82.4364C6.92216 81.3514 7.29463 80.7129 7.29463 80.7129C7.29463 80.7129 8.14137 81.9252 7.64628 82.9917C7.27505 83.7498 6.8401 84.4749 6.34611 85.1594L6.00603 84.1068Z" fill="#92E3A9"/>
<path d="M7.70416 88.9981C7.70416 88.9981 7.77588 88.3873 8.72903 87.6285C9.68218 86.8697 10.2906 86.4463 10.2906 86.4463C10.2906 86.4463 10.5567 87.9015 9.66368 88.6649C9.01096 89.2004 8.31447 89.6802 7.58154 90.0993L7.70416 88.9981Z" fill="#92E3A9"/>
<path d="M7.45429 87.4892C7.45429 87.4892 7.35943 86.883 6.35307 86.189C5.34671 85.495 4.73363 85.0947 4.73363 85.0947C4.73363 85.0947 4.55087 86.5638 5.48783 87.2763C6.17024 87.7731 6.89303 88.2119 7.64862 88.5881L7.45429 87.4892Z" fill="#92E3A9"/>
<path d="M7.44022 90.7859C7.44022 90.7859 7.49343 90.1729 6.70685 89.2405C5.92026 88.3082 5.4113 87.7715 5.4113 87.7715C5.4113 87.7715 4.863 89.1457 5.58712 90.0711C6.12556 90.726 6.71838 91.3343 7.35925 91.8895L7.44022 90.7859Z" fill="#92E3A9"/>
<path d="M2.62402 72.6162C2.7761 73.2428 2.96222 73.8607 3.18157 74.467C3.81778 76.1443 4.84959 77.1159 5.45804 78.6313C6.06648 80.1466 5.45804 82.3328 6.05492 84.29C6.65179 86.2472 7.63734 87.2397 7.64659 88.6209C7.65584 90.002 7.10986 93.8239 7.10986 93.8239" stroke="#263238" stroke-width="0.272933" stroke-linecap="round" stroke-linejoin="round"/>
<path d="M3.03742 74.1814L2.00098 73.6377" stroke="#263238" stroke-width="0.272933" stroke-linecap="round" stroke-linejoin="round"/>
<path d="M2.85498 73.381L3.12103 72.6338" stroke="#263238" stroke-width="0.272933" stroke-linecap="round" stroke-linejoin="round"/>
<path d="M5.39291 78.5543C5.39291 78.5543 4.52766 78.1124 3.6416 77.6729" stroke="#263238" stroke-width="0.272933" stroke-linecap="round" stroke-linejoin="round"/>
<path d="M4.81494 77.4238C5.06903 76.6205 5.40469 75.8453 5.81668 75.1104" stroke="#263238" stroke-width="0.272933" stroke-linecap="round" stroke-linejoin="round"/>
<path d="M5.90652 83.7875C5.32913 83.0578 4.64971 82.415 3.88916 81.8789" stroke="#263238" stroke-width="0.272933" stroke-linecap="round" stroke-linejoin="round"/>
<path d="M6.20264 84.6133C6.33996 84.026 6.52567 83.451 6.75787 82.8944C7.09101 82.1587 7.1396 82.0615 7.1396 82.0615" stroke="#263238" stroke-width="0.272933" stroke-linecap="round" stroke-linejoin="round"/>
<path d="M7.59082 89.6595C7.92804 89.2421 8.30117 88.8551 8.70592 88.5028C8.96814 88.3103 9.21419 88.0968 9.4416 87.8643" stroke="#263238" stroke-width="0.272933" stroke-linecap="round" stroke-linejoin="round"/>
<path d="M7.64601 88.6042C7.37032 88.1557 7.06096 87.7288 6.72061 87.3271C6.38348 86.9592 6.01672 86.6195 5.62402 86.3115" stroke="#263238" stroke-width="0.272933" stroke-linecap="round" stroke-linejoin="round"/>
<path d="M7.35961 91.8891C7.32377 91.4209 7.16409 90.9706 6.89692 90.5843C6.47124 90.0245 5.97152 89.2772 5.76562 88.9834" stroke="#263238" stroke-width="0.272933" stroke-linecap="round" stroke-linejoin="round"/>
<path d="M107.103 31.8776C108.152 27.3636 105.343 22.8541 100.829 21.8053C96.3147 20.7566 91.8052 23.5657 90.7564 28.0796C89.7076 32.5936 92.5167 37.1031 97.0307 38.1519C101.545 39.2007 106.054 36.3916 107.103 31.8776Z" fill="#263238" stroke="#263238" stroke-width="0.272933" stroke-miterlimit="10"/>
<path d="M101.701 36.5432C105.326 35.0083 107.021 30.8253 105.486 27.2003C103.951 23.5753 99.7677 21.881 96.1427 23.416C92.5177 24.951 90.8235 29.134 92.3584 32.7589C93.8934 36.3839 98.0764 38.0782 101.701 36.5432Z" fill="white" stroke="#263238" stroke-width="0.272933" stroke-miterlimit="10"/>
<path d="M101.125 25.4033L98.9229 29.9724H102.069" stroke="#263238" stroke-width="0.272933" stroke-miterlimit="10"/>
<path d="M99.723 29.97C99.7235 30.1284 99.6769 30.2834 99.5892 30.4154C99.5015 30.5473 99.3767 30.6503 99.2305 30.7112C99.0842 30.7722 98.9232 30.7883 98.7678 30.7577C98.6124 30.7271 98.4695 30.651 98.3573 30.5392C98.2452 30.4273 98.1687 30.2847 98.1376 30.1294C98.1065 29.974 98.1223 29.813 98.1828 29.6666C98.2433 29.5202 98.3459 29.395 98.4776 29.3069C98.6093 29.2189 98.7641 29.1719 98.9225 29.1719C99.0275 29.1716 99.1316 29.192 99.2287 29.232C99.3258 29.2719 99.414 29.3307 99.4884 29.4048C99.5628 29.479 99.6218 29.5671 99.662 29.6641C99.7023 29.761 99.723 29.865 99.723 29.97Z" fill="#92E3A9" stroke="#263238" stroke-width="0.272933" stroke-miterlimit="10"/>
<path d="M53.55 51.6521L52.4719 50.0836C52.4719 50.0836 52.6848 47.5619 52.4442 47.1686C52.2036 46.7753 48.3077 46.3196 48.0763 46.6111C47.845 46.9026 48.664 47.1663 48.664 47.1663C48.664 47.1663 48.1087 47.4115 48.1666 47.6915C48.2522 48.1033 48.9624 48.1542 48.9624 48.1542C48.9624 48.1542 48.3979 48.5313 48.4673 48.7765C48.5228 48.9708 49.0873 49.1235 49.0873 49.1235C49.0873 49.1235 48.5159 49.3826 48.9832 49.7134C49.4505 50.0443 49.8461 50.3867 49.8461 50.3867C49.8461 50.3867 49.5223 51.0807 50.3991 51.6845C51.2759 52.2884 52.7912 53.3873 52.7912 53.3873L53.55 51.6521Z" fill="white" stroke="#263238" stroke-width="0.272933" stroke-linecap="round" stroke-linejoin="round"/>
<path d="M48.2223 45.561L47.3594 45.4893V45.7553L48.0534 46.1463C48.0929 45.9467 48.1494 45.7509 48.2223 45.561Z" fill="#263238" stroke="#263238" stroke-width="0.272933" stroke-linecap="round" stroke-linejoin="round"/>
<path d="M51.6139 47.3078C51.5755 47.3093 51.5371 47.3038 51.5006 47.2916L48.0766 46.2112C48.032 46.1993 47.9902 46.1784 47.9538 46.1499C47.9174 46.1213 47.8872 46.0857 47.865 46.0452C47.8427 46.0046 47.8289 45.96 47.8244 45.914C47.8199 45.868 47.8247 45.8215 47.8386 45.7774C47.8525 45.7333 47.8752 45.6925 47.9054 45.6574C47.9355 45.6224 47.9724 45.5937 48.0139 45.5733C48.0554 45.5529 48.1005 45.5411 48.1467 45.5386C48.1929 45.5361 48.2391 45.543 48.2825 45.5588L51.7065 46.6392C51.7835 46.6637 51.8494 46.7145 51.8925 46.7828C51.9356 46.8512 51.9532 46.9325 51.9421 47.0125C51.9311 47.0926 51.892 47.1661 51.832 47.2201C51.7719 47.2742 51.6947 47.3052 51.6139 47.3078Z" fill="white" stroke="#263238" stroke-width="0.272933" stroke-linecap="round" stroke-linejoin="round"/>
<path d="M53.3975 47.9811C53.3457 47.9814 53.2942 47.9736 53.2448 47.958L51.4773 47.4004C51.4107 47.3911 51.3469 47.3674 51.2903 47.3309C51.2338 47.2944 51.1859 47.246 51.15 47.1891C51.1141 47.1321 51.091 47.0681 51.0824 47.0013C51.0738 46.9346 51.0799 46.8667 51.1002 46.8026C51.1205 46.7384 51.1545 46.6794 51.2 46.6298C51.2454 46.5802 51.3011 46.541 51.3633 46.5151C51.4254 46.4892 51.4924 46.4772 51.5597 46.4799C51.6269 46.4825 51.6928 46.4998 51.7526 46.5306L53.5201 47.0881C53.6344 47.1258 53.7295 47.2066 53.7853 47.3133C53.841 47.42 53.8529 47.5442 53.8186 47.6596C53.7898 47.7498 53.7339 47.8291 53.6586 47.8866C53.5833 47.9441 53.4922 47.9771 53.3975 47.9811Z" fill="#263238" stroke="#263238" stroke-width="0.272933" stroke-linecap="round" stroke-linejoin="round"/>
<path d="M51.9722 48.4962C51.8129 48.0342 51.6275 47.5815 51.4169 47.1405C51.174 46.6917 50.7067 46.3054 50.5216 45.8542C50.3365 45.4031 49.8414 46.1018 50.0242 46.4395C50.207 46.7773 50.6211 47.2793 50.628 47.5084C50.635 47.7374 50.6951 47.9063 50.4314 48.6651C50.1676 49.4239 50.0219 50.2845 50.6118 50.8907" fill="white"/>
<path d="M51.9722 48.4962C51.8129 48.0342 51.6275 47.5815 51.4169 47.1405C51.174 46.6917 50.7067 46.3054 50.5216 45.8542C50.3365 45.4031 49.8414 46.1018 50.0242 46.4395C50.207 46.7773 50.6211 47.2793 50.628 47.5084C50.635 47.7374 50.6951 47.9063 50.4314 48.6651C50.1676 49.4239 50.0219 50.2845 50.6118 50.8907" stroke="#263238" stroke-width="0.272933" stroke-linecap="round" stroke-linejoin="round"/>
<path d="M48.6733 47.166L50.6282 47.5084" stroke="#263238" stroke-width="0.272933" stroke-linecap="round" stroke-linejoin="round"/>
<path d="M48.9722 48.1565C49.2035 48.0918 50.432 48.6563 50.432 48.6563" stroke="#263238" stroke-width="0.272933" stroke-linecap="round" stroke-linejoin="round"/>
<path d="M49.0967 49.126L50.1123 49.4661" stroke="#263238" stroke-width="0.272933" stroke-linecap="round" stroke-linejoin="round"/>
<path d="M67.2389 48.6372C67.2389 48.6372 66.6559 48.2925 66.3991 49.2156C66.1423 50.1387 65.3881 51.7604 65.0549 52.1121C64.7218 52.4637 61.4459 55.7072 61.4459 55.7072C61.4459 55.7072 60.0393 54.6037 59.7085 55.0132C59.5692 55.2162 59.3761 55.3764 59.1509 55.4759L53.5338 51.0687L51.4517 54.2173C51.4517 54.2173 59.0861 61.1948 59.7247 61.4053C60.3632 61.6159 60.8143 61.5441 61.041 61.4238C61.2678 61.3035 65.4598 58.1479 65.4598 58.1479C65.4598 58.1479 68.0162 49.8981 68.236 49.6066C68.4557 49.3151 67.2389 48.6372 67.2389 48.6372Z" fill="#92E3A9" stroke="#263238" stroke-width="0.272933" stroke-linecap="round" stroke-linejoin="round"/>
<path d="M59.6948 55.7266C59.6948 55.7266 60.8331 57.0406 60.8331 58.704Z" fill="#92E3A9"/>
<path d="M59.6948 55.7266C59.6948 55.7266 60.8331 57.0406 60.8331 58.704" stroke="#263238" stroke-width="0.272933" stroke-linecap="round" stroke-linejoin="round"/>
<path d="M61.5342 56.251C61.5342 56.251 61.8836 57.1278 61.3584 59.0526Z" fill="#92E3A9"/>
<path d="M61.5342 56.251C61.5342 56.251 61.8836 57.1278 61.3584 59.0526" stroke="#263238" stroke-width="0.272933" stroke-linecap="round" stroke-linejoin="round"/>
<path d="M69.7422 38.4564C69.7422 38.4564 67.2621 36.837 67.5559 35.2985C67.8497 33.76 73.4113 32.5223 76.6086 33.5611C79.8058 34.5998 80.4559 39.3841 80.0348 42.3361C79.6138 45.2881 79.3593 52.025 79.3593 52.025L68.5114 52.3442C68.5114 52.3442 69.5224 44.4553 69.7329 41.9613C69.9434 39.4674 69.7422 38.4564 69.7422 38.4564Z" fill="#263238" stroke="#263238" stroke-width="0.272933" stroke-linecap="round" stroke-linejoin="round"/>
<path d="M64.1901 81.8922C64.4215 84.2497 64.861 94.6372 65.1155 96.1757H76.3937C76.3706 94.4035 76.3405 82.4336 76.595 81.455C76.9166 80.2312 77.3677 76.1502 76.8703 73.8089C76.3729 71.4677 75.7691 70.3387 75.7691 70.3387L64.0629 70.3271L64.0976 71.2872C64.0976 71.2872 63.8778 78.5539 64.1901 81.8922Z" fill="#263238" stroke="#263238" stroke-width="0.272933" stroke-linecap="round" stroke-linejoin="round"/>
<path d="M66.6934 74.8223C67.1561 75.1392 67.6188 75.3659 67.6188 75.824C67.8501 79.9374 68.7616 91.4909 69.0832 95.6528" stroke="#4C4C4C" stroke-width="0.272933" stroke-linecap="round" stroke-linejoin="round"/>
<path d="M70.0544 48.4795L75.7779 48.6923C75.7779 48.6923 71.1834 55.7646 71.2227 59.6513C71.262 63.5379 72.0324 71.5935 72.0324 71.5935C72.0324 71.5935 69.5153 73.5854 66.9127 73.2129C66.6304 73.1713 66.48 70.8393 66.48 70.8393C66.48 70.8393 66.3135 73.1042 66.1215 73.0695C64.664 72.8081 64.0972 71.302 64.0972 71.302L64.4002 63.5171C64.4002 63.5171 64.4002 58.4113 64.9693 56.9445C65.5385 55.4778 69.3835 48.963 69.3835 48.963L70.0544 48.4795Z" fill="white" stroke="#263238" stroke-width="0.272933" stroke-linecap="round" stroke-linejoin="round"/>
<path d="M69.8235 52.9854C69.8235 52.9854 68.0536 56.6638 67.4059 58.82C66.7581 60.9761 66.4805 70.8292 66.4805 70.8292" stroke="#263238" stroke-width="0.272933" stroke-linecap="round" stroke-linejoin="round"/>
<path d="M75.0888 48.6367C75.0888 48.6367 71.0749 54.624 70.2999 56.7802C69.5249 58.9363 69.0067 67.1908 69.1084 70.6888C69.2102 74.1868 70.3161 78.0457 70.3161 78.0457C73.5706 78.5652 76.9006 78.3366 80.0535 77.3771C80.0535 77.3771 78.6516 71.17 77.9714 69.1318C77.5466 67.7961 77.2264 66.4293 77.0136 65.0439C77.0136 65.0439 81.6221 50.3487 81.6221 50.122C81.6221 49.8953 81.5318 49.6593 81.0715 49.5274C80.6111 49.3955 75.0888 48.6367 75.0888 48.6367Z" fill="#92E3A9" stroke="#263238" stroke-width="0.272933" stroke-linecap="round" stroke-linejoin="round"/>
<path d="M71.4106 71.5391L77.3679 71.0625L77.4465 72.0157L74.9063 72.3326" fill="#92E3A9"/>
<path d="M71.4106 71.5391L77.3679 71.0625L77.4465 72.0157L74.9063 72.3326" stroke="#263238" stroke-width="0.272933" stroke-linecap="round" stroke-linejoin="round"/>
<path d="M70.001 49.2414C70.001 49.2414 65.219 57.6925 65.1126 59.2194C65.0062 60.7463 64.2982 67.7793 63.905 70.0026C63.5117 72.2258 61.8112 76.5428 61.8112 76.5428C61.8112 76.5428 61.374 74.6504 61.5012 73.8083C61.6285 72.9661 63.47 68.1865 63.6667 67.113C63.8633 66.0396 64.1294 62.22 64.0831 60.5451C64.0368 58.8701 63.9211 57.6532 64.2682 56.4248C64.6152 55.1963 67.2387 48.6376 67.2387 48.6376L71.0444 48.4502L70.001 49.2414Z" fill="#92E3A9" stroke="#263238" stroke-width="0.272933" stroke-linecap="round" stroke-linejoin="round"/>
<path d="M68.9648 48.543L68.1689 52.1867L70.2141 50.5997L68.9648 48.543Z" fill="white" stroke="#263238" stroke-width="0.272933" stroke-linecap="round" stroke-linejoin="round"/>
<path d="M71.4009 46.7754L68.9648 48.5429L69.8833 50.9466L69.8324 52.9848L72.5947 48.8876L71.4009 46.7754Z" fill="white" stroke="#263238" stroke-width="0.272933" stroke-linecap="round" stroke-linejoin="round"/>
<path d="M71.2604 45.8177C71.2604 45.8177 70.7977 49.2255 70.652 50.1323C70.5062 51.0392 69.8237 52.9849 69.8237 52.9849C69.8237 52.9849 74.1661 48.7859 74.3813 48.4389C74.5964 48.0919 75.346 44.7373 75.346 44.7373C75.346 44.7373 72.5606 45.7807 71.2604 45.8177Z" fill="white" stroke="#263238" stroke-width="0.272933" stroke-linecap="round" stroke-linejoin="round"/>
<path d="M71.1284 46.7732C71.7207 47.1433 72.181 47.1433 72.8658 47.0369C73.5506 46.9305 74.4853 46.2873 75.1145 45.7807C75.2533 45.1907 75.3459 44.7373 75.3459 44.7373C75.3459 44.7373 72.5512 45.7807 71.251 45.8177C71.2603 45.8177 71.2117 46.2156 71.1284 46.7732Z" fill="#263238" stroke="#263238" stroke-width="0.272933" stroke-linecap="round" stroke-linejoin="round"/>
<path d="M72.6505 35.4883L69.4463 38.0123C69.4463 38.0123 69.1224 40.453 69.0021 42.1534C68.9383 42.8529 69.0425 43.5576 69.3061 44.2087C69.5697 44.8598 69.985 45.4385 70.5175 45.8966C71.4428 46.7179 71.9564 46.7596 72.8564 46.6184C73.7563 46.4773 75.0843 45.4224 75.5794 44.955C76.0744 44.4877 76.9952 43.1043 76.9952 43.1043C76.9952 43.1043 77.7332 43.2523 77.9507 42.9076C78.0592 42.7458 78.1485 42.5719 78.2167 42.3894C78.2167 42.3894 75.1699 40.6705 73.9183 38.5027C72.6667 36.335 72.6505 35.4883 72.6505 35.4883Z" fill="white" stroke="#263238" stroke-width="0.272933" stroke-linecap="round" stroke-linejoin="round"/>
<path d="M71.6532 39.9834C71.6064 40.3404 71.5017 40.6873 71.3431 41.0106C71.128 41.3553 70.2859 41.5496 70.7486 41.936C71.1004 42.1788 71.5196 42.3051 71.947 42.2969" stroke="#263238" stroke-width="0.272933" stroke-linecap="round" stroke-linejoin="round"/>
<path d="M70.7236 42.9517C70.7236 42.9517 72.4402 43.6921 73.5438 42.6973" stroke="#263238" stroke-width="0.272933" stroke-linecap="round" stroke-linejoin="round"/>
<path d="M71.2969 43.2172C71.2969 43.2172 71.5514 44.1704 72.1112 43.983C72.6711 43.7956 73.1569 43.0576 73.1569 43.0576C72.5412 43.153 71.9198 43.2064 71.2969 43.2172Z" stroke="#263238" stroke-width="0.272933" stroke-linecap="round" stroke-linejoin="round"/>
<path d="M73.8136 40.4276C73.8136 40.6774 73.7142 40.8903 73.5823 40.8903C73.4504 40.8903 73.3232 40.696 73.3162 40.4461C73.3093 40.1962 73.4157 39.9834 73.5476 39.9834C73.6795 39.9834 73.8067 40.18 73.8136 40.4276Z" fill="#263238"/>
<path d="M71.1188 40.1131C71.1188 40.363 71.0193 40.5758 70.8875 40.5758C70.7556 40.5758 70.6284 40.3815 70.6214 40.1316C70.6145 39.8818 70.7209 39.6689 70.8528 39.6689C70.9846 39.6689 71.1119 39.8633 71.1188 40.1131Z" fill="#263238"/>
<path d="M70.2119 39.0651C70.2963 38.9766 70.3981 38.9065 70.5109 38.8592C70.6236 38.8119 70.7449 38.7884 70.8672 38.7901C70.9895 38.7919 71.1101 38.8188 71.2214 38.8693C71.3328 38.9198 71.4325 38.9928 71.5144 39.0836" stroke="#263238" stroke-width="0.272933" stroke-linecap="round" stroke-linejoin="round"/>
<path d="M72.8174 39.2238C72.8174 39.2238 74.1037 38.7357 74.645 39.8484" stroke="#263238" stroke-width="0.272933" stroke-linecap="round" stroke-linejoin="round"/>
<path d="M72.1044 49.5264L69.8325 52.985L73.1709 51.1898L72.1044 49.5264Z" fill="white" stroke="#263238" stroke-width="0.272933" stroke-linecap="round" stroke-linejoin="round"/>
<path d="M75.9166 46.5273L72.104 49.5256L73.2145 52.6581L76.8767 48.4221L75.9166 46.5273Z" fill="white" stroke="#263238" stroke-width="0.272933" stroke-linecap="round" stroke-linejoin="round"/>
<path d="M71.2829 64.2976C70.768 64.1541 70.2764 63.9375 69.8231 63.6544C68.9694 63.1455 68.0602 63.3236 67.2991 63.3467C66.5379 63.3699 66.0082 63.5387 66.0938 63.8395C66.1794 64.1402 66.9405 64.1194 67.1695 64.1125C67.3986 64.1055 67.7895 64.4757 67.7895 64.4757L65.8855 64.9384C65.8855 64.9384 65.2887 65.3386 65.7583 65.7805C66.2279 66.2224 66.3135 66.1229 66.3135 66.1229C66.3135 66.1229 67.033 67.2449 67.7965 67.2982C68.5599 67.3514 71.6623 66.574 71.6623 66.574L71.2829 64.2976Z" fill="white" stroke="#263238" stroke-width="0.272933" stroke-linecap="round" stroke-linejoin="round"/>
<path d="M76.6781 55.5523C76.7683 56.015 77.2611 62.8235 77.2611 62.8235L70.98 64.3042L71.3154 67.8785C71.3154 67.8785 82.5566 66.5552 82.7649 65.8634C82.9731 65.1717 82.2397 53.2249 82.3022 52.5378C82.3646 51.8507 83.2808 49.5303 80.537 49.5303" fill="#92E3A9"/>
<path d="M76.6781 55.5523C76.7683 56.015 77.2611 62.8235 77.2611 62.8235L70.98 64.3042L71.3154 67.8785C71.3154 67.8785 82.5566 66.5552 82.7649 65.8634C82.9731 65.1717 82.2397 53.2249 82.3022 52.5378C82.3646 51.8507 83.2808 49.5303 80.537 49.5303" stroke="#263238" stroke-width="0.272933" stroke-linecap="round" stroke-linejoin="round"/>
<path d="M77.728 54.4136C77.728 54.4136 79.5649 52.0492 81.58 52.1372Z" fill="#92E3A9"/>
<path d="M77.728 54.4136C77.728 54.4136 79.5649 52.0492 81.58 52.1372" stroke="#263238" stroke-width="0.272933" stroke-linecap="round" stroke-linejoin="round"/>
<path d="M77.728 55.2895C77.728 55.2895 79.3035 54.415 80.879 54.415Z" fill="#92E3A9"/>
<path d="M77.728 55.2895C77.728 55.2895 79.3035 54.415 80.879 54.415" stroke="#263238" stroke-width="0.272933" stroke-linecap="round" stroke-linejoin="round"/>
<path d="M7.51214 96.1753V82.7895C7.51214 82.684 7.47022 82.5828 7.39559 82.5082C7.32097 82.4335 7.21975 82.3916 7.11422 82.3916H5.47396C5.36821 82.3916 5.26676 82.4335 5.19177 82.508C5.11678 82.5826 5.07434 82.6838 5.07373 82.7895V96.1753H7.51214Z" fill="#4C4C4C" stroke="#263238" stroke-width="0.272933" stroke-linecap="round" stroke-linejoin="round"/>
<path d="M5.46904 96.1753V82.7895C5.46843 82.6838 5.42599 82.5826 5.351 82.508C5.27601 82.4335 5.17456 82.3916 5.06881 82.3916H3.42624C3.3207 82.3916 3.21949 82.4335 3.14487 82.5082C3.07024 82.5828 3.02832 82.684 3.02832 82.7895V96.1753H5.46904Z" fill="#263238" stroke="#263238" stroke-width="0.272933" stroke-linecap="round" stroke-linejoin="round"/>
<path d="M6.39229 96.1758H35.674C35.4694 95.6585 35.123 95.2094 34.6746 94.8802C33.3467 94.0427 20.6989 92.0855 20.6989 92.0855L7.56059 91.875L6.93133 92.0855C6.93133 92.0855 6.23728 93.0641 6.30437 93.5523C6.33908 93.7998 6.35527 94.9982 6.39229 96.1758Z" fill="#263238" stroke="#263238" stroke-width="0.272933" stroke-linecap="round" stroke-linejoin="round"/>
<path d="M18.3227 66.7181C18.3227 66.7181 15.2481 68.4647 14.2001 69.4433C13.1521 70.4219 11.4054 73.6377 11.2643 75.5926C11.1232 77.5475 9.58702 85.0316 9.58702 85.0316C9.58702 85.0316 6.43375 91.1762 6.93114 92.0854C7.42854 92.9946 20.3493 92.0854 20.6987 92.0854C21.048 92.0854 20.3493 88.2427 20.3493 88.2427C20.3493 88.2427 25.24 80.6938 25.439 78.6672C25.638 76.6406 24.1805 71.1206 23.9005 69.8621C23.6206 68.6035 18.952 66.4381 18.3227 66.7181Z" fill="white" stroke="#263238" stroke-width="0.272933" stroke-linecap="round" stroke-linejoin="round"/>
<path d="M15.9194 77.3975C15.9194 77.3975 18.3648 79.7109 19.3897 80.486" stroke="#263238" stroke-width="0.272933" stroke-linecap="round" stroke-linejoin="round"/>
<path d="M14.7622 79.1953C14.7622 79.1953 19.2666 80.7384 20.4233 80.868" stroke="#263238" stroke-width="0.272933" stroke-linecap="round" stroke-linejoin="round"/>
<path d="M27.8964 58.8902C27.8964 58.8902 28.2457 61.4767 28.1763 62.2448C28.1069 63.0129 27.4082 65.6687 27.1977 66.2286C26.9872 66.7885 26.779 67.4154 26.0109 67.346C25.5635 67.311 25.1315 67.1672 24.7523 66.9273L23.9843 69.5114L18.6633 66.4368L19.3573 65.0487C19.3573 65.0487 18.5892 63.7925 18.3787 61.6942C18.1682 59.5958 19.3573 57.2222 20.8958 56.3153C22.4342 55.4084 25.0878 55.7555 25.8559 56.3847C26.624 57.014 27.8964 58.8902 27.8964 58.8902Z" fill="white" stroke="#263238" stroke-width="0.272933" stroke-linecap="round" stroke-linejoin="round"/>
<path d="M18.3924 65.3906C18.6724 65.4623 24.6828 68.1876 24.7522 68.8863C24.8216 69.585 25.1015 71.7504 25.1015 71.7504C23.8684 70.6905 22.534 69.7545 21.1177 68.9557C19.996 68.3639 18.9217 67.6864 17.9043 66.9291L18.3924 65.3906Z" fill="white" stroke="#263238" stroke-width="0.272933" stroke-linecap="round" stroke-linejoin="round"/>
<path d="M23.7041 53.1612C23.7041 53.1612 25.5202 52.3931 26.9869 52.7425C28.4537 53.0918 29.0135 54.7691 29.0135 56.1664C29.0135 57.5638 28.2455 59.241 27.9655 59.3104C27.6856 59.3798 26.9869 56.0276 25.6521 55.049C24.9119 54.5207 24.2553 53.8844 23.7041 53.1612Z" fill="#92E3A9" stroke="#263238" stroke-width="0.272933" stroke-linecap="round" stroke-linejoin="round"/>
<path d="M21.4711 53.5818C21.4711 53.5818 24.3375 52.0433 26.8523 54.2087C29.367 56.3741 28.5296 58.5419 27.9697 59.3099C27.4098 60.078 27.4121 61.5471 26.9911 61.827C26.57 62.1069 26.5029 60.7096 26.0148 60.4389C25.5267 60.1682 25.5891 61.2024 25.0316 62.5904C24.474 63.9785 21.957 66.0144 20.636 65.8756C19.315 65.7368 17.7002 64.2562 16.791 61.1931C15.8818 58.1301 16.5133 54.8333 18.179 53.79C18.6674 53.4848 19.2241 53.306 19.7988 53.2697C20.3735 53.2333 20.9482 53.3406 21.4711 53.5818Z" fill="#92E3A9" stroke="#263238" stroke-width="0.272933" stroke-linecap="round" stroke-linejoin="round"/>
<path d="M27.0235 54.8984C27.0235 54.8984 27.5788 56.504 26.1583 58.2923C24.7378 60.0806 22.8269 61.0685 21.4087 60.2056C19.9906 59.3426 19.9258 58.3548 19.9258 58.3548" stroke="#263238" stroke-width="0.272933" stroke-linecap="round" stroke-linejoin="round"/>
<path d="M17.6497 58.6582C17.6497 58.6582 17.3397 63.4772 20.2408 63.9792C23.142 64.4812 24.7452 61.4344 24.7452 61.4344" stroke="#263238" stroke-width="0.272933" stroke-linecap="round" stroke-linejoin="round"/>
<path d="M18.5681 58.7525C20.1703 58.7525 21.4692 57.4381 21.4692 55.8167C21.4692 54.1953 20.1703 52.8809 18.5681 52.8809C16.9659 52.8809 15.667 54.1953 15.667 55.8167C15.667 57.4381 16.9659 58.7525 18.5681 58.7525Z" fill="#92E3A9" stroke="#263238" stroke-width="0.272933" stroke-linecap="round" stroke-linejoin="round"/>
<path d="M17.957 55.3942C17.957 55.3942 18.3272 53.4809 19.3752 53.2334" stroke="#263238" stroke-width="0.272933" stroke-linecap="round" stroke-linejoin="round"/>
<path d="M17.8345 55.6511C17.8345 55.6511 19.9305 54.9108 20.9183 55.7136" stroke="#263238" stroke-width="0.272933" stroke-linecap="round" stroke-linejoin="round"/>
<path d="M17.7102 56.0088C17.7102 56.0088 16.7848 56.6265 17.0948 58.047" stroke="#263238" stroke-width="0.272933" stroke-linecap="round" stroke-linejoin="round"/>
<path d="M26.4293 62.0361C26.4293 62.0361 26.2188 59.9401 25.5895 60.0095C24.9603 60.0789 25.2402 63.2252 25.5895 63.7111C25.6203 63.7736 25.6665 63.8274 25.7237 63.8672C25.7809 63.9071 25.8473 63.9317 25.9167 63.9389C25.9861 63.9461 26.0561 63.9355 26.1203 63.9082C26.1845 63.8809 26.2407 63.8377 26.2836 63.7828" fill="white"/>
<path d="M26.4293 62.0361C26.4293 62.0361 26.2188 59.9401 25.5895 60.0095C24.9603 60.0789 25.2402 63.2252 25.5895 63.7111C25.6203 63.7736 25.6665 63.8274 25.7237 63.8672C25.7809 63.9071 25.8473 63.9317 25.9167 63.9389C25.9861 63.9461 26.0561 63.9355 26.1203 63.9082C26.1845 63.8809 26.2407 63.8377 26.2836 63.7828" stroke="#263238" stroke-width="0.272933" stroke-linecap="round" stroke-linejoin="round"/>
<path d="M85.4927 93.3375H20.5996L22.7882 87.8291H70.8924L85.4927 93.3375Z" fill="#B5B5B5" stroke="#263238" stroke-width="0.272933" stroke-linecap="round" stroke-linejoin="round"/>
<path d="M84.6018 94.4385H21.3188V96.1759H84.6018V94.4385Z" fill="#263238" stroke="#263238" stroke-width="0.272933" stroke-linecap="round" stroke-linejoin="round"/>
<path d="M85.4927 93.3369H20.5996V95.382H85.4927V93.3369Z" fill="#4C4C4C" stroke="#263238" stroke-width="0.272933" stroke-linecap="round" stroke-linejoin="round"/>
<path d="M45.0458 88.5352L46.9267 91.5033H31.6924L33.1753 88.5352H45.0458Z" fill="white"/>
<path d="M42.1775 89.4248L44.0584 92.3907H28.8218L30.307 89.4248H42.1775Z" fill="white"/>
<path d="M23.6349 73.0781L26.5614 86.7045L37.953 88.3124C37.953 88.3124 41.377 86.9243 41.6546 86.9243C41.9322 86.9243 42.4227 87.7618 42.6332 88.0417C42.8437 88.3217 43.1907 88.7358 43.3272 88.9509C43.4637 89.1661 43.5354 90.2071 43.3272 90.4871C43.119 90.767 42.698 91.5351 42.2769 91.4657C41.8559 91.3963 42.2769 90.2789 42.2769 90.2789C42.2769 90.2789 39.8316 91.2551 39.0635 91.2551C38.2954 91.2551 36.75 90.5611 36.75 90.5611C36.75 90.5611 23.7853 92.0163 23.0056 91.741C22.6877 91.6428 22.3934 91.4804 22.1407 91.2639C21.888 91.0475 21.6824 90.7815 21.5366 90.4824C21.2589 89.9249 16.7847 74.9682 16.7847 74.9682" fill="white"/>
<path d="M23.6349 73.0781L26.5614 86.7045L37.953 88.3124C37.953 88.3124 41.377 86.9243 41.6546 86.9243C41.9322 86.9243 42.4227 87.7618 42.6332 88.0417C42.8437 88.3217 43.1907 88.7358 43.3272 88.9509C43.4637 89.1661 43.5354 90.2071 43.3272 90.4871C43.119 90.767 42.698 91.5351 42.2769 91.4657C41.8559 91.3963 42.2769 90.2789 42.2769 90.2789C42.2769 90.2789 39.8316 91.2551 39.0635 91.2551C38.2954 91.2551 36.75 90.5611 36.75 90.5611C36.75 90.5611 23.7853 92.0163 23.0056 91.741C22.6877 91.6428 22.3934 91.4804 22.1407 91.2639C21.888 91.0475 21.6824 90.7815 21.5366 90.4824C21.2589 89.9249 16.7847 74.9682 16.7847 74.9682" stroke="#263238" stroke-width="0.272933" stroke-linecap="round" stroke-linejoin="round"/>
<path d="M42.6425 88.0393C42.432 87.7594 41.9485 86.9219 41.6639 86.9219C41.3793 86.9219 37.9623 88.31 37.9623 88.31L31.4707 87.3846C31.8938 88.5657 32.0015 89.8368 31.783 91.0723C34.4921 90.7946 36.7732 90.5355 36.7732 90.5355C36.7732 90.5355 38.3117 91.2296 39.0867 91.2296C39.8617 91.2296 42.2932 90.2695 42.2932 90.2695C42.2932 90.2695 41.8744 91.3869 42.2932 91.4563C42.7119 91.5257 43.133 90.7623 43.3435 90.4777C43.554 90.1931 43.4823 89.1498 43.3435 88.9415C43.2047 88.7333 42.8507 88.3123 42.6425 88.0393Z" fill="white" stroke="#263238" stroke-width="0.272933" stroke-linecap="round" stroke-linejoin="round"/>
<path d="M1.28857 96.1758H111.928" stroke="#263238" stroke-width="0.272933" stroke-linecap="round" stroke-linejoin="round"/>
<path d="M62.0636 91.5957H74.3621V91.2001L56.0532 88.4609L56.4974 88.8565L62.0636 91.5957Z" fill="white" stroke="#263238" stroke-width="0.272933" stroke-linecap="round" stroke-linejoin="round"/>
<path d="M62.0638 91.2001H74.3623L67.866 88.5257L56.4976 88.4609L62.0638 91.2001Z" fill="white" stroke="#263238" stroke-width="0.272933" stroke-linecap="round" stroke-linejoin="round"/>
<path d="M64.0669 89.0694H65.219L64.6314 88.8242L63.5024 88.8335L64.0669 89.0694Z" fill="white" stroke="#263238" stroke-width="0.2047" stroke-linecap="round" stroke-linejoin="round"/>
<path d="M66.4062 90.0479L66.9962 90.2954H68.1483L67.5584 90.0479H66.4062Z" fill="white" stroke="#263238" stroke-width="0.2047" stroke-linecap="round" stroke-linejoin="round"/>
<path d="M68.5413 89.6768H67.2666L67.6044 89.8179H68.8837L68.5413 89.6768Z" fill="white" stroke="#263238" stroke-width="0.2047" stroke-linecap="round" stroke-linejoin="round"/>
<path d="M65.856 89.8179H67.0104L66.6726 89.6768H65.5205L65.856 89.8179Z" fill="white" stroke="#263238" stroke-width="0.2047" stroke-linecap="round" stroke-linejoin="round"/>
<path d="M66.7182 89.4488H67.9837L67.6228 89.3008H66.3643L66.7182 89.4488Z" fill="white" stroke="#263238" stroke-width="0.2047" stroke-linecap="round" stroke-linejoin="round"/>
<path d="M62.3184 89.0702H63.4728L62.9199 88.8389L61.7886 88.8504L62.3184 89.0702Z" fill="white" stroke="#263238" stroke-width="0.2047" stroke-linecap="round" stroke-linejoin="round"/>
<path d="M64.6157 89.3008L64.9697 89.4488H66.1241L65.7702 89.3008H64.6157Z" fill="white" stroke="#263238" stroke-width="0.2047" stroke-linecap="round" stroke-linejoin="round"/>
<path d="M70.2669 90.9335H71.5926L70.6024 90.5264H69.293L70.2669 90.9335Z" fill="white" stroke="#263238" stroke-width="0.2047" stroke-linecap="round" stroke-linejoin="round"/>
<path d="M67.5444 90.5264L68.5184 90.9335H69.6728L68.6989 90.5264H67.5444Z" fill="white" stroke="#263238" stroke-width="0.2047" stroke-linecap="round" stroke-linejoin="round"/>
<path d="M65.7959 90.5264L66.7699 90.9335H67.9243L66.9503 90.5264H65.7959Z" fill="white" stroke="#263238" stroke-width="0.2047" stroke-linecap="round" stroke-linejoin="round"/>
<path d="M65.2006 90.5264H62.9473L63.7524 90.9335H66.1746L65.2006 90.5264Z" fill="white" stroke="#263238" stroke-width="0.2047" stroke-linecap="round" stroke-linejoin="round"/>
<path d="M65.8164 89.07H67.0633L66.4271 88.8086L65.2148 88.8202L65.8164 89.07Z" fill="white" stroke="#263238" stroke-width="0.2047" stroke-linecap="round" stroke-linejoin="round"/>
<path d="M68.1548 90.0479L68.7447 90.2954H70.0449L69.4434 90.0479H68.1548Z" fill="white" stroke="#263238" stroke-width="0.2047" stroke-linecap="round" stroke-linejoin="round"/>
<path d="M66.4016 90.2954L65.8093 90.0479H64.6572L65.2472 90.2954H66.4016Z" fill="white" stroke="#263238" stroke-width="0.2047" stroke-linecap="round" stroke-linejoin="round"/>
<path d="M61.7239 89.0697L61.2057 88.8545L59.6719 88.8661L60.0721 89.0697H61.7239Z" fill="white" stroke="#263238" stroke-width="0.2047" stroke-linecap="round" stroke-linejoin="round"/>
<path d="M64.9231 89.6768H63.771L64.1065 89.8179H65.2609L64.9231 89.6768Z" fill="white" stroke="#263238" stroke-width="0.2047" stroke-linecap="round" stroke-linejoin="round"/>
<path d="M62.8662 89.3008L63.2202 89.4488H64.3746L64.0206 89.3008H62.8662Z" fill="white" stroke="#263238" stroke-width="0.2047" stroke-linecap="round" stroke-linejoin="round"/>
<path d="M63.5119 89.8179L63.1765 89.6768H61.2725L61.5524 89.8179H63.5119Z" fill="white" stroke="#263238" stroke-width="0.2047" stroke-linecap="round" stroke-linejoin="round"/>
<path d="M60.8193 89.4488H62.6262L62.2722 89.3008H60.5278L60.8193 89.4488Z" fill="white" stroke="#263238" stroke-width="0.2047" stroke-linecap="round" stroke-linejoin="round"/>
<path d="M64.063 90.0479H62.0063L62.4945 90.2954H64.653L64.063 90.0479Z" fill="white" stroke="#263238" stroke-width="0.2047" stroke-linecap="round" stroke-linejoin="round"/>
<path d="M62.0636 91.2H61.6195L53.1128 78.9339L53.5338 78.8066H59.1024L62.0636 91.2Z" fill="white" stroke="#263238" stroke-width="0.272933" stroke-linecap="round" stroke-linejoin="round"/>
<path d="M61.6198 91.2L56.0535 88.4608L53.0923 78.8066H58.6585L61.6198 91.2Z" fill="white" stroke="#263238" stroke-width="0.272933" stroke-linecap="round" stroke-linejoin="round"/>
<path d="M110.29 96.1756V81.3045C110.29 81.1984 110.248 81.0966 110.173 81.0215C110.098 80.9465 109.996 80.9043 109.89 80.9043H104.472C104.366 80.9043 104.264 80.9465 104.189 81.0215C104.114 81.0966 104.072 81.1984 104.072 81.3045V96.1756H110.29Z" fill="#263238" stroke="#263238" stroke-width="0.272933" stroke-linecap="round" stroke-linejoin="round"/>
<path d="M108.331 96.1756V81.3045C108.331 81.2519 108.321 81.1997 108.301 81.151C108.281 81.1023 108.252 81.0581 108.215 81.0208C108.177 80.9836 108.133 80.9541 108.084 80.9341C108.036 80.9141 107.983 80.904 107.931 80.9043H102.515C102.462 80.904 102.41 80.9141 102.361 80.9341C102.313 80.9541 102.269 80.9836 102.231 81.0208C102.194 81.0581 102.165 81.1023 102.145 81.151C102.125 81.1997 102.114 81.2519 102.115 81.3045V96.1756H108.331Z" fill="#4C4C4C" stroke="#263238" stroke-width="0.272933" stroke-linecap="round" stroke-linejoin="round"/>
<path d="M86.6236 72.4666C86.6236 72.4666 84.2361 74.0583 83.9354 75.0369C83.6346 76.0155 81.8532 81.5863 81.6705 82.0143C81.4877 82.4423 80.0186 84.7072 80.0186 84.7072L72.1852 85.0727C72.1852 85.0727 68.6363 84.2792 68.3286 84.2792C68.0209 84.2792 64.9625 86.2989 64.7173 86.8495C64.472 87.4001 63.9237 88.1959 64.1667 88.3787C64.4096 88.5615 64.7797 88.2561 64.7797 88.2561C64.7797 88.2561 64.9023 89.1121 66.4316 88.8067C67.9608 88.5013 69.4923 87.4001 69.4923 87.4001C69.4923 87.4001 71.3894 88.3255 72.1227 88.1335L72.1852 88.115V88.9293C72.1852 88.9293 82.5288 89.4799 82.9568 89.3573C83.3847 89.2347 85.6496 86.4816 85.6496 86.4816L88.2801 72.2815C88.2801 72.2815 88.1528 70.9351 86.6236 72.4666Z" fill="#92E3A9" stroke="#263238" stroke-width="0.272933" stroke-linecap="round" stroke-linejoin="round"/>
<path d="M72.3497 85.2857L72.2016 85.0728H72.1808C72.1808 85.0728 68.6319 84.2793 68.3242 84.2793C68.0165 84.2793 64.9581 86.299 64.7129 86.8496C64.4676 87.4002 63.9194 88.196 64.1623 88.3788C64.4052 88.5615 64.7753 88.2562 64.7753 88.2562C64.7753 88.2562 64.898 89.1122 66.4272 88.8068C67.9564 88.5014 69.4879 87.4002 69.4879 87.4002C69.4879 87.4002 71.385 88.3256 72.1183 88.1336L72.1808 88.115V88.9294L72.3497 85.2857Z" fill="#4C4C4C" stroke="#263238" stroke-width="0.272933" stroke-linecap="round" stroke-linejoin="round"/>
<path d="M86.9155 96.1754H87.1584C86.9711 95.7312 86.8068 95.324 86.7397 95.1019C86.5454 94.4495 84.1949 85.9544 83.9311 84.7144C83.6674 83.4743 83.7993 81.7068 84.454 79.2245C85.1087 76.7421 86.624 72.4668 86.624 72.4668L84.454 75.5021C84.454 75.5021 82.624 82.5582 82.624 83.472C82.624 84.3859 83.5378 89.0244 84.454 91.3124C84.9838 92.638 86.085 94.6855 86.9155 96.1754Z" fill="#92E3A9" stroke="#263238" stroke-width="0.272933" stroke-linecap="round" stroke-linejoin="round"/>
<path d="M87.6024 70.7529C87.6024 70.7529 85.3398 74.3018 84.7267 76.7518C84.1136 79.2018 83.6255 81.3417 83.6255 83.5442C83.6255 85.7466 86.0731 91.9907 86.441 92.7865C86.8088 93.5823 90.7857 93.8253 92.0095 90.0312C93.2334 86.237 93.784 75.2827 93.0506 72.7726C92.3172 70.2625 89.1339 69.1011 87.6024 70.7529Z" fill="white" stroke="#263238" stroke-width="0.272933" stroke-linecap="round" stroke-linejoin="round"/>
<path d="M86.9663 70.2385C86.816 70.4698 84.7824 71.5942 84.7824 71.5942L84.7061 73.7017L85.3099 72.5728L86.2491 75.3697L87.2601 70.1621L86.9663 70.2385Z" fill="#808080" stroke="#263238" stroke-width="0.272933" stroke-linecap="round" stroke-linejoin="round"/>
<path d="M87.1926 96.1746H103.85C103.301 94.7078 101.182 89.0259 101.117 88.7714C101.041 88.4684 99.3107 75.0641 97.5015 72.5771C95.6924 70.0901 91.4865 69.1878 90.575 69.7153C90.575 69.7153 87.5674 75.816 86.4315 78.6777C85.2956 81.5395 84.5483 87.1867 84.5483 88.0149C84.5483 88.8432 86.1308 94.03 86.1308 94.03L87.1926 96.1746Z" fill="#92E3A9" stroke="#263238" stroke-width="0.272933" stroke-linecap="round" stroke-linejoin="round"/>
<path d="M99.1906 91.6943L91.9888 93.8389L92.4491 94.7574L96.433 93.5336" stroke="#263238" stroke-width="0.272933" stroke-linecap="round" stroke-linejoin="round"/>
<path d="M83.4054 59.6364C83.4054 59.6364 82.827 61.4225 82.8131 61.7903C82.8074 62.0643 82.8159 62.3384 82.8386 62.6116C82.8457 62.758 82.8104 62.9035 82.7368 63.0303C82.6165 63.2246 81.2631 64.5271 81.4227 64.7886C81.5824 65.05 82.517 66.0887 82.517 66.0887C82.517 66.0887 83.1717 69.2096 84.0485 69.5705C84.9253 69.9314 86.1631 69.7093 86.1631 69.7093L86.6096 70.9285L92.0786 69.1356L91.9953 67.338C91.9953 67.338 92.5436 64.1362 91.9144 61.8366C91.2851 59.537 85.8137 57.0384 83.4054 59.6364Z" fill="white" stroke="#263238" stroke-width="0.272933" stroke-linecap="round" stroke-linejoin="round"/>
<path d="M83.5818 63.3061C83.517 63.5721 83.3805 63.7688 83.2787 63.7433C83.1769 63.7179 83.1445 63.4819 83.2093 63.2158C83.2741 62.9498 83.4082 62.7531 83.5124 62.7786C83.6165 62.804 83.6442 63.04 83.5818 63.3061Z" fill="#263238"/>
<path d="M83.1929 62.0929C83.3033 62.0624 83.4187 62.054 83.5324 62.0682C83.6461 62.0825 83.7558 62.119 83.8553 62.1757C83.9549 62.2325 84.0422 62.3083 84.1123 62.3989C84.1825 62.4895 84.234 62.5931 84.264 62.7037" fill="white"/>
<path d="M83.1929 62.0929C83.3033 62.0624 83.4187 62.054 83.5324 62.0682C83.6461 62.0825 83.7558 62.119 83.8553 62.1757C83.9549 62.2325 84.0422 62.3083 84.1123 62.3989C84.1825 62.4895 84.234 62.5931 84.264 62.7037" stroke="#263238" stroke-width="0.272933" stroke-linecap="round" stroke-linejoin="round"/>
<path d="M82.6587 66.5234C82.6587 66.5234 83.2694 67.1365 84.3406 66.7548Z" fill="white"/>
<path d="M82.6587 66.5234C82.6587 66.5234 83.2694 67.1365 84.3406 66.7548" stroke="#263238" stroke-width="0.272933" stroke-linecap="round" stroke-linejoin="round"/>
<path d="M86.7579 55.2593C86.5841 54.8325 86.3067 54.4558 85.9509 54.1629C85.5951 53.8701 85.172 53.6705 84.7197 53.582C83.1604 53.2813 82.0453 55.456 82.4363 56.2911C82.8273 57.1263 83.0031 57.316 82.2536 57.3576C81.504 57.3993 80.0673 59.3495 81.3282 60.5456C82.589 61.7417 84.1182 60.032 84.1946 60.6428C84.2709 61.2535 84.065 61.7995 84.7984 61.825C85.5318 61.8504 86.7371 61.7741 86.5474 62.2483C86.3577 62.7226 86.316 63.8215 87.0101 63.9904C87.7041 64.1593 88.139 63.2963 88.6295 63.419C89.12 63.5416 89.7862 65.1032 89.349 65.9638C88.9117 66.8244 88.6226 66.8267 88.5717 67.0372C88.5208 67.2478 89.8788 68.6844 91.2738 68.4253C92.6688 68.1662 94.4826 67.7174 94.6955 66.2136C94.9083 64.7099 94.4641 64.3814 95.0425 63.8539C95.6208 63.3264 96.1738 63.1598 96.0095 62.3085C95.8453 61.4571 95.3155 61.1795 95.4867 60.4785C95.6579 59.7775 94.9615 56.5757 91.9632 55.1876C88.965 53.7995 86.7579 55.2593 86.7579 55.2593Z" fill="#263238" stroke="#263238" stroke-width="0.272933" stroke-linecap="round" stroke-linejoin="round"/>
<path d="M92.6549 67.4443L85.7607 71.4443L86.2558 75.3703L93.6127 69.5218L92.6549 67.4443Z" fill="white" stroke="#263238" stroke-width="0.272933" stroke-linecap="round" stroke-linejoin="round"/>
<path d="M74.6165 86.0547C74.6165 86.0547 73.2284 85.5387 72.3493 85.2866C70.8409 84.854 69.4274 84.2108 68.8999 84.3612C68.3724 84.5116 65.8045 86.2791 65.8045 86.2791C65.8045 86.2791 64.8999 88.463 64.9763 88.7661C65.0526 89.0691 65.6032 88.581 65.6032 88.581C65.6032 88.581 65.277 88.9905 65.5778 89.2935C65.8785 89.5966 66.1816 88.9905 66.1816 88.9905C66.1816 88.9905 66.1052 89.7447 66.5564 89.6683C66.6724 89.6637 66.7836 89.6212 66.8731 89.5472C66.9625 89.4732 67.0252 89.3719 67.0514 89.2588C67.0514 89.2588 67.0838 89.6683 67.4609 89.6683C67.838 89.6683 68.6663 88.0882 68.6663 88.0882L70.096 88.1622C70.096 88.1622 71.2273 88.766 71.9051 88.8401C72.583 88.9141 73.4112 88.463 73.4112 88.463L74.3135 88.6943L75.0677 86.5104L74.6165 86.0547Z" fill="white" stroke="#263238" stroke-width="0.272933" stroke-linecap="round" stroke-linejoin="round"/>
<path d="M65.603 88.5807C65.603 88.5807 66.3734 86.7299 66.496 86.6096C66.6186 86.4893 68.1594 85.624 68.1594 85.624" stroke="#263238" stroke-width="0.272933" stroke-linecap="round" stroke-linejoin="round"/>
<path d="M66.1816 88.9899C66.1816 88.9899 67.107 87.1021 67.2065 87.0095C67.306 86.917 68.4674 86.334 68.4674 86.334" stroke="#263238" stroke-width="0.272933" stroke-linecap="round" stroke-linejoin="round"/>
<path d="M67.0474 89.2576C67.0474 89.2576 67.9404 87.534 68.0954 87.4415C68.2504 87.3489 68.6483 87.1338 68.6483 87.1338" stroke="#263238" stroke-width="0.272933" stroke-linecap="round" stroke-linejoin="round"/>
<path d="M94.5776 72.4229C94.5776 72.4229 89.8326 75.509 89.909 76.7144C89.9853 77.9197 90.3601 77.9197 90.3601 77.9197L87.9495 86.9561C87.9495 86.9561 87.1976 86.3546 87.1212 87.1088L87.0472 87.8607L74.4688 85.7531L73.1895 88.9157C73.1895 88.9157 78.3855 90.9492 82.0015 92.2286C85.6175 93.5079 89.3815 94.94 89.7563 94.2621C90.1311 93.5843 97.5851 82.4379 98.0478 81.6097C98.5105 80.7815 98.5105 79.2754 98.5105 79.2754" fill="#92E3A9"/>
<path d="M94.5776 72.4229C94.5776 72.4229 89.8326 75.509 89.909 76.7144C89.9853 77.9197 90.3601 77.9197 90.3601 77.9197L87.9495 86.9561C87.9495 86.9561 87.1976 86.3546 87.1212 87.1088L87.0472 87.8607L74.4688 85.7531L73.1895 88.9157C73.1895 88.9157 78.3855 90.9492 82.0015 92.2286C85.6175 93.5079 89.3815 94.94 89.7563 94.2621C90.1311 93.5843 97.5851 82.4379 98.0478 81.6097C98.5105 80.7815 98.5105 79.2754 98.5105 79.2754" stroke="#263238" stroke-width="0.272933" stroke-linecap="round" stroke-linejoin="round"/>
<path d="M90.3555 77.9203C90.3555 77.9203 91.7852 74.9845 95.2508 74.7578" stroke="#263238" stroke-width="0.272933" stroke-linecap="round" stroke-linejoin="round"/>
</svg>
