<svg width="87" height="90" viewBox="0 0 87 90" fill="none" xmlns="http://www.w3.org/2000/svg">
<path d="M0.819336 26.208C1.05907 27.1588 0.941236 25.4096 1.41055 23.2723C1.87986 21.135 2.68643 22.0005 2.68643 22.0005" stroke="#263238" stroke-width="0.122696" stroke-linecap="round" stroke-linejoin="round"/>
<path d="M0.67334 24.0233L2.1463 23.4199" stroke="#263238" stroke-width="0.122696" stroke-linecap="round" stroke-linejoin="round"/>
<path d="M3.36308 22.6953C3.36308 22.6953 2.48337 24.5238 3.81004 25.2918" stroke="#263238" stroke-width="0.122696" stroke-linecap="round" stroke-linejoin="round"/>
<path d="M4.6123 22.1826C4.6123 22.1826 6.06698 22.9953 5.15679 24.7385" stroke="#263238" stroke-width="0.122696" stroke-linecap="round" stroke-linejoin="round"/>
<path d="M3.61719 23.3135L4.65943 24.0733" stroke="#263238" stroke-width="0.122696" stroke-linecap="round" stroke-linejoin="round"/>
<path d="M4.43384 22.9785L3.61914 24.2767" stroke="#263238" stroke-width="0.122696" stroke-linecap="round" stroke-linejoin="round"/>
<path d="M9.11391 42.4359C9.31216 41.2279 8.49359 40.0879 7.28559 39.8897C6.07758 39.6914 4.93759 40.51 4.73934 41.718C4.54109 42.926 5.35965 44.066 6.56766 44.2642C7.77566 44.4625 8.91566 43.6439 9.11391 42.4359Z" stroke="#263238" stroke-width="0.122696" stroke-linecap="round" stroke-linejoin="round"/>
<path d="M10.4292 45.3508C11.7592 45.078 12.6162 43.7787 12.3435 42.4487C12.0707 41.1187 10.7714 40.2617 9.44139 40.5344C8.11139 40.8072 7.25433 42.1065 7.5271 43.4365C7.79986 44.7665 9.09917 45.6236 10.4292 45.3508Z" stroke="#263238" stroke-width="0.122696" stroke-linecap="round" stroke-linejoin="round"/>
<path d="M8.94616 41.1602L7.92627 41.5238" stroke="#263238" stroke-width="0.122696" stroke-linecap="round" stroke-linejoin="round"/>
<path d="M9.08844 41.582L7.62158 42.1123" stroke="#263238" stroke-width="0.122696" stroke-linecap="round" stroke-linejoin="round"/>
<path d="M9.14338 42.0889L7.50586 42.7187" stroke="#263238" stroke-width="0.122696" stroke-linecap="round" stroke-linejoin="round"/>
<path d="M9.02745 42.7822L7.53418 43.4649" stroke="#263238" stroke-width="0.122696" stroke-linecap="round" stroke-linejoin="round"/>
<path d="M8.76257 43.3145L7.62891 43.7858" stroke="#263238" stroke-width="0.122696" stroke-linecap="round" stroke-linejoin="round"/>
<path d="M7.99761 38.6984C7.93463 38.4953 7.21542 38.3693 7.18494 38.9016C7.15447 39.4339 7.94275 38.991 8.16624 38.6984C8.16624 38.6984 7.7599 39.2449 7.93056 39.3526" stroke="#263238" stroke-width="0.122696" stroke-linecap="round" stroke-linejoin="round"/>
<path d="M11.9793 39.3604L11.3413 40.687C11.3413 40.687 11.6603 40.0227 12.0016 40.0775C12.4222 40.1527 12.1418 40.8414 11.6339 40.5875" stroke="#263238" stroke-width="0.122696" stroke-linecap="round" stroke-linejoin="round"/>
<path d="M81.4033 61.0225L82.4049 61.9692" stroke="#263238" stroke-width="0.122696" stroke-linecap="round" stroke-linejoin="round"/>
<path d="M82.405 60.7744L81.5659 62.028" stroke="#263238" stroke-width="0.122696" stroke-linecap="round" stroke-linejoin="round"/>
<path d="M83.3901 61.1346L84.3938 60.7607" stroke="#263238" stroke-width="0.122696" stroke-linecap="round" stroke-linejoin="round"/>
<path d="M84.8755 59.7158L85.485 60.2542" stroke="#263238" stroke-width="0.122696" stroke-linecap="round" stroke-linejoin="round"/>
<path d="M85.9522 59.0674L85.1802 61.7167" stroke="#263238" stroke-width="0.122696" stroke-linecap="round" stroke-linejoin="round"/>
<path d="M39.1973 46.141L41.8933 44.2861L45.4629 44.536L45.6864 49.0626L43.0656 50.9358L39.8311 50.7001L39.1973 46.141Z" stroke="#263238" stroke-width="0.122696" stroke-linecap="round" stroke-linejoin="round"/>
<path d="M39.8315 50.6996L42.4422 48.8203L45.6868 49.0621" stroke="#263238" stroke-width="0.122696" stroke-linecap="round" stroke-linejoin="round"/>
<path d="M42.4421 48.8208L41.8936 44.2861" stroke="#263238" stroke-width="0.122696" stroke-linecap="round" stroke-linejoin="round"/>
<path d="M39.1973 46.1411L42.7588 46.5536L45.4629 44.5361" stroke="#263238" stroke-width="0.122696" stroke-linecap="round" stroke-linejoin="round"/>
<path d="M42.7593 46.5527L43.0661 50.935" stroke="#263238" stroke-width="0.122696" stroke-linecap="round" stroke-linejoin="round"/>
<path d="M70.6643 30.9336L69.4697 34.6454L73.1877 34.1436L70.6643 30.9336Z" stroke="#263238" stroke-width="0.122696" stroke-linecap="round" stroke-linejoin="round"/>
<path d="M70.6636 30.9336L71.3279 34.3732" stroke="#263238" stroke-width="0.122696" stroke-linecap="round" stroke-linejoin="round"/>
<path d="M71.2227 33.822L71.6574 33.7529L71.759 34.336" stroke="#263238" stroke-width="0.122696" stroke-linecap="round" stroke-linejoin="round"/>
<path d="M23.8418 64.9014L25.6987 65.8136" stroke="#263238" stroke-width="0.122696" stroke-linecap="round" stroke-linejoin="round"/>
<path d="M25.0997 64.2041L24.5674 66.1443" stroke="#263238" stroke-width="0.122696" stroke-linecap="round" stroke-linejoin="round"/>
<path d="M25.3579 63.2565C25.3884 63.225 25.4258 63.201 25.4672 63.1866C25.5086 63.1721 25.5528 63.1676 25.5962 63.1733C25.6397 63.179 25.6812 63.1949 25.7175 63.2196C25.7537 63.2442 25.7836 63.2771 25.8049 63.3154C25.9918 63.608 25.6261 64.2216 25.6261 64.2216L26.3717 63.9371" stroke="#263238" stroke-width="0.122696" stroke-linecap="round" stroke-linejoin="round"/>
<path d="M38.4211 0.993164C40.1947 1.99071 38.1631 4.42871 38.1631 5.85087C38.1631 7.27304 40.1947 7.06987 41.2106 7.4762C41.6169 7.4762 42.4296 7.4762 42.4072 8.50829" stroke="#263238" stroke-width="0.122696" stroke-linecap="round" stroke-linejoin="round"/>
<path d="M36.4443 2.28809C36.7531 3.96827 38.6792 3.37299 39.8616 3.75698C41.8933 4.41727 40.7657 6.51395 40.1603 7.78171C39.7966 8.53748 39.4349 9.59801 40.0851 10.3152" stroke="#263238" stroke-width="0.122696" stroke-linecap="round" stroke-linejoin="round"/>
<path d="M36.7051 2.94001L38.82 1.18262" stroke="#263238" stroke-width="0.122696" stroke-linecap="round" stroke-linejoin="round"/>
<path d="M37.5332 3.46316L39.126 2.14258" stroke="#263238" stroke-width="0.122696" stroke-linecap="round" stroke-linejoin="round"/>
<path d="M38.4702 4.80061L39.8152 3.74414" stroke="#263238" stroke-width="0.122696" stroke-linecap="round" stroke-linejoin="round"/>
<path d="M38.1919 6.38066L40.8209 4.49121" stroke="#263238" stroke-width="0.122696" stroke-linecap="round" stroke-linejoin="round"/>
<path d="M39.1997 7.1184L41.0323 5.77344" stroke="#263238" stroke-width="0.122696" stroke-linecap="round" stroke-linejoin="round"/>
<path d="M39.9795 9.97737L42.2692 8.1123" stroke="#263238" stroke-width="0.122696" stroke-linecap="round" stroke-linejoin="round"/>
<path d="M40.0361 8.50935L41.5294 7.45898" stroke="#263238" stroke-width="0.122696" stroke-linecap="round" stroke-linejoin="round"/>
<path d="M10.1406 65.913C12.3222 65.0404 13.3834 62.5646 12.5108 60.383C11.6382 58.2015 9.16238 57.1403 6.98082 58.0129C4.79926 58.8854 3.73811 61.3613 4.61067 63.5428C5.48323 65.7244 7.95909 66.7855 10.1406 65.913Z" stroke="#263238" stroke-width="0.122696" stroke-linecap="round" stroke-linejoin="round"/>
<path d="M9.63077 57.8466C11.1139 56.1054 12.3755 55.1201 12.8611 55.4411C13.6006 55.9266 12.274 59.2423 9.89895 62.8445C7.52393 66.4466 4.99858 68.974 4.25905 68.4864C3.77145 68.1674 4.18185 66.6193 5.19768 64.5693" stroke="#263238" stroke-width="0.122696" stroke-linecap="round" stroke-linejoin="round"/>
<path d="M4.39713 62.8365C2.3289 62.2412 1.00832 61.5464 1.09161 60.9917C1.21148 60.1141 4.78518 59.9109 9.0537 60.5509C13.3222 61.1908 16.6785 62.4037 16.5505 63.2774C16.4591 63.8869 14.722 64.1652 12.2536 64.0717" stroke="#263238" stroke-width="0.122696" stroke-linecap="round" stroke-linejoin="round"/>
<path d="M4.93972 59.7546C3.3794 56.9388 2.59924 54.7425 3.12747 54.3992C3.8223 53.9502 6.50816 56.8636 9.12697 60.9005C11.7458 64.9374 13.3041 68.5863 12.6113 69.0373C12.1521 69.3339 10.8214 68.1596 9.21434 66.1605" stroke="#263238" stroke-width="0.122696" stroke-linecap="round" stroke-linejoin="round"/>
<path d="M13.4605 57.2814C13.3848 57.3969 13.2765 57.4874 13.1494 57.5414C13.0222 57.5954 12.882 57.6105 12.7462 57.5848C12.6105 57.5592 12.4855 57.4938 12.3868 57.3971C12.2882 57.3004 12.2205 57.1767 12.1921 57.0415C12.1638 56.9063 12.1761 56.7658 12.2276 56.6376C12.2791 56.5094 12.3674 56.3994 12.4814 56.3214C12.5953 56.2434 12.7299 56.2009 12.868 56.1993C13.0061 56.1977 13.1416 56.237 13.2574 56.3123C13.3345 56.3625 13.4009 56.4274 13.4529 56.5033C13.5048 56.5793 13.5413 56.6647 13.5602 56.7547C13.579 56.8447 13.58 56.9376 13.5629 57.028C13.5458 57.1184 13.511 57.2045 13.4605 57.2814Z" fill="#263238"/>
<path d="M11.1461 67.9875C11.0703 68.103 10.962 68.1934 10.8349 68.2474C10.7078 68.3014 10.5675 68.3166 10.4318 68.2909C10.2961 68.2652 10.171 68.1999 10.0724 68.1032C9.97376 68.0065 9.906 67.8827 9.87766 67.7476C9.84932 67.6124 9.86167 67.4718 9.91315 67.3437C9.96464 67.2155 10.0529 67.1055 10.1669 67.0274C10.2809 66.9494 10.4154 66.9069 10.5535 66.9053C10.6916 66.9037 10.8271 66.9431 10.9429 67.0184C11.02 67.0686 11.0864 67.1335 11.1384 67.2094C11.1904 67.2853 11.2268 67.3707 11.2457 67.4608C11.2646 67.5508 11.2655 67.6437 11.2484 67.7341C11.2313 67.8245 11.1965 67.9106 11.1461 67.9875Z" fill="#263238"/>
<path d="M7.41218 60.7238C7.33642 60.8393 7.22815 60.9298 7.10102 60.9838C6.97389 61.0378 6.83361 61.0529 6.6979 61.0272C6.56219 61.0015 6.43712 60.9362 6.3385 60.8395C6.23988 60.7428 6.17212 60.6191 6.14378 60.4839C6.11544 60.3487 6.12779 60.2082 6.17927 60.08C6.23075 59.9518 6.31905 59.8418 6.43303 59.7638C6.547 59.6858 6.68154 59.6433 6.81965 59.6416C6.95776 59.64 7.09325 59.6794 7.20902 59.7547C7.36431 59.8564 7.47291 60.0156 7.511 60.1973C7.54909 60.3789 7.51355 60.5683 7.41218 60.7238Z" fill="#263238"/>
<path d="M51.9686 30.3135H54.3619L55.5586 28.2412L54.3619 26.1689H51.9686L50.772 28.2412L51.9686 30.3135Z" stroke="#263238" stroke-width="0.122696" stroke-linecap="round" stroke-linejoin="round"/>
<path d="M51.6212 34.8633L50.4245 32.791H48.0312" stroke="#263238" stroke-width="0.122696" stroke-linecap="round" stroke-linejoin="round"/>
<path d="M48.3524 28.2414H50.7457L51.9424 26.1691L50.7457 24.0947H48.3524L47.1558 26.1691L48.3524 28.2414Z" stroke="#263238" stroke-width="0.122696" stroke-linecap="round" stroke-linejoin="round"/>
<path d="M51.9686 26.1691H54.3619L55.5586 24.0948L54.3619 22.0225H51.9686L50.772 24.0948L51.9686 26.1691Z" stroke="#263238" stroke-width="0.122696" stroke-linecap="round" stroke-linejoin="round"/>
<path d="M51.9421 26.4906C52.1194 26.4906 52.2631 26.3469 52.2631 26.1696C52.2631 25.9924 52.1194 25.8486 51.9421 25.8486C51.7648 25.8486 51.6211 25.9924 51.6211 26.1696C51.6211 26.3469 51.7648 26.4906 51.9421 26.4906Z" fill="#263238"/>
<path d="M46.9441 22.1381C47.1213 22.1381 47.2651 21.9944 47.2651 21.8171C47.2651 21.6398 47.1213 21.4961 46.9441 21.4961C46.7668 21.4961 46.623 21.6398 46.623 21.8171C46.623 21.9944 46.7668 22.1381 46.9441 22.1381Z" fill="#263238"/>
<path d="M51.3003 34.863C51.3003 34.7995 51.3191 34.7374 51.3544 34.6847C51.3897 34.6319 51.4398 34.5907 51.4984 34.5664C51.5571 34.5421 51.6217 34.5358 51.6839 34.5482C51.7462 34.5605 51.8034 34.5911 51.8483 34.636C51.8932 34.6809 51.9237 34.7381 51.9361 34.8004C51.9485 34.8626 51.9422 34.9272 51.9179 34.9858C51.8936 35.0445 51.8524 35.0946 51.7996 35.1299C51.7468 35.1652 51.6848 35.184 51.6213 35.184C51.5791 35.184 51.5374 35.1757 51.4984 35.1596C51.4595 35.1434 51.4241 35.1198 51.3943 35.09C51.3645 35.0602 51.3409 35.0248 51.3247 34.9858C51.3086 34.9469 51.3003 34.9052 51.3003 34.863Z" fill="#263238"/>
<path d="M48.031 33.1108C48.2083 33.1108 48.352 32.967 48.352 32.7898C48.352 32.6125 48.2083 32.4688 48.031 32.4688C47.8537 32.4688 47.71 32.6125 47.71 32.7898C47.71 32.967 47.8537 33.1108 48.031 33.1108Z" fill="#263238"/>
<path d="M57.8745 24.1541C57.8745 24.0901 57.8935 24.0276 57.9291 23.9744C57.9647 23.9212 58.0153 23.8798 58.0744 23.8554C58.1336 23.8311 58.1986 23.8248 58.2613 23.8374C58.324 23.85 58.3816 23.881 58.4267 23.9264C58.4718 23.9718 58.5024 24.0295 58.5146 24.0923C58.5269 24.1551 58.5202 24.2201 58.4954 24.2791C58.4707 24.3381 58.4289 24.3884 58.3755 24.4237C58.3222 24.4589 58.2595 24.4775 58.1955 24.4771C58.1532 24.4771 58.1113 24.4687 58.0722 24.4525C58.0331 24.4362 57.9977 24.4124 57.9678 24.3824C57.938 24.3524 57.9144 24.3167 57.8984 24.2775C57.8824 24.2384 57.8743 24.1964 57.8745 24.1541Z" fill="#263238"/>
<path d="M50.4001 33.1108C50.5774 33.1108 50.7211 32.967 50.7211 32.7898C50.7211 32.6125 50.5774 32.4688 50.4001 32.4688C50.2228 32.4688 50.0791 32.6125 50.0791 32.7898C50.0791 32.967 50.2228 33.1108 50.4001 33.1108Z" fill="#263238"/>
<path d="M55.2373 24.1541C55.2373 24.0902 55.2562 24.0277 55.2917 23.9746C55.3272 23.9215 55.3777 23.8801 55.4367 23.8556C55.4957 23.8312 55.5607 23.8248 55.6234 23.8373C55.686 23.8497 55.7436 23.8805 55.7888 23.9257C55.8339 23.9708 55.8647 24.0284 55.8772 24.0911C55.8896 24.1537 55.8832 24.2187 55.8588 24.2777C55.8343 24.3367 55.7929 24.3872 55.7398 24.4227C55.6867 24.4582 55.6242 24.4771 55.5603 24.4771C55.4747 24.4771 55.3925 24.4431 55.3319 24.3825C55.2713 24.3219 55.2373 24.2398 55.2373 24.1541Z" fill="#263238"/>
<path d="M51.6211 30.3153C51.6207 30.2512 51.6394 30.1885 51.6747 30.1351C51.71 30.0816 51.7605 30.0399 51.8196 30.0152C51.8787 29.9905 51.9438 29.9839 52.0067 29.9963C52.0695 30.0087 52.1272 30.0395 52.1725 30.0848C52.2178 30.1301 52.2487 30.1879 52.2611 30.2507C52.2735 30.3136 52.2669 30.3787 52.2422 30.4378C52.2175 30.4969 52.1758 30.5474 52.1223 30.5827C52.0689 30.618 52.0062 30.6367 51.9421 30.6363C51.8571 30.6358 51.7758 30.6018 51.7157 30.5417C51.6556 30.4816 51.6216 30.4003 51.6211 30.3153Z" fill="#263238"/>
<path d="M55.5605 24.1494H58.1956" stroke="#263238" stroke-width="0.122696" stroke-linecap="round" stroke-linejoin="round"/>
<path d="M51.9419 30.3154L50.3999 32.79" stroke="#263238" stroke-width="0.122696" stroke-linecap="round" stroke-linejoin="round"/>
<path d="M48.3523 24.0949L46.9443 21.8174" stroke="#263238" stroke-width="0.122696" stroke-linecap="round" stroke-linejoin="round"/>
<path d="M65.3262 15.9255C65.6022 14.9924 66.1776 14.1761 66.9635 13.6024C67.7494 13.0288 68.7022 12.7296 69.675 12.7511C70.6478 12.7726 71.5865 13.1135 72.3463 13.7213C73.1062 14.3292 73.6449 15.1701 73.8795 16.1144" stroke="#263238" stroke-width="0.122696" stroke-linecap="round" stroke-linejoin="round"/>
<path d="M69.0688 21.5823C67.9879 21.4586 66.9902 20.9415 66.266 20.1296C65.5417 19.3177 65.1415 18.2677 65.1416 17.1797" stroke="#263238" stroke-width="0.122696" stroke-linecap="round" stroke-linejoin="round"/>
<path d="M74.0081 17.1797C74.0081 18.3545 73.5416 19.4813 72.711 20.3122C71.8805 21.1431 70.7539 21.6102 69.5791 21.6107" stroke="#263238" stroke-width="0.122696" stroke-linecap="round" stroke-linejoin="round"/>
<path d="M74.2597 14.3697C75.6453 14.1929 76.5737 14.2884 76.718 14.7029C77.0044 15.5277 74.0402 17.3054 70.0968 18.6748C66.1533 20.0441 62.7259 20.483 62.4374 19.6561C62.285 19.2152 63.0611 18.5021 64.4183 17.724" stroke="#263238" stroke-width="0.122696" stroke-linecap="round" stroke-linejoin="round"/>
<path d="M50.4003 11.334L50.8249 12.1934L51.7737 12.3315L51.087 13.002L51.2495 13.9467L50.4003 13.4997L49.551 13.9467L49.7136 13.002L49.0269 12.3315L49.9756 12.1934L50.4003 11.334Z" stroke="#263238" stroke-width="0.122696" stroke-linecap="round" stroke-linejoin="round"/>
<path d="M20.405 9.04435C20.4045 9.80843 20.1009 10.5411 19.5608 11.0816C19.0207 11.6221 18.2882 11.9262 17.5241 11.9273C17.4307 11.9273 17.3392 11.9232 17.2498 11.9151C16.6938 11.8623 16.165 11.6492 15.7278 11.3016C15.2906 10.9539 14.9638 10.4868 14.7872 9.95692C14.6105 9.42704 14.5916 8.85725 14.7327 8.31681C14.8737 7.77637 15.1688 7.28855 15.5819 6.91265C15.9951 6.53676 16.5085 6.28897 17.0598 6.19941C17.6112 6.10985 18.1766 6.18238 18.6875 6.40818C19.1984 6.63398 19.6327 7.00332 19.9376 7.47131C20.2425 7.93931 20.4049 8.48579 20.405 9.04435Z" stroke="#263238" stroke-width="0.122696" stroke-linecap="round" stroke-linejoin="round"/>
<path d="M19.9432 9.56408C19.9436 9.65256 19.9178 9.73918 19.8689 9.81295C19.82 9.88672 19.7504 9.94432 19.6687 9.97846C19.5871 10.0126 19.4972 10.0217 19.4103 10.0047C19.3235 9.98771 19.2437 9.94531 19.181 9.88288C19.1182 9.82045 19.0755 9.74081 19.0581 9.65406C19.0406 9.5673 19.0494 9.47732 19.0831 9.39553C19.1169 9.31374 19.1742 9.24382 19.2477 9.19461C19.3213 9.14541 19.4078 9.11914 19.4963 9.11914C19.6145 9.11914 19.7279 9.16595 19.8116 9.24933C19.8954 9.33272 19.9427 9.44589 19.9432 9.56408Z" stroke="#263238" stroke-width="0.122696" stroke-linecap="round" stroke-linejoin="round"/>
<path d="M15.931 10.698C15.9311 10.8039 15.9079 10.9085 15.863 11.0044C15.818 11.1003 15.7524 11.1851 15.6709 11.2527C15.2921 10.9399 15.0003 10.5348 14.8237 10.0763C14.9355 10.0077 15.0643 9.97179 15.1955 9.97273C15.2916 9.97138 15.387 9.98915 15.4762 10.025C15.5654 10.0608 15.6465 10.1141 15.715 10.1815C15.7834 10.249 15.8377 10.3294 15.8748 10.4181C15.9119 10.5068 15.931 10.6019 15.931 10.698Z" stroke="#263238" stroke-width="0.122696" stroke-linecap="round" stroke-linejoin="round"/>
<path d="M19.4965 11.1521C18.9637 11.6567 18.2575 11.9374 17.5238 11.9363C17.4303 11.9363 17.3389 11.9322 17.2495 11.9241C17.2331 11.8459 17.2249 11.7663 17.2251 11.6864C17.2252 11.4163 17.3166 11.1542 17.4843 10.9425C17.6521 10.7308 17.8864 10.582 18.1493 10.5201C18.4122 10.4583 18.6883 10.487 18.9328 10.6017C19.1774 10.7164 19.376 10.9104 19.4965 11.1521Z" stroke="#263238" stroke-width="0.122696" stroke-linecap="round" stroke-linejoin="round"/>
<path d="M16.8249 7.90082C17.1907 7.90082 17.4872 7.60428 17.4872 7.23849C17.4872 6.8727 17.1907 6.57617 16.8249 6.57617C16.4591 6.57617 16.1626 6.8727 16.1626 7.23849C16.1626 7.60428 16.4591 7.90082 16.8249 7.90082Z" stroke="#263238" stroke-width="0.122696" stroke-linecap="round" stroke-linejoin="round"/>
<path d="M17.4383 9.12026C17.4383 9.18093 17.4203 9.24025 17.3866 9.2907C17.3529 9.34115 17.3049 9.38047 17.2489 9.40369C17.1928 9.42691 17.1311 9.43298 17.0716 9.42115C17.0121 9.40931 16.9575 9.38009 16.9146 9.33719C16.8717 9.29428 16.8424 9.23962 16.8306 9.18011C16.8188 9.1206 16.8248 9.05892 16.8481 9.00286C16.8713 8.9468 16.9106 8.89889 16.961 8.86518C17.0115 8.83147 17.0708 8.81348 17.1315 8.81348C17.1718 8.81348 17.2117 8.82141 17.2489 8.83683C17.2861 8.85225 17.3199 8.87484 17.3484 8.90333C17.3769 8.93182 17.3995 8.96564 17.4149 9.00286C17.4303 9.04008 17.4383 9.07997 17.4383 9.12026Z" stroke="#263238" stroke-width="0.122696" stroke-linecap="round" stroke-linejoin="round"/>
<path d="M19.8622 7.36241C19.7815 7.38885 19.6971 7.40189 19.6123 7.40101C19.5014 7.40101 19.3916 7.37914 19.2892 7.33664C19.1867 7.29414 19.0937 7.23185 19.0154 7.15335C18.937 7.07484 18.875 6.98165 18.8327 6.87912C18.7905 6.77659 18.7689 6.66674 18.7691 6.55584C18.7671 6.52066 18.7671 6.48538 18.7691 6.4502C19.2043 6.65767 19.5802 6.97139 19.8622 7.36241Z" stroke="#263238" stroke-width="0.122696" stroke-linecap="round" stroke-linejoin="round"/>
<path d="M86.1046 42.4982L86.4154 41.7994L85.9115 41.523C85.9301 41.4 85.9335 41.2751 85.9217 41.1513L86.4377 40.8993L86.1635 40.1862L85.6109 40.3447C85.5368 40.2452 85.4508 40.1551 85.3549 40.0765L85.5438 39.532L84.8449 39.2212L84.5666 39.725C84.4431 39.7098 84.3183 39.7098 84.1948 39.725L83.9449 39.209L83.2298 39.4833L83.3902 40.0338C83.2906 40.1092 83.1999 40.1958 83.12 40.2919L82.5776 40.1029L82.2749 40.7916L82.7787 41.07C82.7601 41.193 82.7567 41.3179 82.7686 41.4418L82.2505 41.6917L82.5248 42.4068L83.0774 42.2463C83.152 42.346 83.2379 42.4367 83.3334 42.5165L83.1465 43.059L83.8453 43.3698L84.1216 42.866C84.2447 42.8845 84.3696 42.8879 84.4934 42.8761L84.7454 43.3942L85.4585 43.1199L85.3 42.5673C85.399 42.4927 85.489 42.4068 85.5682 42.3113L86.1046 42.4982ZM83.9794 42.1082C83.819 42.0368 83.6833 41.9195 83.5896 41.7711C83.4958 41.6226 83.4482 41.4497 83.4527 41.2742C83.4572 41.0987 83.5136 40.9285 83.6148 40.785C83.7161 40.6416 83.8575 40.5314 84.0214 40.4683C84.1853 40.4053 84.3641 40.3922 84.5354 40.4308C84.7067 40.4694 84.8627 40.5579 84.9836 40.6852C85.1046 40.8124 85.1852 40.9727 85.2151 41.1457C85.245 41.3187 85.2229 41.4967 85.1517 41.6571C85.0557 41.8721 84.8784 42.0402 84.6587 42.1248C84.439 42.2093 84.1948 42.2033 83.9794 42.1082Z" stroke="#263238" stroke-width="0.122696" stroke-linecap="round" stroke-linejoin="round"/>
<path d="M82.3902 46.0837L82.8128 45.1349L82.1302 44.7571C82.1545 44.5902 82.1586 44.421 82.1423 44.2532L82.8453 43.9119L82.4776 42.9428L81.7279 43.1602C81.6277 43.0243 81.511 42.9015 81.3805 42.7945L81.6365 42.0549L80.6795 41.6263L80.3037 42.3089C80.1368 42.2849 79.9678 42.2802 79.7998 42.2947L79.4585 41.5938L78.4874 41.9676L78.7048 42.7152C78.5698 42.8173 78.4471 42.9345 78.3391 43.0647L77.6016 42.8168L77.179 43.7656L77.8616 44.1435C77.8373 44.3103 77.8332 44.4795 77.8494 44.6473L77.1465 44.9887L77.5203 45.9578L78.27 45.7424C78.3708 45.8778 78.4874 46.0005 78.6174 46.1081L78.3614 46.8456L79.3122 47.2682L79.6881 46.5835C79.8549 46.6085 80.024 46.6133 80.1919 46.5977L80.5333 47.2987L81.5044 46.9269L81.287 46.1772C81.4219 46.0759 81.5446 45.9593 81.6527 45.8298L82.3902 46.0837ZM79.5052 45.5535C79.2872 45.4563 79.1028 45.2966 78.9755 45.0946C78.8482 44.8926 78.7837 44.6574 78.7901 44.4187C78.7965 44.1801 78.8736 43.9486 79.0116 43.7538C79.1495 43.5589 79.3422 43.4094 79.5652 43.324C79.7882 43.2387 80.0315 43.2215 80.2643 43.2744C80.4971 43.3274 80.7089 43.4483 80.873 43.6217C81.0371 43.7951 81.1461 44.0133 81.1862 44.2487C81.2262 44.4841 81.1956 44.726 81.0981 44.944C81.0336 45.0887 80.9413 45.2193 80.8263 45.3282C80.7113 45.4372 80.576 45.5224 80.4281 45.579C80.2801 45.6357 80.1225 45.6625 79.9641 45.6582C79.8058 45.6538 79.6498 45.6182 79.5052 45.5535Z" stroke="#263238" stroke-width="0.122696" stroke-linecap="round" stroke-linejoin="round"/>
<path d="M40.2737 37.0763C39.9953 37.6037 39.681 38.1115 39.3331 38.5959C37.528 41.1056 34.8756 42.8772 31.866 43.5834C28.8564 44.2896 25.6928 43.8827 22.9599 42.4378C22.6775 42.2895 22.4012 42.131 22.1371 41.9644C21.8729 41.7978 21.6149 41.6272 21.3671 41.4443C21.0664 41.2269 20.7779 40.9953 20.5016 40.7536C20.4839 40.7403 20.4675 40.7253 20.4528 40.7089C18.6524 39.1156 17.3365 37.048 16.6554 34.7423C15.9743 32.4366 15.9555 29.9858 16.6012 27.67C17.2468 25.3541 18.5308 23.2666 20.3066 21.6458C22.0823 20.0251 24.2782 18.9365 26.6432 18.5045C29.0083 18.0725 31.4471 18.3145 33.6812 19.2027C35.9153 20.091 37.8544 21.5898 39.2771 23.5278C40.6998 25.4659 41.5486 27.765 41.7267 30.1626C41.9047 32.5602 41.4047 34.9595 40.2839 37.0864L40.2737 37.0763Z" fill="#92E3A9"/>
<mask id="mask0_425_3529" style="mask-type:luminance" maskUnits="userSpaceOnUse" x="16" y="18" width="26" height="26">
<path d="M40.2732 37.0753C39.9948 37.6028 39.6805 38.1105 39.3326 38.595C37.5275 41.1046 34.8752 42.8762 31.8655 43.5824C28.8559 44.2886 25.6924 43.8817 22.9594 42.4368C22.677 42.2885 22.4007 42.1301 22.1366 41.9635C21.8725 41.7969 21.6144 41.6262 21.3666 41.4434C21.0659 41.226 20.7774 40.9944 20.5011 40.7526C20.4834 40.7393 20.4671 40.7244 20.4523 40.7079C18.6519 39.1146 17.336 37.047 16.6549 34.7413C15.9738 32.4356 15.955 29.9848 16.6007 27.669C17.2463 25.3531 18.5304 23.2656 20.3061 21.6448C22.0819 20.0241 24.2777 18.9355 26.6427 18.5035C29.0078 18.0715 31.4466 18.3135 33.6807 19.2018C35.9148 20.09 37.8539 21.5888 39.2766 23.5269C40.6993 25.4649 41.5481 27.7641 41.7262 30.1616C41.9042 32.5592 41.4042 34.9585 40.2834 37.0854L40.2732 37.0753Z" fill="white"/>
</mask>
<g mask="url(#mask0_425_3529)">
<g opacity="0.6">
<path d="M40.2734 37.0758C39.995 37.6032 39.6807 38.111 39.3327 38.5954L39.0849 38.3923L38.6582 38.1668L38.2092 37.9311L38.2844 37.3886L38.26 36.899C38.2336 36.4094 38.5871 36.8096 38.8695 36.6613C39.0898 36.5039 39.2677 36.2945 39.3876 36.0518C39.3876 36.0518 39.5908 35.3996 39.5237 35.1375C39.4143 34.8356 39.2854 34.541 39.1377 34.2558L38.4104 35.2716L37.8009 35.2249L37.2239 34.9202L37.1487 34.1177L36.8521 33.9632L36.7282 33.5021L35.1252 33.0531L34.9423 32.7321C34.7595 32.4111 34.022 32.2465 34.022 32.2465L34.2028 31.828L34.4872 31.3607C34.7737 30.8934 35.0703 31.6695 35.0703 31.6695L35.4096 31.8462L36.0394 31.318L36.206 30.5602L37.232 30.6191C37.2119 30.5166 37.2276 30.4102 37.2764 30.3178C37.3252 30.2254 37.4042 30.1525 37.5002 30.1112C37.8415 29.9771 37.6912 29.2356 37.5611 28.9613C37.4311 28.687 36.9516 28.9085 36.9516 28.9085C36.9516 28.9085 36.4295 28.1141 36.3584 27.7971C36.2873 27.4802 37.3539 27.594 37.811 27.275C38.2681 26.956 38.1117 26.3222 37.8882 26.3079C37.6647 26.2937 38.325 24.8655 39.5948 25.2576C39.9483 25.3673 40.1718 25.3287 40.31 25.2068C41.2627 27.0411 41.757 29.0788 41.7506 31.1458C41.7442 33.2127 41.2374 35.2474 40.2734 37.0758Z" fill="white"/>
<path d="M31.3887 31.5802L30.954 32.1267C30.954 32.1267 30.7691 31.6858 30.505 31.9235L30.0986 32.2852L29.804 33.11L29.2758 33.4513L28.9528 33.2827L28.648 33.1202L28.3169 32.9455L27.9999 33.555L27.7419 34.0426C27.8677 34.2819 28.0241 34.5039 28.2072 34.7028L28.7679 35.6923L29.4505 36.0376C29.7352 36.0482 30.0186 36.0822 30.2977 36.1392L30.7671 36.3851L30.6005 37.4009C30.6005 37.4009 30.247 37.9759 30.0113 37.8174L29.7736 37.6609L29.3876 38.9978L29.3713 39.7332C29.3713 39.7332 29.1417 39.8287 28.9101 39.9059C28.6785 39.9831 28.8248 39.9425 28.3392 40.0929C27.8537 40.2432 27.8923 40.2371 27.4981 40.3488C27.1621 40.4664 26.8388 40.6176 26.5331 40.7999L26.5676 41.5069L25.6391 41.643L25.119 41.3667L25.247 40.9197L25.308 40.2208L25.2369 39.6987L25.0134 39.2375L25.6391 38.6707L25.501 38.3151L25.1454 37.6081L24.3937 38.0145L24.0077 38.2176L23.1341 37.8255L23.0386 37.2952L22.746 36.3424L22.4738 35.7492L21.9903 35.095L21.8684 34.5322L22.1406 34.0161L22.2849 33.7439L21.8399 33.1446L21.718 32.7179L20.9683 32.0373C20.9683 32.0373 21.1857 32.0231 21.137 31.7204C21.0882 31.4176 21.5657 30.9077 21.5657 30.9077C21.8359 31.0499 22.6465 31.6147 22.6465 31.6147L23.3555 31.7122C23.3555 31.7122 23.4978 31.7122 23.6359 31.4441C23.7973 31.1974 23.9868 30.9703 24.2007 30.7675C24.2007 30.7675 23.8736 29.6318 24.1073 29.4794C24.3409 29.3271 24.5786 28.5835 24.5786 28.5835L24.7655 28.2279C24.7655 28.2279 24.3247 28.0349 24.2414 27.8013C24.1581 27.5676 23.0711 27.8785 23.0711 27.8785L22.3214 28.3986L21.7302 28.8557L21.4742 29.3413C21.4742 29.3413 20.9521 28.7135 20.9501 29.065C20.9102 29.4253 20.8312 29.7803 20.7144 30.1235C20.7144 30.1235 20.8221 30.1804 20.6798 30.4526C20.5376 30.7248 20.3832 30.7106 20.0703 30.7492C19.6625 30.7533 19.2549 30.7255 18.8513 30.6659C18.8513 30.6659 18.6482 31.4176 18.7884 31.5477L18.9265 31.6736C18.9265 31.6736 18.7091 32.2202 18.4938 32.1064L17.9696 31.8301L17.2362 32.1267L16.4235 33.0247L16.2427 32.9881C15.7446 29.6474 16.5855 26.2452 18.5825 23.5211C20.5795 20.7971 23.5711 18.9715 26.9069 18.4414C26.9536 18.6446 27.0044 18.8355 27.0044 18.8355L26.8013 19.8392L26.5412 20.3349L26.3177 20.7595L26.0028 21.3568L26.8094 22.1004L26.6367 22.9801L26.1999 23.2544L26.0739 23.9147L26.8236 25.3795L27.0268 25.9545C26.9013 26.2298 26.8395 26.5298 26.8459 26.8322C26.8459 26.8322 26.9374 27.3807 27.3376 27.5981C27.7378 27.8155 28.264 28.0715 28.264 28.0715L28.2214 28.8842L28.0406 29.0873L28.3412 29.963C29.2575 30.3226 29.1702 30.6233 29.2575 30.3226L29.3469 30.0239L29.9706 29.7984L30.765 30.7472C30.8575 30.746 30.9487 30.768 31.0304 30.8113C31.112 30.8547 31.1815 30.9178 31.2323 30.9951C31.4639 31.2876 31.8256 31.0337 31.3887 31.5802Z" fill="white"/>
<path d="M20.621 38.6564C20.6434 38.9449 20.2777 39.3065 20.2777 39.3065L20.5763 39.463L20.6677 40.2756L20.4422 40.7064C18.8442 39.2947 17.6254 37.5052 16.897 35.5012L17.0595 34.6398L17.7767 34.5382C17.7767 34.5382 18.4187 34.1116 18.7031 34.2253C18.9876 34.3391 19.2476 35.038 19.2476 35.038C19.2476 35.038 19.4508 35.9807 19.4244 35.9624H19.4122H19.4284L19.721 36.1168L19.8043 36.4886L19.398 37.2607H18.7438C18.7438 37.2607 18.6137 37.1916 18.6015 37.5309C18.6121 37.6486 18.6479 37.7627 18.7064 37.8654C18.765 37.9681 18.8449 38.057 18.9408 38.1261L19.6478 37.9453L19.8368 37.2139L20.5316 37.0778C20.5316 37.0778 20.4321 37.5268 20.5946 37.6121L20.7592 37.6995L20.8567 38.2359C20.7839 38.2791 20.7238 38.3407 20.6824 38.4145C20.6411 38.4883 20.6199 38.5718 20.621 38.6564Z" fill="white"/>
<path d="M23.9814 39.8062C23.9185 39.6314 23.8921 39.4791 23.4593 39.2515C23.0266 39.024 23.053 39.1052 22.8823 39.2942C22.8088 39.3914 22.7085 39.4649 22.5937 39.5057C22.4788 39.5465 22.3546 39.5528 22.2363 39.5238C21.9518 39.4608 22.1001 39.7818 22.1001 39.7818L22.1692 40.6493L21.3667 41.4416C21.6146 41.6245 21.8712 41.7979 22.1367 41.9618L22.3074 41.4376L23.6401 41.8277C23.3577 41.7444 23.5243 41.3583 23.5243 41.3583L23.2399 41.208C23.2399 41.208 24.0444 39.9768 23.9814 39.8062Z" fill="white"/>
<path d="M32.3761 35.2963L31.9393 34.8555L31.4395 35.0119L31.2364 35.4182L31.084 35.7108L31.2872 36.1171L31.6935 36.6108L31.9251 36.1679C31.9251 36.1679 32.5691 36.1679 32.9064 35.7961C33.2436 35.4243 32.3761 35.2963 32.3761 35.2963Z" fill="white"/>
<path d="M31.0923 33.3069L31.905 33.7335L31.9375 33.5425C31.9798 33.3895 32.0546 33.2475 32.1569 33.126L31.5352 32.4678L31.0923 33.3069Z" fill="white"/>
<path d="M30.816 42.7649L30.5823 42.4215L30.3101 42.2793H29.4791L29.0057 43.1773C29.0057 43.1773 28.5527 43.1163 27.9574 43.0635C27.3621 43.0107 27.5084 43.2565 27.5084 43.2565L27.354 43.8213C28.8559 44.0063 30.3787 43.9244 31.8521 43.5796C31.6809 43.4602 31.5031 43.3503 31.3198 43.2504L30.816 42.7649Z" fill="white"/>
</g>
</g>
<path d="M40.2737 37.0763C39.9953 37.6037 39.681 38.1115 39.3331 38.5959C37.528 41.1056 34.8756 42.8772 31.866 43.5834C28.8564 44.2896 25.6928 43.8827 22.9599 42.4378C22.6775 42.2895 22.4012 42.131 22.1371 41.9644C21.8729 41.7978 21.6149 41.6272 21.3671 41.4443C21.0664 41.227 20.7779 40.9953 20.5016 40.7536C20.4839 40.7403 20.4675 40.7253 20.4528 40.7089C18.6524 39.1156 17.3365 37.048 16.6554 34.7423C15.9743 32.4366 15.9555 29.9858 16.6012 27.67C17.2468 25.3541 18.5308 23.2666 20.3066 21.6458C22.0823 20.0251 24.2782 18.9365 26.6432 18.5045C29.0083 18.0725 31.4471 18.3145 33.6812 19.2027C35.9153 20.091 37.8544 21.5898 39.2771 23.5278C40.6998 25.4659 41.5486 27.765 41.7267 30.1626C41.9047 32.5602 41.4047 34.9595 40.2839 37.0864L40.2737 37.0763Z" stroke="#263238" stroke-width="0.122696" stroke-linecap="round" stroke-linejoin="round"/>
<path d="M31.8526 43.5796C30.3792 43.9244 28.8564 44.0063 27.3545 43.8213L27.5089 43.2565C27.5089 43.2565 27.3626 43.0107 27.9579 43.0635C28.5532 43.1163 29.0062 43.1773 29.0062 43.1773L29.4796 42.2793H30.3106L30.5828 42.4215L30.8164 42.7649L31.3203 43.2504C31.5036 43.3503 31.6813 43.4602 31.8526 43.5796Z" stroke="#263238" stroke-width="0.122696" stroke-linecap="round" stroke-linejoin="round"/>
<path d="M40.3186 25.2088C40.1804 25.3307 39.957 25.3693 39.6034 25.2596C38.3337 24.8675 37.6754 26.2937 37.8968 26.31C38.1183 26.3262 38.2747 26.9682 37.8196 27.277C37.3645 27.5859 36.2959 27.4802 36.367 27.7992C36.4381 28.1181 36.9602 28.9105 36.9602 28.9105C36.9602 28.9105 37.4275 28.6911 37.5596 28.9633C37.6916 29.2356 37.842 29.9792 37.5007 30.1132C37.4046 30.1545 37.3256 30.2274 37.2768 30.3198C37.228 30.4122 37.2124 30.5186 37.2325 30.6212L36.2065 30.5622L36.0399 31.32L35.4101 31.8483L35.0708 31.6715C35.0708 31.6715 34.7742 30.8954 34.4877 31.3627L34.2033 31.83L34.0225 32.2485C34.0225 32.2485 34.76 32.4131 34.9428 32.7341L35.1257 33.0551L36.7286 33.5041L36.8526 33.9653L37.1492 34.1197L37.2244 34.9222L37.8217 35.2351L38.4312 35.2818L39.1585 34.266C39.3062 34.5512 39.4351 34.8457 39.5445 35.1477C39.6156 35.4098 39.4084 36.062 39.4084 36.062C39.2885 36.3047 39.1106 36.5141 38.8903 36.6715C38.5998 36.8198 38.2443 36.4195 38.2808 36.9092L38.3052 37.3988L38.23 37.9412L38.679 38.1769L39.1057 38.4024L39.3535 38.6056" stroke="#263238" stroke-width="0.122696" stroke-linecap="round" stroke-linejoin="round"/>
<path d="M16.2598 32.9883L16.4406 33.0249L17.2532 32.1269L17.9867 31.8303L18.5108 32.1066C18.7262 32.2203 18.9436 31.6738 18.9436 31.6738L18.8054 31.5479C18.6653 31.4178 18.8684 30.6661 18.8684 30.6661C19.272 30.7257 19.6795 30.7535 20.0874 30.7494C20.4084 30.7108 20.5608 30.723 20.6969 30.4528C20.833 30.1826 20.7315 30.1237 20.7315 30.1237C20.8483 29.7805 20.9273 29.4255 20.9671 29.0652C20.9671 28.7137 21.4913 29.3415 21.4913 29.3415L21.7473 28.8559L22.3202 28.4008L23.0699 27.8807C23.0699 27.8807 24.1568 27.5678 24.2401 27.8035C24.3234 28.0392 24.7643 28.2302 24.7643 28.2302L24.5774 28.5857C24.5774 28.5857 24.3377 29.3252 24.1061 29.4817C23.8744 29.6381 24.1995 30.7697 24.1995 30.7697C23.9856 30.9726 23.7961 31.1996 23.6347 31.4463C23.4925 31.7185 23.3543 31.7145 23.3543 31.7145L22.6453 31.6169C22.6453 31.6169 21.8326 31.0521 21.5644 30.9099C21.5644 30.9099 21.087 31.4199 21.1358 31.7226C21.1845 32.0253 20.9671 32.0395 20.9671 32.0395L21.7168 32.7201L21.8387 33.1468L22.2836 33.7461L22.1394 34.0184L21.8672 34.5344L21.9891 35.0972L22.4726 35.7514L22.7469 36.3426L23.0435 37.2995L23.139 37.8298L24.0126 38.2219L24.3986 38.0187L25.1503 37.6124L25.5059 38.3194L25.644 38.6749L25.0183 39.2418L25.2418 39.703L25.3129 40.2251L25.2519 40.924L25.1239 41.371L25.644 41.6473L26.5725 41.5132L26.538 40.8041C26.8437 40.6218 27.167 40.4707 27.503 40.3531C27.8971 40.2414 27.8585 40.2474 28.3441 40.0971C28.8297 39.9468 28.6814 39.9874 28.915 39.9102C29.1486 39.833 29.3762 39.7375 29.3762 39.7375L29.3924 39.002L29.7785 37.6652L30.0162 37.8216C30.2518 37.9801 30.6053 37.4051 30.6053 37.4051L30.7719 36.3893L30.2925 36.1394C30.0133 36.0824 29.73 36.0484 29.4453 36.0378L28.7768 35.6864L28.2161 34.6969C28.033 34.498 27.8766 34.276 27.7509 34.0366L28.0089 33.5491L28.3258 32.9396L28.657 33.1143L28.9617 33.2768L29.2848 33.4454L29.813 33.1041L30.1076 32.2793L30.5139 31.9176C30.778 31.6779 30.9629 32.1208 30.9629 32.1208L31.3977 31.5743C31.8345 31.0278 31.4729 31.2817 31.2494 31.0013C31.1986 30.9241 31.1291 30.8609 31.0475 30.8176C30.9658 30.7743 30.8745 30.7522 30.7821 30.7535L29.9877 29.8047L29.3559 30.0444L29.2665 30.3431C29.1791 30.6438 29.2665 30.3431 28.3502 29.9835L28.0495 29.1078L28.2303 28.9047L28.273 28.092C28.273 28.092 27.7468 27.834 27.3466 27.6186C26.9463 27.4033 26.8549 26.8527 26.8549 26.8527C26.8485 26.5503 26.9103 26.2503 27.0357 25.975L26.8325 25.4L26.0829 23.9352L26.2088 23.2749L26.6456 23.0007L26.8183 22.1209L26.0341 21.3774L26.349 20.78L26.5725 20.3554L26.8325 19.8597L27.0357 18.8561C27.0357 18.8561 26.9849 18.6691 26.9382 18.4619" stroke="#263238" stroke-width="0.122696" stroke-linecap="round" stroke-linejoin="round"/>
<path d="M20.5114 40.7512C20.4956 40.733 20.4779 40.7167 20.4586 40.7024L20.6841 40.2717L20.5927 39.459L20.294 39.3026C20.294 39.3026 20.6597 38.941 20.6374 38.6525C20.6334 38.5664 20.6527 38.4808 20.693 38.4047C20.7334 38.3286 20.7935 38.2647 20.867 38.2197L20.7694 37.6834L20.6049 37.596C20.4423 37.5107 20.5419 37.0617 20.5419 37.0617L19.8471 37.1978L19.6581 37.9292L18.9511 38.11C18.8552 38.0409 18.7753 37.952 18.7167 37.8493C18.6582 37.7466 18.6224 37.6325 18.6118 37.5147C18.624 37.1754 18.754 37.2445 18.754 37.2445H19.4082L19.8146 36.4725L19.7313 36.1007L19.4387 35.9463" stroke="#263238" stroke-width="0.122696" stroke-linecap="round" stroke-linejoin="round"/>
<path d="M19.4209 35.9467C19.4535 35.965 19.2442 35.0223 19.2442 35.0223C19.2442 35.0223 18.9841 34.3336 18.6997 34.2096C18.4153 34.0857 17.7733 34.5225 17.7733 34.5225L17.0561 34.6241L16.8936 35.4855" stroke="#263238" stroke-width="0.122696" stroke-linecap="round" stroke-linejoin="round"/>
<path d="M22.3078 41.4386L22.1372 41.9627C21.8663 41.7975 21.6096 41.6241 21.3672 41.4426L22.1697 40.6503L22.1006 39.7828C22.1006 39.7828 21.9523 39.4617 22.2367 39.5247C22.3551 39.5538 22.4793 39.5475 22.5941 39.5067C22.709 39.4659 22.8093 39.3923 22.8828 39.2952C23.0494 39.1062 23.0291 39.0249 23.4598 39.2525C23.8905 39.48 23.919 39.6324 23.9819 39.8071C24.0449 39.9819 23.2404 41.2151 23.2404 41.2151L23.5248 41.3654C23.5248 41.3654 23.3582 41.7514 23.6406 41.8347L22.3078 41.4386Z" stroke="#263238" stroke-width="0.122696" stroke-linecap="round" stroke-linejoin="round"/>
<path d="M31.4398 35.0129L31.9396 34.8564L32.3764 35.2973C32.3764 35.2973 33.2399 35.4091 32.9026 35.7849C32.5654 36.1608 31.9213 36.1567 31.9213 36.1567L31.6857 36.5996L31.2793 36.1059L31.0762 35.6996L31.2285 35.407L31.4398 35.0129Z" stroke="#263238" stroke-width="0.122696" stroke-linecap="round" stroke-linejoin="round"/>
<path d="M32.1574 33.127C32.0551 33.2484 31.9803 33.3905 31.9379 33.5435L31.9054 33.7345L31.0928 33.3078L31.5357 32.4688L32.1574 33.127Z" stroke="#263238" stroke-width="0.122696" stroke-linecap="round" stroke-linejoin="round"/>
<path d="M76.2469 81.0505C75.1579 81.9566 66.7692 87.7144 54.7986 86.7859C54.1546 81.337 51.6983 58.9521 54.4918 55.4414C54.4918 55.4414 61.2695 52.209 67.5128 53.5662C73.7561 54.9233 76.1859 56.2236 76.6309 57.3491C76.9681 58.2004 76.4866 74.0514 76.2469 81.0505Z" fill="#263238"/>
<path d="M67.3053 55.9581C63.7093 59.0727 59.0771 58.4144 59.1787 56.0231C59.1949 55.6493 59.5952 55.1861 59.5952 55.1861L59.455 54.9707L58.8455 54.0504C58.4005 53.3617 57.8439 52.4962 57.4558 51.8663C57.1307 51.33 65.2351 46.3443 65.2351 49.211C65.2351 53.2499 67.218 54.0098 67.218 54.0098C67.9656 54.3104 68.6625 54.7859 67.3053 55.9581Z" fill="white" stroke="#263238" stroke-width="0.122696" stroke-linecap="round" stroke-linejoin="round"/>
<path d="M69.5787 62.125C69.5787 62.125 68.8534 64.6118 69.1968 65.3249" stroke="white" stroke-width="0.122696" stroke-linecap="round" stroke-linejoin="round"/>
<path d="M68.7318 54.9053C68.7318 57.3047 61.5742 59.6553 59.4775 57.2478" stroke="white" stroke-width="0.122696" stroke-linecap="round" stroke-linejoin="round"/>
<path d="M62.8439 52.1357C62.8439 52.1357 62.3644 53.9439 60.1296 55.3559C60.023 55.1729 59.8509 55.0372 59.6481 54.976C59.5808 54.965 59.5122 54.965 59.4449 54.976L58.8354 54.0557C59.9915 53.2227 62.8439 52.1357 62.8439 52.1357Z" fill="#263238"/>
<path d="M63.8471 49.9129C63.8471 49.9129 63.8228 51.6967 63.4408 52.0603C60.6066 54.7787 57.8355 54.994 57.3783 54.2769C54.3004 49.4496 55.0277 48.1819 54.7148 47.355C54.1602 45.9044 53.4796 43.5355 53.7803 42.1011C54.4507 38.8972 60.4847 36.4124 63.6623 39.6347C65.186 41.1767 65.6675 44.5229 65.3465 47.3103" fill="white"/>
<path d="M63.8471 49.9129C63.8471 49.9129 63.8228 51.6967 63.4408 52.0603C60.6066 54.7787 57.8355 54.994 57.3783 54.2769C54.3004 49.4496 55.0277 48.1819 54.7148 47.355C54.1602 45.9044 53.4796 43.5355 53.7803 42.1011C54.4507 38.8972 60.4847 36.4124 63.6623 39.6347C65.186 41.1767 65.6675 44.5229 65.3465 47.3103" stroke="#263238" stroke-width="0.122696" stroke-linecap="round" stroke-linejoin="round"/>
<path d="M55.1033 45.8639C55.1033 45.8639 54.2561 45.484 54.0732 45.9371" stroke="#263238" stroke-width="0.122696" stroke-linecap="round" stroke-linejoin="round"/>
<path d="M57.1572 45.8919C57.1572 45.8919 58.9187 45.1544 59.711 46.0503" stroke="#263238" stroke-width="0.122696" stroke-linecap="round" stroke-linejoin="round"/>
<path d="M59.1138 47.1416C59.1422 47.4057 59.0142 47.6353 58.8253 47.6576C58.6363 47.68 58.4616 47.4789 58.4332 47.2147C58.4047 46.9506 58.5327 46.719 58.7217 46.6987C58.9106 46.6784 59.0772 46.8775 59.1138 47.1416Z" fill="#263238"/>
<path d="M55.6597 47.2216C55.6901 47.4857 55.5601 47.7173 55.3712 47.7376C55.1822 47.758 55.0075 47.5609 54.9791 47.2968C54.9506 47.0327 55.0786 46.8011 55.2676 46.7807C55.4565 46.7604 55.6272 46.9575 55.6597 47.2216Z" fill="#263238"/>
<path d="M55.7452 46.5264C55.991 46.9225 55.857 47.5991 55.5319 48.5276C55.2068 49.456 55.4933 49.7913 56.7407 49.8847" fill="white"/>
<path d="M55.7452 46.5264C55.991 46.9225 55.857 47.5991 55.5319 48.5276C55.2068 49.456 55.4933 49.7913 56.7407 49.8847" stroke="#263238" stroke-width="0.122696" stroke-linecap="round" stroke-linejoin="round"/>
<path d="M56.7407 51.4922C56.7407 51.4922 58.3661 51.3439 59.1096 50.9355" stroke="#263238" stroke-width="0.122696" stroke-linecap="round" stroke-linejoin="round"/>
<path d="M67.0371 42.2802C67.0371 41.0734 65.8466 38.5968 63.758 38.3184C62.5573 37.0629 60.8466 36.6017 58.7703 37.0791C53.9715 38.1803 52.5107 42.9181 52.3015 43.7023C52.2812 43.7755 52.271 43.8161 52.271 43.8161L53.555 43.491L53.0024 44.5699L53.6749 45.0148L53.5205 45.1855L54.3006 45.9372L54.0568 44.5638C54.2072 43.678 55.2271 42.4386 55.2271 42.4386C54.8548 42.9211 54.6229 43.4968 54.5566 44.1026C54.963 43.0481 57.4009 42.0709 57.4009 42.0709C56.6106 42.7129 56.1819 43.9685 56.1819 43.9685C56.9337 43.0421 58.6951 42.4427 59.8227 42.1237C60.2026 43.04 60.806 43.9969 61.6674 44.5272C62.4801 45.027 62.4517 46.0591 62.4517 46.0591C63.326 46.6669 63.9702 47.5515 64.2802 48.5702L65.2635 49.9152C65.2635 49.9152 67.0371 47.7393 67.0371 42.2802Z" fill="#263238"/>
<path d="M62.8987 46.4049C62.5696 45.7 63.7642 43.7902 64.6114 44.0259C65.0868 44.16 65.7085 45.0275 65.8304 45.9377C65.9523 46.8479 65.3083 48.5788 64.6216 48.9547C64.1848 49.1985 63.8252 48.5341 63.8252 48.5341" fill="white"/>
<path d="M62.8987 46.4049C62.5696 45.7 63.7642 43.7902 64.6114 44.0259C65.0868 44.16 65.7085 45.0275 65.8304 45.9377C65.9523 46.8479 65.3083 48.5788 64.6216 48.9547C64.1848 49.1985 63.8252 48.5341 63.8252 48.5341" stroke="#263238" stroke-width="0.122696" stroke-linecap="round" stroke-linejoin="round"/>
<path d="M11.0669 80.8872L34.0227 75.5195L81.9049 81.0497L69.5768 89.4811L11.0669 80.8872Z" fill="white"/>
<path d="M11.0669 80.8872L34.0227 75.5195L81.9049 81.0497" fill="white"/>
<path d="M11.0669 80.8872L34.0227 75.5195L81.9049 81.0497" stroke="#263238" stroke-width="0.122696" stroke-linecap="round" stroke-linejoin="round"/>
<path d="M30.9326 81.9654L40.2254 77.8574L51.9746 78.4649L46.7491 82.9325L30.9326 81.9654Z" fill="white" stroke="#263238" stroke-width="0.122696" stroke-linecap="round" stroke-linejoin="round"/>
<path d="M54.9444 55.2383C51.964 56.4573 51.322 59.198 46.257 70.0288C46.257 70.0288 44.008 70.49 42.8032 73.2226C41.5984 75.9552 43.6159 78.1128 45.9381 78.0396C45.9381 78.0396 46.8706 78.8523 48.7824 78.769C50.6942 78.6857 59.1439 65.7562 59.1439 65.7562L54.9444 55.2383Z" fill="#263238"/>
<path d="M47.145 70.665C48.4778 71.8515 49.2437 73.5927 48.8374 75.5227" stroke="white" stroke-width="0.122696" stroke-linecap="round" stroke-linejoin="round"/>
<path d="M48.4312 71.2354C48.4312 71.2354 50.0687 71.5929 50.3226 73.6896" stroke="white" stroke-width="0.122696" stroke-linecap="round" stroke-linejoin="round"/>
<path d="M53.2221 65.1002C52.4484 63.1913 52.1811 61.1149 52.446 59.0723" stroke="white" stroke-width="0.122696" stroke-linecap="round" stroke-linejoin="round"/>
<path d="M52.9905 62.3369C52.8665 63.1902 53.7483 67.733 53.7422 72.5095" stroke="white" stroke-width="0.122696" stroke-linecap="round" stroke-linejoin="round"/>
<path d="M75.2693 56.1357C78.9974 58.0089 79.4403 63.7728 75.9235 70.6642C73.4388 75.528 70.0093 82.7099 67.8395 83.1914C65.6697 83.6729 63.5527 82.3219 63.5527 82.3219C63.5527 82.3219 61.7242 82.2365 61.1716 80.9363C59.66 77.3829 63.5019 72.8929 65.0053 73.9677C65.0053 73.9677 69.8326 63.47 70.7123 62.8077" fill="#263238"/>
<path d="M60.8266 78.7762C60.333 76.324 64.1931 73.4309 65.0058 73.9672C65.0058 73.9672 67.8725 74.1277 68.3011 76.1106" stroke="white" stroke-width="0.122696" stroke-linecap="round" stroke-linejoin="round"/>
<path d="M71.3281 79.2996C73.0063 76.3395 75.9237 70.665 75.9237 70.665" stroke="white" stroke-width="0.122696" stroke-linecap="round" stroke-linejoin="round"/>
<path d="M65.0059 73.9684C65.0059 73.9684 67.0152 72.7657 68.5166 73.9034" stroke="white" stroke-width="0.122696" stroke-linecap="round" stroke-linejoin="round"/>
<path d="M65.6924 72.5076C65.6924 72.5076 66.8017 70.0696 67.9272 67.8348C69.0528 65.6 71.6289 62.2904 72.6996 62.1299" stroke="white" stroke-width="0.122696" stroke-linecap="round" stroke-linejoin="round"/>
<path d="M44.5186 76.8898C44.2773 76.878 44.0415 76.8135 43.8278 76.7009C40.374 74.8988 37.6881 71.9204 36.0709 69.783C35.4421 68.9662 34.8634 68.112 34.3379 67.2252L35.1668 63.6738C35.1668 63.6738 35.947 65.7055 39.0818 67.7026C42.2167 69.6997 45.9407 70.358 47.1455 72.3754C48.2121 74.1328 46.3328 76.9772 44.5186 76.8898Z" fill="white"/>
<mask id="mask1_425_3529" style="mask-type:luminance" maskUnits="userSpaceOnUse" x="34" y="63" width="14" height="14">
<path d="M44.5181 76.8898C44.2768 76.878 44.041 76.8135 43.8273 76.7009C40.3735 74.8988 37.6876 71.9204 36.0704 69.783C35.4417 68.9662 34.8629 68.112 34.3374 67.2252L35.1663 63.6738C35.1663 63.6738 35.9465 65.7055 39.0813 67.7026C42.2162 69.6997 45.9402 70.358 47.145 72.3754C48.2116 74.1328 46.3323 76.9772 44.5181 76.8898Z" fill="white"/>
</mask>
<g mask="url(#mask1_425_3529)">
<path opacity="0.4" d="M44.5181 76.8898C44.4795 76.6329 44.4114 76.3813 44.3149 76.1401C43.5896 74.3238 39.2012 70.7135 39.2012 70.7135C38.1569 70.681 37.009 70.2463 36.0745 69.783C35.4443 68.9663 34.8642 68.1121 34.3374 67.2252L35.1663 63.6738C35.1663 63.6738 35.9465 65.7055 39.0813 67.7026C42.2162 69.6997 45.9402 70.358 47.145 72.3754C48.2116 74.1328 46.3323 76.9772 44.5181 76.8898Z" fill="#92E3A9"/>
</g>
<path d="M44.5186 76.8898C44.2773 76.878 44.0415 76.8135 43.8278 76.7009C40.374 74.8988 37.6881 71.9204 36.0709 69.783C35.4421 68.9662 34.8634 68.112 34.3379 67.2252L35.1668 63.6738C35.1668 63.6738 35.947 65.7055 39.0818 67.7026C42.2167 69.6997 45.9407 70.358 47.1455 72.3754C48.2121 74.1328 46.3328 76.9772 44.5186 76.8898Z" stroke="#263238" stroke-width="0.122696" stroke-linecap="round" stroke-linejoin="round"/>
<path d="M36.6964 67.0091C36.6964 67.0091 36.2677 68.9026 35.1381 68.478C34.5286 68.2485 33.3543 66.4281 33.1328 65.5098L36.6964 67.0091Z" fill="white" stroke="#263238" stroke-width="0.122696" stroke-linecap="round" stroke-linejoin="round"/>
<path d="M31.7168 55.3504L32.6392 54.875C32.6392 54.875 35.2458 54.8974 36.863 56.2118C38.3319 57.4065 39.0775 59.2776 39.0775 59.2776C39.0775 59.2776 44.7845 56.1265 50.6133 57.9347L52.9903 71.1832L42.062 71.8983L35.2417 65.4193L31.7168 55.3504Z" fill="white" stroke="#263238" stroke-width="0.122696" stroke-linecap="round" stroke-linejoin="round"/>
<path d="M53.7421 71.7125C53.7421 71.7125 52.4601 71.6739 50.7454 71.7308C48.153 71.8121 44.5711 72.1046 42.9336 73.0575L42.8564 73.0311L41.357 72.5069L41.3266 72.4622C41.0503 72.0559 38.8215 68.856 35.6379 67.5537L31.1357 54.9736C31.1357 54.9736 35.8086 55.1768 38.3624 59.3986L39.6444 59.8618C39.6444 59.8618 47.2732 57.6026 51.5438 58.4153L53.7421 71.7125Z" fill="#92E3A9"/>
<mask id="mask2_425_3529" style="mask-type:luminance" maskUnits="userSpaceOnUse" x="31" y="54" width="23" height="20">
<path d="M53.7421 71.7115C53.7421 71.7115 52.4601 71.6729 50.7454 71.7298C48.153 71.8111 44.5711 72.1036 42.9336 73.0565L42.8564 73.0301L41.357 72.5059L41.3266 72.4612C41.0503 72.0549 38.8215 68.855 35.6379 67.5527L31.1357 54.9727C31.1357 54.9727 35.8086 55.1758 38.3624 59.3976L39.6444 59.8608C39.6444 59.8608 47.2732 57.6016 51.5438 58.4143L53.7421 71.7115Z" fill="white"/>
</mask>
<g mask="url(#mask2_425_3529)">
<path opacity="0.3" d="M41.3266 72.4632C41.0503 72.0568 38.8215 68.857 35.6379 67.5547L31.1357 54.9746C31.1357 54.9746 35.8086 55.1778 38.3624 59.3996L41.3266 72.4632Z" fill="black" fill-opacity="0.7"/>
<path opacity="0.3" d="M50.7454 71.7295C48.153 71.8108 44.5712 72.1034 42.9337 73.0562L42.8565 73.0298L39.8618 60.3157C39.8618 60.3157 42.312 59.7651 43.0657 60.0434C43.0637 60.0475 48.0454 63.7228 50.7454 71.7295Z" fill="black" fill-opacity="0.7"/>
</g>
<path d="M53.7421 71.7125C53.7421 71.7125 52.4601 71.6739 50.7454 71.7308C48.153 71.8121 44.5711 72.1046 42.9336 73.0575L42.8564 73.0311L41.357 72.5069L41.3266 72.4622C41.0503 72.0559 38.8215 68.856 35.6379 67.5537L31.1357 54.9736C31.1357 54.9736 35.8086 55.1768 38.3624 59.3986L39.6444 59.8618C39.6444 59.8618 47.2732 57.6026 51.5438 58.4153L53.7421 71.7125Z" stroke="#263238" stroke-width="0.122696" stroke-linecap="round" stroke-linejoin="round"/>
<path d="M39.6484 59.8643L42.5883 72.0603" stroke="#263238" stroke-width="0.122696" stroke-linecap="round" stroke-linejoin="round"/>
<path d="M41.357 72.5092L38.5005 60.3213" stroke="#263238" stroke-width="0.122696" stroke-linecap="round" stroke-linejoin="round"/>
<path d="M34.0994 67.2354C33.4472 67.0546 32.1328 63.1355 32.7341 61.4472C32.7341 61.4472 33.4493 60.2058 33.75 60.1205C34.2051 59.9884 36.0417 60.027 35.9523 60.3359C35.7491 61.051 34.3391 61.0388 34.3391 61.0388L33.882 61.8759L33.9003 62.3371C33.9003 62.3371 34.5647 61.8535 34.8085 61.8677C34.9344 61.8677 35.5846 62.1928 36.1006 62.465C36.5415 62.6987 36.8117 62.8267 36.7101 63.038C36.383 63.7409 34.9913 63.2411 34.9913 63.2411L34.4671 64.0315C34.4671 64.0315 34.973 64.1188 35.1945 64.1432C35.4159 64.1676 37.2546 65.3927 37.1997 65.545C36.9823 66.1424 35.2392 65.4963 35.2392 65.4963L34.9304 65.7543C34.9304 65.7543 36.2144 66.0855 36.3525 66.1342C36.5557 66.2094 37.3379 66.8108 37.3257 66.8798C37.2322 67.4081 36.1534 67.02 36.1534 67.02L35.2087 66.9814C35.0648 67.1084 34.8917 67.1977 34.7048 67.2415" fill="white"/>
<path d="M34.0994 67.2354C33.4472 67.0546 32.1328 63.1355 32.7341 61.4472C32.7341 61.4472 33.4493 60.2058 33.75 60.1205C34.2051 59.9884 36.0417 60.027 35.9523 60.3359C35.7491 61.051 34.3391 61.0388 34.3391 61.0388L33.882 61.8759L33.9003 62.3371C33.9003 62.3371 34.5647 61.8535 34.8085 61.8677C34.9344 61.8677 35.5846 62.1928 36.1006 62.465C36.5415 62.6987 36.8117 62.8267 36.7101 63.038C36.383 63.7409 34.9913 63.2411 34.9913 63.2411L34.4671 64.0315C34.4671 64.0315 34.973 64.1188 35.1945 64.1432C35.4159 64.1676 37.2546 65.3927 37.1997 65.545C36.9823 66.1424 35.2392 65.4963 35.2392 65.4963L34.9304 65.7543C34.9304 65.7543 36.2144 66.0855 36.3525 66.1342C36.5557 66.2094 37.3379 66.8108 37.3257 66.8798C37.2322 67.4081 36.1534 67.02 36.1534 67.02L35.2087 66.9814C35.0648 67.1084 34.8917 67.1977 34.7048 67.2415" stroke="#263238" stroke-width="0.122696" stroke-linecap="round" stroke-linejoin="round"/>
<path d="M33.8929 62.3369C33.8929 62.3369 33.2834 62.8489 33.1269 62.9972C32.9705 63.1455 33.0091 63.6169 33.0091 63.6169" stroke="#263238" stroke-width="0.122696" stroke-linecap="round" stroke-linejoin="round"/>
<path d="M33.4517 64.6562C33.4517 65.1723 33.797 65.4852 33.9555 65.6518C34.114 65.8184 33.7016 66.2714 34.1587 66.5965" stroke="#263238" stroke-width="0.122696" stroke-linecap="round" stroke-linejoin="round"/>
<path d="M63.5449 81.0134C62.2547 81.3648 60.8529 79.0975 59.1422 76.6229C58.0126 74.9976 56.7489 73.2646 55.2963 72.1533C55.1805 72.0659 55.0627 71.9806 54.9448 71.8993L55.7941 67.6328C57.5575 68.5572 58.6506 70.0383 60.4811 71.56C63.427 74.0122 66.0377 75.5177 66.761 76.6026C67.4843 77.6875 65.7553 80.4099 63.5449 81.0134Z" fill="white"/>
<mask id="mask3_425_3529" style="mask-type:luminance" maskUnits="userSpaceOnUse" x="54" y="67" width="13" height="15">
<path d="M63.5444 81.0124C62.2543 81.3639 60.8524 79.0965 59.1418 76.622C58.0121 74.9966 56.7484 73.2636 55.2958 72.1523C55.18 72.0649 55.0622 71.9796 54.9443 71.8983L55.7936 67.6318C57.5571 68.5562 58.6501 70.0373 60.4806 71.559C63.4265 74.0113 66.0372 75.5167 66.7605 76.6016C67.4838 77.6865 65.7548 80.409 63.5444 81.0124Z" fill="white"/>
</mask>
<g mask="url(#mask3_425_3529)">
<path opacity="0.4" d="M59.1418 76.6204C58.0122 74.9951 56.7485 73.2621 55.2959 72.1508C55.4873 72.1605 55.6787 72.1315 55.8587 72.0654C55.8587 72.0654 58.1545 73.9285 59.1418 76.6204Z" fill="#92E3A9"/>
</g>
<path d="M63.5449 81.0134C62.2547 81.3648 60.8529 79.0975 59.1422 76.6229C58.0126 74.9976 56.7489 73.2646 55.2963 72.1533C55.1805 72.0659 55.0627 71.9806 54.9448 71.8993L55.7941 67.6328C57.5575 68.5572 58.6506 70.0383 60.4811 71.56C63.427 74.0122 66.0377 75.5177 66.761 76.6026C67.4843 77.6875 65.7553 80.4099 63.5449 81.0134Z" stroke="#263238" stroke-width="0.122696" stroke-linecap="round" stroke-linejoin="round"/>
<path d="M56.2695 71.7312C56.1812 71.8889 56.0358 72.0068 55.8631 72.0603C55.8173 72.0783 55.7705 72.0939 55.723 72.1071H55.6844C54.3211 72.4626 51.2533 71.7231 51.2533 71.7231C51.2533 71.7231 49.244 70.7682 49.1221 70.5427C49.0372 70.364 48.9619 70.1809 48.8966 69.9941L48.8417 69.8336C48.8417 69.8336 48.1184 69.4273 48.029 69.1103C47.9397 68.7934 47.7873 68.704 48.2322 68.6471C48.6771 68.5902 51.0765 68.6471 51.0765 68.6471L48.4659 67.5825C48.4659 67.5825 46.7369 66.711 46.5764 66.4042C46.4159 66.0974 46.2148 65.8942 47.0985 66.0161C47.9823 66.138 49.9124 66.6988 49.9124 66.6988L51.4341 67.0218L49.9226 66.3778C49.9226 66.3778 46.9482 66.0182 47.511 65.0938H49.1993C50.1557 65.136 51.107 65.2569 52.0436 65.4554C52.5353 65.6057 55.7859 67.6252 55.7859 67.6252" fill="white"/>
<mask id="mask4_425_3529" style="mask-type:luminance" maskUnits="userSpaceOnUse" x="46" y="65" width="11" height="8">
<path d="M56.2695 71.7312C56.1812 71.8889 56.0358 72.0068 55.8631 72.0603C55.8173 72.0783 55.7705 72.0939 55.723 72.1071H55.6844C54.3211 72.4626 51.2533 71.7231 51.2533 71.7231C51.2533 71.7231 49.244 70.7682 49.1221 70.5427C49.0372 70.364 48.9619 70.1809 48.8966 69.9941L48.8417 69.8336C48.8417 69.8336 48.1184 69.4273 48.029 69.1103C47.9397 68.7934 47.7873 68.704 48.2322 68.6471C48.6771 68.5902 51.0765 68.6471 51.0765 68.6471L48.4659 67.5825C48.4659 67.5825 46.7369 66.711 46.5764 66.4042C46.4159 66.0974 46.2148 65.8942 47.0985 66.0161C47.9823 66.138 49.9124 66.6988 49.9124 66.6988L51.4341 67.0218L49.9226 66.3778C49.9226 66.3778 46.9482 66.0182 47.511 65.0938H49.1993C50.1557 65.136 51.107 65.2569 52.0436 65.4554C52.5353 65.6057 55.7859 67.6252 55.7859 67.6252" fill="white"/>
</mask>
<g mask="url(#mask4_425_3529)">
<path opacity="0.4" d="M55.6799 72.1149C54.3166 72.4704 51.2488 71.7309 51.2488 71.7309C51.2488 71.7309 49.2395 70.776 49.1176 70.5505C49.0327 70.3718 48.9574 70.1887 48.8921 70.002L51.3585 70.2722C51.2722 70.4275 51.227 70.6023 51.227 70.7801C51.227 70.9578 51.2722 71.1326 51.3585 71.288C51.6328 71.7817 54.7575 72.2815 55.6799 72.1149Z" fill="#92E3A9"/>
</g>
<path d="M56.2695 71.7312C56.1812 71.8889 56.0358 72.0068 55.8631 72.0603C55.8173 72.0783 55.7705 72.0939 55.723 72.1071H55.6844C54.3211 72.4626 51.2533 71.7231 51.2533 71.7231C51.2533 71.7231 49.244 70.7682 49.1221 70.5427C49.0372 70.364 48.9619 70.1809 48.8966 69.9941L48.8417 69.8336C48.8417 69.8336 48.1184 69.4273 48.029 69.1103C47.9397 68.7934 47.7873 68.704 48.2322 68.6471C48.6771 68.5902 51.0765 68.6471 51.0765 68.6471L48.4659 67.5825C48.4659 67.5825 46.7369 66.711 46.5764 66.4042C46.4159 66.0974 46.2148 65.8942 47.0985 66.0161C47.9823 66.138 49.9124 66.6988 49.9124 66.6988L51.4341 67.0218L49.9226 66.3778C49.9226 66.3778 46.9482 66.0182 47.511 65.0938H49.1993C50.1557 65.136 51.107 65.2569 52.0436 65.4554C52.5353 65.6057 55.7859 67.6252 55.7859 67.6252" stroke="#263238" stroke-width="0.122696" stroke-linecap="round" stroke-linejoin="round"/>
<path d="M48.8374 69.8418L51.8057 70.2786" stroke="#263238" stroke-width="0.122696" stroke-linecap="round" stroke-linejoin="round"/>
<path d="M19.2485 78.9314L26.6885 81.1662L40.3006 78.0598C40.3006 78.0598 31.9871 75.699 31.9099 75.7579C31.8327 75.8168 19.2485 78.9314 19.2485 78.9314Z" fill="#92E3A9"/>
<mask id="mask5_425_3529" style="mask-type:luminance" maskUnits="userSpaceOnUse" x="19" y="75" width="22" height="7">
<path d="M19.2485 78.9314L26.6885 81.1662L40.3006 78.0598C40.3006 78.0598 31.9871 75.699 31.9099 75.7579C31.8327 75.8168 19.2485 78.9314 19.2485 78.9314Z" fill="white"/>
</mask>
<g mask="url(#mask5_425_3529)">
<path opacity="0.3" d="M19.2485 78.9314L26.6885 81.1662L40.3006 78.0598C40.3006 78.0598 31.9871 75.699 31.9099 75.7579C31.8327 75.8168 19.2485 78.9314 19.2485 78.9314Z" fill="black" fill-opacity="0.7"/>
</g>
<path d="M19.2485 78.9314L26.6885 81.1662L40.3006 78.0598C40.3006 78.0598 31.9871 75.699 31.9099 75.7579C31.8327 75.8168 19.2485 78.9314 19.2485 78.9314Z" stroke="#263238" stroke-width="0.122696" stroke-linecap="round" stroke-linejoin="round"/>
<path d="M19.3562 76.3108C18.8341 76.3474 18.704 78.2287 19.2485 78.9316L31.2678 76.4368L32.2309 74.1572L19.3562 76.3108Z" fill="#92E3A9"/>
<mask id="mask6_425_3529" style="mask-type:luminance" maskUnits="userSpaceOnUse" x="18" y="74" width="15" height="5">
<path d="M19.3562 76.3108C18.8341 76.3474 18.704 78.2287 19.2485 78.9316L31.2678 76.4368L32.2309 74.1572L19.3562 76.3108Z" fill="white"/>
</mask>
<g mask="url(#mask6_425_3529)">
<path opacity="0.3" d="M19.3562 76.3108C18.8341 76.3474 18.704 78.2287 19.2485 78.9316L31.2678 76.4368L32.2309 74.1572L19.3562 76.3108Z" fill="black" fill-opacity="0.7"/>
</g>
<path d="M19.3562 76.3108C18.8341 76.3474 18.704 78.2287 19.2485 78.9316L31.2678 76.4368L32.2309 74.1572L19.3562 76.3108Z" stroke="#263238" stroke-width="0.122696" stroke-linecap="round" stroke-linejoin="round"/>
<path d="M39.7177 76.2839C39.7177 76.2839 39.5389 77.2733 39.6547 77.8828L26.6744 80.8206L19.8318 78.8052C19.8318 78.8052 19.1207 77.5476 19.7404 76.5704L32.2432 74.4473L39.7177 76.2839Z" fill="white" stroke="#263238" stroke-width="0.122696" stroke-linecap="round" stroke-linejoin="round"/>
<path d="M19.356 76.3108L32.2306 74.1572L40.2252 76.1828L26.7797 78.8626L19.356 76.3108Z" fill="#92E3A9" stroke="#263238" stroke-width="0.122696" stroke-linecap="round" stroke-linejoin="round"/>
<path d="M19.813 77.5132L26.6211 79.5408L37.7648 77.2979" stroke="#263238" stroke-width="0.122696" stroke-linecap="round" stroke-linejoin="round"/>
<path d="M39.618 77.5049L27.6353 80.0607" stroke="#263238" stroke-width="0.122696" stroke-linecap="round" stroke-linejoin="round"/>
<path d="M19.9736 78.3115C20.0772 78.3217 25.1056 79.8698 25.1056 79.8698" stroke="#263238" stroke-width="0.122696" stroke-linecap="round" stroke-linejoin="round"/>
<path d="M38.6387 77.0353L39.5915 76.8809" stroke="#263238" stroke-width="0.122696" stroke-linecap="round" stroke-linejoin="round"/>
<path d="M26.3999 80.2456L25.894 80.1318" stroke="#263238" stroke-width="0.122696" stroke-linecap="round" stroke-linejoin="round"/>
<path d="M19.7405 76.5703C20.0069 76.8772 20.1611 77.2656 20.1777 77.6717C20.1943 78.0778 20.0724 78.4775 19.8319 78.8051C19.6093 78.4784 19.4828 78.0958 19.4666 77.7008C19.4505 77.3058 19.5453 76.9141 19.7405 76.5703Z" fill="#263238"/>
<mask id="mask7_425_3529" style="mask-type:luminance" maskUnits="userSpaceOnUse" x="19" y="76" width="2" height="3">
<path d="M19.7405 76.5713C20.0069 76.8782 20.1611 77.2666 20.1777 77.6727C20.1943 78.0788 20.0724 78.4785 19.8319 78.8061C19.6093 78.4794 19.4828 78.0968 19.4666 77.7018C19.4505 77.3068 19.5453 76.9151 19.7405 76.5713Z" fill="white"/>
</mask>
<g mask="url(#mask7_425_3529)">
<path opacity="0.3" d="M19.7405 76.5713C20.0069 76.8782 20.1611 77.2666 20.1777 77.6727C20.1943 78.0788 20.0724 78.4785 19.8319 78.8061C19.6093 78.4794 19.4828 78.0968 19.4666 77.7018C19.4505 77.3068 19.5453 76.9151 19.7405 76.5713Z" fill="white" fill-opacity="0.7"/>
</g>
<path d="M19.7405 76.5703C20.0069 76.8772 20.1611 77.2656 20.1777 77.6717C20.1943 78.0778 20.0724 78.4775 19.8319 78.8051C19.6093 78.4784 19.4828 78.0958 19.4666 77.7008C19.4505 77.3058 19.5453 76.9141 19.7405 76.5703Z" stroke="#263238" stroke-width="0.122696" stroke-linecap="round" stroke-linejoin="round"/>
<path d="M47.5474 79.541L60.5398 80.0733L59.2741 84.545L43.291 83.9355L47.5474 79.541Z" fill="white"/>
<mask id="mask8_425_3529" style="mask-type:luminance" maskUnits="userSpaceOnUse" x="43" y="79" width="18" height="6">
<path d="M47.5474 79.541L60.5398 80.0733L59.2741 84.545L43.291 83.9355L47.5474 79.541Z" fill="white"/>
</mask>
<g mask="url(#mask8_425_3529)">
<path opacity="0.4" d="M47.5474 79.541L60.5398 80.0733L59.2741 84.545L43.291 83.9355L47.5474 79.541Z" fill="#92E3A9"/>
</g>
<path d="M47.5474 79.541L60.5398 80.0733L59.2741 84.545L43.291 83.9355L47.5474 79.541Z" stroke="#263238" stroke-width="0.122696" stroke-linecap="round" stroke-linejoin="round"/>
</svg>
