<svg width="118" height="95" viewBox="0 0 118 95" fill="none" xmlns="http://www.w3.org/2000/svg">
<path d="M104.532 64.7545H61.9707C61.2096 64.7545 60.5903 64.1352 60.5903 63.3742V1.38035C60.5903 0.619295 61.2096 0 61.9707 0H104.532C105.293 0 105.912 0.61906 105.912 1.38035V63.3742C105.912 64.1354 105.293 64.7545 104.532 64.7545ZM61.9707 0.0588684C61.2419 0.0588684 60.6492 0.65179 60.6492 1.38035V63.3742C60.6492 64.103 61.2421 64.6956 61.9707 64.6956H104.532C105.26 64.6956 105.853 64.103 105.853 63.3742V1.38035C105.853 0.65179 105.26 0.0588684 104.532 0.0588684H61.9707Z" fill="#E0E0E0"/>
<path d="M55.4522 64.7545H12.8911C12.13 64.7545 11.5107 64.1352 11.5107 63.3742V1.38035C11.5107 0.619295 12.1298 0 12.8911 0H55.4522C56.2133 0 56.8326 0.61906 56.8326 1.38035V63.3742C56.8326 64.1354 56.2133 64.7545 55.4522 64.7545ZM12.8911 0.0588684C12.1625 0.0588684 11.5696 0.65179 11.5696 1.38035V63.3742C11.5696 64.103 12.1625 64.6956 12.8911 64.6956H55.4522C56.181 64.6956 56.7737 64.103 56.7737 63.3742V1.38035C56.7737 0.65179 56.1808 0.0588684 55.4522 0.0588684H12.8911Z" fill="#E0E0E0"/>
<path d="M117.737 79.1348H0V79.1936H117.737V79.1348Z" fill="#E0E0E0"/>
<path d="M15.9492 82.4941H12.1675V82.553H15.9492V82.4941Z" fill="#E0E0E0"/>
<path d="M52.7187 81.8555H40.1138V81.9143H52.7187V81.8555Z" fill="#E0E0E0"/>
<path d="M24.721 84.6816H16.1851V84.7405H24.721V84.6816Z" fill="#E0E0E0"/>
<path d="M99.2619 81.8252H89.0918V81.8841H99.2619V81.8252Z" fill="#E0E0E0"/>
<path d="M102.851 81.8252H101.36V81.8841H102.851V81.8252Z" fill="#E0E0E0"/>
<path d="M87.1496 83.293H74.46V83.3518H87.1496V83.293Z" fill="#E0E0E0"/>
<path d="M46.4982 9.56152H18.4502V40.5983H46.4982V9.56152Z" fill="#E6E6E6"/>
<path d="M45.3373 10.791H19.6841V39.4328H45.3373V10.791Z" fill="#F5F5F5"/>
<path d="M26.9343 10.791L19.6841 37.9435V23.244L23.0017 10.791H26.9343Z" fill="white"/>
<path d="M30.1745 10.791L22.5285 39.4328H21.0864L28.7325 10.791H30.1745Z" fill="white"/>
<path d="M45.3377 18.6016V33.3036L43.7139 39.433H39.7812L45.3377 18.6016Z" fill="white"/>
<path d="M32.9724 9.56152H31.9761V40.5983H32.9724V9.56152Z" fill="#E6E6E6"/>
<path d="M45.96 15.8594H18.937V16.8557H45.96V15.8594Z" fill="#E6E6E6"/>
<path d="M89.3851 9.67578H73.072C72.43 9.67578 71.9097 10.1962 71.9097 10.8381V23.2273C71.9097 23.8692 72.43 24.3896 73.072 24.3896H89.3851C90.027 24.3896 90.5474 23.8692 90.5474 23.2273V10.8381C90.5474 10.1962 90.027 9.67578 89.3851 9.67578Z" fill="#EBEBEB"/>
<path d="M72.9987 9.67578H89.4764C90.0672 9.67578 90.5469 10.1554 90.5469 10.7462V12.2415H71.9092V10.7653C71.9092 10.1639 72.3973 9.67578 72.9987 9.67578Z" fill="#E6E6E6"/>
<path opacity="0.5" d="M89.5591 11.1442C89.5591 11.4536 89.3083 11.7041 88.9989 11.7041C88.6895 11.7041 88.439 11.4534 88.439 11.1442C88.439 10.835 88.6897 10.584 88.9989 10.584C89.3081 10.584 89.5591 10.8348 89.5591 11.1442Z" fill="#FAFAFA"/>
<path opacity="0.5" d="M87.4071 11.7049C87.7164 11.7049 87.9671 11.4542 87.9671 11.1449C87.9671 10.8357 87.7164 10.585 87.4071 10.585C87.0979 10.585 86.8472 10.8357 86.8472 11.1449C86.8472 11.4542 87.0979 11.7049 87.4071 11.7049Z" fill="#FAFAFA"/>
<path opacity="0.5" d="M86.3753 11.1442C86.3753 11.4536 86.1245 11.7041 85.8153 11.7041C85.5061 11.7041 85.2554 11.4534 85.2554 11.1442C85.2554 10.835 85.5061 10.584 85.8153 10.584C86.1245 10.584 86.3753 10.8348 86.3753 11.1442Z" fill="#FAFAFA"/>
<path opacity="0.6" d="M86.1593 14.3867H76.1875V14.909H86.1593V14.3867Z" fill="white"/>
<path d="M83.4779 15.5166H76.3428V16.0389H83.4779V15.5166Z" fill="#E0E0E0"/>
<path d="M88.8643 14.3867H87.042V14.909H88.8643V14.3867Z" fill="#F0F0F0"/>
<path d="M75.4949 14.3867H73.5332V14.909H75.4949V14.3867Z" fill="#F0F0F0"/>
<path d="M86.1593 16.7715H76.1875V17.2938H86.1593V16.7715Z" fill="#F0F0F0"/>
<path opacity="0.6" d="M88.8643 16.7715H87.042V17.2938H88.8643V16.7715Z" fill="white"/>
<path d="M75.4949 16.7715H73.5332V17.2938H75.4949V16.7715Z" fill="#F0F0F0"/>
<path opacity="0.6" d="M86.1593 21.7441H76.1875V22.2664H86.1593V21.7441Z" fill="white"/>
<path opacity="0.6" d="M88.8643 21.7441H87.042V22.2664H88.8643V21.7441Z" fill="white"/>
<path d="M86.1593 18.0293H76.1875V18.5516H86.1593V18.0293Z" fill="#F0F0F0"/>
<path d="M88.8643 18.0293H87.042V18.5516H88.8643V18.0293Z" fill="#E0E0E0"/>
<path d="M75.4949 18.0293H73.5332V18.5516H75.4949V18.0293Z" fill="#E0E0E0"/>
<path d="M88.9984 15.5371H84.2588V16.0594H88.9984V15.5371Z" fill="#F0F0F0"/>
<path opacity="0.6" d="M83.3226 19.125H76.1875V19.6473H83.3226V19.125Z" fill="white"/>
<path d="M88.8431 19.1455H84.1035V19.6678H88.8431V19.1455Z" fill="#F0F0F0"/>
<path d="M79.7552 20.2617H76.1875V20.784H79.7552V20.2617Z" fill="#E0E0E0"/>
<path d="M54.5803 38.945C54.2361 39.4692 54.0048 40.0449 53.8814 40.6388L52.9355 40.7278V42.5595L53.8814 42.6488C54.0046 43.2424 54.2361 43.8181 54.5803 44.3425L53.9763 45.0723L55.2717 46.3674L56.0014 45.7634C56.5256 46.1074 57.1013 46.3391 57.6952 46.4623L57.7842 47.4082H59.6159L59.7049 46.4623C60.2988 46.3389 60.8745 46.1074 61.3987 45.7634L62.1284 46.3674L63.4235 45.072L62.8195 44.3423C63.1636 43.8181 63.395 43.2424 63.5184 42.6485L64.4641 42.5593V40.7275L63.5184 40.6383C63.395 40.0447 63.1636 39.4689 62.8193 38.9448L63.4233 38.215L62.1282 36.9199L61.3985 37.5239C60.8743 37.1797 60.2983 36.9482 59.7047 36.8248L59.6157 35.8789H57.7839L57.6949 36.8248C57.1011 36.9482 56.5253 37.1794 56.0012 37.5237L55.2714 36.9197L53.9761 38.215L54.5801 38.9448L54.5803 38.945ZM60.4533 39.8904C61.4215 40.8587 61.4215 42.4288 60.4533 43.3971C59.4848 44.3656 57.9149 44.3654 56.9466 43.3971C55.9781 42.4288 55.9783 40.8587 56.9466 39.8904C57.9149 38.9222 59.485 38.9219 60.4533 39.8904Z" fill="#EBEBEB"/>
<path d="M28.8748 58.1023C28.5597 58.582 28.348 59.1087 28.2352 59.6522L27.3696 59.7337V61.4098L28.2352 61.4912C28.348 62.0345 28.5599 62.5615 28.8748 63.0411L28.3219 63.7089L29.5073 64.8941L30.1751 64.3412C30.6547 64.656 31.1817 64.8679 31.7249 64.9807L31.8064 65.8463H33.4825L33.564 64.9807C34.1075 64.8679 34.6342 64.656 35.1139 64.3412L35.7817 64.8941L36.9668 63.7089L36.4142 63.0411C36.729 62.5615 36.9409 62.0347 37.0537 61.4912L37.9191 61.4098V59.7337L37.0537 59.6522C36.9409 59.109 36.729 58.582 36.4139 58.1023L36.9668 57.4345L35.7817 56.2494L35.1139 56.8023C34.6342 56.4872 34.1072 56.2753 33.564 56.1625L33.4825 55.2969H31.8064L31.7249 56.1625C31.1817 56.2753 30.6547 56.4872 30.1751 56.802L29.5073 56.2491L28.3219 57.4345L28.8748 58.1023ZM34.249 58.9674C35.1351 59.8535 35.1351 61.2904 34.249 62.1765C33.3629 63.0626 31.926 63.0626 31.04 62.1765C30.1539 61.2904 30.1539 59.8538 31.04 58.9674C31.926 58.0814 33.3627 58.0814 34.249 58.9674Z" fill="#EBEBEB"/>
<path d="M54.1718 70.8055C53.9135 71.1987 53.74 71.6308 53.6472 72.0765L52.9375 72.1434V73.5179L53.6472 73.5848C53.7395 74.0303 53.9133 74.4624 54.1716 74.8556L53.7183 75.4031L54.6904 76.3751L55.2378 75.9218C55.6313 76.1801 56.0632 76.3539 56.5089 76.4462L56.5758 77.1559H57.9503L58.0171 76.4462C58.4626 76.3537 58.8947 76.1799 59.2882 75.9216L59.8357 76.3749L60.8077 75.4028L60.3544 74.8554C60.6128 74.4619 60.7863 74.03 60.8788 73.5845L61.5886 73.5176V72.1432L60.8788 72.0763C60.7863 71.6308 60.6125 71.1987 60.3542 70.8055L60.8075 70.258L59.8355 69.286L59.288 69.7392C58.8945 69.4809 58.4624 69.3071 58.0171 69.2146L57.9503 68.5049H56.5758L56.5089 69.2146C56.0634 69.3071 55.6313 69.4807 55.2381 69.739L54.6906 69.2857L53.7186 70.2577L54.1718 70.8055ZM58.579 71.5149C59.3056 72.2416 59.3056 73.4197 58.579 74.1464C57.8523 74.873 56.674 74.873 55.9476 74.1464C55.2211 73.4197 55.2209 72.2416 55.9476 71.5149C56.6742 70.7883 57.8523 70.7883 58.579 71.5149Z" fill="#EBEBEB"/>
<path d="M38.2768 64.397C38.086 64.6875 37.9579 65.0064 37.8894 65.3355L37.3652 65.385V66.3999L37.8894 66.4493C37.9577 66.7783 38.086 67.0974 38.2768 67.3879L37.9419 67.7922L38.6596 68.51L39.0639 68.1751C39.3545 68.3659 39.6733 68.4942 40.0025 68.5625L40.052 69.0866H41.0669L41.1163 68.5625C41.4453 68.4942 41.7644 68.3659 42.0549 68.1751L42.4592 68.51L43.177 67.7922L42.8421 67.3879C43.0328 67.0974 43.1612 66.7785 43.2295 66.4493L43.7536 66.3999V65.385L43.2297 65.3355C43.1614 65.0066 43.0331 64.6875 42.8423 64.397L43.1772 63.9926L42.4595 63.2749L42.0552 63.6098C41.7646 63.419 41.4455 63.2907 41.1166 63.2224L41.0671 62.6982H40.0522L40.0028 63.2224C39.6738 63.2907 39.3547 63.419 39.0642 63.6098L38.6599 63.2749L37.9421 63.9926L38.2768 64.397ZM41.5312 64.9209C42.0679 65.4575 42.0679 66.3276 41.5312 66.864C40.9946 67.4007 40.1245 67.4007 39.5881 66.864C39.0517 66.3274 39.0515 65.4575 39.5881 64.9209C40.1247 64.3842 40.9946 64.3842 41.5312 64.9209Z" fill="#EBEBEB"/>
<path d="M62.1656 70.1521C62.045 70.3358 61.9638 70.5376 61.9207 70.7457L61.5894 70.7768V71.4187L61.9209 71.45C61.964 71.658 62.0452 71.8598 62.1658 72.0434L61.9541 72.2992L62.4079 72.7529L62.6636 72.5412C62.8473 72.6618 63.0491 72.743 63.257 72.7861L63.2883 73.1177H63.9302L63.9615 72.7864C64.1697 72.743 64.3712 72.662 64.5549 72.5415L64.8106 72.7532L65.2644 72.2994L65.0527 72.0437C65.1733 71.86 65.2545 71.6582 65.2976 71.4503L65.6289 71.419V70.7771L65.2976 70.7457C65.2545 70.5378 65.1733 70.336 65.0527 70.1524L65.2644 69.8966L64.8106 69.4429L64.5549 69.6546C64.3712 69.534 64.1694 69.4528 63.9615 69.4097L63.9302 69.0781H63.2883L63.257 69.4097C63.0491 69.4528 62.8473 69.534 62.6636 69.6546L62.4079 69.4429L61.9541 69.8966L62.1658 70.1524L62.1656 70.1521ZM64.2234 70.4834C64.5627 70.8228 64.5627 71.3728 64.2234 71.7121C63.884 72.0515 63.334 72.0515 62.9947 71.7121C62.6553 71.3728 62.6553 70.8228 62.9947 70.4834C63.334 70.1441 63.884 70.1441 64.2234 70.4834Z" fill="#EBEBEB"/>
<path d="M89.2659 2.35059H83.0181V4.94503H89.2659V2.35059Z" fill="#F5F5F5"/>
<path d="M14.6941 47.5059H8.44629V50.1003H14.6941V47.5059Z" fill="#E6E6E6"/>
<path d="M106.845 48.6934H100.598V51.2878H106.845V48.6934Z" fill="#E6E6E6"/>
<path d="M64.7337 15.7344H58.4858V18.3288H64.7337V15.7344Z" fill="#E6E6E6"/>
<path d="M107.785 10.376H101.538V12.9704H107.785V10.376Z" fill="#E0E0E0"/>
<path d="M111.18 12.9697H104.932V15.5642H111.18V12.9697Z" fill="#F5F5F5"/>
<path d="M32.7752 1.05273H26.5273V3.64718H32.7752V1.05273Z" fill="#E0E0E0"/>
<path d="M36.1697 3.64746H29.9219V6.24191H36.1697V3.64746Z" fill="#F5F5F5"/>
<path d="M26.4456 70.1641H20.1978V72.7585H26.4456V70.1641Z" fill="#E0E0E0"/>
<path d="M29.8401 72.7588H23.5923V75.3532H29.8401V72.7588Z" fill="#F5F5F5"/>
<path d="M99.5256 72.0977H93.2778V74.6921H99.5256V72.0977Z" fill="#E0E0E0"/>
<path d="M102.92 74.6914H96.6719V77.2859H102.92V74.6914Z" fill="#F5F5F5"/>
<path d="M107.923 93.5562C107.923 94.3538 85.9022 95.0002 58.7382 95.0002C31.5743 95.0002 9.55371 94.3538 9.55371 93.5562C9.55371 92.7587 31.5743 92.1123 58.7382 92.1123C85.9022 92.1123 107.923 92.7587 107.923 93.5562Z" fill="#F5F5F5"/>
<path d="M56.9012 28.7406C56.9012 28.9286 56.7489 29.0809 56.561 29.0809C56.3731 29.0809 56.2207 28.9286 56.2207 28.7406C56.2207 28.5527 56.3731 28.4004 56.561 28.4004C56.7489 28.4004 56.9012 28.5527 56.9012 28.7406Z" fill="#407BFF"/>
<path d="M65.8886 28.623H56.7588V28.8585H65.8886V28.623Z" fill="#407BFF"/>
<path d="M80.4597 20.4639H66.466C65.8241 20.4639 65.3037 20.9842 65.3037 21.6262V33.0236C65.3037 33.6655 65.8241 34.1858 66.466 34.1858H80.4597C81.1016 34.1858 81.622 33.6655 81.622 33.0236V21.6262C81.622 20.9842 81.1016 20.4639 80.4597 20.4639Z" fill="#407BFF"/>
<path opacity="0.5" d="M80.4597 20.4639H66.466C65.8241 20.4639 65.3037 20.9842 65.3037 21.6262V33.0236C65.3037 33.6655 65.8241 34.1858 66.466 34.1858H80.4597C81.1016 34.1858 81.622 33.6655 81.622 33.0236V21.6262C81.622 20.9842 81.1016 20.4639 80.4597 20.4639Z" fill="white"/>
<path d="M66.3935 20.4639H80.5521C81.1429 20.4639 81.6225 20.9435 81.6225 21.5343V22.8567H65.3042V21.5534C65.3042 20.952 65.7923 20.4639 66.3937 20.4639H66.3935Z" fill="#407BFF"/>
<path opacity="0.5" d="M80.6998 21.8348C80.6998 22.1232 80.466 22.3571 80.1776 22.3571C79.8891 22.3571 79.6553 22.1232 79.6553 21.8348C79.6553 21.5463 79.8891 21.3125 80.1776 21.3125C80.466 21.3125 80.6998 21.5463 80.6998 21.8348Z" fill="white"/>
<path opacity="0.5" d="M79.2159 21.8348C79.2159 22.1232 78.9821 22.3571 78.6937 22.3571C78.4052 22.3571 78.1714 22.1232 78.1714 21.8348C78.1714 21.5463 78.4052 21.3125 78.6937 21.3125C78.9821 21.3125 79.2159 21.5463 79.2159 21.8348Z" fill="white"/>
<path opacity="0.5" d="M77.7316 21.8348C77.7316 22.1232 77.4978 22.3571 77.2093 22.3571C76.9208 22.3571 76.687 22.1232 76.687 21.8348C76.687 21.5463 76.9208 21.3125 77.2093 21.3125C77.4978 21.3125 77.7316 21.5463 77.7316 21.8348Z" fill="white"/>
<path opacity="0.6" d="M77.346 24.8574H68.9761V25.3444H77.346V24.8574Z" fill="white"/>
<path opacity="0.6" d="M75.0955 25.9111H69.1064V26.3981H75.0955V25.9111Z" fill="#263238"/>
<path d="M79.6074 24.8574H77.9609V25.3444H79.6074V24.8574Z" fill="#407BFF"/>
<path d="M68.3945 24.8574H66.748V25.3444H68.3945V24.8574Z" fill="#407BFF"/>
<path d="M77.346 27.082H68.9761V27.569H77.346V27.082Z" fill="#407BFF"/>
<path opacity="0.6" d="M79.6074 27.082H77.9609V27.569H79.6074V27.082Z" fill="white"/>
<path d="M68.3945 27.082H66.748V27.569H68.3945V27.082Z" fill="#407BFF"/>
<path d="M77.346 31.7197H68.9761V32.2067H77.346V31.7197Z" fill="#407BFF"/>
<path opacity="0.6" d="M79.6074 31.7197H77.9609V32.2067H79.6074V31.7197Z" fill="white"/>
<path d="M77.346 28.2549H68.9761V28.7421H77.346V28.2549Z" fill="#407BFF"/>
<path opacity="0.6" d="M79.6074 28.2549H77.9609V28.7421H79.6074V28.2549Z" fill="#263238"/>
<path opacity="0.6" d="M68.3945 28.2549H66.748V28.7421H68.3945V28.2549Z" fill="#263238"/>
<path d="M79.7293 25.9297H75.751V26.4169H79.7293V25.9297Z" fill="#407BFF"/>
<path opacity="0.6" d="M74.9651 29.2773H68.9761V29.7643H74.9651V29.2773Z" fill="white"/>
<path d="M79.5989 29.2959H75.6206V29.7829H79.5989V29.2959Z" fill="#407BFF"/>
<path opacity="0.6" d="M71.9706 30.3359H68.9761V30.8229H71.9706V30.3359Z" fill="#263238"/>
<path d="M57.4836 43.6951C57.938 42.46 57.3051 41.0903 56.0699 40.6359C54.8347 40.1816 53.4651 40.8145 53.0107 42.0497C52.5563 43.2848 53.1893 44.6545 54.4245 45.1089C55.6596 45.5632 57.0293 44.9303 57.4836 43.6951Z" fill="#263238"/>
<path d="M59.0995 45.011C59.6625 46.7624 60.1629 50.3906 60.1629 50.3906C59.6257 51.2831 57.5536 51.5791 57.5536 51.5791C57.5536 51.5791 55.4548 45.4315 55.4807 45.2549C55.7593 43.3615 56.9324 41.1874 56.9324 41.1874C56.9324 41.1874 57.7262 40.7383 59.0995 45.011Z" fill="#407BFF"/>
<path d="M60.4556 51.7695C60.4556 51.7695 63.3684 59.5428 63.2507 59.7283C63.133 59.9139 61.8642 60.2273 61.8642 60.2273C61.8642 60.2273 59.6178 57.4668 59.1069 55.9984C58.5959 54.53 58.2158 52.4833 58.2158 52.4833L60.4559 51.7695H60.4556Z" fill="#407BFF"/>
<path d="M63.6465 60.1653C63.6465 60.7587 63.1654 61.2398 62.572 61.2398C61.9786 61.2398 61.4976 60.7587 61.4976 60.1653C61.4976 59.5719 61.9786 59.0908 62.572 59.0908C63.1654 59.0908 63.6465 59.5719 63.6465 60.1653Z" fill="#263238"/>
<path d="M59.0874 52.9833C59.9123 52.9833 60.581 52.3146 60.581 51.4897C60.581 50.6648 59.9123 49.9961 59.0874 49.9961C58.2625 49.9961 57.5938 50.6648 57.5938 51.4897C57.5938 52.3146 58.2625 52.9833 59.0874 52.9833Z" fill="#263238"/>
<path d="M62.2796 62.9805C62.222 62.868 61.9655 60.5886 62.1049 60.3079C62.3665 59.7811 63.2839 59.8266 63.4245 60.019C63.5651 60.2113 64.994 62.2155 64.9586 62.4203C64.9233 62.6254 64.7156 64.5029 64.2496 64.728C63.7836 64.9533 62.6216 65.0183 62.4487 64.6806C62.2759 64.3432 62.2799 62.9803 62.2799 62.9803L62.2796 62.9805Z" fill="#407BFF"/>
<path d="M44.6471 43.4189C44.9482 42.1377 44.1537 40.855 42.8725 40.554C41.5913 40.2529 40.3086 41.0474 40.0075 42.3286C39.7065 43.6098 40.501 44.8925 41.7822 45.1936C43.0634 45.4946 44.3461 44.7001 44.6471 43.4189Z" fill="#263238"/>
<path d="M38.475 45.0139C37.912 46.7654 37.4116 50.3936 37.4116 50.3936C37.9487 51.286 40.0209 51.582 40.0209 51.582C40.0209 51.582 42.1197 45.4345 42.0938 45.2579C41.8152 43.3644 40.6421 41.1903 40.6421 41.1903C40.6421 41.1903 39.8485 40.7413 38.475 45.0139Z" fill="#407BFF"/>
<path d="M37.1189 51.7725C37.1189 51.7725 34.2061 59.5457 34.3238 59.7312C34.4415 59.9168 35.7103 60.2302 35.7103 60.2302C35.7103 60.2302 37.9567 57.4697 38.4677 56.0013C38.9786 54.5329 39.3587 52.4862 39.3587 52.4862L37.1189 51.7725Z" fill="#407BFF"/>
<path d="M33.7568 60.3284C33.7568 60.9218 34.2379 61.4028 34.8313 61.4028C35.4247 61.4028 35.9058 60.9218 35.9058 60.3284C35.9058 59.735 35.4247 59.2539 34.8313 59.2539C34.2379 59.2539 33.7568 59.735 33.7568 60.3284Z" fill="#263238"/>
<path d="M39.8803 51.3296C39.8803 52.1544 39.2115 52.8232 38.3867 52.8232C37.5618 52.8232 36.8931 52.1544 36.8931 51.3296C36.8931 50.5047 37.5618 49.8359 38.3867 49.8359C39.2115 49.8359 39.8803 50.5047 39.8803 51.3296Z" fill="#263238"/>
<path d="M34.9975 63.4229C35.0552 63.3103 35.3116 61.031 35.1722 60.7503C34.9106 60.2235 33.9932 60.269 33.8526 60.4613C33.712 60.6537 32.2832 62.6578 32.3185 62.8627C32.3538 63.0678 32.5615 64.9452 33.0275 65.1703C33.4935 65.3955 34.6556 65.4607 34.8284 65.123C35.0013 64.7853 34.9973 63.4227 34.9973 63.4227L34.9975 63.4229Z" fill="#407BFF"/>
<path d="M52.2968 49.835H46.0664V55.3533H52.2968V49.835Z" fill="#263238"/>
<path d="M42.4219 40.4902L42.4829 45.1095L44.9492 52.1497H52.9598L55.047 45.1095L54.925 40.4902H42.4219Z" fill="#407BFF"/>
<path d="M43.4082 56.6269L44.9984 54.2852H53.2757L54.759 56.7244L50.3829 61.5392H47.6684L43.4082 56.6269Z" fill="#407BFF"/>
<path d="M44.437 53.8765C44.437 53.5516 44.7005 53.2881 45.0255 53.2881H52.8834C53.2084 53.2881 53.4719 53.5516 53.4719 53.8765C53.4719 54.2015 53.2084 54.465 52.8834 54.465H45.0255C44.7005 54.465 44.437 54.2015 44.437 53.8765Z" fill="#263238"/>
<path opacity="0.3" d="M49.084 48.0812C50.3361 48.0812 51.3512 47.0661 51.3512 45.814C51.3512 44.5619 50.3361 43.5469 49.084 43.5469C47.8319 43.5469 46.8169 44.5619 46.8169 45.814C46.8169 47.0661 47.8319 48.0812 49.084 48.0812Z" fill="white"/>
<path opacity="0.3" d="M49.0841 47.716C50.1342 47.716 50.9855 46.8647 50.9855 45.8145C50.9855 44.7644 50.1342 43.9131 49.0841 43.9131C48.0339 43.9131 47.1826 44.7644 47.1826 45.8145C47.1826 46.8647 48.0339 47.716 49.0841 47.716Z" fill="white"/>
<path d="M50.9855 37.3359H46.8169V40.4887H50.9855V37.3359Z" fill="#263238"/>
<path d="M55.2575 33.1276C54.3238 28.1749 49.475 27.9571 48.6998 27.9543C48.6998 27.9543 43.3795 27.7414 42.3639 33.1276C42.0444 34.8226 42.8883 36.5455 44.4485 37.2811C45.345 37.704 46.601 38.0285 48.3548 38.0928V38.1034C48.5102 38.1055 48.6616 38.1055 48.8107 38.1039C48.9595 38.1055 49.1112 38.1055 49.2668 38.1034L49.2663 38.0928C51.0204 38.0285 52.2764 37.704 53.1731 37.2811C54.7331 36.5453 55.5773 34.8226 55.2577 33.1276H55.2575Z" fill="#407BFF"/>
<path d="M54.5375 32.6872C53.7049 28.8982 49.3818 28.7315 48.6907 28.7294C48.6907 28.7294 43.9471 28.5664 43.0417 32.6872C42.7568 33.984 43.5093 35.3022 44.9003 35.8649C45.6997 36.1885 46.8194 36.4367 48.3832 36.4859V36.4939C48.5219 36.4955 48.6568 36.4955 48.7896 36.4944C48.9224 36.4955 49.0573 36.4958 49.1963 36.4939L49.1958 36.4859C50.7598 36.4367 51.8795 36.1885 52.6789 35.8649C54.0699 35.3019 54.8224 33.984 54.5375 32.6872Z" fill="#263238"/>
<path d="M47.1746 33.8543C47.4008 33.8543 47.5841 33.4851 47.5841 33.0297C47.5841 32.5743 47.4008 32.2051 47.1746 32.2051C46.9485 32.2051 46.7651 32.5743 46.7651 33.0297C46.7651 33.4851 46.9485 33.8543 47.1746 33.8543Z" fill="white"/>
<path d="M51.2614 33.0297C51.2614 33.4851 51.0782 33.8543 50.8519 33.8543C50.6256 33.8543 50.4424 33.4851 50.4424 33.0297C50.4424 32.5743 50.6256 32.2051 50.8519 32.2051C51.0782 32.2051 51.2614 32.5743 51.2614 33.0297Z" fill="white"/>
<path opacity="0.2" d="M43.0112 33.6136C43.0112 33.6136 48.7026 30.9379 50.0846 28.8662C50.0846 28.8662 50.7272 28.9199 51.9434 29.4582C52.3722 29.648 46.5127 34.8585 43.7546 35.0959C43.7546 35.0959 43.0169 34.3311 43.0112 33.6136Z" fill="white"/>
<path opacity="0.2" d="M50.5762 36.3803C50.5762 36.3803 54.2999 32.2106 54.5375 32.6874C54.708 33.0293 54.9557 35.9732 50.5762 36.3803Z" fill="white"/>
<path d="M49.0819 48.7663C47.4411 48.7663 46.106 47.4314 46.106 45.7904C46.106 44.1494 47.4409 42.8145 49.0819 42.8145C50.7229 42.8145 52.0578 44.1494 52.0578 45.7904C52.0578 47.4314 50.7229 48.7663 49.0819 48.7663ZM49.0819 42.9322C47.5058 42.9322 46.2237 44.2143 46.2237 45.7904C46.2237 47.3664 47.5058 48.6485 49.0819 48.6485C50.6579 48.6485 51.94 47.3664 51.94 45.7904C51.94 44.2143 50.6579 42.9322 49.0819 42.9322Z" fill="white"/>
<path d="M43.3899 57.1943C43.2288 57.1943 41.188 59.0437 41.188 62.0489C41.188 65.054 42.6905 72.1907 42.6905 72.1907H46.8761V61.2916L43.3899 57.1943Z" fill="#407BFF"/>
<path d="M42.8659 74.126C42.8659 74.126 41.2626 76.6915 42.0644 84.0889C42.5195 88.2895 43.274 90.2823 43.274 90.2823H46.033L46.3363 74.1969L42.8659 74.126Z" fill="#407BFF"/>
<path d="M47.4739 61.884C47.2283 62.0968 46.8568 62.0705 46.6436 61.8249L42.8504 57.4507C42.6375 57.2051 42.6639 56.8335 42.9095 56.6204C43.1551 56.4076 43.5267 56.4339 43.7398 56.6795L47.5328 61.0534C47.7457 61.299 47.7193 61.6706 47.4737 61.8837L47.4739 61.884Z" fill="#263238"/>
<path d="M44.6536 74.9362C43.7096 74.9362 42.9443 74.1709 42.9443 73.2269C42.9443 72.2829 43.7096 71.5176 44.6536 71.5176C45.5977 71.5176 46.3629 72.2829 46.3629 73.2269C46.3629 74.1709 45.5977 74.9362 44.6536 74.9362Z" fill="#263238"/>
<path d="M44.6532 92.7467C43.7091 92.7467 42.9438 91.9814 42.9438 91.0374C42.9438 90.0934 43.7091 89.3281 44.6532 89.3281C45.5972 89.3281 46.3625 90.0934 46.3625 91.0374C46.3625 91.9814 45.5972 92.7467 44.6532 92.7467Z" fill="#263238"/>
<path d="M41.531 92.746C41.531 92.746 42.6429 89.6825 44.6531 89.8632C46.6634 90.0438 47.536 92.746 47.536 92.746H41.531Z" fill="#407BFF"/>
<path d="M54.9711 57.1729C55.1321 57.1729 57.173 59.0223 57.173 62.0274C57.173 65.0325 55.6704 72.1692 55.6704 72.1692H51.4849V61.2701L54.9711 57.1729Z" fill="#407BFF"/>
<path d="M55.4957 74.1055C55.4957 74.1055 57.1732 76.8332 55.8456 84.3683C55.1182 88.4967 54.6624 90.2844 54.6624 90.2844H51.9033L52.0251 74.1766L55.4957 74.1057V74.1055Z" fill="#407BFF"/>
<path d="M50.4957 62.0489C50.2534 61.8322 50.2324 61.4602 50.4488 61.2179L54.3064 56.9005C54.523 56.6582 54.8951 56.6372 55.1374 56.8536C55.3797 57.0703 55.4006 57.4423 55.1842 57.6846L51.3269 62.002C51.1103 62.2443 50.7382 62.2653 50.4959 62.0489H50.4957Z" fill="#263238"/>
<path d="M53.7078 74.9147C54.6519 74.9147 55.4171 74.1494 55.4171 73.2054C55.4171 72.2614 54.6519 71.4961 53.7078 71.4961C52.7638 71.4961 51.9985 72.2614 51.9985 73.2054C51.9985 74.1494 52.7638 74.9147 53.7078 74.9147Z" fill="#263238"/>
<path d="M53.3255 92.7487C54.2695 92.7487 55.0348 91.9834 55.0348 91.0394C55.0348 90.0954 54.2695 89.3301 53.3255 89.3301C52.3815 89.3301 51.6162 90.0954 51.6162 91.0394C51.6162 91.9834 52.3815 92.7487 53.3255 92.7487Z" fill="#263238"/>
<path d="M50.3513 92.748C50.3513 92.748 51.4632 89.6845 53.4735 89.8651C55.4837 90.0457 56.3564 92.748 56.3564 92.748H50.3511H50.3513Z" fill="#407BFF"/>
<path d="M78.546 59.0958C78.3194 57.4628 77.4642 55.9329 76.1688 54.9067C74.8165 53.8353 73.0507 53.3566 71.3419 53.5688C71.2305 53.5826 71.2291 53.7593 71.3419 53.7454C73.0326 53.5356 74.7909 54.0065 76.1159 55.0894C77.3514 56.0992 78.1567 57.5654 78.3757 59.1426C78.3912 59.2547 78.5615 59.2069 78.546 59.0958Z" fill="#263238"/>
<path d="M68.166 51.5686L67.5024 52.4023L69.5562 54.0369L70.2197 53.2032L68.166 51.5686Z" fill="#263238"/>
<path d="M68.277 50.4409L66.3311 52.8857L67.2952 53.6531L69.2411 51.2082L68.277 50.4409Z" fill="#263238"/>
<path d="M64.2528 47.5703L64.3805 48.0631L65.6607 48.0824L66.9999 49.3137L66.8734 50.7334L66.3024 51.4509L64.9472 51.8926L63.4468 50.8638L63.1409 49.6205L62.6318 49.6067L62.7041 51.4921L64.7786 52.9843L67.0498 52.3511L67.4729 51.7966L67.9184 51.2597L68.0258 48.9045L66.1062 47.2178L64.2528 47.5703Z" fill="#263238"/>
<path d="M91.9449 89.2441H69.9717V92.7485H91.9449V89.2441Z" fill="#263238"/>
<path d="M72.3098 90.9971L74.3716 82.5591C74.6624 81.3688 75.7291 80.5312 76.9545 80.5312H85.06C86.2562 80.5312 87.3052 81.33 87.6234 82.4831L90.1156 91.5177L72.3096 90.9969L72.3098 90.9971Z" fill="#263238"/>
<path d="M80.8489 87.9906C79.4686 87.9906 78.3496 86.8716 78.3496 85.4913V71.8938C78.3496 70.5135 79.4686 69.3945 80.8489 69.3945C82.2293 69.3945 83.3482 70.5135 83.3482 71.8938V85.4913C83.3482 86.8716 82.2293 87.9906 80.8489 87.9906Z" fill="#263238"/>
<path opacity="0.3" d="M80.8489 87.9906C79.4686 87.9906 78.3496 86.8716 78.3496 85.4913V71.8938C78.3496 70.5135 79.4686 69.3945 80.8489 69.3945C82.2293 69.3945 83.3482 70.5135 83.3482 71.8938V85.4913C83.3482 86.8716 82.2293 87.9906 80.8489 87.9906Z" fill="white"/>
<path d="M80.9929 72.4737C80.3894 72.5912 79.8052 72.197 79.6877 71.5937L77.5114 60.4099C77.3939 59.8064 77.7881 59.2222 78.3914 59.1047C78.9949 58.9872 79.5791 59.3814 79.6966 59.9847L81.8729 71.1685C81.9904 71.772 81.5962 72.3562 80.9929 72.4737Z" fill="#263238"/>
<path d="M79.4728 60.8571C79.1032 61.3483 78.4054 61.447 77.914 61.0773L68.8101 54.2264C68.3189 53.8567 68.2203 53.159 68.59 52.6676C68.9597 52.1764 69.6574 52.0777 70.1488 52.4474L79.2529 59.2983C79.7441 59.668 79.8428 60.3657 79.4731 60.8571H79.4728Z" fill="#263238"/>
<path opacity="0.3" d="M79.4728 60.8571C79.1032 61.3483 78.4054 61.447 77.914 61.0773L68.8101 54.2264C68.3189 53.8567 68.2203 53.159 68.59 52.6676C68.9597 52.1764 69.6574 52.0777 70.1488 52.4474L79.2529 59.2983C79.7441 59.668 79.8428 60.3657 79.4731 60.8571H79.4728Z" fill="white"/>
<path d="M79.0218 60.1664C79.0218 60.424 78.8132 60.6327 78.5556 60.6327C78.298 60.6327 78.0894 60.4238 78.0894 60.1664C78.0894 59.9091 78.298 59.7002 78.5556 59.7002C78.8132 59.7002 79.0218 59.9091 79.0218 60.1664Z" fill="#263238"/>
<path d="M69.5117 53.8006C69.7691 53.8006 69.9779 53.5919 69.9779 53.3344C69.9779 53.0769 69.7691 52.8682 69.5117 52.8682C69.2542 52.8682 69.0454 53.0769 69.0454 53.3344C69.0454 53.5919 69.2542 53.8006 69.5117 53.8006Z" fill="#263238"/>
<path opacity="0.3" d="M81.2128 71.2074C81.2128 71.4651 81.0041 71.6737 80.7465 71.6737C80.4889 71.6737 80.2803 71.4651 80.2803 71.2074C80.2803 70.9498 80.4889 70.7412 80.7465 70.7412C81.0041 70.7412 81.2128 70.9501 81.2128 71.2074Z" fill="white"/>
<path d="M82.2135 85.4654C82.2135 86.2191 81.6024 86.8302 80.8487 86.8302C80.0949 86.8302 79.4839 86.2191 79.4839 85.4654C79.4839 84.7116 80.0949 84.1006 80.8487 84.1006C81.6024 84.1006 82.2135 84.7116 82.2135 85.4654Z" fill="#263238"/>
<path d="M77.9963 62.2448C77.5421 63.5341 77.2473 64.946 77.5963 66.2985C77.881 67.4022 78.5725 68.3563 79.5436 68.9542C79.6406 69.014 79.7294 68.8612 79.6329 68.8016C78.6745 68.2117 78.0065 67.2623 77.746 66.1692C77.4368 64.8706 77.7319 63.5249 78.1666 62.2919C78.2045 62.1846 78.0338 62.1384 77.9963 62.2451V62.2448Z" fill="#263238"/>
<path opacity="0.3" d="M72.7378 89.2439H89.4884L89.3057 88.5811H72.8998L72.7378 89.2439Z" fill="black"/>
<path d="M24.6357 34.3003C24.8366 32.433 25.7599 30.6683 27.1937 29.4516C28.7009 28.1725 30.7152 27.5721 32.6764 27.7591C32.7895 27.7699 32.7887 27.593 32.6764 27.5824C29.5201 27.2815 26.45 29.0233 25.1187 31.905C24.7683 32.6635 24.5486 33.47 24.4591 34.3003C24.4469 34.4131 24.6237 34.4124 24.6357 34.3003Z" fill="#263238"/>
<path d="M33.9716 27.1006L34.7759 28.0518L37.1189 26.0705L36.3146 25.1193L33.9716 27.1006Z" fill="#263238"/>
<path d="M35.0462 24.735L37.4048 27.5244L38.5049 26.5942L36.1462 23.8049L35.0462 24.735Z" fill="#263238"/>
<path d="M40.7491 20.3117L40.617 20.8921L39.1217 20.9587L37.5994 22.4441L37.7965 24.0985L38.4888 24.9173L40.0874 25.3864L41.805 24.1322L42.1193 22.6688L42.7137 22.6351L42.6946 24.8405L40.3224 26.656L37.6465 25.995L37.1329 25.3616L36.5937 24.7499L36.3867 22.0014L38.571 19.9639L40.7491 20.3117Z" fill="#263238"/>
<path d="M8.54947 92.748H34.2363V88.6515H8.54947V92.748Z" fill="#263238"/>
<path d="M31.5022 90.6993L29.0921 80.8354C28.7521 79.4437 27.505 78.4648 26.0726 78.4648H16.5972C15.1987 78.4648 13.9726 79.3987 13.6005 80.7466L10.687 91.3083L31.5024 90.6993H31.5022Z" fill="#263238"/>
<path d="M22.2583 86.681C23.7686 86.1133 24.533 84.4287 23.9652 82.9184L18.373 68.0391C17.8053 66.5287 16.1207 65.7644 14.6104 66.3321C13.1 66.8998 12.3357 68.5844 12.9034 70.0947L18.4957 84.9741C19.0634 86.4844 20.748 87.2488 22.2583 86.681Z" fill="#263238"/>
<path opacity="0.3" d="M22.2583 86.681C23.7686 86.1133 24.533 84.4287 23.9652 82.9184L18.373 68.0391C17.8053 66.5287 16.1207 65.7644 14.6104 66.3321C13.1 66.8998 12.3357 68.5844 12.9034 70.0947L18.4957 84.9741C19.0634 86.4844 20.748 87.2488 22.2583 86.681Z" fill="white"/>
<path d="M14.6003 71.3347C16.1101 71.9038 17.7954 71.1413 18.3648 69.6315L23.9723 54.7578C24.5415 53.2479 23.779 51.5626 22.2692 50.9933C20.7593 50.4241 19.074 51.1866 18.5046 52.6965L12.8971 67.5701C12.3279 69.08 13.0904 70.7653 14.6003 71.3347Z" fill="#263238"/>
<path opacity="0.2" d="M14.6003 71.3347C16.1101 71.9038 17.7954 71.1413 18.3648 69.6315L23.9723 54.7578C24.5415 53.2479 23.779 51.5626 22.2692 50.9933C20.7593 50.4241 19.074 51.1866 18.5046 52.6965L12.8971 67.5701C12.3279 69.08 13.0904 70.7653 14.6003 71.3347Z" fill="white"/>
<path d="M21.3819 54.0813C22.0911 54.1977 22.7604 53.7168 22.8764 53.0078L25.7017 35.7766C25.818 35.0673 25.3374 34.3981 24.6281 34.282C23.9189 34.1657 23.2497 34.6463 23.1336 35.3555L20.3084 52.5868C20.192 53.296 20.6727 53.9652 21.3819 54.0813Z" fill="#263238"/>
<path d="M23.4248 36.3664C23.8738 36.9275 24.6926 37.0186 25.2537 36.5696L35.6541 28.2489C36.2152 27.7999 36.3061 26.9811 35.8573 26.42C35.4083 25.8588 34.5895 25.768 34.0284 26.2168L23.628 34.5375C23.0669 34.9865 22.976 35.8052 23.4248 36.3664Z" fill="#263238"/>
<path opacity="0.3" d="M23.4248 36.3664C23.8738 36.9275 24.6926 37.0186 25.2537 36.5696L35.6541 28.2489C36.2152 27.7999 36.3061 26.9811 35.8573 26.42C35.4083 25.8588 34.5895 25.768 34.0284 26.2168L23.628 34.5375C23.0669 34.9865 22.976 35.8052 23.4248 36.3664Z" fill="white"/>
<path d="M23.9285 35.5426C23.9374 35.8435 24.1884 36.0802 24.4894 36.0712C24.7903 36.0623 25.027 35.8113 25.018 35.5103C25.0091 35.2094 24.758 34.9727 24.4571 34.9817C24.1562 34.9906 23.9195 35.2419 23.9285 35.5426Z" fill="#263238"/>
<path d="M34.2595 27.2457C34.2685 27.5466 34.5195 27.7833 34.8204 27.7744C35.1214 27.7654 35.358 27.5142 35.3491 27.2135C35.3401 26.9125 35.0891 26.6759 34.7882 26.6848C34.4872 26.6938 34.2506 26.945 34.2595 27.2457Z" fill="#263238"/>
<path opacity="0.3" d="M21.0751 52.6104C21.0264 52.9075 21.2277 53.1877 21.5249 53.2365C21.8218 53.2852 22.1023 53.0839 22.151 52.7867C22.1998 52.4896 21.9984 52.2093 21.7013 52.1606C21.4043 52.1119 21.1239 52.3132 21.0751 52.6104Z" fill="white"/>
<path d="M19.9248 84.2333C19.9248 85.1144 20.6392 85.8288 21.5204 85.8288C22.4015 85.8288 23.1159 85.1144 23.1159 84.2333C23.1159 83.3521 22.4015 82.6377 21.5204 82.6377C20.6392 82.6377 19.9248 83.3521 19.9248 84.2333Z" fill="#263238"/>
<path d="M13.9632 69.2167C14.2731 70.0416 15.1931 70.4588 16.018 70.1489C16.8428 69.839 17.2601 68.919 16.9502 68.0942C16.6403 67.2693 15.7203 66.8521 14.8955 67.1619C14.0706 67.4721 13.6533 68.3918 13.9632 69.2167Z" fill="#263238"/>
<path d="M25.015 37.989C25.5648 39.4101 25.9552 40.9694 25.6465 42.4936C25.3844 43.789 24.6318 44.9393 23.5239 45.6648C23.4293 45.7267 23.5176 45.8798 23.6132 45.8174C24.7347 45.0829 25.5109 43.9322 25.7993 42.6241C26.1478 41.0445 25.7567 39.4193 25.1854 37.9422C25.1449 37.8374 24.9737 37.8828 25.015 37.989Z" fill="#263238"/>
<path opacity="0.3" d="M31.0022 88.6509H11.4204L11.634 87.876H30.8126L31.0022 88.6509Z" fill="black"/>
<path d="M105.141 27.4832C105.865 25.4963 104.842 23.2982 102.855 22.5736C100.868 21.849 98.6701 22.8724 97.9455 24.8593C97.3863 26.3932 97.8716 28.05 99.0348 29.0607L99.0506 30.2107L100.173 29.7442C100.193 29.7518 100.211 29.7617 100.231 29.769C102.218 30.4935 104.416 29.4701 105.141 27.4832H105.141Z" fill="#407BFF"/>
<path d="M105.761 25.4145C105.731 25.4145 105.705 25.3921 105.702 25.3617C105.575 24.1479 104.787 23.0108 103.695 22.4649C103.666 22.4503 103.654 22.415 103.669 22.3861C103.683 22.3569 103.719 22.3453 103.748 22.3597C104.874 22.9232 105.688 24.0965 105.819 25.3495C105.823 25.382 105.799 25.4109 105.767 25.4142H105.761L105.761 25.4145Z" fill="#407BFF"/>
<path d="M105.785 26.5496C105.781 26.5496 105.776 26.5491 105.771 26.5479C105.74 26.5404 105.72 26.5086 105.728 26.4771C105.77 26.3009 105.775 26.1137 105.742 25.9357C105.737 25.9037 105.758 25.8731 105.79 25.8672C105.823 25.8613 105.852 25.8825 105.858 25.9148C105.893 26.1086 105.888 26.3125 105.842 26.5041C105.836 26.5312 105.812 26.5494 105.785 26.5494L105.785 26.5496Z" fill="#407BFF"/>
<path d="M101.482 27.8501L99.7271 26.5432L100.183 25.9307L101.36 26.8072L102.977 24.8779L103.562 25.3684L101.482 27.8501Z" fill="white"/>
<path d="M87.1326 39.6641C85.691 41.1718 84.739 44.9891 84.613 45.0802C84.1496 45.4153 80.3455 41.7499 80.3455 41.7499L78.9072 43.4971C78.9072 43.4971 80.6248 45.3778 82.6025 47.267C84.6434 49.2163 85.6411 49.4032 86.7193 47.8522C87.7076 46.4309 89.9827 41.5071 89.9827 41.5071L87.1326 39.6643V39.6641Z" fill="#407BFF"/>
<path opacity="0.8" d="M87.1326 39.6641C85.691 41.1718 84.739 44.9891 84.613 45.0802C84.1496 45.4153 80.3455 41.7499 80.3455 41.7499L78.9072 43.4971C78.9072 43.4971 80.6248 45.3778 82.6025 47.267C84.6434 49.2163 85.6411 49.4032 86.7193 47.8522C87.7076 46.4309 89.9827 41.5071 89.9827 41.5071L87.1326 39.6643V39.6641Z" fill="white"/>
<path d="M80.5439 42.3765C80.5439 42.3765 80.7424 41.7699 80.4984 41.3018C80.2545 40.8336 80.1841 40.3952 79.9785 40.0596C79.7729 39.7241 79.687 40.248 79.6976 40.536C79.7082 40.824 79.7173 41.1503 79.4998 41.1235C79.2822 41.0967 77.7742 39.9643 77.4683 39.9612C77.1625 39.9581 77.3489 40.2174 77.3489 40.2174C77.3489 40.2174 76.9753 39.9523 76.83 40.0716C76.7923 40.1027 76.7549 40.236 76.906 40.3836C77.2465 40.7154 77.9967 41.375 77.9967 41.375C77.9544 41.3364 76.9701 40.5883 76.8081 40.4955C76.5964 40.3742 76.4346 40.4251 76.3682 40.5501C76.2738 40.7281 77.4627 41.6974 77.4841 41.7732C77.4841 41.7732 76.6067 41.3251 76.3628 41.4148C76.1188 41.5045 76.696 41.8342 77.113 42.1099C77.4952 42.3626 78.2124 42.8846 78.6259 43.1038C79.1355 43.3739 79.5384 43.4408 79.9665 43.1107C80.3948 42.7803 80.5431 42.3762 80.5431 42.3762L80.5439 42.3765Z" fill="#FFAF6B"/>
<path opacity="0.3" d="M79.7085 42.4384C79.7022 42.4384 79.6953 42.4363 79.6899 42.4319C79.5354 42.3068 79.4243 42.1231 79.3852 41.9286C79.3459 41.7339 79.3774 41.5217 79.4714 41.3466C79.4792 41.332 79.4968 41.327 79.5114 41.3345C79.5258 41.3421 79.531 41.36 79.5234 41.3743C79.4356 41.5375 79.4062 41.7353 79.4427 41.9169C79.4792 42.0984 79.583 42.2696 79.7271 42.3862C79.7396 42.3963 79.7417 42.4149 79.7313 42.4276C79.7257 42.4349 79.717 42.4384 79.7085 42.4384Z" fill="black"/>
<path d="M84.9756 72.4762L85.1399 89.8567L85.2014 91.6717L86.5316 91.5966L87.0482 88.4297C87.0482 88.4297 88.5743 82.4066 88.8988 76.9754C88.972 75.7243 88.6751 74.2655 88.8138 73.278C88.9346 72.4109 89.277 71.8686 89.7618 69.913C90.3458 67.5378 90.9493 64.3589 90.801 61.8808C90.801 61.8808 93.3424 59.2265 92.6911 55.6083L86.0642 53.8467L84.9756 72.4764V72.4762Z" fill="#FFAF6B"/>
<path d="M82.5705 93.351C82.8347 93.194 83.1343 93.0748 83.4547 92.9992C83.4547 92.9992 84.4169 92.2987 84.9147 90.1573L86.1667 89.9265C86.5969 89.8559 87.0403 89.9934 87.2812 90.2727C87.3146 90.312 87.3408 90.3546 87.3591 90.3994C87.4161 90.6273 87.4545 90.8573 87.4743 91.0888C87.5256 91.8755 87.5157 92.6637 87.4446 93.4494H87.2105L87.1547 91.9667C87.1547 91.463 86.6087 92.0484 86.4525 92.5857C86.2964 93.1231 85.9734 93.7113 84.517 93.7113C82.8413 93.7169 82.1356 93.6607 82.5703 93.351H82.5705Z" fill="#263238"/>
<path d="M85.1525 89.3896C85.1525 89.3896 84.8702 90.3687 84.4096 91.4522C84.2201 92.0102 83.8909 92.5356 83.4399 92.9997C83.4399 92.9997 84.5285 93.16 85.0115 92.6114C85.4945 92.0627 86.178 90.1719 87.2815 90.2844C87.1986 90.1441 86.9155 89.8121 86.791 89.6908C86.6127 89.4909 85.1525 89.3896 85.1525 89.3896Z" fill="#FFAF6B"/>
<path d="M89.1797 54.7944L93.4552 72.9709L98.2518 88.9258L100.093 88.3675C100.093 88.3675 99.7376 81.4545 98.4964 76.1559C98.2115 74.9347 97.5067 73.6222 97.3603 72.6346C97.2277 71.7697 97.4038 71.1521 97.3049 69.1331C97.1881 66.6927 96.8634 63.4681 96.0084 61.1404C96.0084 61.1404 97.6869 57.8704 96.0322 54.5889L89.1797 54.7944Z" fill="#FFAF6B"/>
<path d="M97.3274 93.233C97.5127 92.9879 97.7451 92.7644 98.0133 92.5734C98.0133 92.5734 98.6397 91.5614 98.2921 89.3905L99.3643 88.7041C99.7361 88.4762 100.199 88.4362 100.527 88.6038C100.573 88.6276 100.613 88.6573 100.647 88.6917C100.786 88.8812 100.908 89.0797 101.014 89.2865C101.359 89.9955 101.647 90.7292 101.878 91.4837L101.661 91.572L101.05 90.2199C100.86 89.7534 100.575 90.5017 100.633 91.0582C100.692 91.6146 100.614 92.2812 99.2658 92.8313C97.7164 93.4692 97.0415 93.6835 97.3272 93.2328L97.3274 93.233Z" fill="#263238"/>
<path d="M98.2223 88.5898C98.2223 88.5898 98.3306 89.6031 98.3129 90.7802C98.3482 91.3684 98.2418 91.9792 97.9995 92.5792C97.9995 92.5792 99.0681 92.3167 99.308 91.6263C99.548 90.9359 99.4672 88.9268 100.531 88.6146C100.402 88.5159 100.255 88.433 100.094 88.3676C99.8529 88.2498 98.2223 88.5898 98.2223 88.5898Z" fill="#FFAF6B"/>
<path d="M84.2393 68.7789V69.0521C84.2393 69.0521 88.4752 70.2061 91.2799 70.2139C94.0846 70.2217 98.6095 69.1293 98.6095 69.1293C98.6095 69.1293 98.6465 59.9317 97.2122 55.9925C95.7836 52.069 93.945 50.3164 93.945 50.3164L86.326 52.1802C85.5968 53.7661 85.3057 56.9958 85.0512 60.3626C84.5847 63.1457 84.3137 65.958 84.2397 68.7789H84.2393Z" fill="#407BFF"/>
<g opacity="0.3">
<path d="M87.1298 41.3184C86.9124 41.6895 86.838 41.9009 86.7017 42.3285C86.5656 42.7562 86.4907 43.5339 86.457 43.9356L87.191 44.1471C87.1625 43.1661 87.1583 42.2993 87.1298 41.3184Z" fill="black"/>
</g>
<path d="M96.721 44.2386L97.7684 40.1214C97.0045 38.9814 93.3853 38.1055 93.3853 38.1055L90.8954 38.2416C90.8954 38.2416 89.9384 38.4551 89.119 38.7224C88.0252 39.0792 87.4337 39.366 87.1728 39.973C87.1728 39.973 86.7164 41.3178 86.9907 44.0888C87.0661 44.8508 87.2387 48.8723 87.0261 50.181L85.6914 53.5017C90.241 57.0448 96.1092 53.0962 96.1092 53.0962C95.9046 52.4705 95.1994 51.1976 95.107 50.586C95.1739 49.8061 95.3927 49.2938 95.723 47.928C95.7869 47.6643 96.6103 44.4948 96.721 44.2386Z" fill="#407BFF"/>
<path d="M84.9271 65.435C84.9271 65.435 83.1646 65.5612 83.1646 64.5508C83.1646 63.5404 85.4392 52.8042 85.6912 50.9727C85.9431 49.1412 87.1328 39.6678 87.1328 39.6678C87.5319 39.1969 88.3214 38.9574 89.1187 38.7227L84.9268 65.4352L84.9271 65.435Z" fill="#407BFF"/>
<path opacity="0.8" d="M84.9271 65.435C84.9271 65.435 83.1646 65.5612 83.1646 64.5508C83.1646 63.5404 85.4392 52.8042 85.6912 50.9727C85.9431 49.1412 87.1328 39.6678 87.1328 39.6678C87.5319 39.1969 88.3214 38.9574 89.1187 38.7227L84.9268 65.4352L84.9271 65.435Z" fill="white"/>
<path opacity="0.3" d="M86.9008 47.5788C86.9008 47.5788 85.1543 46.6559 85.0222 46.2599C84.8901 45.8636 84.7074 44.8035 85.9205 44.3167C86.3234 44.1552 87.0324 44.519 87.0324 44.519V47.3963L86.9008 47.5788Z" fill="black"/>
<path d="M94.6363 38.4641C94.6363 38.4641 93.3899 39.8996 93.0645 41.8406C92.7391 43.7816 92.3416 66.2651 92.4139 66.5182C92.4862 66.7713 99.2457 66.3736 99.6071 65.6867C99.9686 64.9999 98.5588 56.7585 98.1251 55.1679C97.6913 53.5775 96.995 52.7835 96.7687 51.5171C96.538 50.2265 97.8997 39.6678 97.8342 40.1781C97.9416 40.0566 95.9366 38.5934 94.6363 38.4639V38.4641Z" fill="#407BFF"/>
<path opacity="0.8" d="M94.6363 38.4641C94.6363 38.4641 93.3899 39.8996 93.0645 41.8406C92.7391 43.7816 92.3416 66.2651 92.4139 66.5182C92.4862 66.7713 99.2457 66.3736 99.6071 65.6867C99.9686 64.9999 98.5588 56.7585 98.1251 55.1679C97.6913 53.5775 96.995 52.7835 96.7687 51.5171C96.538 50.2265 97.8997 39.6678 97.8342 40.1781C97.9416 40.0566 95.9366 38.5934 94.6363 38.4639V38.4641Z" fill="white"/>
<path d="M88.3521 41.1758H82.9C82.4801 41.1758 82.1396 41.5162 82.1396 41.9361V50.2125C82.1396 50.6325 82.4801 50.9729 82.9 50.9729H88.3521C88.7721 50.9729 89.1125 50.6325 89.1125 50.2125V41.9361C89.1125 41.5162 88.7721 41.1758 88.3521 41.1758Z" fill="#263238"/>
<path d="M89.5868 47.9234L89.2124 47.6168L89.9831 46.334L90.3365 46.5094L89.5868 47.9234Z" fill="#FFAF6B"/>
<path d="M89.8609 45.6965C89.5894 45.2769 89.4246 45.174 89.0803 44.9616L89.0772 45.6049C88.8698 45.5988 87.1748 44.6764 86.8862 44.7007C86.5975 44.7247 86.7964 44.9529 86.7964 44.9529C86.7964 44.9529 86.4209 44.736 86.2944 44.8615C86.2617 44.894 86.2381 45.023 86.3938 45.1488C86.7442 45.4316 87.5097 45.9871 87.5097 45.9871C87.4664 45.9543 86.4724 45.3362 86.3114 45.263C86.1011 45.1674 85.953 45.2295 85.9016 45.3534C85.8284 45.5295 87.0347 46.3379 87.0618 46.4076C87.0618 46.4076 86.3829 45.919 86.1609 46.0252C85.9388 46.1314 86.3495 46.4625 86.767 46.6855C87.1496 46.8899 87.8469 47.3912 88.2561 47.5612C88.7603 47.7708 89.146 47.7983 89.5206 47.4491C89.895 47.0999 89.9993 46.7057 89.9993 46.7057C89.9993 46.7057 90.1329 46.1163 89.8614 45.6967L89.8609 45.6965Z" fill="#FFAF6B"/>
<path d="M97.8355 40.1785C96.6388 39.0835 95.6637 39.9948 95.1765 40.6374C94.3961 41.6726 94.9168 44.5705 94.9168 44.5705L94.9224 44.5729C94.9438 45.9914 94.9476 47.8144 94.8805 47.9004L90.5313 46.1423L89.1133 48.8166C89.1133 48.8166 90.7107 49.5525 93.1677 50.6491C95.7447 51.7993 97.1714 51.643 97.7789 49.8543C98.0785 48.9722 98.1522 47.3112 98.1562 45.9643H98.1564C98.1564 45.9643 98.5805 40.8578 97.8355 40.1785Z" fill="#407BFF"/>
<path opacity="0.8" d="M97.8355 40.1785C96.6388 39.0835 95.6637 39.9948 95.1765 40.6374C94.3961 41.6726 94.9168 44.5705 94.9168 44.5705L94.9224 44.5729C94.9438 45.9914 94.9476 47.8144 94.8805 47.9004L90.5313 46.1423L89.1133 48.8166C89.1133 48.8166 90.7107 49.5525 93.1677 50.6491C95.7447 51.7993 97.1714 51.643 97.7789 49.8543C98.0785 48.9722 98.1522 47.3112 98.1562 45.9643H98.1564C98.1564 45.9643 98.5805 40.8578 97.8355 40.1785Z" fill="white"/>
<path d="M87.1905 40.6172H84.3003V41.4307H87.1905V40.6172Z" fill="#263238"/>
<path d="M93.2767 31.0621C94.2424 31.4195 96.6466 35.4541 95.1176 36.9913C93.5887 38.5285 88.4789 37.9155 87.741 36.2957C87.3065 35.3552 87.4349 34.2506 88.0735 33.4349C88.0735 33.4349 86.9677 29.7575 88.9242 29.0047C90.8808 28.2519 92.4302 29.547 92.4302 29.547C92.4302 29.547 92.311 30.7048 93.2767 31.0623V31.0621Z" fill="#263238"/>
<path d="M92.7799 35.0168L91.6654 35.2817L91.6647 35.2825L90.6009 35.8134C90.6004 35.8295 90.5999 35.8457 90.5995 35.8638L90.8672 37.453C90.919 37.9273 90.4327 38.3201 90.1203 38.4329C89.9453 38.5812 89.9514 39.8697 90.8809 40.9371C91.1813 41.2821 91.6344 40.6854 91.9784 40.3586C93.3886 38.8739 93.5247 38.1416 93.5247 38.1416C92.9565 37.6673 92.7792 36.0741 92.7799 35.0166V35.0168Z" fill="#FFAF6B"/>
<path d="M93.6354 32.6552C93.2775 34.5095 93.1673 35.2988 92.1166 36.1757C90.5347 37.492 88.3867 36.7505 88.187 34.847C88.0206 33.1353 88.6236 30.3944 90.5133 29.8057C92.403 29.2168 93.9924 30.7985 93.6357 32.6552H93.6354Z" fill="#FFAF6B"/>
<path d="M91.5434 32.4181C91.5191 32.4192 91.4953 32.4105 91.4782 32.3922C91.2109 32.1032 90.876 32.1765 90.872 32.1772C90.8224 32.1882 90.7757 32.1574 90.7689 32.107C90.7621 32.0566 90.7974 32.0067 90.8476 31.9949C90.865 31.9909 91.2853 31.8988 91.6171 32.2575C91.6501 32.2933 91.6458 32.3524 91.6077 32.3896C91.5891 32.4075 91.566 32.4169 91.5434 32.4181Z" fill="#263238"/>
<path d="M88.6891 31.9711C88.6708 31.9636 88.6562 31.9483 88.6496 31.9268C88.6362 31.8828 88.6616 31.8298 88.7066 31.8084C89.1577 31.5937 89.4615 31.7995 89.4742 31.8084C89.5102 31.8336 89.5147 31.8878 89.4843 31.9297C89.4542 31.9716 89.4005 31.9852 89.3645 31.9603C89.3527 31.952 89.1146 31.7964 88.7558 31.9671C88.7325 31.9782 88.7087 31.9787 88.6891 31.9704V31.9711Z" fill="#263238"/>
<path d="M89.7465 32.9023C89.7465 32.9023 89.3917 33.5909 89.0218 34.0102C88.957 34.0835 88.9836 34.1986 89.071 34.2379C89.2963 34.3392 89.5751 34.2794 89.5751 34.2794L89.7463 32.9023H89.7465Z" fill="#EF8535"/>
<path d="M90.9745 32.7362C90.9773 32.7336 90.9799 32.7334 90.9827 32.7305L90.5591 32.5996C90.5591 32.5996 90.6486 32.7418 90.7701 32.7845C90.7067 32.8478 90.6573 32.9502 90.6417 33.0684C90.6156 33.2679 90.6947 33.4341 90.8188 33.4398C90.9429 33.4454 91.0649 33.2881 91.091 33.0887C91.1127 32.9246 91.062 32.7842 90.9745 32.7362Z" fill="#263238"/>
<path d="M89.0985 32.6091L89.1004 32.6077L88.6768 32.4766C88.6768 32.4766 88.778 32.6365 88.9111 32.6671C88.8491 32.7285 88.8006 32.8267 88.7855 32.94C88.7599 33.1333 88.8392 33.2946 88.9629 33.3C89.0865 33.3057 89.2077 33.1533 89.2337 32.96C89.2565 32.7897 89.1974 32.6447 89.0985 32.6087V32.6091Z" fill="#263238"/>
<path d="M89.6096 34.8084C89.7337 35.0047 89.8804 35.3855 89.8804 35.3855C89.9174 35.3777 89.9546 35.37 89.9911 35.3603C90.4915 35.2423 90.6878 35.0226 90.7538 34.8147C90.7896 34.701 90.7846 34.5896 90.7693 34.5015C90.7526 34.3996 90.7173 34.3311 90.7173 34.3311C90.4863 34.5517 90.0276 34.6977 89.7794 34.7653C89.6758 34.7947 89.6094 34.8081 89.6094 34.8081L89.6096 34.8084Z" fill="#263238"/>
<path d="M89.7793 34.7655L89.8636 34.9334C90.3345 34.8211 90.6524 34.6788 90.7692 34.5015C90.7525 34.3996 90.7172 34.3311 90.7172 34.3311C90.4862 34.5517 90.0275 34.6977 89.7793 34.7653V34.7655Z" fill="white"/>
<path d="M89.9914 35.36C90.4918 35.2421 90.6882 35.0224 90.7542 34.8145C90.5851 34.8613 90.3861 34.9364 90.2222 35.0553C90.0967 35.1458 90.0294 35.2557 89.9912 35.36H89.9914Z" fill="#FD504E"/>
<path d="M92.7909 35.6993C94.4088 34.4244 94.4371 29.5908 91.3858 29.5579C88.3348 29.5249 88.5717 32.704 88.5717 32.704C88.8672 29.1437 92.331 30.6985 92.331 30.6985C92.168 31.8184 92.603 33.3904 92.603 33.3904C93.0859 34.3229 92.7916 35.7033 92.7909 35.6993Z" fill="#263238"/>
<path d="M92.8248 29.2768C95.0324 29.9345 94.5648 31.4267 94.5648 31.4267C94.5648 31.4267 96.4026 33.5999 96.2505 35.2828C96.0986 36.9657 93.7168 37.7 93.7168 37.7C96.0548 36.8723 95.7471 34.125 93.0271 33.3727C90.7767 32.7508 90.9877 30.3332 90.9877 30.3332C90.9877 30.3332 91.5879 28.9121 92.8251 29.2766L92.8248 29.2768Z" fill="#263238"/>
<path d="M91.5097 32.3195C91.4904 32.3195 91.4716 32.3101 91.4603 32.2926C90.4729 30.7675 91.2019 29.9495 91.2335 29.9153C91.2556 29.8915 91.2928 29.8901 91.3166 29.912C91.3406 29.9339 91.3421 29.9711 91.3202 29.9951C91.2914 30.0267 90.6246 30.7847 91.5594 32.2286C91.5771 32.2559 91.5693 32.2924 91.542 32.3101C91.5321 32.3164 91.521 32.3195 91.5099 32.3195H91.5097Z" fill="#263238"/>
<path d="M88.0026 37.0498C87.9889 37.0498 87.9753 37.0451 87.9642 37.0355C87.4167 36.5638 87.1297 36.0194 87.1109 35.4171C87.0746 34.2496 88.0469 33.2865 88.0881 33.2462C88.1114 33.2236 88.1486 33.2239 88.1714 33.2472C88.1943 33.2705 88.1938 33.3077 88.1705 33.3305C88.1606 33.3402 87.1937 34.2988 87.2286 35.4142C87.2465 35.982 87.5199 36.4974 88.041 36.9465C88.0655 36.9677 88.0683 37.0049 88.0471 37.0296C88.0353 37.0433 88.0191 37.0501 88.0026 37.0501V37.0498Z" fill="#263238"/>
<path d="M93.9715 33.8593C93.716 34.2325 93.3338 34.4522 92.9952 34.5139C92.4859 34.6067 92.2966 33.7847 92.5094 33.2944C92.7011 32.8529 93.2163 32.5863 93.6934 32.7168C94.1634 32.8454 94.2637 33.4326 93.9717 33.8593H93.9715Z" fill="#FFAF6B"/>
<path opacity="0.2" d="M92.9265 33.7485C92.9237 33.7485 92.9208 33.7485 92.9175 33.7478C92.8855 33.7429 92.8636 33.713 92.8683 33.6807C92.8977 33.4864 93.0049 33.3065 93.1622 33.1871C93.3197 33.0678 93.5213 33.0145 93.7148 33.039C93.7471 33.0433 93.7697 33.0729 93.7657 33.105C93.7617 33.137 93.7309 33.1598 93.6998 33.1558C93.5356 33.1344 93.3663 33.1801 93.2338 33.2809C93.1007 33.3819 93.0101 33.534 92.9849 33.6981C92.9804 33.7273 92.9554 33.748 92.9267 33.748L92.9265 33.7485Z" fill="black"/>
</svg>
