<svg width="93" height="101" viewBox="0 0 93 101" fill="none" xmlns="http://www.w3.org/2000/svg">
<path d="M11.4343 75.3417L8.49035 75.4045L6.99594 75.4292C6.49556 75.4404 5.99294 75.4292 5.49256 75.4427H5.39383V75.3417L5.38037 72.8241V72.7119H5.49256L8.46342 72.7254C9.4552 72.7254 10.4447 72.7523 11.4343 72.7635H11.4971V72.8241C11.4971 73.2504 11.4769 73.6745 11.4679 74.0941L11.4343 75.3417ZM11.4343 75.3417L11.4029 74.0739C11.4029 73.6543 11.3782 73.2415 11.3737 72.8308L11.4343 72.8914C10.4447 72.9049 9.4552 72.9273 8.46342 72.9296L5.49256 72.943L5.60476 72.8308V75.3417L5.50378 75.243C5.99294 75.243 6.4821 75.243 6.9735 75.2542L8.44996 75.2789L11.4343 75.3417Z" fill="#EBEBEB"/>
<path d="M8.12031 78.5078L5.17638 78.5706L3.68198 78.5953C3.1816 78.5953 2.67898 78.5953 2.1786 78.6088H2.07987V78.5078L2.06641 75.997V75.8848H2.1786L5.14946 75.8982C6.13899 75.8982 7.13077 75.9252 8.12031 75.9364H8.18314V75.997C8.18314 76.4233 8.16519 76.8474 8.15397 77.2647L8.12031 78.5078ZM8.12031 78.5078L8.0889 77.24C8.07768 76.8204 8.06422 76.4076 8.05973 75.997L8.12031 76.0575C7.13077 76.071 6.13899 76.0934 5.14946 76.0957L2.1786 76.1092L2.29079 75.997L2.27957 78.5078L2.1786 78.4091C2.66776 78.4091 3.15692 78.4091 3.64832 78.4203L5.12477 78.445L8.12031 78.5078Z" fill="#EBEBEB"/>
<path d="M64.3915 47.3927L61.4453 47.4555L59.9509 47.4802C59.4528 47.4802 58.9502 47.4802 58.4498 47.4802H58.3511V47.3792L58.3398 44.8684V44.7764H58.452L61.4229 44.7898C62.4124 44.7898 63.4042 44.8145 64.3937 44.828H64.4566V44.8886C64.4566 45.3149 64.4386 45.739 64.4274 46.1563L64.3915 47.3927ZM64.3915 47.3927L64.3601 46.1227C64.3601 45.7053 64.3354 45.2925 64.3309 44.8818L64.3915 44.9424C63.402 44.9424 62.4102 44.9783 61.4206 44.9783L58.4498 44.994L58.562 44.8818L58.5485 47.3927L58.4498 47.2917C58.9389 47.2917 59.4281 47.2917 59.9173 47.3052L61.3937 47.3299L64.3915 47.3927Z" fill="#EBEBEB"/>
<path d="M61.0778 50.5579L58.1317 50.6207L56.6373 50.6454C56.1391 50.6566 55.6365 50.6454 55.1361 50.6566H55.0352V50.5557V48.0448V47.9326H55.1473L58.1182 47.9461C59.1077 47.9461 60.0973 47.9708 61.0891 47.9842H61.1496V48.0448C61.1496 48.4711 61.1294 48.893 61.1205 49.3126L61.0778 50.5579ZM61.0778 50.5579L61.0464 49.2879C61.0352 48.8705 61.0195 48.4577 61.015 48.0471L61.0778 48.1076C60.0861 48.1189 59.0965 48.1435 58.107 48.1435L55.1361 48.1592L55.2483 48.0471L55.2349 50.5579L55.1361 50.4569C55.6253 50.4569 56.1145 50.4569 56.6036 50.4704L58.0801 50.4951L61.0778 50.5579Z" fill="#EBEBEB"/>
<path d="M57.7741 47.3927L54.8302 47.4555L53.3358 47.4802C52.8354 47.4802 52.335 47.4802 51.8324 47.4802H51.7337V47.3792L51.7202 44.8684V44.7764H51.8324L54.8033 44.7898C55.795 44.7898 56.7846 44.8145 57.7741 44.828H57.8369V44.8886C57.8369 45.3149 57.8168 45.739 57.8078 46.1563L57.7741 47.3927ZM57.7741 47.3927L57.7494 46.1227C57.7494 45.7053 57.7248 45.2925 57.7203 44.8818L57.7809 44.9424C56.7913 44.9424 55.8018 44.9783 54.81 44.9783L51.8391 44.994L51.9513 44.8818L51.9401 47.3927L51.8391 47.2917C52.3305 47.2917 52.8175 47.2917 53.3089 47.3052L54.7853 47.3299L57.7741 47.3927Z" fill="#EBEBEB"/>
<path d="M91.3313 78.5078L88.3851 78.5706L86.8907 78.5953C86.3925 78.5953 85.8899 78.5953 85.3895 78.6088H85.2886V78.5078L85.2773 75.997V75.8848H85.3895L88.3604 75.8982C89.3499 75.8982 90.3417 75.9252 91.3313 75.9364H91.3918V75.997C91.3918 76.4233 91.3739 76.8474 91.3627 77.2647L91.3313 78.5078ZM91.3313 78.5078L91.2998 77.24C91.2998 76.8204 91.2729 76.4076 91.2707 75.997L91.3313 76.0575C90.3417 76.071 89.3499 76.0934 88.3604 76.0957L85.3895 76.1092L85.5017 75.997L85.4883 78.5078L85.3895 78.4091C85.8787 78.4091 86.3679 78.4091 86.857 78.4203L88.3335 78.445L91.3313 78.5078Z" fill="#EBEBEB"/>
<path d="M88.0176 17.0975L85.0714 17.1603L83.577 17.176C83.0789 17.176 82.5763 17.176 82.0759 17.1895H81.9839V17.0885V14.5776V14.4834H82.0983L85.0692 14.4991C86.0587 14.4991 87.0483 14.5238 88.04 14.535H88.1006V14.5956C88.1006 15.0219 88.0804 15.446 88.0715 15.8656L88.0176 17.0975ZM88.0176 17.0975L87.9862 15.8297C87.975 15.4124 87.9593 14.9972 87.9548 14.5866L88.0176 14.6494C87.0258 14.6607 86.0363 14.6831 85.0467 14.6853L82.0759 14.7078L82.1881 14.5956L82.1746 17.1065L82.0759 17.0077C82.565 17.0077 83.052 17.0077 83.5434 17.0189L85.0198 17.0436L88.0176 17.0975Z" fill="#EBEBEB"/>
<path d="M91.3313 20.2637L88.3851 20.3265L86.8907 20.3512C86.3925 20.3512 85.8899 20.3512 85.3895 20.3647H85.2886V20.2637L85.2773 17.7528V17.6406H85.3895L88.3604 17.6563C89.3499 17.6563 90.3417 17.681 91.3313 17.6922H91.3918V17.7528C91.3918 18.1791 91.3739 18.6032 91.3627 19.0228L91.3313 20.2637ZM91.3313 20.2637L91.2998 18.9959C91.2998 18.5786 91.2729 18.1634 91.2707 17.7528L91.3313 17.8134C90.3417 17.8269 89.3499 17.8493 88.3604 17.8515L85.3895 17.865L85.5017 17.7528L85.4883 20.2637L85.3895 20.165C85.8787 20.165 86.3679 20.165 86.857 20.1762L88.3335 20.2009L91.3313 20.2637Z" fill="#EBEBEB"/>
<path d="M11.4343 17.0975L8.49035 17.1603L6.99594 17.176C6.49556 17.176 5.99294 17.176 5.49256 17.1895H5.39383V17.0885L5.38037 14.5776V14.4834H5.49256H8.46342C9.4552 14.4834 10.4447 14.5081 11.4343 14.5193H11.4971V14.5799C11.4971 15.0062 11.4769 15.4303 11.4679 15.8499L11.4343 17.0975ZM11.4343 17.0975L11.4029 15.8297C11.4029 15.4124 11.3782 14.9972 11.3737 14.5866L11.4343 14.6494C10.4447 14.6607 9.4552 14.6831 8.46342 14.6853L5.49256 14.7078L5.60476 14.5956V17.1065L5.50378 17.0077C5.99294 17.0077 6.4821 17.0077 6.9735 17.0189L8.44996 17.0436L11.4343 17.0975Z" fill="#EBEBEB"/>
<path d="M56.7807 30.0732C62.317 24.5369 62.317 15.5608 56.7807 10.0244C51.2444 4.48811 42.2682 4.48811 36.7319 10.0244C31.1956 15.5608 31.1956 24.5369 36.7319 30.0732C42.2682 35.6095 51.2444 35.6095 56.7807 30.0732Z" fill="#EBEBEB"/>
<path d="M46.7549 32.1001C44.3707 32.1005 42.0399 31.3939 40.0573 30.0696C38.0747 28.7452 36.5293 26.8627 35.6167 24.66C34.7041 22.4574 34.4652 20.0335 34.9302 17.6951C35.3953 15.3566 36.5433 13.2086 38.2293 11.5227C39.9152 9.8368 42.0632 8.68873 44.4016 8.2237C46.7401 7.75866 49.1639 7.99756 51.3666 8.91018C53.5692 9.82279 55.4518 11.3681 56.7761 13.3507C58.1005 15.3333 58.8071 17.6642 58.8066 20.0484C58.8031 23.2436 57.5322 26.3069 55.2728 28.5663C53.0135 30.8257 49.9502 32.0965 46.7549 32.1001ZM46.7549 8.89198C44.5483 8.89153 42.3911 9.54547 40.5562 10.7711C38.7212 11.9967 37.2909 13.7389 36.4462 15.7775C35.6014 17.816 35.3802 20.0592 35.8104 22.2235C36.2406 24.3878 37.303 26.3759 38.8631 27.9364C40.4233 29.4969 42.4112 30.5596 44.5754 30.9903C46.7396 31.4209 48.9829 31.2001 51.0216 30.3558C53.0603 29.5115 54.8028 28.0815 56.0288 26.2468C57.2547 24.4121 57.9091 22.255 57.9091 20.0484C57.9055 17.091 56.7293 14.2557 54.6383 12.1643C52.5474 10.0729 49.7123 8.89613 46.7549 8.89198Z" fill="white"/>
<path d="M42.5501 20.6699C42.5501 21.4732 41.5942 22.2137 40.4812 22.2137C39.3683 22.2137 38.4102 21.4957 38.4102 20.6699H42.5501Z" fill="#C7C7C7"/>
<path d="M42.1573 20.4795C41.8431 19.7659 41.5492 19.0457 41.2597 18.3231C41.1117 17.9641 40.9725 17.6006 40.8289 17.2371L40.4004 16.1511H40.5574L40.1311 17.2371C39.9875 17.6006 39.8484 17.9641 39.7003 18.3231C39.4063 19.0457 39.1124 19.7659 38.8027 20.4795C39.0496 19.7413 39.3166 19.0075 39.5836 18.276C39.7137 17.9103 39.8551 17.5468 39.992 17.1833L40.4048 16.0905L40.4834 15.8818L40.5619 16.0905L40.9681 17.1765C41.1027 17.54 41.2463 17.9035 41.3764 18.2693C41.6434 19.0075 41.9082 19.7413 42.1573 20.4795Z" fill="#263238"/>
<path d="M42.6695 20.3896H38.2939V20.6701H42.6695V20.3896Z" fill="#A6A6A6"/>
<path d="M55.0999 20.6699C55.0999 21.4732 54.144 22.2137 53.0288 22.2137C51.9136 22.2137 50.96 21.4957 50.96 20.6699H55.0999Z" fill="#C7C7C7"/>
<path d="M54.7049 20.4795C54.393 19.7659 54.0969 19.0457 53.8074 18.3231C53.6571 17.9641 53.5202 17.6006 53.3766 17.2371L52.948 16.1511H53.1051L52.6787 17.2371C52.5329 17.6006 52.396 17.9641 52.2457 18.3231C51.954 19.0457 51.6578 19.7659 51.3481 20.4795C51.595 19.7413 51.8597 19.0075 52.1268 18.276C52.2591 17.9103 52.4005 17.5468 52.5374 17.1833L52.9502 16.0905L53.0288 15.8818L53.1073 16.0905L53.5157 17.1765C53.6526 17.54 53.7939 17.9035 53.9263 18.2693C54.1933 19.0075 54.4581 19.7413 54.7049 20.4795Z" fill="#263238"/>
<path d="M55.2163 20.3896H50.8408V20.6701H55.2163V20.3896Z" fill="#A6A6A6"/>
<path d="M53.1702 16.1147C52.8224 16.1416 52.589 15.9599 52.1784 15.8342C51.5815 15.6524 49.3825 15.5829 48.4289 15.6547C48.0497 15.6839 47.2621 16.0204 46.6967 16.0204C46.1312 16.0204 45.3504 15.6839 44.9667 15.6547C44.013 15.5829 41.8118 15.6547 41.2127 15.8342C40.8043 15.9599 40.571 16.1416 40.2232 16.1147C39.66 16.072 39.5971 15.2755 40.3107 15.2755C41.0242 15.2755 41.2306 15.4146 42.1708 15.3989C42.577 15.3989 44.9958 15.1117 45.6824 15.1117C46.0235 15.0998 46.3646 15.1338 46.6967 15.2127C47.0287 15.1338 47.3698 15.0998 47.7109 15.1117C48.3997 15.1117 50.8141 15.3922 51.2225 15.3989C52.1604 15.4146 52.3691 15.2755 53.0827 15.2755C53.7962 15.2755 53.7334 16.072 53.1702 16.1147Z" fill="#C7C7C7"/>
<path d="M51.1148 26.709H42.2808V28.2258H51.1148V26.709Z" fill="#C7C7C7"/>
<path d="M50.6573 26.3359H42.7388V26.7084H50.6573V26.3359Z" fill="#A6A6A6"/>
<path d="M47.2418 26.3353H46.1513C45.9906 25.5147 45.9318 24.6774 45.9763 23.8424C46.0302 22.2964 46.4879 15.6299 46.4879 15.6299H46.9053C46.9053 15.6299 47.354 22.2964 47.4169 23.8424C47.4613 24.6774 47.4026 25.5147 47.2418 26.3353Z" fill="#C7C7C7"/>
<path d="M47.0381 14.6175C47.0381 15.1785 46.8967 15.331 46.8967 15.331H46.4973C46.4973 15.331 46.356 15.1785 46.356 14.6175C46.356 14.0565 46.6207 12.2861 46.6207 12.2861H46.7733C46.7733 12.2861 47.0381 14.0565 47.0381 14.6175Z" fill="#C7C7C7"/>
<path d="M47.222 15.5592C47.222 15.6631 47.1912 15.7646 47.1335 15.8509C47.0758 15.9373 46.9938 16.0046 46.8979 16.0443C46.8019 16.0841 46.6964 16.0945 46.5945 16.0742C46.4927 16.054 46.3991 16.0039 46.3257 15.9305C46.2522 15.8571 46.2022 15.7635 46.182 15.6617C46.1617 15.5598 46.1721 15.4543 46.2118 15.3583C46.2516 15.2624 46.3189 15.1804 46.4052 15.1227C46.4916 15.065 46.5931 15.0342 46.6969 15.0342C46.8362 15.0342 46.9697 15.0895 47.0682 15.188C47.1667 15.2864 47.222 15.42 47.222 15.5592Z" fill="#A6A6A6"/>
<path d="M47.114 12.2875C47.114 12.37 47.0895 12.4507 47.0437 12.5193C46.9978 12.588 46.9326 12.6415 46.8564 12.6731C46.7801 12.7046 46.6962 12.7129 46.6152 12.6968C46.5343 12.6807 46.4599 12.641 46.4015 12.5826C46.3432 12.5242 46.3034 12.4499 46.2873 12.3689C46.2712 12.2879 46.2795 12.204 46.3111 12.1278C46.3427 12.0515 46.3961 11.9863 46.4648 11.9405C46.5334 11.8946 46.6141 11.8701 46.6967 11.8701C46.8073 11.8701 46.9135 11.9141 46.9918 11.9924C47.07 12.0706 47.114 12.1768 47.114 12.2875Z" fill="#A6A6A6"/>
<path d="M7.64704 13.5645L0 58.235L3.4847 60.0548L1.01198 85.6503H19.4385L7.64704 13.5645Z" fill="#EBEBEB"/>
<path d="M8.48634 18.6944L7.53271 18.7842L7.12882 19.7176L6.74512 18.8358L6.98072 17.4513L7.12882 17.5388L8.00616 17.0205L7.78177 18.0145L8.47512 18.6249L8.48634 18.6944Z" fill="white"/>
<path d="M7.48738 24.688L6.47316 24.7822L6.06927 25.7179L5.70801 24.8832L5.95034 23.4673L6.06927 23.5369L6.94661 23.0186L6.72447 24.0126L7.48738 24.688Z" fill="white"/>
<path d="M6.42901 30.6857L5.41479 30.7822L5.01089 31.7179L4.67432 30.937L4.92114 29.4853L5.01089 29.5369L5.88824 29.0186L5.6661 30.0126L6.42901 30.6857Z" fill="white"/>
<path d="M5.37121 36.6857L4.35699 36.7822L3.95086 37.7157L3.63672 36.9887L3.89027 35.501L3.95086 35.5369L4.8282 35.0186L4.60606 36.0126L5.37121 36.6857Z" fill="white"/>
<path d="M4.31264 42.686L3.29842 42.7803L2.89229 43.716L2.60059 43.0406L2.86087 41.517L2.89229 41.5349L3.76963 41.0166L3.54749 42.0106L4.31264 42.686Z" fill="white"/>
<path d="M3.25358 48.6848L2.23936 48.7812L1.83547 49.7169L1.56396 49.0931L1.83098 47.5337L1.83547 47.5359L2.71057 47.0176L2.48843 48.0116L3.25358 48.6848Z" fill="white"/>
<path d="M10.0454 28.2339L9.9265 28.2451L9.5226 29.1808L9.11871 28.2451L8.10449 28.1509L8.8674 27.4777L8.64526 26.4814L9.5226 27.002L9.81655 26.827L10.0454 28.2339Z" fill="white"/>
<path d="M8.46401 32.9988L9.34136 32.4805L9.11921 33.4745L9.88437 34.1476L8.87015 34.2441L8.46401 35.1798L8.06012 34.2441L7.0459 34.1476L7.81105 33.4745L7.58667 32.4805L8.46401 32.9988Z" fill="white"/>
<path d="M7.40669 38.9998L8.28179 38.4814L8.05965 39.4755L8.8248 40.1486L7.81058 40.2451L7.40669 41.1786L7.00055 40.2451L5.98633 40.1486L6.75148 39.4755L6.52934 38.4814L7.40669 38.9998Z" fill="white"/>
<path d="M6.3476 45.0001L7.22495 44.4795L7.00056 45.4735L7.76571 46.1489L6.7515 46.2432L6.3476 47.1788L5.94147 46.2432L4.92725 46.1489L5.6924 45.4735L5.47026 44.4795L6.3476 45.0001Z" fill="white"/>
<path d="M11.6456 38.0109L11.5132 37.708L10.499 37.6138L11.2642 36.9384L11.042 35.9443L11.336 36.1171L11.6456 38.0109Z" fill="white"/>
<path d="M10.8603 42.4617L11.7376 41.9434L11.5133 42.9374L12.2784 43.6105L11.2642 43.707L10.8603 44.6427L10.4542 43.707L9.43994 43.6105L10.2051 42.9374L9.98295 41.9434L10.8603 42.4617Z" fill="white"/>
<path d="M13.0882 46.8273L4.15771 52.1789L4.41127 49.2035L12.6664 44.2559L13.0882 46.8273Z" fill="#DBDBDB"/>
<path d="M13.9414 52.0461L3.64209 58.2166L3.89565 55.2413L13.5218 49.4746L13.9414 52.0461Z" fill="#DBDBDB"/>
<path d="M14.7958 57.2619L3.07617 64.2851L3.36563 61.2873L14.374 54.6904L14.7958 57.2619Z" fill="#DBDBDB"/>
<path d="M15.6485 62.4806L2.48828 70.3655L2.77774 67.37L15.2289 59.9092L15.6485 62.4806Z" fill="#DBDBDB"/>
<path d="M16.5011 67.6991L1.90039 76.4479L2.18985 73.4546L16.0815 65.1299L16.5011 67.6991Z" fill="#DBDBDB"/>
<path d="M17.356 72.9172L1.3125 82.5298L1.60196 79.5343L16.9342 70.3457L17.356 72.9172Z" fill="#DBDBDB"/>
<path d="M18.2086 78.1369L5.66995 85.6493H1.01172L1.01396 85.6179L17.789 75.5654L18.2086 78.1369Z" fill="#DBDBDB"/>
<path d="M19.0633 83.3534L15.2331 85.6488H10.521L18.6415 80.7842L19.0633 83.3534Z" fill="#DBDBDB"/>
<path d="M4.20747 51.5968L3.98758 54.166L2.67044 53.549L0.94043 52.7367L1.36452 50.2617L3.18428 51.1166L4.20747 51.5968Z" fill="#DBDBDB"/>
<path d="M3.76048 56.8161L3.54058 59.3876L1.62433 58.4878L0.0805664 57.7631L0.504654 55.2881L2.13818 56.0555L3.76048 56.8161Z" fill="#DBDBDB"/>
<path opacity="0.1" d="M3.48484 60.0541L4.96578 42.7002L1.51025 59.0242L3.48484 60.0541Z" fill="black"/>
<path d="M8.70423 13.5645H6.59277V85.6526H8.70423V13.5645Z" fill="#C7C7C7"/>
<path d="M8.7034 12.5063C8.70999 12.649 8.68756 12.7916 8.63747 12.9254C8.58738 13.0592 8.51068 13.1815 8.412 13.2848C8.31332 13.3882 8.19471 13.4704 8.06334 13.5266C7.93196 13.5828 7.79056 13.6118 7.64767 13.6118C7.50479 13.6118 7.36338 13.5828 7.23201 13.5266C7.10064 13.4704 6.98203 13.3882 6.88335 13.2848C6.78466 13.1815 6.70796 13.0592 6.65788 12.9254C6.60779 12.7916 6.58536 12.649 6.59194 12.5063C6.59194 11.9229 7.64655 8.01855 7.64655 8.01855C7.64655 8.01855 8.7034 11.9229 8.7034 12.5063Z" fill="#C7C7C7"/>
<path d="M46.7556 101.001C60.8805 101.001 72.331 99.6262 72.331 97.9309C72.331 96.2356 60.8805 94.8613 46.7556 94.8613C32.6307 94.8613 21.1802 96.2356 21.1802 97.9309C21.1802 99.6262 32.6307 101.001 46.7556 101.001Z" fill="#EBEBEB"/>
<path d="M74.312 74.4775C74.312 75.66 72.9028 76.7528 71.2626 76.7528C69.6223 76.7528 68.2109 75.6937 68.2109 74.4775H74.312Z" fill="#455A64"/>
<path d="M73.7308 74.1991C73.282 73.14 72.8579 72.0764 72.4316 71.0106C72.2072 70.4788 72.012 69.9425 71.8011 69.4085L71.175 67.8041H71.3321L70.7061 69.4085C70.4952 69.9425 70.291 70.4788 70.0756 71.0106C69.6492 72.0764 69.2229 73.14 68.7764 74.1991C69.1578 73.1153 69.555 72.0383 69.9544 70.9635C70.1518 70.4249 70.3605 69.8887 70.5625 69.3524L71.175 67.7435L71.2536 67.5371L71.3321 67.7435L71.9447 69.3524C72.1466 69.8887 72.3553 70.4249 72.5528 70.9635C72.9522 72.0383 73.3516 73.1153 73.7308 74.1991Z" fill="#263238"/>
<path d="M74.4847 74.0645H68.0381V74.4773H74.4847V74.0645Z" fill="#37474F"/>
<path d="M92.8036 74.4775C92.8036 75.66 91.3944 76.7528 89.7519 76.7528C88.1094 76.7528 86.6958 75.6937 86.6958 74.4775H92.8036Z" fill="#455A64"/>
<path d="M92.222 74.1991C91.7732 73.14 91.3491 72.0764 90.9228 71.0106C90.6984 70.4788 90.5032 69.9425 90.2923 69.4085L89.6663 67.8041H89.8233L89.1973 69.4085C88.9864 69.9425 88.7822 70.4788 88.5668 71.0106C88.1404 72.0764 87.7119 73.14 87.2676 74.1991C87.6468 73.1153 88.0439 72.0383 88.4456 70.9635C88.6431 70.4249 88.8517 69.8887 89.0537 69.3524L89.6663 67.7435L89.7448 67.5371L89.8233 67.7435L90.4359 69.3524C90.6378 69.8887 90.8465 70.4249 91.044 70.9635C91.4434 72.0383 91.8405 73.1153 92.222 74.1991Z" fill="#263238"/>
<path d="M92.9739 74.0645H86.5273V74.4773H92.9739V74.0645Z" fill="#37474F"/>
<path d="M89.9587 67.7691C89.4471 67.8095 89.1038 67.5447 88.5002 67.354C87.6206 67.087 84.3783 66.9838 82.9714 67.0915C82.4149 67.1319 81.2548 67.63 80.4224 67.63C79.5899 67.63 78.4276 67.1319 77.8711 67.0915C76.4665 66.9838 73.2241 67.0915 72.3423 67.354C71.7387 67.5402 71.3954 67.8028 70.8838 67.7691C70.0536 67.7063 69.9593 66.5305 71.0117 66.5305C72.064 66.5305 72.358 66.7369 73.7537 66.7145C74.3528 66.7145 77.9138 66.2904 78.9257 66.2904C79.429 66.2733 79.9323 66.3231 80.4224 66.4385C80.911 66.323 81.4128 66.2732 81.9145 66.2904C82.9288 66.2904 86.4897 66.7033 87.0889 66.7145C88.4733 66.7369 88.7807 66.5305 89.8331 66.5305C90.8854 66.5305 90.7912 67.7063 89.9587 67.7691Z" fill="#455A64"/>
<path d="M86.9287 83.377H73.9121V85.6141H86.9287V83.377Z" fill="#455A64"/>
<path d="M86.2554 82.8271H74.5874V83.3769H86.2554V82.8271Z" fill="#37474F"/>
<path d="M81.2233 82.8292H79.619C79.3813 81.6195 79.2946 80.3849 79.3609 79.1538C79.4395 76.8763 80.1149 67.0527 80.1149 67.0527H80.7297C80.7297 67.0527 81.4028 76.8763 81.4836 79.1538C81.5486 80.385 81.4612 81.6195 81.2233 82.8292Z" fill="#455A64"/>
<path d="M80.9219 65.561C80.9219 66.389 80.7155 66.6134 80.7155 66.6134H80.1254C80.1254 66.6134 79.9189 66.389 79.9189 65.561C79.9189 64.733 80.3071 62.1279 80.3071 62.1279H80.5315C80.5315 62.1279 80.9219 64.7465 80.9219 65.561Z" fill="#455A64"/>
<path d="M81.1933 66.947C81.1933 67.1002 81.1478 67.2499 81.0627 67.3773C80.9775 67.5047 80.8565 67.6039 80.7149 67.6624C80.5733 67.7209 80.4175 67.7361 80.2673 67.7061C80.1171 67.676 79.9791 67.6021 79.871 67.4936C79.7628 67.3851 79.6892 67.2469 79.6596 67.0966C79.63 66.9463 79.6457 66.7906 79.7046 66.6492C79.7635 66.5078 79.8631 66.387 79.9907 66.3022C80.1183 66.2174 80.2682 66.1724 80.4214 66.1729C80.5229 66.1729 80.6235 66.1929 80.7173 66.2318C80.8111 66.2708 80.8963 66.3278 80.968 66.3997C81.0397 66.4716 81.0965 66.557 81.1352 66.6509C81.1738 66.7448 81.1936 66.8454 81.1933 66.947Z" fill="#37474F"/>
<path d="M81.0364 62.1278C81.0364 62.2499 81.0001 62.3693 80.9322 62.4709C80.8643 62.5724 80.7678 62.6515 80.6549 62.6981C80.542 62.7447 80.4179 62.7568 80.2981 62.7328C80.1783 62.7088 80.0684 62.6499 79.9822 62.5633C79.896 62.4768 79.8374 62.3667 79.8138 62.2468C79.7903 62.127 79.8028 62.0028 79.8499 61.8901C79.8969 61.7774 79.9763 61.6812 80.0781 61.6136C80.1799 61.5461 80.2994 61.5103 80.4215 61.5107C80.5025 61.5107 80.5826 61.5267 80.6573 61.5578C80.7321 61.5888 80.8 61.6343 80.8571 61.6916C80.9142 61.7489 80.9594 61.817 80.9902 61.8918C81.021 61.9667 81.0367 62.0469 81.0364 62.1278Z" fill="#37474F"/>
<path d="M0.633301 85.6493L12.1644 85.5955L23.6956 85.5753L46.7556 85.5371L69.8157 85.5753L81.3468 85.5955L92.8779 85.6493L81.3468 85.7054L69.8157 85.7256L46.7556 85.7615L23.6956 85.7233L12.1644 85.7032L0.633301 85.6493Z" fill="#263238"/>
<path d="M83.6928 89.0566H62.1743V92.2294H83.6928V89.0566Z" fill="#37474F"/>
<path d="M82.4904 88.1523H63.375V89.0566H82.4904V88.1523Z" fill="#455A64"/>
<path d="M29.2752 43.5352H55.2589C57.6989 43.5352 60.0389 44.5044 61.7642 46.2297C63.4895 47.955 64.4587 50.295 64.4587 52.7349V85.5624H20.0776V52.7327C20.0782 50.2935 21.0474 47.9545 22.7722 46.2297C24.4969 44.505 26.836 43.5358 29.2752 43.5352Z" fill="#455A64"/>
<path d="M22.384 43.207H16.0474V85.5574H22.384V43.207Z" fill="#37474F"/>
<path d="M19.9972 42.035C21.0446 41.6039 21.5442 40.4054 21.1132 39.3579C20.6821 38.3105 19.4835 37.8108 18.4361 38.2419C17.3887 38.673 16.889 39.8716 17.3201 40.919C17.7512 41.9664 18.9497 42.4661 19.9972 42.035Z" fill="#37474F"/>
<path d="M21.617 42.1904H16.8174V43.2069H21.617V42.1904Z" fill="#455A64"/>
<path d="M68.4865 43.207H62.1499V85.5574H68.4865V43.207Z" fill="#37474F"/>
<path d="M66.0992 42.034C67.1466 41.6029 67.6463 40.4044 67.2152 39.357C66.7841 38.3095 65.5856 37.8099 64.5381 38.2409C63.4907 38.672 62.9911 39.8706 63.4221 40.918C63.8532 41.9655 65.0518 42.4651 66.0992 42.034Z" fill="#37474F"/>
<path d="M67.7166 42.1904H62.917V43.2069H67.7166V42.1904Z" fill="#455A64"/>
<path d="M52.4157 48.7388C62.8832 59.3926 70.3485 72.0479 69.543 75.03C68.0419 80.5745 60.5676 81.1736 59.5354 79.87C55.3708 74.5969 51.3095 64.6881 46.9362 53.6461C43.5166 45.014 46.2631 44.8547 49.5772 47.4822C50.0484 47.8592 51.9849 48.299 52.4157 48.7388Z" fill="#FFC727"/>
<path opacity="0.1" d="M69.5426 75.0293C68.0414 80.5738 60.5672 81.173 59.535 79.8693C55.3704 74.5962 51.3113 64.6874 46.9358 53.6454C45.2798 49.4629 45.0016 46.9139 45.8475 46.2295L69.5313 73.9006C69.6171 74.2716 69.6209 74.6567 69.5426 75.0293Z" fill="black"/>
<path opacity="0.1" d="M52.0389 48.8574C51.7719 49.12 51.5071 49.387 51.2558 49.6652C51.0045 49.9434 50.7554 50.2194 50.5243 50.5111C50.0452 51.076 49.6541 51.7099 49.3642 52.3915C49.2284 52.7362 49.1145 53.0892 49.0231 53.4483C48.9199 53.8051 48.8436 54.1709 48.7606 54.5344C48.6776 54.8979 48.608 55.2659 48.5362 55.6361C48.4644 56.0063 48.4061 56.3743 48.3433 56.7445C48.3545 56.3676 48.3904 55.9929 48.424 55.6226C48.4577 55.2524 48.5205 54.8754 48.5789 54.5007C48.6938 53.7522 48.8856 53.0176 49.151 52.3085C49.2905 51.952 49.4712 51.6131 49.6896 51.2987C49.9039 50.9852 50.1377 50.6854 50.3897 50.4012C50.8897 49.836 51.4419 49.3191 52.0389 48.8574Z" fill="black"/>
<path opacity="0.1" d="M50.5239 50.3857C50.8671 50.4678 51.2051 50.5704 51.5359 50.6931C51.7042 50.7515 51.8657 50.8188 52.0318 50.8906C52.1203 50.9291 52.2039 50.9781 52.2809 51.0365C52.3572 51.106 52.4132 51.1666 52.4761 51.2339C52.9462 51.7597 53.3732 52.3224 53.7528 52.9168C53.497 52.673 53.251 52.4217 53.0146 52.1629L52.31 51.3843C52.2566 51.3213 52.1996 51.2614 52.1395 51.2047C52.0773 51.1558 52.0095 51.1144 51.9376 51.0813C51.7872 51.0006 51.6257 50.931 51.4686 50.857C51.1522 50.6999 50.8358 50.5451 50.5239 50.3857Z" fill="black"/>
<path opacity="0.1" d="M50.1021 50.9033C50.2681 51.0492 50.4207 51.2018 50.571 51.3521C50.7214 51.5024 50.8694 51.6573 51.0198 51.8009C51.057 51.8343 51.0959 51.8657 51.1365 51.8951L51.2666 51.9736C51.3608 52.0342 51.4528 52.0926 51.5381 52.1599C51.7151 52.2893 51.879 52.4359 52.0273 52.5974C51.8253 52.5099 51.6346 52.4089 51.4439 52.308L51.1634 52.1599C51.1163 52.1374 51.0691 52.1105 51.0131 52.0769C50.9649 52.0441 50.9185 52.0089 50.8739 51.9714C50.706 51.8236 50.5555 51.6573 50.4252 51.4755C50.2992 51.2957 50.191 51.104 50.1021 50.9033Z" fill="black"/>
<path opacity="0.1" d="M48.8813 53.5654C49.1028 53.8826 49.2993 54.2164 49.4692 54.5639C49.5523 54.7367 49.6398 54.9073 49.7205 55.08C49.8013 55.2528 49.8799 55.4256 49.9741 55.5984C49.8138 55.4805 49.6762 55.3345 49.568 55.1675C49.2361 54.6838 49.0028 54.1394 48.8813 53.5654Z" fill="black"/>
<path opacity="0.1" d="M49.896 51.1752C49.896 51.1752 51.2423 53.6434 51.9289 54.1213C52.6155 54.5993 54.2962 56.2283 54.6215 55.7257C54.9469 55.2231 53.3336 52.7414 52.7188 52.1714C52.1039 51.6015 50.2775 50.6523 50.2775 50.6523L49.896 51.1752Z" fill="black"/>
<path d="M61.261 78.6581C59.1293 75.5975 60.2086 69.5099 62.5512 54.9069C62.8765 52.8875 78.2132 52.7282 77.9799 54.9069C77.6814 57.6467 74.9529 68.4755 74.2394 70.0686C70.7637 77.8548 62.706 80.7314 61.261 78.6581Z" fill="#F7A9A0"/>
<path d="M78.8119 49.2237C79.0183 52.1946 77.064 58.4347 76.0138 59.7586C74.9637 61.0825 64.2426 58.1139 63.5852 56.5095C62.9277 54.9052 63.0085 44.8415 64.7385 42.3486C66.4685 39.8557 78.5987 46.1452 78.8119 49.2237Z" fill="#F7A9A0"/>
<path d="M62.8489 46.7258C64.2715 47.4102 64.7584 46.2075 64.7584 46.2075C64.7584 46.2075 63.9439 49.1582 65.3957 50.1253C66.7958 51.0565 67.929 48.8283 68.012 48.669C67.9694 48.8261 67.294 51.5568 68.8512 52.3803C70.4713 53.233 71.223 50.8096 71.2723 50.6436C71.2723 50.8052 71.4069 52.9189 72.7331 53.2756C75.0128 53.886 74.8311 48.4693 76.1931 47.1297C76.1931 47.1297 78.7264 49.1784 78.8117 49.2232C78.8117 49.2232 78.7443 44.0624 76.8371 42.3279C76.5635 42.0708 76.2102 41.9151 75.836 41.8865C75.4617 41.858 75.0889 41.9583 74.7795 42.1708C74.7795 42.1708 74.941 40.5036 73.7338 39.8193C73.1145 39.467 72.0016 40.1469 72.0016 40.1469C72.0016 40.1469 72.0756 38.8006 70.9649 38.2643C70.0786 37.829 69.1003 38.5784 69.1003 38.5784C69.1003 38.5784 70.8437 31.9636 69.1609 31.3061C66.264 30.1707 63.3268 44.5291 62.0748 45.0811C61.451 45.3526 62.2363 46.4274 62.8489 46.7258Z" fill="#F7A9A0"/>
<path d="M68.928 38.672C68.9459 38.6496 68.9168 38.6204 68.8966 38.6428C66.839 40.6376 65.192 43.4604 64.6939 46.2988C64.6781 46.3908 64.8554 46.7947 64.8801 46.6915C65.4994 44.1133 67.1105 41.1066 68.928 38.672Z" fill="#263238"/>
<path d="M72.0112 40.1019C72.0292 40.0772 71.9865 40.0435 71.9618 40.0682C69.8526 42.1348 68.0845 45.3659 67.896 48.7048C67.896 48.8192 67.9992 48.9292 68.0172 48.7968C68.3111 46.5866 70.362 42.2851 72.0112 40.1019Z" fill="#263238"/>
<path d="M71.3407 50.8816C71.6458 47.6863 72.9428 44.9107 74.6862 42.2495C74.7087 42.2158 74.6571 42.1867 74.6302 42.2113C73.423 43.2794 72.4895 45.0902 71.8814 46.5622C71.2903 47.9163 71.0651 49.4019 71.2285 50.8704C71.2352 50.9309 71.3339 50.9511 71.3407 50.8816Z" fill="#263238"/>
<path d="M64.7052 46.2295C64.6872 46.3417 64.9946 46.1756 64.9789 46.2878C64.8151 47.5107 64.6289 49.7119 65.5915 50.071C66.3656 50.3559 67.2856 49.5167 67.5122 49.0545L68.0844 47.8944L67.952 49.1824C67.8877 49.754 67.9173 50.3323 68.0395 50.8945C68.1652 51.442 68.4367 51.9536 68.8877 52.1892C69.0969 52.3203 69.3448 52.3756 69.5899 52.3458C69.835 52.316 70.0624 52.2028 70.234 52.0254C70.6125 51.6194 70.8813 51.1236 71.0149 50.5848L71.4322 49.1106L71.5197 50.6342C71.5408 51.0579 71.6162 51.4772 71.7441 51.8817C71.8517 52.2698 72.0719 52.6173 72.3769 52.8803C72.5187 52.9931 72.6893 53.0641 72.8693 53.0851C73.0493 53.1061 73.2316 53.0764 73.3956 52.9992C73.7371 52.7711 74.0064 52.4504 74.172 52.0747C74.5714 51.3028 74.8092 50.4322 75.0897 49.5818C75.2266 49.1555 75.3635 48.7247 75.5205 48.3028C75.6538 47.8694 75.8779 47.4693 76.178 47.1293C75.8885 47.4748 75.7741 47.9214 75.6372 48.341C75.5003 48.7606 75.4128 49.2071 75.3074 49.6424C75.1229 50.5314 74.8539 51.4007 74.5041 52.2385C74.3223 52.6972 74.0103 53.0926 73.6065 53.3762C73.3703 53.5057 73.1016 53.5636 72.833 53.5429C72.5644 53.5222 72.3077 53.4237 72.0942 53.2595C71.7067 52.9437 71.4223 52.5194 71.2774 52.0411C71.1241 51.5931 71.0305 51.1268 70.9992 50.6544L71.504 50.7037C71.3594 51.343 71.05 51.9332 70.6065 52.4158C70.3512 52.6762 70.0132 52.8396 69.6506 52.878C69.2954 52.9083 68.9394 52.83 68.6297 52.6536C67.9991 52.3013 67.6873 51.626 67.5549 51.0134C67.4295 50.393 67.4067 49.7563 67.4875 49.1285L67.9251 49.2564C67.6177 49.8331 66.691 50.8855 65.4367 50.6028C63.8682 49.9588 64.5459 46.7949 64.7052 46.2295Z" fill="#263238"/>
<path d="M63.5835 56.5087C63.5835 56.5087 58.8714 49.7592 59.1968 46.9948C59.5221 44.2304 65.1138 41.5827 67.3038 40.9364C70.3285 40.0636 70.6583 42.3074 69.6037 43.6537C68.3853 45.2042 65.8632 46.8243 65.6905 46.9387C65.6905 46.9387 69.9313 49.2476 70.1266 52.757C70.3218 56.2664 63.5835 56.5087 63.5835 56.5087Z" fill="#F7A9A0"/>
<path d="M63.2241 42.7564C63.7469 42.4198 64.2944 42.1169 64.8464 41.8297C65.3995 41.5358 65.9689 41.2736 66.5518 41.0443C66.8412 40.9277 67.1396 40.82 67.4493 40.7325C67.7588 40.6354 68.0791 40.5767 68.4029 40.5574C68.7407 40.5341 69.0796 40.583 69.397 40.701C69.7337 40.8242 70.0159 41.0627 70.1935 41.3742C70.3606 41.6907 70.4211 42.0527 70.3663 42.4064C70.3127 42.7403 70.1995 43.0618 70.032 43.3555C69.8717 43.6395 69.683 43.9064 69.4688 44.1521C69.2623 44.3899 69.0469 44.6233 68.8248 44.8477C67.9291 45.7471 66.9044 46.5079 65.7844 47.105V46.7437C66.327 47.0079 66.8369 47.3347 67.3034 47.7176C67.7691 48.0931 68.194 48.5165 68.5712 48.9808C68.7578 49.2136 68.9315 49.4563 69.0918 49.7078C69.2475 49.9613 69.3898 50.2226 69.5181 50.491C69.7709 51.0256 69.957 51.5893 70.0724 52.1694C69.7375 51.0493 69.1555 50.0187 68.3693 49.1536C67.9816 48.7258 67.5541 48.3359 67.0925 47.9891C66.6356 47.6463 66.1446 47.3516 65.6273 47.1095L65.257 46.9434L65.6161 46.7482C66.1481 46.4505 66.6574 46.1137 67.1396 45.7407C67.6251 45.3685 68.0854 44.9645 68.5174 44.5313C68.7417 44.3069 68.9415 44.0825 69.1434 43.8581C69.3398 43.6368 69.5135 43.3962 69.6617 43.1401C69.8041 42.8925 69.9028 42.6223 69.9534 42.3413C70.003 42.0769 69.9652 41.8036 69.8457 41.5627C69.7178 41.3267 69.5103 41.1438 69.2601 41.0466C68.9935 40.943 68.709 40.8934 68.4231 40.9007C67.8197 40.9478 67.2259 41.08 66.6595 41.2934C65.4829 41.7036 64.3352 42.1924 63.2241 42.7564Z" fill="#263238"/>
<path d="M81.2467 65.2797L61.4358 60.6484C61.4358 60.6484 56.8897 76.5506 59.1448 79.4766C60.1545 80.7847 63.5315 84.4445 66.3992 83.621C70.3887 82.4766 76.5795 77.6389 77.9819 73.7099C78.7403 71.5827 81.2467 65.2797 81.2467 65.2797Z" fill="#FFC727"/>
<path d="M61.03 65.038C62.9104 65.4867 64.8087 65.8502 66.7092 66.2003C68.6098 66.5503 70.5125 66.9071 72.4221 67.21C73.5014 67.3805 74.5784 67.5578 75.6622 67.6924C75.6913 67.6924 75.7026 67.6498 75.6734 67.6431C73.7975 67.1943 71.897 66.8218 70.0032 66.4583C68.1094 66.0948 66.1886 65.7515 64.2926 65.4262C63.2155 65.2422 62.134 65.0784 61.0502 64.9437C60.9986 64.937 60.9739 65.0245 61.03 65.038Z" fill="#263238"/>
<path d="M62.1154 60.299C61.8371 60.3281 61.5634 60.3865 61.2896 60.4381C61.2686 60.4438 61.2494 60.4552 61.2344 60.471C61.2194 60.4868 61.209 60.5065 61.2044 60.5278C60.8992 61.56 60.6838 62.6303 60.4684 63.6849C60.253 64.7395 60.069 65.7717 59.8962 66.8263C59.802 67.3918 59.7219 67.9572 59.6561 68.5227C59.3135 69.2102 59.1042 69.9563 59.0391 70.7216C59.0391 70.7598 59.1019 70.7665 59.1086 70.7216C59.1929 70.0421 59.3688 69.3772 59.6314 68.7448C59.4593 70.1299 59.4964 71.533 59.7414 72.9071C59.7414 72.9071 59.7571 72.9071 59.7549 72.9071C59.4048 70.854 59.9209 68.7112 60.2597 66.6894C60.428 65.6775 60.6187 64.67 60.8184 63.6602C61.0181 62.6505 61.2515 61.6565 61.4355 60.649C61.6711 60.5615 61.9067 60.474 62.1356 60.3663C62.1428 60.3623 62.1485 60.356 62.1516 60.3484C62.1548 60.3408 62.1552 60.3323 62.1528 60.3244C62.1505 60.3165 62.1454 60.3097 62.1386 60.305C62.1318 60.3004 62.1236 60.2983 62.1154 60.299Z" fill="#263238"/>
<path d="M39.7288 21.3824C35.7908 24.4901 34.1192 30.1536 34.1192 30.1536C34.1192 30.1536 30.0578 35.5904 30.6389 38.853C30.7862 39.7797 31.1559 40.6569 31.7162 41.4096C32.2766 42.1622 33.011 42.7679 33.8566 43.1747L33.722 41.3796C33.722 41.3796 34.5971 43.7581 38.286 45.1044C41.9749 46.4507 47.1267 45.8605 49.8889 44.8418C51.5273 44.2462 52.9831 43.2357 54.1141 41.9091L52.8418 44.3392C52.8418 44.3392 56.5374 44.6354 59.1785 40.9734C61.8195 37.3115 56.1784 30.9591 55.7858 29.6846C55.3931 28.4101 55.7364 19.4953 46.2651 19.9463C46.2651 19.9463 42.4393 19.244 39.7288 21.3824Z" fill="#A6A6A6"/>
<path d="M32.5282 42.7903C31.5342 42.1732 30.787 40.9952 30.3696 39.9316C29.9118 38.8033 29.847 37.5537 30.1856 36.3841C30.6097 34.9817 31.5095 33.8104 32.3846 32.6638C33.2821 31.479 34.2829 30.3571 35.1647 29.1589C35.2141 29.0916 35.1153 29.022 35.057 29.0714C34.1166 29.9446 33.2273 30.8714 32.3936 31.847C31.5541 32.731 30.8206 33.71 30.208 34.764C29.683 35.7356 29.3105 36.853 29.4047 37.9705C29.4855 38.8883 29.7873 39.7729 30.2843 40.5487C30.87 41.4798 31.6778 42.1193 32.4654 42.8688C32.5192 42.9092 32.5843 42.8262 32.5282 42.7903Z" fill="#A6A6A6"/>
<path d="M60.4195 37.0388C59.6813 33.655 56.9932 31.2541 55.5414 28.2114C54.7561 26.5645 54.1951 24.7784 53.1068 23.2997C53.0754 23.2593 53.0081 23.2997 53.035 23.3513C53.9326 24.6707 54.3544 26.183 54.9401 27.646C55.5257 29.109 56.3896 30.4643 57.2624 31.7994C58.8488 34.2227 60.7539 37.0881 59.973 40.133C59.614 41.5377 58.5886 43.0209 57.074 43.2968C57.0156 43.3081 57.0381 43.4046 57.0964 43.3866C57.7006 43.2219 58.2649 42.9358 58.7549 42.5458C59.2448 42.1558 59.6501 41.67 59.9461 41.1181C60.5897 39.8596 60.7578 38.4112 60.4195 37.0388Z" fill="#A6A6A6"/>
<path d="M60.4532 37.9295C60.6931 36.7086 60.5513 35.4433 60.047 34.3057C59.5242 33.1838 58.6065 32.3109 57.6753 31.5211C56.6027 30.6124 55.4606 29.726 54.8637 28.4268C54.8391 28.3708 54.7583 28.4268 54.783 28.4717C55.7209 30.6281 57.8413 31.8375 59.1517 33.7044C60.6506 35.8473 60.323 38.6812 58.8825 40.7703C57.9703 42.0368 56.7727 43.0707 55.3866 43.7882C55.3842 43.7896 55.3821 43.7913 55.3804 43.7935C55.3788 43.7956 55.3775 43.798 55.3768 43.8006C55.3761 43.8032 55.3759 43.806 55.3762 43.8086C55.3765 43.8113 55.3774 43.8139 55.3787 43.8163C55.38 43.8186 55.3818 43.8207 55.3839 43.8224C55.3861 43.8241 55.3885 43.8253 55.3911 43.826C55.3937 43.8268 55.3964 43.827 55.3991 43.8266C55.4018 43.8263 55.4044 43.8255 55.4067 43.8241C57.7695 42.6349 59.9595 40.6424 60.4532 37.9295Z" fill="#A6A6A6"/>
<path d="M58.7318 85.5532L56.1469 69.6219C56.1469 69.6219 58.6151 64.4611 55.9696 59.9734C54.6233 57.7004 51.2194 49.3802 47.1602 46.3846C42.3853 42.8573 37.8011 46.1041 36.0173 48.5208C32.4473 53.3585 26.3149 64.7393 25.083 85.5555L58.7318 85.5532Z" fill="#FFC727"/>
<path d="M42.8233 67.9029C44.4462 67.8624 46.0699 67.9411 47.6813 68.1385C48.4823 68.2485 49.2699 68.3943 50.0597 68.5581C50.4547 68.6389 50.8496 68.7062 51.2445 68.7825C51.6582 68.8627 52.0801 68.8928 52.501 68.8723C52.5071 68.874 52.5125 68.8777 52.5163 68.8827C52.5201 68.8878 52.5222 68.894 52.5222 68.9003C52.5222 68.9066 52.5201 68.9128 52.5163 68.9179C52.5125 68.9229 52.5071 68.9266 52.501 68.9284C52.1093 68.9945 51.7134 69.0327 51.3163 69.0428C50.9304 69.042 50.545 69.0143 50.163 68.9598C49.3507 68.8565 48.5451 68.7152 47.7329 68.6052C46.0971 68.3809 44.4613 68.1565 42.8143 68.0465C42.7425 68.0331 42.747 67.9052 42.8233 67.9029Z" fill="#263238"/>
<path d="M39.0177 69.7789C40.3247 69.489 41.6469 69.2725 42.9781 69.1305C43.6513 69.0631 44.3109 69.034 44.9819 69.0205C45.3005 69.0205 45.6214 69.0205 45.9422 69.0205C46.2631 69.0205 46.6445 69.0744 46.9968 69.0744C47.0327 69.0744 47.0395 69.1305 46.9968 69.1327C46.6647 69.1327 46.3237 69.209 46.0028 69.2382C45.6819 69.2673 45.3297 69.2965 45.0043 69.3257C44.3311 69.3863 43.6759 69.4536 43.0095 69.5074C41.6767 69.6151 40.3506 69.7318 39.0222 69.8889C38.9571 69.9068 38.9504 69.7946 39.0177 69.7789Z" fill="#263238"/>
<g opacity="0.1">
<path d="M31.604 56.9928C33.4619 56.8402 35.3243 56.7101 37.1845 56.5844L42.7694 56.2366L45.563 56.084C46.5009 56.0616 47.4344 56.084 48.3678 56.1267C50.2317 56.2104 52.0926 56.3376 53.9505 56.5081L51.1569 56.3937C50.2257 56.3555 49.2923 56.3219 48.3611 56.2994C47.4299 56.277 46.4987 56.2546 45.572 56.2882L42.7806 56.4588L37.1934 56.755C35.331 56.8447 33.4686 56.9322 31.604 56.9928Z" fill="black"/>
<path d="M35.9612 56.7256C35.683 58.5072 35.3823 60.2843 35.0817 62.0615L34.1684 67.3928C34.0203 68.2792 33.8498 69.17 33.7421 70.0563C33.6344 70.9426 33.6119 71.8514 33.5514 72.7489L33.2417 78.1499C33.2597 76.3458 33.3053 74.5425 33.3786 72.7399C33.4145 71.8424 33.4571 70.9449 33.5379 70.0361C33.6187 69.1273 33.8027 68.241 33.9485 67.3569C34.2626 65.5821 34.5768 63.8049 34.9134 62.0345C35.2499 60.2641 35.591 58.4915 35.9612 56.7256Z" fill="black"/>
<path d="M37.0876 56.7256C37.0248 57.6411 36.9396 58.5543 36.8633 59.4676L36.6052 62.2051C36.4968 63.1136 36.4399 64.0276 36.4347 64.9426L36.4033 66.3158C36.3853 66.7646 36.3741 67.2313 36.3494 67.6913C36.3225 67.2425 36.3113 66.7735 36.2933 66.3158L36.2619 64.9381C36.2416 64.0187 36.2821 63.0989 36.3831 62.1849C36.4773 61.2716 36.5738 60.3584 36.6927 59.4496C36.8117 58.5409 36.9328 57.6299 37.0876 56.7256Z" fill="black"/>
<path d="M51.832 56.375C52.3189 57.2075 52.7632 58.0646 53.1783 58.9352C53.3893 59.3705 53.5777 59.8148 53.7573 60.2636C53.9444 60.7128 54.1018 61.1737 54.2285 61.6436C54.326 62.1227 54.3719 62.6109 54.3653 63.0998C54.3653 63.5845 54.3788 64.0669 54.3653 64.5471C54.3429 65.512 54.298 66.4746 54.215 67.4349L54.1948 64.5471C54.1813 64.0669 54.1948 63.5867 54.1634 63.1065C54.1628 62.6329 54.1124 62.1606 54.0131 61.6974C53.7532 60.7757 53.4224 59.8754 53.0235 59.0048C52.8373 58.556 52.6376 58.123 52.4379 57.6854C52.2382 57.2479 52.034 56.8126 51.832 56.375Z" fill="black"/>
<path d="M51.0513 56.375C51.2757 56.9382 51.4798 57.5104 51.6751 58.0826C51.8703 58.6547 52.0498 59.2359 52.2158 59.8193C52.3043 60.1139 52.3747 60.4137 52.4268 60.7168C52.4627 61.022 52.4873 61.3227 52.5008 61.6278C52.53 62.2337 52.5457 62.8395 52.53 63.4454C52.4896 63.1447 52.4604 62.844 52.4223 62.5478L52.328 61.6503C52.2899 61.3519 52.2652 61.0489 52.2158 60.7527C52.1575 60.46 52.0826 60.1708 51.9914 59.8866L51.5 58.1409C51.3497 57.5508 51.1904 56.9651 51.0513 56.375Z" fill="black"/>
</g>
<path d="M33.6551 48.7008C23.9325 57.9365 11.441 77.6263 13.5166 81.7662C15.8278 86.3795 29.3694 73.4258 29.3447 72.6427C29.3268 72.0526 34.3328 60.0098 38.1182 51.2543C41.9035 42.4988 36.0605 46.4166 33.6551 48.7008Z" fill="#F7A9A0"/>
<path d="M29.4321 72.6594C29.8809 71.3692 36.6708 55.494 38.6319 50.47C40.3888 45.9576 39.8189 44.3959 35.7149 46.7631C35.219 47.0481 32.5735 47.7908 31.7568 48.5739C26.7485 53.3578 14.2188 67.2585 11.3893 75.4328C8.66306 83.3065 15.2353 84.1704 20.7574 80.6789C25.2765 77.8203 29.4321 72.6594 29.4321 72.6594Z" fill="#FFC727"/>
<path d="M28.5635 74.7141C29.105 73.1897 29.6734 71.6781 30.2688 70.1792C30.8567 68.6759 31.4693 67.1837 32.0863 65.6915C32.7034 64.1994 33.3429 62.7184 33.9981 61.242C34.6533 59.7655 35.322 58.2981 36.0175 56.8418C35.482 58.3721 34.9166 59.8852 34.3212 61.3811C33.7333 62.8845 33.1185 64.3766 32.5014 65.8688C31.8844 67.361 31.2449 68.8419 30.5897 70.3184C29.9345 71.7948 29.2658 73.2578 28.5635 74.7141Z" fill="#263238"/>
<path d="M34.6382 60.3256C34.8203 59.9401 35.0373 59.5721 35.2867 59.2262C35.5313 58.8781 35.7989 58.5468 36.0877 58.2344C36.0162 58.4375 35.9245 58.6329 35.814 58.8178C35.7085 59.004 35.5896 59.1813 35.4707 59.3563C35.2273 59.7073 34.9484 60.0321 34.6382 60.3256Z" fill="#263238"/>
<path opacity="0.1" d="M33.7849 49.8223C33.1763 49.9065 32.6017 50.1539 32.1222 50.5381C31.3974 51.1551 29.8492 53.5426 30.28 54.1574C30.7108 54.7722 31.3301 53.832 32.0325 53.1409C32.7348 52.4498 34.2068 50.3451 34.2068 50.3451L33.7849 49.8223Z" fill="black"/>
<path opacity="0.1" d="M35.1023 52.1807C34.9249 52.2055 34.7575 52.2776 34.6176 52.3893C34.4067 52.5688 33.9557 53.2644 34.0813 53.444C34.207 53.6235 34.5301 53.4821 34.7275 53.2801C34.925 53.0782 35.2257 52.3332 35.2257 52.3332L35.1023 52.1807Z" fill="black"/>
<path opacity="0.1" d="M32.2705 48.2988C32.8653 48.7623 33.4152 49.2807 33.913 49.8471C34.1667 50.1298 34.4006 50.4297 34.6131 50.7446C34.8318 51.0584 35.0132 51.3965 35.1539 51.7521C35.4186 52.4621 35.6096 53.1975 35.7238 53.9466C35.7844 54.3168 35.836 54.6916 35.8786 55.0685C35.9213 55.4455 35.9504 55.818 35.9616 56.1904C35.8988 55.8202 35.8405 55.45 35.7664 55.082C35.6924 54.714 35.6296 54.346 35.542 53.9803C35.4545 53.6145 35.3805 53.251 35.2795 52.8942C35.1861 52.5355 35.0714 52.1826 34.9362 51.8374C34.6461 51.1564 34.2558 50.5227 33.7784 49.957C33.554 49.6653 33.2982 49.3871 33.0446 49.1111C32.7911 48.8351 32.5398 48.5636 32.2705 48.2988Z" fill="black"/>
<path opacity="0.1" d="M33.7846 49.8223C33.4727 49.9883 33.1563 50.1431 32.8399 50.2912C32.6828 50.3675 32.5235 50.4393 32.3709 50.5156C32.3 50.5482 32.2329 50.5889 32.1712 50.6368C32.1174 50.6861 32.0546 50.7557 31.9985 50.8185L31.2961 51.5949C31.0583 51.8552 30.8137 52.1065 30.5557 52.3488C30.9359 51.7549 31.3628 51.1921 31.8324 50.666C31.8952 50.6009 31.9513 50.5381 32.0276 50.4707C32.1042 50.4107 32.1888 50.3616 32.2789 50.3249C32.4427 50.2508 32.6065 50.1835 32.7726 50.1252C33.1043 50.0063 33.4421 49.9052 33.7846 49.8223Z" fill="black"/>
<path opacity="0.1" d="M34.207 50.3447C34.115 50.5434 34.003 50.7321 33.8726 50.9079C33.7415 51.0891 33.5911 51.2554 33.4238 51.4038C33.3798 51.442 33.3334 51.4772 33.2847 51.5093C33.2369 51.5397 33.1875 51.5674 33.1366 51.5923L32.8539 51.7404C32.6654 51.8414 32.4747 51.9423 32.2705 52.0299C32.4189 51.869 32.5827 51.7232 32.7597 51.5945C32.8472 51.5272 32.9392 51.4666 33.0312 51.4083C33.0805 51.3791 33.1277 51.3522 33.1636 51.3275C33.2033 51.2981 33.2415 51.2667 33.278 51.2333C33.4328 51.1031 33.5809 50.9461 33.7268 50.7957C33.8726 50.6454 34.0409 50.4906 34.207 50.3447Z" fill="black"/>
<path opacity="0.1" d="M35.4295 53.0068C35.3097 53.5824 35.0754 54.128 34.7406 54.6112C34.6323 54.7775 34.4947 54.9227 34.3345 55.0398C34.4287 54.867 34.5072 54.6942 34.5903 54.5214C34.6733 54.3487 34.7563 54.1781 34.8416 54.0076C35.0112 53.6592 35.2077 53.3246 35.4295 53.0068Z" fill="black"/>
<path d="M40.8553 83.4507L58.2631 72.927L57.0761 70.8672L39.251 80.6706L40.8553 83.4507Z" fill="#37474F"/>
<path d="M60.7761 77.2771L70.7041 71.5498L64.4924 60.7821L54.5644 66.5095L60.7761 77.2771Z" fill="#37474F"/>
<path d="M62.1793 81.645L73.7827 74.9512L72.3969 72.5489L60.7934 79.2427L62.1793 81.645Z" fill="#37474F"/>
<path d="M61.7439 77.9223L70.7759 72.7119L70.2556 71.8101L61.2236 77.0205L61.7439 77.9223Z" fill="#263238"/>
<path d="M72.3974 72.5527L70.7773 72.7143L61.7458 77.9245L60.7944 79.2461L72.3974 72.5527Z" fill="#455A64"/>
<path d="M63.0893 56.4214L51.4858 63.1152L52.8717 65.5175L64.4751 58.8237L63.0893 56.4214Z" fill="#37474F"/>
<path d="M63.5232 60.1452L54.4932 65.3545L55.0134 66.2563L64.0435 61.047L63.5232 60.1452Z" fill="#263238"/>
<path d="M52.8706 65.5137L54.4929 65.3522L63.5244 60.1442L64.4735 58.8203L52.8706 65.5137Z" fill="#455A64"/>
<path d="M55.7355 75.3019L58.6626 73.6133L56.6791 70.175L53.752 71.8636L55.7355 75.3019Z" fill="#455A64"/>
<path d="M13.3796 81.5751C15.4731 84.6222 21.2331 85.2482 35.6116 88.1832C37.5997 88.5916 44.2415 75.3282 42.1412 74.7852C39.4935 74.1008 29.0753 72.0208 28.2944 71.9647C21.7043 71.489 11.957 79.5017 13.3796 81.5751Z" fill="#F7A9A0"/>
<path d="M55.6711 78.4558C55.8955 79.9884 54.4392 80.675 54.4392 80.675C54.4392 80.675 55.2583 81.5994 55.2044 82.7842C55.1416 84.1417 52.9852 84.6399 52.9852 84.6399C53.3676 85.3617 53.524 86.1818 53.434 86.9937C53.2433 88.2861 51.1385 89.0984 51.1385 89.0984C51.1385 89.0984 51.1655 90.4559 50.241 91.4185C48.6479 93.0655 45.226 92.334 43.045 91.892C40.864 91.4499 35.086 88.156 33.9282 87.6332L36.6433 73.6158C36.6433 73.6158 46.9829 72.817 49.4714 73.6989C51.5694 74.4505 55.4333 76.737 55.6711 78.4558Z" fill="#F7A9A0"/>
<path d="M54.3831 80.4324C52.3434 79.1062 50.021 78.4555 47.7413 77.6724C47.7311 77.6708 47.7207 77.6729 47.712 77.6783C47.7032 77.6838 47.6968 77.6922 47.6938 77.7021C47.6907 77.7119 47.6914 77.7225 47.6956 77.7319C47.6998 77.7413 47.7073 77.7489 47.7166 77.7532C49.9919 78.5026 52.0899 79.6964 54.3315 80.5356C54.3448 80.5399 54.3592 80.5393 54.3721 80.5339C54.385 80.5285 54.3955 80.5187 54.4018 80.5062C54.408 80.4937 54.4096 80.4794 54.4061 80.4658C54.4027 80.4523 54.3945 80.4404 54.3831 80.4324Z" fill="#263238"/>
<path d="M52.9745 84.4463C52.4825 84.1902 51.9589 84 51.4173 83.8809C50.8518 83.7178 50.2841 83.5682 49.7142 83.4321C48.5728 83.1419 47.4247 82.8823 46.2699 82.6535C46.2205 82.6422 46.1913 82.7185 46.2452 82.732C47.3806 83.0215 48.5137 83.3289 49.6379 83.6654C50.1988 83.8345 50.7598 84.0073 51.3208 84.1838C51.8382 84.3846 52.3763 84.5276 52.9251 84.6101C52.9468 84.6166 52.9703 84.6143 52.9903 84.6036C53.0103 84.5928 53.0252 84.5746 53.0317 84.5529C53.0383 84.5312 53.0359 84.5077 53.0252 84.4877C53.0144 84.4678 52.9962 84.4528 52.9745 84.4463Z" fill="#263238"/>
<path d="M51.0935 89.0853C50.6941 88.8205 50.1242 88.7554 49.6642 88.65C49.1406 88.5288 48.6171 88.4054 48.0935 88.2797C47.0501 88.0262 46.009 87.7726 44.9746 87.4854C44.923 87.4697 44.8983 87.5505 44.9499 87.564C45.9978 87.8624 47.0412 88.1765 48.0913 88.4615C48.6074 88.6021 49.1242 88.7412 49.6418 88.8788C50.0905 88.9933 50.6178 89.1885 51.0778 89.1324C51.0827 89.1313 51.0872 89.1289 51.0908 89.1256C51.0945 89.1222 51.0973 89.1179 51.0989 89.1132C51.1004 89.1085 51.1008 89.1035 51.0998 89.0986C51.0989 89.0937 51.0967 89.0891 51.0935 89.0853Z" fill="#263238"/>
<path d="M39.8164 72.6852L25.7991 91.8432C25.7991 91.8432 12.8454 84.5192 11.5462 81.2971C10.6284 78.9971 20.7258 71.5588 28.043 71.846L39.8164 72.6852Z" fill="#FFC727"/>
<path d="M19.3033 74.5673C20.3826 73.607 23.8224 71.7289 28.0543 71.8343C28.0902 71.8343 28.0992 71.8949 28.0543 71.8972C24.8972 72.1216 20.4499 73.782 19.3325 74.6167C19.3078 74.6391 19.2764 74.592 19.3033 74.5673Z" fill="#263238"/>
<path d="M25.0049 85.9226C26.1403 84.1814 27.3677 82.503 28.5951 80.8291C29.8225 79.1552 31.0633 77.4746 32.3334 75.8276C33.0536 74.8986 33.7694 73.9652 34.5211 73.0609C34.5413 73.0362 34.5862 73.0609 34.5682 73.0901C33.4351 74.829 32.2122 76.5142 30.9938 78.1948C29.7754 79.8755 28.5255 81.5606 27.2757 83.2121C26.5667 84.15 25.8374 85.0722 25.088 85.9787C25.0543 86.0236 24.9713 85.9742 25.0049 85.9226Z" fill="#263238"/>
<path d="M39.8214 72.5008C39.0266 72.3463 38.2221 72.2466 37.4137 72.2023C36.6082 72.1328 35.8004 72.0767 34.9926 72.0296C33.3838 71.9353 29.9888 71.5516 27.0696 71.8523C27.0359 71.8523 27.2177 71.9959 27.2491 71.9914C28.6335 71.767 38.8004 72.7566 39.6239 72.7341C39.5959 72.7907 39.5719 72.8492 39.5521 72.9092C39.5386 72.9518 39.5858 72.9989 39.6261 72.9653C39.7204 72.8867 39.7855 72.7925 39.8752 72.7072C39.892 72.6927 39.9044 72.6738 39.911 72.6526C39.9176 72.6313 39.9181 72.6087 39.9125 72.5873C39.9069 72.5658 39.8954 72.5463 39.8793 72.531C39.8632 72.5157 39.8431 72.5052 39.8214 72.5008Z" fill="#263238"/>
<path d="M37.3301 45.9607L47.2569 56.0266L49.1641 47.1656C49.1641 47.1656 46.577 44.832 43.2449 44.832C40.3481 44.832 37.3301 45.9607 37.3301 45.9607Z" fill="#EBEBEB"/>
<path d="M40.2469 46.672C40.3771 47.3317 43.0562 51.4537 46.0271 50.9151C48.1161 50.5359 47.5013 46.322 47.5013 46.322L49.0361 40.4655L41.7817 35.4932C41.7817 35.4932 40.1931 46.3915 40.2469 46.672Z" fill="#F7A9A0"/>
<path d="M41.228 39.3212C41.773 40.8101 42.6186 42.171 43.7122 43.3191C44.8059 44.4671 46.1241 45.3778 47.5849 45.9944L49.0366 40.4655L41.7823 35.4932C41.7823 35.4932 41.5309 37.2232 41.228 39.3212Z" fill="#263238"/>
<path d="M56.8697 31.333C58.2025 41.161 52.456 43.0638 50.3334 43.3488C48.4059 43.6046 41.8067 44.2463 39.4664 34.5978C37.1261 24.9492 41.2817 21.2379 45.6594 20.4167C50.0372 19.5954 55.5391 21.5049 56.8697 31.333Z" fill="#F7A9A0"/>
<path d="M54.3681 30.2356C54.142 30.2132 53.9173 30.1788 53.6949 30.1324C53.4506 30.1285 53.2143 30.045 53.0218 29.8946C52.9701 29.8358 52.9396 29.7615 52.9351 29.6834C52.9307 29.6053 52.9525 29.528 52.9971 29.4637C53.2013 29.199 53.5334 29.1698 53.8497 29.2079C54.1696 29.2362 54.4676 29.3816 54.6867 29.6163C54.7349 29.6732 54.7651 29.7431 54.7736 29.8172C54.782 29.8912 54.7683 29.9661 54.7342 30.0324C54.7001 30.0987 54.6471 30.1534 54.582 30.1895C54.5168 30.2257 54.4424 30.2417 54.3681 30.2356Z" fill="#A6A6A6"/>
<path d="M47.5304 30.8266C47.7578 30.7784 47.9824 30.7185 48.2036 30.6471C48.4471 30.6166 48.6736 30.5061 48.8476 30.333C48.8911 30.2682 48.9121 30.1909 48.9072 30.113C48.9024 30.0351 48.8719 29.961 48.8206 29.9021C48.7017 29.8001 48.5575 29.732 48.4031 29.7047C48.2488 29.6775 48.09 29.6922 47.9433 29.7473C47.6288 29.8116 47.3496 29.9908 47.1602 30.2499C47.1212 30.3107 47.1006 30.3813 47.1006 30.4535C47.1006 30.5257 47.1214 30.5963 47.1603 30.657C47.1993 30.7177 47.2549 30.766 47.3205 30.7961C47.3861 30.8261 47.459 30.8367 47.5304 30.8266Z" fill="#A6A6A6"/>
<path d="M49.1215 32.9306C49.1215 32.9059 49.0699 32.9665 49.0744 32.9934C49.1507 33.6666 49.126 34.4542 48.5314 34.7279C48.5134 34.7279 48.5179 34.7705 48.5314 34.7638C49.2786 34.5978 49.3032 33.5566 49.1215 32.9306Z" fill="#263238"/>
<path d="M48.4571 32.2734C47.3621 32.2734 47.4563 34.4679 48.4706 34.4612C49.4848 34.4545 49.3771 32.269 48.4571 32.2734Z" fill="#263238"/>
<path d="M48.0332 32.4077C47.8469 32.54 47.6697 32.7644 47.4386 32.7981C47.1738 32.8362 46.9629 32.6141 46.7789 32.4032C46.7587 32.3807 46.7407 32.4032 46.7407 32.4301C46.7542 32.8475 46.9337 33.2715 47.387 33.3142C47.7998 33.3546 48.0781 32.9709 48.1656 32.5445C48.1813 32.466 48.1005 32.3538 48.0332 32.4077Z" fill="#263238"/>
<path d="M53.0372 32.6585C53.0372 32.6316 53.0911 32.6877 53.0911 32.7168C53.0911 33.39 53.21 34.1708 53.8315 34.375C53.8517 34.375 53.8517 34.4154 53.8315 34.4132C53.0641 34.3324 52.9183 33.298 53.0372 32.6585Z" fill="#263238"/>
<path d="M53.6073 31.9277C54.6955 31.8065 54.8593 33.9898 53.8496 34.102C52.8399 34.2142 52.694 32.0287 53.6073 31.9277Z" fill="#263238"/>
<path d="M54.0737 32.0379C54.2554 32.1411 54.4417 32.3386 54.6481 32.3364C54.8545 32.3341 55.0498 32.085 55.1844 31.8472C55.1978 31.8225 55.218 31.8472 55.2203 31.8696C55.2629 32.287 55.1575 32.7313 54.7715 32.8412C54.3856 32.9512 54.1141 32.6011 53.9839 32.195C53.9503 32.1187 53.9996 31.9975 54.0737 32.0379Z" fill="#263238"/>
<path d="M49.7146 38.4925C49.8762 38.6518 50.0377 38.8717 50.2845 38.8941C50.5374 38.8896 50.7866 38.8323 51.016 38.7258C51.0206 38.7228 51.0261 38.7215 51.0315 38.7222C51.0369 38.723 51.0419 38.7256 51.0455 38.7298C51.0491 38.7339 51.051 38.7392 51.051 38.7447C51.0509 38.7502 51.0489 38.7554 51.0452 38.7595C50.9476 38.8927 50.8157 38.997 50.6637 39.0614C50.5116 39.1258 50.3449 39.1479 50.1813 39.1252C50.0431 39.0888 49.9189 39.0123 49.8242 38.9052C49.7296 38.7982 49.6688 38.6655 49.6495 38.5239C49.6383 38.4925 49.6899 38.4723 49.7146 38.4925Z" fill="#263238"/>
<path d="M52.4154 35.8941C52.4154 35.8941 52.6106 36.8971 52.6398 37.3751C52.6398 37.42 52.5276 37.4469 52.366 37.4648C52.366 37.4648 52.3526 37.4648 52.3458 37.4648C51.9411 37.5598 51.5181 37.5422 51.1226 37.4141C50.7271 37.2859 50.3742 37.0521 50.102 36.7378C50.0661 36.6929 50.1244 36.6391 50.1693 36.6683C50.8245 37.0946 51.5291 37.1776 52.2763 37.1484C52.3032 37.0138 51.8858 35.4409 51.9599 35.4319C52.2202 35.3938 52.7452 35.5441 53.0594 35.6181C52.7138 33.5157 52.0317 31.485 51.7131 29.3847C51.7111 29.3694 51.7147 29.3538 51.7232 29.3409C51.7317 29.3279 51.7446 29.3184 51.7594 29.3141C51.7743 29.3098 51.7902 29.3109 51.8044 29.3173C51.8185 29.3236 51.8299 29.3348 51.8365 29.3488C52.7026 31.4266 53.1536 33.8365 53.5665 35.9996C53.6136 36.2711 52.6106 35.9659 52.4154 35.8941Z" fill="#263238"/>
<path d="M39.7989 35.0532C41.9507 33.9963 42.0068 31.7278 42.0068 31.7278C43.7094 30.9488 45.174 29.7306 46.2499 28.1982C46.1871 28.4024 45.7383 29.8677 45.4848 30.6081C51.6935 29.3426 53.5379 24.5497 53.5379 24.5497C55.5911 26.5288 56.0062 27.8101 56.3203 28.4473C56.3203 28.4473 56.3001 24.6328 54.3009 22.1107C51.8326 19.0231 43.7099 18.3141 40.021 22.454C36.0427 26.9237 39.7989 35.0532 39.7989 35.0532Z" fill="#A6A6A6"/>
<path d="M51.0179 33.4388L50.7329 33.1381C51.157 32.6893 52.1735 32.0543 52.9768 32.815L52.7052 33.1291C51.9782 32.4492 51.0493 33.3984 51.0179 33.4388Z" fill="#37474F"/>
<path d="M37.2205 36.4568L36.8076 36.3648C36.8503 36.1696 37.2564 34.4643 38.1315 34.0738C38.9527 33.7103 44.596 32.7769 44.8339 32.7275L44.9034 33.1471C43.2856 33.4119 38.9393 34.1703 38.3043 34.4531C37.7254 34.7201 37.3304 35.9879 37.2205 36.4568Z" fill="#37474F"/>
<path d="M47.5288 35.8564C46.822 35.8183 46.1825 35.6702 45.8122 35.3919C44.8025 34.6335 44.181 31.8175 44.154 31.6986L44.0957 31.4248H44.3762C44.5893 31.4248 49.6447 31.4472 50.8071 32.5647C51.4331 33.1638 51.1077 34.647 50.6881 35.0935C50.1698 35.6432 48.7517 35.9192 47.5288 35.8564ZM44.6589 31.8781C44.8833 32.7891 45.4308 34.5415 46.0838 35.0329C46.9633 35.6926 49.7524 35.4301 50.3583 34.7838C50.65 34.4742 50.8991 33.276 50.4952 32.89C49.6896 32.1182 46.2476 31.905 44.6589 31.8781Z" fill="#37474F"/>
<path d="M54.5047 34.952C54.034 34.9541 53.5795 34.7804 53.2302 34.4651C52.9741 34.1466 52.7995 33.7705 52.7213 33.3694C52.6431 32.9683 52.6638 32.5542 52.7814 32.1629C53.2459 30.913 56.32 30.379 56.6678 30.3229L56.9348 30.2803V30.5495C56.9348 30.6617 56.8809 33.3005 56.4501 34.1397C56.2459 34.5413 55.7523 34.8263 55.1038 34.9206C54.9056 34.9507 54.7049 34.9612 54.5047 34.952ZM56.477 30.8166C55.4673 31.014 53.4994 31.5436 53.2122 32.3199C52.9542 33.011 53.2997 33.8906 53.5578 34.1554C53.8158 34.4202 54.4306 34.566 55.0387 34.4785C55.5369 34.4067 55.9138 34.2048 56.0507 33.94C56.3357 33.3813 56.4479 31.6939 56.477 30.8166Z" fill="#37474F"/>
<path d="M41.1446 34.4537C41.1446 34.4537 38.8312 31.4626 37.4625 32.3018C36.0937 33.141 37.9382 37.5435 39.6166 38.0775C39.8263 38.1608 40.0506 38.2009 40.2762 38.1955C40.5017 38.1901 40.7239 38.1393 40.9294 38.0461C41.1349 37.9529 41.3195 37.8192 41.4721 37.653C41.6247 37.4869 41.7423 37.2916 41.8178 37.079L41.1446 34.4537Z" fill="#F7A9A0"/>
<path d="M38.0232 33.5566C37.9985 33.5566 37.994 33.5925 38.0232 33.5993C39.2034 34.0144 39.8654 35.0555 40.3433 36.146C39.9798 35.7332 39.4996 35.5223 38.9454 35.9576C38.9162 35.98 38.9454 36.0271 38.9813 36.0181C39.1815 35.944 39.3998 35.9336 39.6063 35.9882C39.8127 36.0428 39.9972 36.1598 40.1346 36.3233C40.3617 36.6009 40.5588 36.9017 40.7225 37.2208C40.7808 37.3218 40.9648 37.2567 40.92 37.1401L40.9087 37.1131C40.8616 35.6367 39.6163 33.6307 38.0232 33.5566Z" fill="#263238"/>
<path d="M47.5399 45.8978L45.6528 50.0803L40.5907 44.4707L39.02 46.1356C39.02 46.1356 43.8376 54.9113 43.8824 54.5254L45.7897 50.9352L48.2131 53.5942L48.2759 47.179L47.5399 45.8978Z" fill="#EBEBEB"/>
<path d="M48.4238 50.4188C48.3991 49.3597 48.4036 48.2917 48.3295 47.2348C48.3295 47.1967 48.269 47.1787 48.2577 47.2213C48.0042 48.2333 48.1209 52.2857 48.076 53.2528V53.2416C47.975 53.1272 45.8321 50.8968 45.8007 50.9304C45.3946 51.4981 44.0056 54.1145 43.8979 54.3545C43.1373 52.9611 39.8904 47.4592 38.9749 46.1331C38.9705 46.1245 38.9628 46.118 38.9535 46.115C38.9442 46.1121 38.9342 46.1129 38.9256 46.1174C38.9169 46.1218 38.9104 46.1295 38.9075 46.1388C38.9045 46.1481 38.9054 46.1581 38.9099 46.1667C39.583 47.632 43.7633 54.8886 43.8261 54.8729C43.8688 54.9088 45.6055 51.6866 45.8232 51.0718C46.1822 51.5542 48.343 54.0584 48.3587 53.9013C48.441 52.7424 48.4627 51.58 48.4238 50.4188Z" fill="#263238"/>
<path d="M61.264 98.8176H32.2466L32.9534 91.8438H60.5572L61.264 98.8176Z" fill="#FFC727"/>
<path opacity="0.1" d="M59.9084 97.9314H33.6016L34.1064 92.7324H59.3991L59.9084 97.9314Z" fill="black"/>
<g opacity="0.2">
<path d="M39.0046 96.0482C39.032 96.1712 39.1019 96.2805 39.2021 96.3569C39.3023 96.4333 39.4263 96.4718 39.5521 96.4656C39.7226 96.4652 39.8874 96.4043 40.0173 96.2938C40.1471 96.1832 40.2335 96.0303 40.2611 95.862L40.4653 94.114C40.4745 94.0472 40.5075 93.9859 40.5582 93.9414C40.6088 93.8969 40.6739 93.8721 40.7413 93.8717C40.773 93.8693 40.8048 93.8741 40.8343 93.8857C40.8639 93.8973 40.8904 93.9154 40.912 93.9387C40.9336 93.962 40.9496 93.9899 40.9589 94.0202C40.9682 94.0506 40.9705 94.0827 40.9657 94.114L40.7795 95.862C40.7317 96.1672 40.5763 96.4452 40.3412 96.6457C40.1062 96.8461 39.8071 96.9558 39.4982 96.9547C39.2699 96.9672 39.0447 96.8976 38.8632 96.7585C38.6818 96.6194 38.556 96.42 38.5087 96.1963C38.499 96.1295 38.5145 96.0614 38.5522 96.0054C38.59 95.9494 38.6473 95.9094 38.7129 95.8934C38.7422 95.8831 38.7733 95.8789 38.8042 95.8813C38.8352 95.8836 38.8653 95.8923 38.8927 95.9068C38.9201 95.9214 38.9442 95.9415 38.9635 95.9658C38.9827 95.9901 38.9967 96.0182 39.0046 96.0482Z" fill="black"/>
<path d="M42.761 96.9554C42.5935 96.9644 42.426 96.9373 42.2698 96.876C42.1137 96.8146 41.9725 96.7205 41.8559 96.5998C41.7393 96.4792 41.65 96.3349 41.594 96.1768C41.538 96.0186 41.5167 95.8503 41.5314 95.6832L41.6772 94.1125C41.6833 94.0464 41.7139 93.985 41.7628 93.9402C41.8118 93.8954 41.8756 93.8704 41.942 93.8701C41.973 93.87 42.0037 93.8764 42.0322 93.8888C42.0607 93.9011 42.0863 93.9193 42.1074 93.9421C42.1284 93.9648 42.1446 93.9917 42.1547 94.0211C42.1649 94.0504 42.1689 94.0815 42.1664 94.1125L42.034 95.6832C42.0263 95.7859 42.0404 95.889 42.0755 95.9859C42.1105 96.0827 42.1657 96.171 42.2373 96.245C42.309 96.319 42.3955 96.377 42.4912 96.4151C42.5868 96.4532 42.6895 96.4707 42.7924 96.4663C43.0093 96.4694 43.2193 96.3904 43.3803 96.2452C43.5414 96.0999 43.6415 95.8992 43.6608 95.6832L43.746 94.1125C43.7501 94.0464 43.7793 93.9844 43.8278 93.9393C43.8762 93.8942 43.9401 93.8694 44.0063 93.8701C44.0374 93.87 44.0681 93.8764 44.0966 93.8888C44.125 93.9011 44.1506 93.9193 44.1717 93.9421C44.1928 93.9648 44.2089 93.9917 44.2191 94.0211C44.2292 94.0504 44.2332 94.0815 44.2307 94.1125L44.1589 95.6832C44.13 96.0327 43.9697 96.3583 43.7103 96.5944C43.4509 96.8304 43.1117 96.9595 42.761 96.9554Z" fill="black"/>
<path d="M45.0786 96.713L45.1504 94.1147C45.151 94.0817 45.1582 94.0491 45.1715 94.0189C45.1849 93.9888 45.2042 93.9616 45.2283 93.939C45.2523 93.9164 45.2807 93.8988 45.3116 93.8874C45.3426 93.8759 45.3755 93.8708 45.4085 93.8723H45.9291C46.3379 93.8777 46.7279 94.0452 47.0132 94.3381C47.2985 94.631 47.4557 95.0252 47.4504 95.4341C47.445 95.8429 47.2775 96.2329 46.9846 96.5182C46.6917 96.8035 46.2975 96.9607 45.8887 96.9554H45.3367C45.3035 96.9579 45.2701 96.9534 45.2387 96.9423C45.2074 96.9313 45.1786 96.9138 45.1543 96.891C45.1301 96.8682 45.1108 96.8406 45.0978 96.81C45.0847 96.7793 45.0782 96.7463 45.0786 96.713ZM45.5992 96.4662H45.8864C46.0286 96.4743 46.171 96.4536 46.3049 96.4052C46.4389 96.3568 46.5617 96.2818 46.6658 96.1846C46.77 96.0875 46.8534 95.9703 46.911 95.84C46.9687 95.7098 46.9993 95.5692 47.0011 95.4268C47.003 95.2844 46.9759 95.1431 46.9216 95.0114C46.8673 94.8797 46.787 94.7604 46.6853 94.6606C46.5836 94.5609 46.4628 94.4827 46.3302 94.4309C46.1975 94.3791 46.0557 94.3548 45.9133 94.3592H45.6329L45.5992 96.4662Z" fill="black"/>
<path d="M48.2403 95.3733C48.2346 95.1645 48.2711 94.9567 48.3477 94.7624C48.4244 94.5681 48.5395 94.3913 48.6863 94.2427C48.833 94.0941 49.0083 93.9767 49.2016 93.8976C49.3949 93.8185 49.6022 93.7793 49.811 93.7824C50.1828 93.7841 50.5444 93.9044 50.8432 94.1257C50.9005 94.163 50.9409 94.2212 50.9556 94.288C50.9703 94.3548 50.9581 94.4246 50.9217 94.4825C50.8794 94.5354 50.8179 94.5693 50.7506 94.5769C50.6833 94.5845 50.6157 94.565 50.5627 94.5229C50.3535 94.3701 50.1015 94.2869 49.8424 94.285C49.6965 94.2815 49.5514 94.3082 49.4162 94.3634C49.2811 94.4186 49.1588 94.5012 49.0571 94.6059C48.9548 94.7049 48.8747 94.8245 48.8221 94.9568C48.7695 95.0891 48.7456 95.2311 48.7519 95.3733C48.7589 95.5187 48.7958 95.661 48.8603 95.7915C48.9248 95.922 49.0154 96.0378 49.1267 96.1317C49.3575 96.3425 49.66 96.4572 49.9726 96.4526C50.1914 96.4524 50.4064 96.3952 50.5964 96.2865L50.5515 95.6829H49.9008C49.832 95.6822 49.7658 95.6562 49.7149 95.6099C49.664 95.5635 49.632 95.5001 49.6248 95.4316C49.6232 95.399 49.6284 95.3664 49.6401 95.3359C49.6518 95.3054 49.6698 95.2776 49.6928 95.2544C49.7158 95.2312 49.7433 95.213 49.7738 95.201C49.8042 95.189 49.8367 95.1835 49.8694 95.1848H50.7669C50.8363 95.1832 50.9038 95.2077 50.9562 95.2534C51.0085 95.299 51.0418 95.3626 51.0496 95.4316L51.1304 96.4055C51.1327 96.4301 51.1327 96.4549 51.1304 96.4795C51.1304 96.4795 51.1304 96.493 51.1304 96.5019C51.1166 96.5455 51.0881 96.5828 51.0496 96.6074C50.7536 96.8339 50.3902 96.9547 50.0175 96.9507C49.0616 96.9552 48.2673 96.2551 48.2403 95.3733Z" fill="black"/>
<path d="M52.212 96.7124L51.9517 94.114C51.9468 94.0827 51.9492 94.0506 51.9585 94.0202C51.9678 93.9899 51.9838 93.962 52.0054 93.9387C52.0269 93.9154 52.0535 93.8973 52.083 93.8857C52.1126 93.8741 52.1444 93.8693 52.176 93.8717H53.6188C53.6858 93.8739 53.7499 93.8993 53.8002 93.9435C53.8505 93.9877 53.884 94.0479 53.8948 94.114C53.8998 94.1444 53.898 94.1755 53.8896 94.2051C53.8812 94.2347 53.8664 94.2622 53.8463 94.2855C53.8263 94.3088 53.8013 94.3274 53.7732 94.34C53.7452 94.3527 53.7147 94.359 53.6839 94.3586H52.4767L52.5642 95.1664H53.6188C53.6862 95.1689 53.7507 95.1942 53.8017 95.2383C53.8527 95.2823 53.8871 95.3425 53.8993 95.4087C53.9025 95.44 53.899 95.4716 53.8891 95.5015C53.8793 95.5314 53.8633 95.5588 53.8421 95.5821C53.8209 95.6054 53.7951 95.6239 53.7663 95.6366C53.7375 95.6493 53.7064 95.6557 53.6749 95.6556H52.6114L52.7011 96.4656H53.9554C54.0246 96.4675 54.0911 96.493 54.1437 96.5379C54.1964 96.5828 54.2321 96.6444 54.2449 96.7124C54.2474 96.7433 54.2434 96.7745 54.2332 96.8038C54.2231 96.8331 54.2069 96.86 54.1859 96.8828C54.1648 96.9056 54.1392 96.9237 54.1107 96.9361C54.0823 96.9485 54.0515 96.9548 54.0205 96.9547H52.5081C52.4969 96.9547 52.4969 96.9547 52.4969 96.9547C52.4281 96.956 52.3611 96.9321 52.3086 96.8874C52.2562 96.8428 52.2218 96.7806 52.212 96.7124Z" fill="black"/>
</g>
<path d="M38.8837 95.9672C38.9115 96.0903 38.9819 96.1997 39.0825 96.276C39.1831 96.3524 39.3073 96.3908 39.4334 96.3845C39.6039 96.3841 39.7688 96.3232 39.8986 96.2127C40.0285 96.1022 40.1149 95.9492 40.1425 95.7809L40.3467 94.033C40.3559 93.9661 40.3888 93.9049 40.4395 93.8603C40.4902 93.8158 40.5552 93.7911 40.6227 93.7906C40.6543 93.7882 40.6861 93.793 40.7157 93.8046C40.7452 93.8162 40.7718 93.8344 40.7934 93.8577C40.8149 93.881 40.831 93.9088 40.8403 93.9392C40.8496 93.9695 40.8519 94.0016 40.8471 94.033L40.6608 95.7809C40.6131 96.0861 40.4576 96.3641 40.2226 96.5646C39.9876 96.7651 39.6885 96.8747 39.3796 96.8737C39.1513 96.8861 38.9261 96.8165 38.7446 96.6774C38.5631 96.5384 38.4374 96.339 38.39 96.1153C38.3803 96.0484 38.3958 95.9803 38.4336 95.9243C38.4713 95.8683 38.5286 95.8284 38.5942 95.8123C38.6234 95.8024 38.6543 95.7985 38.6849 95.801C38.7156 95.8035 38.7455 95.8123 38.7726 95.8268C38.7998 95.8413 38.8237 95.8613 38.8428 95.8854C38.8619 95.9096 38.8758 95.9374 38.8837 95.9672Z" fill="white"/>
<path d="M42.6424 96.8744C42.4748 96.8833 42.3072 96.8562 42.151 96.7949C41.9947 96.7336 41.8535 96.6394 41.7367 96.5188C41.6199 96.3982 41.5304 96.254 41.4741 96.0959C41.4179 95.9377 41.3962 95.7693 41.4106 95.6021L41.5586 94.0314C41.5648 93.9653 41.5953 93.9039 41.6442 93.8591C41.6932 93.8143 41.7571 93.7894 41.8234 93.7891C41.8545 93.789 41.8852 93.7953 41.9136 93.8077C41.9421 93.8201 41.9677 93.8382 41.9888 93.861C42.0099 93.8838 42.026 93.9107 42.0362 93.94C42.0463 93.9694 42.0503 94.0005 42.0478 94.0314L41.9154 95.6021C41.9077 95.7048 41.9219 95.808 41.9569 95.9048C41.992 96.0017 42.0471 96.09 42.1188 96.164C42.1904 96.2379 42.2769 96.2959 42.3726 96.334C42.4683 96.3722 42.5709 96.3896 42.6738 96.3852C42.8905 96.3878 43.1003 96.3086 43.2612 96.1635C43.4221 96.0184 43.5225 95.8179 43.5422 95.6021L43.6275 94.0314C43.6315 93.9653 43.6608 93.9033 43.7092 93.8582C43.7577 93.8131 43.8216 93.7884 43.8878 93.7891C43.9188 93.789 43.9495 93.7953 43.978 93.8077C44.0065 93.8201 44.032 93.8382 44.0531 93.861C44.0742 93.8838 44.0904 93.9107 44.1005 93.94C44.1107 93.9694 44.1146 94.0005 44.1121 94.0314L44.0403 95.6021C44.0114 95.9516 43.8511 96.2772 43.5917 96.5133C43.3323 96.7494 42.9931 96.8784 42.6424 96.8744Z" fill="white"/>
<path d="M44.9604 96.6317L45.0345 94.0334C45.0357 93.9683 45.0625 93.9063 45.1092 93.8609C45.1558 93.8155 45.2185 93.7904 45.2836 93.791H45.8041C46.0066 93.7937 46.2065 93.8362 46.3925 93.9161C46.5785 93.996 46.747 94.1118 46.8882 94.2568C47.0295 94.4018 47.1408 94.5732 47.2159 94.7613C47.2909 94.9493 47.3281 95.1503 47.3255 95.3527C47.3228 95.5552 47.2803 95.7551 47.2004 95.9411C47.1205 96.1271 47.0047 96.2956 46.8597 96.4369C46.7147 96.5781 46.5432 96.6894 46.3552 96.7645C46.1672 96.8395 45.9662 96.8767 45.7637 96.8741H45.2118C45.1792 96.8753 45.1467 96.8699 45.1163 96.8583C45.0858 96.8466 45.058 96.829 45.0346 96.8063C45.0111 96.7837 44.9925 96.7566 44.9797 96.7266C44.967 96.6966 44.9604 96.6643 44.9604 96.6317ZM45.4833 96.3849H45.7705C45.9127 96.393 46.055 96.3723 46.189 96.3239C46.323 96.2755 46.4457 96.2005 46.5499 96.1033C46.6541 96.0062 46.7375 95.889 46.7951 95.7587C46.8527 95.6285 46.8834 95.4879 46.8852 95.3455C46.887 95.2031 46.86 95.0618 46.8057 94.9301C46.7514 94.7984 46.671 94.6791 46.5694 94.5793C46.4677 94.4796 46.3469 94.4014 46.2142 94.3496C46.0816 94.2978 45.9398 94.2734 45.7974 94.2779H45.5214L45.4833 96.3849Z" fill="white"/>
<path d="M48.1217 95.2922C48.1159 95.0834 48.1524 94.8757 48.2291 94.6814C48.3057 94.4871 48.4209 94.3103 48.5676 94.1617C48.7143 94.013 48.8896 93.8956 49.0829 93.8165C49.2762 93.7374 49.4835 93.6982 49.6924 93.7013C50.0641 93.7034 50.4256 93.8236 50.7246 94.0447C50.7819 94.0819 50.8222 94.1402 50.8369 94.2069C50.8516 94.2737 50.8395 94.3436 50.8031 94.4014C50.7608 94.4543 50.6992 94.4883 50.6319 94.4958C50.5646 94.5034 50.4971 94.484 50.4441 94.4418C50.2348 94.289 49.9829 94.2058 49.7238 94.204C49.5778 94.2004 49.4327 94.2271 49.2976 94.2823C49.1624 94.3375 49.0402 94.4201 48.9384 94.5248C48.8359 94.6237 48.7554 94.7433 48.7024 94.8755C48.6494 95.0078 48.6251 95.1499 48.631 95.2922C48.6391 95.4374 48.6764 95.5794 48.7408 95.7098C48.8052 95.8401 48.8953 95.9561 49.0058 96.0507C49.2376 96.2612 49.5408 96.3759 49.8539 96.3715C50.0727 96.371 50.2876 96.3138 50.4777 96.2055L50.4329 95.6019H49.7799C49.7113 95.6011 49.6454 95.575 49.5949 95.5286C49.5444 95.4822 49.5128 95.4188 49.5061 95.3506C49.5046 95.3179 49.5098 95.2853 49.5215 95.2548C49.5332 95.2243 49.5511 95.1965 49.5741 95.1733C49.5971 95.1501 49.6247 95.132 49.6551 95.12C49.6855 95.108 49.7181 95.1025 49.7507 95.1037H50.6483C50.7177 95.1022 50.7852 95.1266 50.8375 95.1723C50.8898 95.218 50.9232 95.2816 50.931 95.3506L51.0095 96.3244C51.013 96.349 51.013 96.3739 51.0095 96.3984C51.0085 96.4059 51.0085 96.4134 51.0095 96.4209C50.9957 96.4644 50.9672 96.5017 50.9287 96.5263C50.6327 96.7528 50.2693 96.8737 49.8966 96.8697C48.9429 96.8741 48.1464 96.1741 48.1217 95.2922Z" fill="white"/>
<path d="M52.0933 96.6314L51.833 94.033C51.8282 94.0016 51.8305 93.9695 51.8398 93.9392C51.8491 93.9088 51.8652 93.881 51.8867 93.8577C51.9083 93.8344 51.9348 93.8162 51.9644 93.8046C51.9939 93.793 52.0257 93.7882 52.0574 93.7906H53.4867C53.5537 93.7929 53.6178 93.8182 53.6681 93.8624C53.7184 93.9066 53.7519 93.9669 53.7627 94.033C53.7655 94.063 53.7622 94.0933 53.753 94.122C53.7438 94.1507 53.7289 94.1772 53.7092 94.2001C53.6895 94.2229 53.6654 94.2415 53.6384 94.2548C53.6113 94.2681 53.5819 94.2759 53.5518 94.2776H52.3446L52.4321 95.0853H53.4867C53.5541 95.0878 53.6186 95.1132 53.6696 95.1572C53.7206 95.2013 53.755 95.2614 53.7672 95.3277C53.7704 95.359 53.7669 95.3906 53.757 95.4205C53.7472 95.4503 53.7311 95.4778 53.71 95.5011C53.6888 95.5243 53.663 95.5429 53.6342 95.5555C53.6054 95.5682 53.5743 95.5747 53.5428 95.5745H52.4792L52.5892 96.3845H53.8435C53.9127 96.3864 53.9791 96.4119 54.0318 96.4568C54.0845 96.5017 54.1202 96.5633 54.133 96.6314C54.1354 96.6623 54.1315 96.6934 54.1213 96.7227C54.1112 96.7521 54.095 96.779 54.0739 96.8018C54.0528 96.8245 54.0273 96.8427 53.9988 96.8551C53.9703 96.8674 53.9396 96.8738 53.9086 96.8737H52.3962C52.385 96.8737 52.385 96.8737 52.385 96.8737C52.315 96.8766 52.2464 96.8535 52.1925 96.8087C52.1386 96.7639 52.1032 96.7007 52.0933 96.6314Z" fill="white"/>
<path d="M38.9264 96.0086C38.9542 96.1319 39.0245 96.2416 39.125 96.3183C39.2256 96.395 39.3499 96.4339 39.4762 96.4282C39.6466 96.4273 39.8112 96.3663 39.9409 96.2558C40.0706 96.1454 40.1572 95.9926 40.1852 95.8246L40.3894 94.0744C40.3981 94.0077 40.4306 93.9465 40.4809 93.9019C40.5312 93.8574 40.596 93.8326 40.6632 93.832C40.6942 93.8319 40.7249 93.8383 40.7534 93.8507C40.7819 93.863 40.8074 93.8812 40.8285 93.904C40.8496 93.9267 40.8657 93.9536 40.8759 93.983C40.8861 94.0123 40.89 94.0434 40.8875 94.0744L40.6991 95.8246C40.6518 96.1296 40.4968 96.4076 40.2621 96.6081C40.0275 96.8085 39.7287 96.9183 39.4201 96.9173C39.1916 96.9294 38.9663 96.8597 38.7845 96.7207C38.6028 96.5817 38.4765 96.3826 38.4283 96.1589C38.4191 96.0918 38.4352 96.0237 38.4733 95.9678C38.5114 95.9118 38.5689 95.872 38.6347 95.856C38.6638 95.8456 38.6948 95.8414 38.7256 95.8436C38.7565 95.8457 38.7865 95.8543 38.8139 95.8686C38.8413 95.8829 38.8654 95.9027 38.8848 95.9268C38.9041 95.9509 38.9183 95.9787 38.9264 96.0086Z" fill="#FFC727"/>
<path d="M42.6849 96.9166C42.5172 96.9253 42.3495 96.8979 42.1933 96.8363C42.037 96.7747 41.8958 96.6803 41.7791 96.5596C41.6624 96.4388 41.5729 96.2944 41.5166 96.1362C41.4604 95.9779 41.4387 95.8095 41.453 95.6421L41.6011 94.0714C41.6072 94.0054 41.6378 93.9439 41.6867 93.8991C41.7357 93.8543 41.7995 93.8294 41.8659 93.8291C41.8969 93.829 41.9276 93.8353 41.9561 93.8477C41.9846 93.8601 42.0102 93.8783 42.0312 93.901C42.0523 93.9238 42.0685 93.9507 42.0786 93.9801C42.0888 94.0094 42.0928 94.0405 42.0903 94.0714L41.9579 95.6421C41.9502 95.7449 41.9644 95.8482 41.9994 95.9452C42.0344 96.0421 42.0895 96.1306 42.1612 96.2047C42.2328 96.2789 42.3192 96.337 42.4149 96.3754C42.5106 96.4138 42.6133 96.4316 42.7163 96.4275C42.9333 96.4305 43.1433 96.3512 43.304 96.2054C43.4648 96.0596 43.5643 95.8584 43.5824 95.6421L43.6677 94.0714C43.6728 94.0058 43.7023 93.9444 43.7506 93.8995C43.7988 93.8546 43.8621 93.8295 43.928 93.8291C43.959 93.829 43.9897 93.8353 44.0182 93.8477C44.0467 93.8601 44.0723 93.8783 44.0933 93.901C44.1144 93.9238 44.1306 93.9507 44.1407 93.9801C44.1509 94.0094 44.1548 94.0405 44.1524 94.0714L44.0806 95.6421C44.0522 95.9917 43.8925 96.3175 43.6335 96.554C43.3745 96.7905 43.0356 96.9201 42.6849 96.9166Z" fill="#FFC727"/>
<path d="M45 96.6754L45.074 94.0747C45.0743 94.0424 45.081 94.0105 45.0937 93.9808C45.1064 93.9511 45.1249 93.9242 45.1481 93.9016C45.1712 93.8791 45.1986 93.8614 45.2287 93.8495C45.2587 93.8376 45.2908 93.8318 45.3231 93.8324H45.8437C46.051 93.8279 46.2571 93.8652 46.4496 93.9421C46.6422 94.019 46.8173 94.1338 46.9645 94.2799C47.1117 94.4259 47.228 94.6001 47.3064 94.7921C47.3848 94.984 47.4237 95.1898 47.4208 95.3971C47.418 95.6045 47.3734 95.8091 47.2897 95.9988C47.206 96.1885 47.085 96.3594 46.9338 96.5013C46.7826 96.6432 46.6044 96.7533 46.4098 96.8248C46.2152 96.8963 46.0082 96.9279 45.8011 96.9177H45.2513C45.2187 96.9189 45.1863 96.9135 45.1558 96.9019C45.1254 96.8902 45.0976 96.8726 45.0741 96.85C45.0507 96.8273 45.032 96.8002 45.0193 96.7702C45.0065 96.7402 45 96.7079 45 96.6754ZM45.5206 96.4285H45.8078C45.9499 96.4368 46.0923 96.4161 46.2263 96.3678C46.3602 96.3196 46.483 96.2447 46.5873 96.1477C46.6915 96.0506 46.775 95.9335 46.8328 95.8033C46.8905 95.6732 46.9213 95.5327 46.9233 95.3903C46.9252 95.2479 46.8984 95.1066 46.8442 94.9749C46.7901 94.8432 46.7099 94.7238 46.6084 94.6239C46.5069 94.524 46.3862 94.4458 46.2536 94.3938C46.121 94.3418 45.9793 94.3173 45.837 94.3216H45.561L45.5206 96.4285Z" fill="#FFC727"/>
<path d="M48.1642 95.3352C48.1584 95.1264 48.1949 94.9186 48.2716 94.7243C48.3482 94.53 48.4633 94.3533 48.6101 94.2046C48.7568 94.056 48.9321 93.9386 49.1254 93.8595C49.3187 93.7804 49.526 93.7412 49.7349 93.7443C50.1066 93.7464 50.4681 93.8666 50.767 94.0876C50.8239 94.1252 50.8639 94.1835 50.8785 94.2501C50.8932 94.3167 50.8814 94.3864 50.8456 94.4444C50.8029 94.4968 50.7414 94.5303 50.6743 94.5379C50.6072 94.5454 50.5398 94.5264 50.4866 94.4848C50.2773 94.332 50.0254 94.2488 49.7663 94.2469C49.62 94.2436 49.4746 94.2704 49.3392 94.3256C49.2037 94.3808 49.081 94.4632 48.9787 94.5678C48.8766 94.667 48.7967 94.7866 48.7441 94.9189C48.6915 95.0511 48.6674 95.193 48.6735 95.3352C48.6813 95.4804 48.7185 95.6225 48.783 95.7529C48.8474 95.8833 48.9376 95.9992 49.0482 96.0936C49.246 96.2704 49.4945 96.3803 49.7584 96.4077C50.0223 96.4351 50.2881 96.3786 50.518 96.2462L50.4753 95.6426H49.8291C49.7604 95.6423 49.6942 95.6164 49.6436 95.5699C49.593 95.5234 49.5615 95.4598 49.5554 95.3913C49.5522 95.3584 49.5564 95.3252 49.5676 95.2941C49.5788 95.263 49.5967 95.2348 49.6201 95.2114C49.6434 95.1881 49.6717 95.1701 49.7028 95.159C49.7339 95.1478 49.767 95.1436 49.7999 95.1467H50.6975C50.7666 95.1451 50.8338 95.1692 50.886 95.2144C50.9383 95.2597 50.9719 95.3227 50.9802 95.3913L51.0587 96.3651C51.0612 96.3905 51.0612 96.416 51.0587 96.4414C51.0577 96.4489 51.0577 96.4564 51.0587 96.4639C51.0456 96.5083 51.0169 96.5465 50.978 96.5716C50.6819 96.798 50.3185 96.9189 49.9458 96.9149C48.9854 96.9171 48.1888 96.217 48.1642 95.3352Z" fill="#FFC727"/>
<path d="M52.1402 96.675L51.8777 94.0744C51.8752 94.0434 51.8792 94.0123 51.8893 93.983C51.8995 93.9536 51.9156 93.9267 51.9367 93.904C51.9578 93.8812 51.9834 93.863 52.0118 93.8507C52.0403 93.8383 52.071 93.8319 52.1021 93.832H53.5449C53.6117 93.8347 53.6755 93.8602 53.7258 93.9043C53.776 93.9484 53.8096 94.0085 53.8208 94.0744C53.8239 94.1046 53.8209 94.1351 53.8118 94.164C53.8028 94.193 53.7879 94.2198 53.7682 94.2429C53.7485 94.266 53.7243 94.2848 53.6971 94.2983C53.6699 94.3117 53.6402 94.3195 53.6099 94.3212H52.4027L52.4902 95.129H53.5449C53.6122 95.1314 53.6767 95.1568 53.7277 95.2009C53.7787 95.2449 53.8131 95.305 53.8253 95.3713C53.8285 95.4026 53.825 95.4342 53.8152 95.4641C53.8053 95.494 53.7893 95.5214 53.7681 95.5447C53.7469 95.568 53.7211 95.5865 53.6923 95.5992C53.6635 95.6118 53.6324 95.6183 53.601 95.6181H52.5374L52.6271 96.4282H53.8814C53.9506 96.4301 54.0171 96.4556 54.0697 96.5005C54.1224 96.5454 54.1581 96.607 54.1709 96.675C54.1734 96.7059 54.1694 96.7371 54.1593 96.7664C54.1491 96.7957 54.133 96.8226 54.1119 96.8454C54.0908 96.8682 54.0652 96.8863 54.0367 96.8987C54.0083 96.9111 53.9775 96.9174 53.9465 96.9173H52.4319C52.3619 96.9203 52.2933 96.8971 52.2394 96.8523C52.1855 96.8075 52.1502 96.7444 52.1402 96.675Z" fill="#FFC727"/>
</svg>
