<svg width="111" height="107" viewBox="0 0 111 107" fill="none" xmlns="http://www.w3.org/2000/svg">
<path d="M82.587 85.7594H28.6255L32.8858 81.6475H78.3268L82.587 85.7594Z" fill="white" stroke="#263238" stroke-width="0.210807" stroke-linecap="round" stroke-linejoin="round"/>
<path d="M76.5907 83.2361C76.5907 84.0758 66.8189 84.7672 54.7575 84.7672C42.6961 84.7672 32.9243 84.0814 32.9243 83.2361C32.9243 82.3907 42.6961 81.7021 54.7575 81.7021C66.8189 81.7021 76.5907 82.3879 76.5907 83.2361Z" fill="#92E3A9"/>
<path opacity="0.5" d="M76.5907 83.2361C76.5907 84.0758 66.8189 84.7672 54.7575 84.7672C42.6961 84.7672 32.9243 84.0814 32.9243 83.2361C32.9243 82.3907 42.6961 81.7021 54.7575 81.7021C66.8189 81.7021 76.5907 82.3879 76.5907 83.2361Z" fill="white"/>
<path d="M82.587 85.7607H28.6255V89.5704H82.587V85.7607Z" fill="#263238" stroke="#263238" stroke-width="0.210807" stroke-linecap="round" stroke-linejoin="round"/>
<path d="M86.4047 93.6804H24.8071L28.6251 89.5713H82.5867L86.4047 93.6804Z" fill="white" stroke="#263238" stroke-width="0.210807" stroke-linecap="round" stroke-linejoin="round"/>
<path d="M86.393 93.6797H24.8179V97.688H86.393V93.6797Z" fill="#263238" stroke="#263238" stroke-width="0.210807" stroke-linecap="round" stroke-linejoin="round"/>
<path d="M55.0098 45.1196V19.4992H64.7591V8.71973" stroke="#263238" stroke-width="0.210807" stroke-miterlimit="10"/>
<path d="M58.8188 19.3788V8.71973" stroke="#263238" stroke-width="0.210807" stroke-miterlimit="10"/>
<path d="M55.7373 49.2043H100.624V42.8223H109.203" stroke="#263238" stroke-width="0.210807" stroke-miterlimit="10"/>
<path d="M53.5371 48.9827H10.8532V42.1641H1.61328" stroke="#263238" stroke-width="0.210807" stroke-miterlimit="10"/>
<path d="M46.2762 1.89941V11.5816H40.7759V17.7397H47.5974V38.4224" stroke="#263238" stroke-width="0.210807" stroke-miterlimit="10"/>
<path d="M76.4194 30.5012V16.6399H80.1591V10.7002H83.2409" stroke="#263238" stroke-width="0.210807" stroke-miterlimit="10"/>
<path d="M31.097 29.1812V18.6201L28.0151 15.5383V7.83789" stroke="#263238" stroke-width="0.210807" stroke-miterlimit="10"/>
<path d="M84.7808 35.3424H92.4812V30.2816H97.542V27.4209H101.942" stroke="#263238" stroke-width="0.210807" stroke-miterlimit="10"/>
<path d="M23.3934 37.1037H15.2535V30.7217H3.81348" stroke="#263238" stroke-width="0.210807" stroke-miterlimit="10"/>
<path d="M30.8754 71.6445V77.3659H27.1357V83.7479H16.3535" stroke="#263238" stroke-width="0.210807" stroke-miterlimit="10"/>
<path d="M72.0195 72.5264V78.4661H80.5988V76.0477H83.0201V81.1057H90.5022" stroke="#263238" stroke-width="0.210807" stroke-miterlimit="10"/>
<path d="M65.3858 8.7216C65.3853 8.84549 65.348 8.96644 65.2788 9.06918C65.2096 9.17192 65.1115 9.25185 64.9968 9.29888C64.8822 9.3459 64.7562 9.35792 64.6348 9.33341C64.5134 9.30891 64.4019 9.24897 64.3145 9.16117C64.2271 9.07337 64.1676 8.96165 64.1437 8.8401C64.1197 8.71855 64.1323 8.59262 64.1798 8.47821C64.2274 8.36381 64.3077 8.26605 64.4108 8.19727C64.5138 8.1285 64.6349 8.0918 64.7588 8.0918C64.8414 8.0918 64.9232 8.10811 64.9994 8.13979C65.0757 8.17148 65.1449 8.21791 65.2032 8.27643C65.2614 8.33495 65.3076 8.4044 65.3389 8.4808C65.3703 8.55719 65.3862 8.63903 65.3858 8.7216Z" fill="#263238" stroke="#263238" stroke-width="0.210807" stroke-linecap="round" stroke-linejoin="round"/>
<path d="M59.4684 8.7216C59.4678 8.84549 59.4306 8.96644 59.3613 9.06918C59.2921 9.17192 59.194 9.25185 59.0794 9.29888C58.9647 9.3459 58.8388 9.35792 58.7173 9.33341C58.5959 9.30891 58.4844 9.24897 58.397 9.16117C58.3096 9.07337 58.2502 8.96165 58.2262 8.8401C58.2022 8.71855 58.2148 8.59262 58.2624 8.47821C58.3099 8.36381 58.3903 8.26605 58.4933 8.19727C58.5964 8.1285 58.7175 8.0918 58.8414 8.0918C58.9239 8.0918 59.0057 8.10811 59.0819 8.13979C59.1582 8.17148 59.2274 8.21791 59.2857 8.27643C59.344 8.33495 59.3901 8.4044 59.4214 8.4808C59.4528 8.55719 59.4687 8.63903 59.4684 8.7216Z" fill="#263238" stroke="#263238" stroke-width="0.210807" stroke-linecap="round" stroke-linejoin="round"/>
<path d="M46.909 1.71672C46.909 1.84141 46.872 1.96328 46.8027 2.06691C46.7334 2.17054 46.6348 2.25126 46.5196 2.29885C46.4043 2.34643 46.2776 2.35874 46.1553 2.33421C46.0331 2.30968 45.9209 2.24942 45.8329 2.16106C45.7449 2.0727 45.6852 1.96022 45.6612 1.83787C45.6372 1.71551 45.6501 1.58879 45.6982 1.47376C45.7463 1.35873 45.8274 1.26056 45.9314 1.1917C46.0353 1.12283 46.1573 1.08637 46.282 1.08692C46.3646 1.08692 46.4464 1.10323 46.5226 1.13491C46.5989 1.1666 46.6681 1.21304 46.7264 1.27155C46.7846 1.33007 46.8308 1.39952 46.8621 1.47592C46.8934 1.55231 46.9094 1.63415 46.909 1.71672Z" fill="#263238" stroke="#263238" stroke-width="0.210807" stroke-linecap="round" stroke-linejoin="round"/>
<path d="M28.6476 7.5214C28.647 7.64529 28.6098 7.76624 28.5405 7.86898C28.4713 7.97172 28.3732 8.05165 28.2586 8.09868C28.1439 8.14571 28.018 8.15773 27.8965 8.13322C27.7751 8.10871 27.6636 8.04877 27.5762 7.96098C27.4888 7.87318 27.4294 7.76145 27.4054 7.6399C27.3814 7.51835 27.394 7.39243 27.4415 7.27802C27.4891 7.16361 27.5695 7.06585 27.6725 6.99708C27.7755 6.92831 27.8967 6.8916 28.0206 6.8916C28.1031 6.8916 28.1849 6.90791 28.2611 6.9396C28.3374 6.97128 28.4066 7.01772 28.4649 7.07624C28.5232 7.13476 28.5693 7.20421 28.6006 7.2806C28.632 7.357 28.6479 7.43883 28.6476 7.5214Z" fill="#263238" stroke="#263238" stroke-width="0.210807" stroke-linecap="round" stroke-linejoin="round"/>
<path d="M4.44026 30.7217C4.44082 30.8465 4.40428 30.9687 4.33529 31.0727C4.2663 31.1767 4.16797 31.2578 4.05277 31.3059C3.93758 31.3539 3.81071 31.3666 3.68828 31.3424C3.56585 31.3182 3.45338 31.2581 3.36513 31.1699C3.27688 31.0816 3.21684 30.9691 3.19263 30.8467C3.16842 30.7243 3.18113 30.5974 3.22914 30.4822C3.27716 30.367 3.35831 30.2687 3.46231 30.1997C3.56631 30.1307 3.68846 30.0942 3.81326 30.0947C3.97955 30.0947 4.13903 30.1608 4.25662 30.2784C4.3742 30.396 4.44026 30.5554 4.44026 30.7217Z" fill="#263238" stroke="#263238" stroke-width="0.210807" stroke-linecap="round" stroke-linejoin="round"/>
<path d="M2.25961 42.1445C2.25961 42.269 2.22267 42.3908 2.15347 42.4944C2.08426 42.5979 1.9859 42.6786 1.87082 42.7263C1.75574 42.774 1.62911 42.7865 1.50694 42.7622C1.38477 42.7378 1.27254 42.6779 1.18447 42.5898C1.09639 42.5017 1.0364 42.3895 1.0121 42.2673C0.987801 42.1451 1.00027 42.0185 1.04794 41.9034C1.09561 41.7884 1.17633 41.69 1.2799 41.6208C1.38347 41.5516 1.50524 41.5146 1.6298 41.5146C1.79684 41.5146 1.95703 41.581 2.07514 41.6991C2.19325 41.8172 2.25961 41.9774 2.25961 42.1445Z" fill="#263238" stroke="#263238" stroke-width="0.210807" stroke-linecap="round" stroke-linejoin="round"/>
<path d="M17.0365 83.6279C17.0365 83.7525 16.9995 83.8744 16.9301 83.978C16.8608 84.0817 16.7623 84.1624 16.647 84.21C16.5318 84.2576 16.405 84.2699 16.2828 84.2453C16.1605 84.2208 16.0483 84.1606 15.9603 84.0722C15.8724 83.9838 15.8126 83.8714 15.7886 83.749C15.7646 83.6266 15.7775 83.4999 15.8256 83.3849C15.8737 83.2699 15.9549 83.1717 16.0588 83.1028C16.1627 83.034 16.2848 82.9975 16.4095 82.9981C16.492 82.9981 16.5738 83.0144 16.6501 83.046C16.7263 83.0777 16.7955 83.1242 16.8538 83.1827C16.9121 83.2412 16.9582 83.3107 16.9895 83.3871C17.0209 83.4634 17.0368 83.5453 17.0365 83.6279Z" fill="#263238" stroke="#263238" stroke-width="0.210807" stroke-linecap="round" stroke-linejoin="round"/>
<path d="M91.4481 80.9825C91.4486 81.1072 91.4122 81.2292 91.3433 81.3331C91.2744 81.4371 91.1763 81.5182 91.0612 81.5663C90.9462 81.6144 90.8195 81.6273 90.6971 81.6033C90.5748 81.5793 90.4623 81.5196 90.3739 81.4316C90.2856 81.3436 90.2253 81.2314 90.2008 81.1092C90.1763 80.9869 90.1886 80.8602 90.2361 80.7449C90.2837 80.6297 90.3645 80.5311 90.4681 80.4618C90.5717 80.3925 90.6936 80.3555 90.8183 80.3555C90.9009 80.3551 90.9827 80.3711 91.0591 80.4024C91.1355 80.4337 91.2049 80.4799 91.2634 80.5381C91.322 80.5964 91.3684 80.6656 91.4001 80.7419C91.4318 80.8181 91.4481 80.8999 91.4481 80.9825Z" fill="#263238" stroke="#263238" stroke-width="0.210807" stroke-linecap="round" stroke-linejoin="round"/>
<path d="M110.15 42.6983C110.15 42.8223 110.113 42.9435 110.044 43.0466C109.975 43.1497 109.877 43.2301 109.762 43.2776C109.648 43.325 109.522 43.3374 109.4 43.3133C109.279 43.2891 109.167 43.2293 109.079 43.1417C108.991 43.054 108.932 42.9422 108.908 42.8206C108.883 42.699 108.896 42.5729 108.943 42.4584C108.991 42.3438 109.071 42.2459 109.174 42.177C109.277 42.1081 109.399 42.0713 109.523 42.0713C109.689 42.0713 109.848 42.1373 109.966 42.2549C110.083 42.3725 110.15 42.532 110.15 42.6983Z" fill="#263238" stroke="#263238" stroke-width="0.210807" stroke-linecap="round" stroke-linejoin="round"/>
<path d="M102.866 27.2872C102.866 27.4112 102.829 27.5324 102.76 27.6355C102.691 27.7386 102.593 27.819 102.479 27.8664C102.364 27.9139 102.238 27.9263 102.116 27.9021C101.995 27.8779 101.883 27.8182 101.795 27.7305C101.708 27.6428 101.648 27.5311 101.624 27.4095C101.6 27.2879 101.612 27.1618 101.66 27.0472C101.707 26.9326 101.787 26.8347 101.89 26.7658C101.994 26.6969 102.115 26.6602 102.239 26.6602C102.405 26.6602 102.565 26.7262 102.682 26.8438C102.8 26.9614 102.866 27.1209 102.866 27.2872Z" fill="#263238" stroke="#263238" stroke-width="0.210807" stroke-linecap="round" stroke-linejoin="round"/>
<path d="M84.2745 10.6817C84.2745 10.8057 84.2377 10.9269 84.1688 11.03C84.1 11.1331 84.002 11.2135 83.8875 11.261C83.7729 11.3084 83.6468 11.3208 83.5252 11.2966C83.4036 11.2725 83.2918 11.2127 83.2042 11.125C83.1165 11.0374 83.0568 10.9256 83.0326 10.804C83.0084 10.6824 83.0208 10.5563 83.0682 10.4417C83.1157 10.3272 83.1961 10.2293 83.2992 10.1604C83.4023 10.0915 83.5235 10.0547 83.6475 10.0547C83.8138 10.0547 83.9733 10.1207 84.0909 10.2383C84.2085 10.3559 84.2745 10.5154 84.2745 10.6817Z" fill="#263238" stroke="#263238" stroke-width="0.210807" stroke-linecap="round" stroke-linejoin="round"/>
<path d="M63.2219 77.1888V71.7305H46.7966V77.1888C46.7916 78.9733 46.1751 80.7021 45.0499 82.0872L44.3306 82.9774H65.6823L64.9657 82.0872C63.8406 80.7023 63.225 78.9731 63.2219 77.1888Z" fill="white"/>
<mask id="mask0_427_4994" style="mask-type:luminance" maskUnits="userSpaceOnUse" x="44" y="71" width="22" height="12">
<path d="M63.2224 77.1897V71.7314H46.7971V77.1897C46.7921 78.9742 46.1756 80.7031 45.0504 82.0882L44.3311 82.9783H65.6828L64.9662 82.0882C63.8411 80.7033 63.2255 78.9741 63.2224 77.1897Z" fill="white"/>
</mask>
<g mask="url(#mask0_427_4994)">
<path d="M45.7891 81.0124H64.2297C63.5698 79.846 63.2227 78.5289 63.222 77.1888V71.7305H46.7967V77.1888C46.7961 78.5289 46.4489 79.846 45.7891 81.0124Z" fill="#92E3A9"/>
<path opacity="0.3" d="M45.7891 81.0124H64.2297C63.5698 79.846 63.2227 78.5289 63.222 77.1888V71.7305H46.7967V77.1888C46.7961 78.5289 46.4489 79.846 45.7891 81.0124Z" fill="white"/>
<path d="M45.7891 75.2585H64.2297C63.5698 74.0921 63.2227 72.7749 63.222 71.4349V65.9766H46.7967V71.4349C46.7961 72.7749 46.4489 74.0921 45.7891 75.2585Z" fill="#263238"/>
</g>
<path d="M63.2219 77.1888V71.7305H46.7966V77.1888C46.7916 78.9733 46.1751 80.7021 45.0499 82.0872L44.3306 82.9774H65.6823L64.9657 82.0872C63.8406 80.7023 63.225 78.9731 63.2219 77.1888Z" stroke="#263238" stroke-width="0.210807" stroke-linecap="round" stroke-linejoin="round"/>
<path d="M85.6402 24.9834H24.3785C23.0676 24.9834 22.0049 26.0461 22.0049 27.3571V71.0766C22.0049 72.3875 23.0676 73.4503 24.3785 73.4503H85.6402C86.9511 73.4503 88.0139 72.3875 88.0139 71.0766V27.3571C88.0139 26.0461 86.9511 24.9834 85.6402 24.9834Z" fill="#263238" stroke="#263238" stroke-width="0.210807" stroke-linecap="round" stroke-linejoin="round"/>
<path d="M22.0049 65.917H88.0139V71.0758C88.0139 71.7053 87.7638 72.3091 87.3186 72.7542C86.8735 73.1994 86.2697 73.4494 85.6402 73.4494H24.3785C23.749 73.4494 23.1453 73.1994 22.7001 72.7542C22.255 72.3091 22.0049 71.7053 22.0049 71.0758V65.917Z" fill="white" stroke="#263238" stroke-width="0.210807" stroke-linecap="round" stroke-linejoin="round"/>
<path d="M84.6914 28.002H25.3247V62.2437H84.6914V28.002Z" fill="white" stroke="#263238" stroke-width="0.210807" stroke-linecap="round" stroke-linejoin="round"/>
<path d="M56.227 70.8922C56.232 70.6504 56.1648 70.4125 56.0341 70.209C55.9034 70.0055 55.715 69.8455 55.493 69.7495C55.271 69.6535 55.0255 69.6257 54.7876 69.6698C54.5498 69.7139 54.3305 69.8279 54.1577 69.9971C53.9849 70.1663 53.8664 70.3832 53.8173 70.6201C53.7682 70.8569 53.7908 71.103 53.8822 71.327C53.9736 71.551 54.1296 71.7426 54.3303 71.8776C54.5311 72.0125 54.7675 72.0846 55.0094 72.0847C55.3288 72.0876 55.6365 71.9638 55.8647 71.7402C56.093 71.5167 56.2233 71.2117 56.227 70.8922Z" fill="#263238" stroke="#263238" stroke-width="0.210807" stroke-linecap="round" stroke-linejoin="round"/>
<path d="M65.688 82.9863H44.3335V83.9604H65.688V82.9863Z" fill="white" stroke="#263238" stroke-width="0.210807" stroke-linecap="round" stroke-linejoin="round"/>
<path d="M55.0988 26.2227C52.1149 29.0218 44.4621 31.8209 35.5581 37.7802C35.5581 37.7802 36.1179 57.9339 55.0988 68.9373V26.2227Z" fill="#92E3A9" stroke="#263238" stroke-width="0.210807" stroke-linecap="round" stroke-linejoin="round"/>
<path d="M55.0986 26.2227C58.0853 29.0218 65.7353 31.8209 74.6421 37.7802C74.6421 37.7802 74.0823 57.9339 55.0986 68.9373V26.2227Z" fill="#263238" stroke="#263238" stroke-width="0.210807" stroke-linecap="round" stroke-linejoin="round"/>
<path d="M55.0992 27.9385C51.4884 30.4409 45.2491 32.823 36.9917 38.3484C36.9917 38.3484 37.5095 57.0186 55.0992 67.2242C72.6917 57.0186 73.2096 38.3484 73.2096 38.3484C64.9522 32.823 58.7325 30.4409 55.0992 27.9385Z" fill="#263238" stroke="#263238" stroke-width="0.210807" stroke-linecap="round" stroke-linejoin="round"/>
<path d="M73.209 38.3484C64.9516 32.8258 58.7319 30.4409 55.0986 27.9385V67.2242C72.6911 57.0186 73.209 38.3484 73.209 38.3484Z" fill="#92E3A9" stroke="#263238" stroke-width="0.210807" stroke-linecap="round" stroke-linejoin="round"/>
<path d="M88.2184 48.2324H21.8008V52.5319H88.2184V48.2324Z" fill="#263238" stroke="#263238" stroke-width="0.210807" stroke-linecap="round" stroke-linejoin="round"/>
<path d="M23.1083 48.9162C23.11 49.0046 23.0853 49.0914 23.0374 49.1657C22.9895 49.24 22.9206 49.2983 22.8395 49.3333C22.7583 49.3683 22.6686 49.3783 22.5817 49.3621C22.4948 49.3459 22.4147 49.3042 22.3516 49.2423C22.2885 49.1804 22.2453 49.1011 22.2274 49.0146C22.2096 48.928 22.2179 48.8381 22.2513 48.7563C22.2847 48.6745 22.3418 48.6044 22.4151 48.5552C22.4885 48.5059 22.5749 48.4795 22.6632 48.4795C22.7212 48.4788 22.7787 48.4895 22.8325 48.5111C22.8863 48.5327 22.9353 48.5647 22.9766 48.6053C23.018 48.6459 23.0509 48.6942 23.0735 48.7476C23.0961 48.8009 23.1079 48.8582 23.1083 48.9162Z" fill="white"/>
<path d="M22.4082 49.1559C22.4569 49.2072 22.5198 49.2427 22.5889 49.258C22.6579 49.2733 22.7299 49.2676 22.7957 49.2418C22.8615 49.2159 22.9181 49.1711 22.9583 49.1129C22.9984 49.0547 23.0204 48.9859 23.0212 48.9152C23.0203 48.8312 22.9884 48.7505 22.9316 48.6885C22.7467 48.8322 22.5718 48.9884 22.4082 49.1559Z" fill="#263238"/>
<path d="M24.8546 48.9162C24.8568 49.0052 24.8324 49.0929 24.7846 49.168C24.7368 49.2431 24.6676 49.3022 24.586 49.3379C24.5044 49.3735 24.414 49.384 24.3264 49.368C24.2388 49.352 24.158 49.3102 24.0942 49.2481C24.0304 49.1859 23.9867 49.1061 23.9684 49.019C23.9502 48.9318 23.9584 48.8412 23.992 48.7587C24.0255 48.6762 24.0829 48.6056 24.1568 48.5559C24.2306 48.5061 24.3177 48.4796 24.4067 48.4795C24.4648 48.4788 24.5224 48.4895 24.5764 48.511C24.6303 48.5326 24.6795 48.5645 24.7211 48.6051C24.7627 48.6456 24.7959 48.694 24.8188 48.7474C24.8417 48.8007 24.8538 48.8581 24.8546 48.9162Z" fill="white"/>
<path d="M24.1519 49.1559C24.2006 49.2072 24.2635 49.2427 24.3325 49.258C24.4015 49.2733 24.4735 49.2676 24.5393 49.2418C24.6051 49.2159 24.6617 49.1711 24.7019 49.1129C24.7421 49.0547 24.764 48.9859 24.7649 48.9152C24.7639 48.8312 24.732 48.7505 24.6753 48.6885C24.491 48.8329 24.3161 48.9891 24.1519 49.1559Z" fill="#263238"/>
<path d="M26.5985 48.9154C26.5896 49.0277 26.5387 49.1325 26.4559 49.209C26.3732 49.2854 26.2647 49.3279 26.152 49.3279C26.0394 49.3279 25.9309 49.2854 25.8481 49.209C25.7654 49.1325 25.7145 49.0277 25.7056 48.9154C25.7145 48.8031 25.7654 48.6983 25.8481 48.6218C25.9309 48.5454 26.0394 48.5029 26.152 48.5029C26.2647 48.5029 26.3732 48.5454 26.4559 48.6218C26.5387 48.6983 26.5896 48.8031 26.5985 48.9154Z" fill="white"/>
<path d="M25.8955 49.1559C25.9289 49.1905 25.9689 49.2179 26.0132 49.2367C26.0574 49.2554 26.105 49.2651 26.153 49.2651C26.1993 49.2655 26.2453 49.2567 26.2882 49.2393C26.3311 49.2219 26.3702 49.1963 26.4032 49.1638C26.4362 49.1313 26.4625 49.0926 26.4806 49.05C26.4987 49.0073 26.5081 48.9615 26.5085 48.9152C26.5087 48.831 26.4766 48.7499 26.4189 48.6885C26.2346 48.8329 26.0598 48.9891 25.8955 49.1559Z" fill="#263238"/>
<path d="M28.3422 48.9162C28.3439 49.0046 28.3192 49.0914 28.2713 49.1657C28.2234 49.24 28.1545 49.2983 28.0733 49.3333C27.9922 49.3683 27.9024 49.3783 27.8156 49.3621C27.7287 49.3459 27.6486 49.3042 27.5855 49.2423C27.5224 49.1804 27.4792 49.1011 27.4613 49.0146C27.4435 48.928 27.4518 48.8381 27.4852 48.7563C27.5186 48.6745 27.5757 48.6044 27.649 48.5552C27.7224 48.5059 27.8088 48.4795 27.8971 48.4795C27.9551 48.4788 28.0126 48.4895 28.0664 48.5111C28.1202 48.5327 28.1691 48.5647 28.2105 48.6053C28.2519 48.6459 28.2848 48.6942 28.3074 48.7476C28.33 48.8009 28.3418 48.8582 28.3422 48.9162Z" fill="white"/>
<path d="M27.6392 49.1559C27.6883 49.2068 27.7513 49.2419 27.8204 49.257C27.8894 49.272 27.9614 49.2664 28.0272 49.2406C28.093 49.2149 28.1498 49.1703 28.1903 49.1124C28.2308 49.0545 28.2533 48.9859 28.255 48.9152C28.254 48.8312 28.2221 48.7505 28.1654 48.6885C27.9796 48.8322 27.8038 48.9884 27.6392 49.1559Z" fill="#263238"/>
<path d="M30.0863 48.9162C30.088 49.0046 30.0633 49.0914 30.0154 49.1657C29.9676 49.24 29.8987 49.2983 29.8175 49.3333C29.7363 49.3683 29.6466 49.3783 29.5597 49.3621C29.4728 49.3459 29.3927 49.3042 29.3297 49.2423C29.2666 49.1804 29.2233 49.1011 29.2055 49.0146C29.1876 48.928 29.1959 48.8381 29.2293 48.7563C29.2628 48.6745 29.3198 48.6044 29.3932 48.5552C29.4665 48.5059 29.5529 48.4795 29.6413 48.4795C29.6992 48.4788 29.7567 48.4895 29.8105 48.5111C29.8643 48.5327 29.9133 48.5647 29.9547 48.6053C29.996 48.6459 30.0289 48.6942 30.0515 48.7476C30.0741 48.8009 30.086 48.8582 30.0863 48.9162Z" fill="white"/>
<path d="M29.375 49.1559C29.4085 49.1903 29.4485 49.2177 29.4928 49.2365C29.537 49.2552 29.5845 49.2649 29.6325 49.2651C29.6791 49.2658 29.7253 49.2574 29.7686 49.2401C29.8118 49.2229 29.8512 49.1973 29.8845 49.1648C29.9179 49.1323 29.9444 49.0935 29.9626 49.0506C29.9809 49.0078 29.9904 48.9618 29.9908 48.9152C29.9899 48.8312 29.958 48.7505 29.9012 48.6885C29.716 48.8329 29.5403 48.9891 29.375 49.1559Z" fill="#263238"/>
<path d="M31.8295 48.9162C31.8312 49.0046 31.8065 49.0914 31.7586 49.1657C31.7107 49.24 31.6418 49.2983 31.5607 49.3333C31.4795 49.3683 31.3898 49.3783 31.3029 49.3621C31.216 49.3459 31.1359 49.3042 31.0728 49.2423C31.0097 49.1804 30.9665 49.1011 30.9486 49.0146C30.9308 48.928 30.9391 48.8381 30.9725 48.7563C31.0059 48.6745 31.063 48.6044 31.1363 48.5552C31.2097 48.5059 31.2961 48.4795 31.3844 48.4795C31.4424 48.4788 31.4999 48.4895 31.5537 48.5111C31.6075 48.5327 31.6564 48.5647 31.6978 48.6053C31.7392 48.6459 31.7721 48.6942 31.7947 48.7476C31.8173 48.8009 31.8291 48.8582 31.8295 48.9162Z" fill="white"/>
<path d="M31.1299 49.1559C31.1786 49.2072 31.2415 49.2427 31.3105 49.258C31.3795 49.2733 31.4516 49.2676 31.5174 49.2418C31.5832 49.2159 31.6398 49.1711 31.6799 49.1129C31.7201 49.0547 31.742 48.9859 31.7429 48.9152C31.7419 48.8312 31.7101 48.7505 31.6533 48.6885C31.4684 48.8322 31.2935 48.9884 31.1299 49.1559Z" fill="#263238"/>
<path d="M33.5733 48.9162C33.5755 49.0052 33.5512 49.0929 33.5033 49.168C33.4555 49.2431 33.3864 49.3022 33.3047 49.3379C33.2231 49.3735 33.1327 49.384 33.0451 49.368C32.9575 49.352 32.8767 49.3102 32.8129 49.2481C32.7492 49.1859 32.7054 49.1061 32.6872 49.019C32.669 48.9318 32.6772 48.8412 32.7107 48.7587C32.7443 48.6762 32.8016 48.6056 32.8755 48.5559C32.9494 48.5061 33.0364 48.4796 33.1255 48.4795C33.1835 48.4788 33.2412 48.4895 33.2951 48.511C33.3491 48.5326 33.3982 48.5645 33.4398 48.6051C33.4814 48.6456 33.5146 48.694 33.5375 48.7474C33.5604 48.8007 33.5726 48.8581 33.5733 48.9162Z" fill="white"/>
<path d="M32.874 49.1559C32.9228 49.2072 32.9856 49.2427 33.0547 49.258C33.1237 49.2733 33.1957 49.2676 33.2615 49.2418C33.3273 49.2159 33.3839 49.1711 33.4241 49.1129C33.4643 49.0547 33.4862 48.9859 33.487 48.9152C33.4861 48.8312 33.4542 48.7505 33.3975 48.6885C33.2131 48.8329 33.0383 48.9891 32.874 49.1559Z" fill="#263238"/>
<path d="M35.3207 48.9162C35.3224 49.0046 35.2977 49.0914 35.2498 49.1657C35.2019 49.24 35.133 49.2983 35.0519 49.3333C34.9707 49.3683 34.881 49.3783 34.7941 49.3621C34.7072 49.3459 34.6271 49.3042 34.564 49.2423C34.5009 49.1804 34.4577 49.1011 34.4399 49.0146C34.422 48.928 34.4303 48.8381 34.4637 48.7563C34.4971 48.6745 34.5542 48.6044 34.6275 48.5552C34.7009 48.5059 34.7873 48.4795 34.8756 48.4795C34.9336 48.4788 34.9911 48.4895 35.0449 48.5111C35.0987 48.5327 35.1477 48.5647 35.189 48.6053C35.2304 48.6459 35.2633 48.6942 35.2859 48.7476C35.3085 48.8009 35.3203 48.8582 35.3207 48.9162Z" fill="white"/>
<path d="M34.6177 49.1559C34.6511 49.1905 34.6911 49.2179 34.7353 49.2367C34.7796 49.2554 34.8271 49.2651 34.8752 49.2651C34.9215 49.2655 34.9674 49.2567 35.0104 49.2393C35.0533 49.2219 35.0924 49.1963 35.1254 49.1638C35.1584 49.1313 35.1847 49.0926 35.2028 49.05C35.2208 49.0073 35.2303 48.9615 35.2307 48.9152C35.2308 48.831 35.1988 48.7499 35.1411 48.6885C34.9568 48.8329 34.782 48.9891 34.6177 49.1559Z" fill="#263238"/>
<path d="M37.0639 48.9162C37.0655 49.0046 37.0409 49.0914 36.993 49.1657C36.9451 49.24 36.8762 49.2983 36.795 49.3333C36.7139 49.3683 36.6241 49.3783 36.5372 49.3621C36.4504 49.3459 36.3703 49.3042 36.3072 49.2423C36.2441 49.1804 36.2009 49.1011 36.183 49.0146C36.1652 48.928 36.1735 48.8381 36.2069 48.7563C36.2403 48.6745 36.2973 48.6044 36.3707 48.5552C36.4441 48.5059 36.5304 48.4795 36.6188 48.4795C36.6768 48.4788 36.7343 48.4895 36.7881 48.5111C36.8418 48.5327 36.8908 48.5647 36.9322 48.6053C36.9736 48.6459 37.0065 48.6942 37.0291 48.7476C37.0517 48.8009 37.0635 48.8582 37.0639 48.9162Z" fill="white"/>
<path d="M36.3726 49.1559C36.4217 49.2068 36.4847 49.2419 36.5538 49.257C36.6228 49.272 36.6948 49.2664 36.7606 49.2406C36.8264 49.2149 36.8832 49.1703 36.9237 49.1124C36.9642 49.0545 36.9867 48.9859 36.9884 48.9152C36.9874 48.8312 36.9555 48.7505 36.8988 48.6885C36.7136 48.8329 36.5378 48.9891 36.3726 49.1559Z" fill="#263238"/>
<path d="M38.808 48.9162C38.8097 49.0046 38.785 49.0914 38.7371 49.1657C38.6892 49.24 38.6203 49.2983 38.5392 49.3333C38.458 49.3683 38.3683 49.3783 38.2814 49.3621C38.1945 49.3459 38.1144 49.3042 38.0513 49.2423C37.9882 49.1804 37.945 49.1011 37.9272 49.0146C37.9093 48.928 37.9176 48.8381 37.951 48.7563C37.9845 48.6745 38.0415 48.6044 38.1148 48.5552C38.1882 48.5059 38.2746 48.4795 38.363 48.4795C38.4209 48.4788 38.4784 48.4895 38.5322 48.5111C38.586 48.5327 38.635 48.5647 38.6763 48.6053C38.7177 48.6459 38.7506 48.6942 38.7732 48.7476C38.7958 48.8009 38.8076 48.8582 38.808 48.9162Z" fill="white"/>
<path d="M38.1055 49.1559C38.139 49.1903 38.179 49.2177 38.2232 49.2365C38.2674 49.2552 38.315 49.2649 38.363 49.2651C38.4095 49.2658 38.4558 49.2574 38.499 49.2401C38.5423 49.2229 38.5817 49.1973 38.615 49.1648C38.6483 49.1323 38.6749 49.0935 38.6931 49.0506C38.7113 49.0078 38.7209 48.9618 38.7213 48.9152C38.7203 48.8312 38.6884 48.7505 38.6317 48.6885C38.4465 48.8329 38.2707 48.9891 38.1055 49.1559Z" fill="#263238"/>
<path d="M40.5521 48.9162C40.5538 49.0046 40.5291 49.0914 40.4813 49.1657C40.4334 49.24 40.3645 49.2983 40.2833 49.3333C40.2021 49.3683 40.1124 49.3783 40.0255 49.3621C39.9386 49.3459 39.8586 49.3042 39.7955 49.2423C39.7324 49.1804 39.6892 49.1011 39.6713 49.0146C39.6534 48.928 39.6617 48.8381 39.6952 48.7563C39.7286 48.6745 39.7856 48.6044 39.859 48.5552C39.9323 48.5059 40.0187 48.4795 40.1071 48.4795C40.165 48.4788 40.2226 48.4895 40.2763 48.5111C40.3301 48.5327 40.3791 48.5647 40.4205 48.6053C40.4618 48.6459 40.4948 48.6942 40.5174 48.7476C40.54 48.8009 40.5518 48.8582 40.5521 48.9162Z" fill="white"/>
<path d="M39.8521 49.1559C39.9008 49.2072 39.9637 49.2427 40.0327 49.258C40.1017 49.2733 40.1737 49.2676 40.2395 49.2418C40.3053 49.2159 40.3619 49.1711 40.4021 49.1129C40.4423 49.0547 40.4642 48.9859 40.4651 48.9152C40.4641 48.8312 40.4322 48.7505 40.3755 48.6885C40.1912 48.8329 40.0163 48.9891 39.8521 49.1559Z" fill="#263238"/>
<path d="M42.2984 48.9162C42.3006 49.0053 42.2762 49.0931 42.2282 49.1683C42.1803 49.2435 42.111 49.3026 42.0292 49.3381C41.9474 49.3737 41.8569 49.384 41.7692 49.3678C41.6815 49.3515 41.6007 49.3095 41.537 49.2471C41.4734 49.1846 41.4298 49.1046 41.4119 49.0172C41.394 48.9299 41.4026 48.8392 41.4366 48.7567C41.4706 48.6743 41.5284 48.6039 41.6026 48.5545C41.6769 48.5051 41.7642 48.479 41.8534 48.4795C41.9113 48.4788 41.9688 48.4895 42.0226 48.5111C42.0764 48.5327 42.1254 48.5647 42.1667 48.6053C42.2081 48.6459 42.241 48.6942 42.2636 48.7476C42.2862 48.8009 42.298 48.8582 42.2984 48.9162Z" fill="white"/>
<path d="M41.5967 49.1559C41.6454 49.2072 41.7083 49.2427 41.7773 49.258C41.8463 49.2733 41.9184 49.2676 41.9842 49.2418C42.05 49.2159 42.1066 49.1711 42.1467 49.1129C42.1869 49.0547 42.2088 48.9859 42.2097 48.9152C42.2098 48.831 42.1778 48.7499 42.1201 48.6885C41.9358 48.8329 41.761 48.9891 41.5967 49.1559Z" fill="#263238"/>
<path d="M44.0429 48.9162C44.0445 49.0046 44.0199 49.0914 43.972 49.1657C43.9241 49.24 43.8552 49.2983 43.774 49.3333C43.6929 49.3683 43.6031 49.3783 43.5162 49.3621C43.4294 49.3459 43.3493 49.3042 43.2862 49.2423C43.2231 49.1804 43.1799 49.1011 43.162 49.0146C43.1442 48.928 43.1525 48.8381 43.1859 48.7563C43.2193 48.6745 43.2763 48.6044 43.3497 48.5552C43.4231 48.5059 43.5094 48.4795 43.5978 48.4795C43.6558 48.4788 43.7133 48.4895 43.7671 48.5111C43.8208 48.5327 43.8698 48.5647 43.9112 48.6053C43.9526 48.6459 43.9855 48.6942 44.0081 48.7476C44.0307 48.8009 44.0425 48.8582 44.0429 48.9162Z" fill="white"/>
<path d="M43.3398 49.1559C43.389 49.2068 43.452 49.2419 43.5211 49.257C43.5901 49.272 43.6621 49.2664 43.7279 49.2406C43.7937 49.2149 43.8505 49.1703 43.891 49.1124C43.9315 49.0545 43.954 48.9859 43.9557 48.9152C43.9547 48.8312 43.9228 48.7505 43.8661 48.6885C43.6803 48.8322 43.5045 48.9884 43.3398 49.1559Z" fill="#263238"/>
<path d="M45.786 48.9162C45.7877 49.0046 45.763 49.0914 45.7151 49.1657C45.6673 49.24 45.5984 49.2983 45.5172 49.3333C45.436 49.3683 45.3463 49.3783 45.2594 49.3621C45.1725 49.3459 45.0924 49.3042 45.0294 49.2423C44.9663 49.1804 44.923 49.1011 44.9052 49.0146C44.8873 48.928 44.8956 48.8381 44.9291 48.7563C44.9625 48.6745 45.0195 48.6044 45.0929 48.5552C45.1662 48.5059 45.2526 48.4795 45.341 48.4795C45.3989 48.4788 45.4564 48.4895 45.5102 48.5111C45.564 48.5327 45.613 48.5647 45.6544 48.6053C45.6957 48.6459 45.7287 48.6942 45.7513 48.7476C45.7739 48.8009 45.7857 48.8582 45.786 48.9162Z" fill="white"/>
<path d="M45.0835 49.1559C45.117 49.1903 45.157 49.2177 45.2013 49.2365C45.2455 49.2552 45.293 49.2649 45.341 49.2651C45.3876 49.2658 45.4338 49.2574 45.4771 49.2401C45.5203 49.2229 45.5597 49.1973 45.593 49.1648C45.6263 49.1323 45.6529 49.0935 45.6711 49.0506C45.6894 49.0078 45.6989 48.9618 45.6993 48.9152C45.6984 48.8312 45.6665 48.7505 45.6097 48.6885C45.4245 48.8329 45.2488 48.9891 45.0835 49.1559Z" fill="#263238"/>
<path d="M23.1082 51.6888C23.1105 51.7772 23.0863 51.8644 23.0387 51.939C22.9912 52.0137 22.9225 52.0724 22.8414 52.1079C22.7603 52.1433 22.6705 52.1537 22.5834 52.1378C22.4964 52.1219 22.416 52.0804 22.3527 52.0187C22.2893 51.9569 22.2458 51.8776 22.2277 51.791C22.2096 51.7044 22.2177 51.6143 22.251 51.5323C22.2844 51.4504 22.3414 51.3802 22.4148 51.3308C22.4882 51.2814 22.5747 51.2549 22.6632 51.2549C22.7209 51.2542 22.7782 51.2648 22.8318 51.2862C22.8854 51.3076 22.9342 51.3394 22.9756 51.3797C23.0169 51.42 23.0499 51.468 23.0727 51.521C23.0954 51.5741 23.1075 51.6311 23.1082 51.6888Z" fill="white"/>
<path d="M22.4082 51.9333C22.441 51.9679 22.4805 51.9954 22.5243 52.0141C22.5681 52.0329 22.6153 52.0425 22.6629 52.0424C22.7096 52.0428 22.7559 52.034 22.7992 52.0165C22.8424 51.9989 22.8818 51.9731 22.9151 51.9403C22.9484 51.9075 22.9749 51.8686 22.9931 51.8256C23.0113 51.7826 23.0208 51.7364 23.0212 51.6897C23.0196 51.6067 22.9877 51.5271 22.9316 51.4658C22.7467 51.6095 22.5718 51.7657 22.4082 51.9333Z" fill="#263238"/>
<path d="M24.855 51.6888C24.8578 51.7779 24.8339 51.8658 24.7864 51.9413C24.7389 52.0168 24.67 52.0763 24.5884 52.1124C24.5069 52.1484 24.4164 52.1593 24.3286 52.1437C24.2409 52.128 24.1598 52.0865 24.0957 52.0244C24.0317 51.9624 23.9876 51.8827 23.9692 51.7954C23.9507 51.7082 23.9587 51.6174 23.9922 51.5348C24.0256 51.4521 24.083 51.3813 24.1569 51.3315C24.2308 51.2816 24.3179 51.255 24.4071 51.2549C24.5239 51.2534 24.6366 51.2982 24.7205 51.3795C24.8044 51.4608 24.8528 51.572 24.855 51.6888Z" fill="white"/>
<path d="M24.1519 51.9333C24.1846 51.9679 24.2241 51.9954 24.2679 52.0141C24.3117 52.0329 24.3589 52.0425 24.4066 52.0424C24.4533 52.0428 24.4996 52.034 24.5428 52.0165C24.5861 51.9989 24.6255 51.9731 24.6588 51.9403C24.692 51.9075 24.7185 51.8686 24.7367 51.8256C24.7549 51.7826 24.7645 51.7364 24.7649 51.6897C24.7632 51.6067 24.7314 51.5271 24.6753 51.4658C24.491 51.6103 24.3161 51.7664 24.1519 51.9333Z" fill="#263238"/>
<path d="M26.5981 51.6888C26.6009 51.778 26.577 51.8661 26.5294 51.9416C26.4818 52.0171 26.4127 52.0767 26.3309 52.1127C26.2492 52.1486 26.1586 52.1594 26.0708 52.1435C25.9829 52.1276 25.9018 52.0858 25.8379 52.0235C25.7739 51.9611 25.7301 51.8811 25.712 51.7937C25.6938 51.7063 25.7023 51.6154 25.7361 51.5328C25.77 51.4502 25.8278 51.3796 25.9021 51.3301C25.9764 51.2806 26.0638 51.2544 26.1531 51.2549C26.2108 51.2542 26.2681 51.2648 26.3217 51.2862C26.3753 51.3076 26.4241 51.3394 26.4655 51.3797C26.5068 51.42 26.5398 51.468 26.5626 51.521C26.5853 51.5741 26.5974 51.6311 26.5981 51.6888Z" fill="white"/>
<path d="M25.8955 51.9333C25.9444 51.9847 26.0075 52.0202 26.0768 52.0354C26.1461 52.0506 26.2184 52.0448 26.2843 52.0186C26.3502 51.9924 26.4068 51.9471 26.4467 51.8885C26.4867 51.8299 26.5082 51.7607 26.5085 51.6897C26.5082 51.6064 26.4762 51.5264 26.4189 51.4658C26.2346 51.6103 26.0598 51.7664 25.8955 51.9333Z" fill="#263238"/>
<path d="M28.3421 51.6888C28.3444 51.7772 28.3202 51.8644 28.2726 51.939C28.2251 52.0137 28.1564 52.0724 28.0753 52.1079C27.9942 52.1433 27.9044 52.1537 27.8173 52.1378C27.7303 52.1219 27.6499 52.0804 27.5865 52.0187C27.5232 51.9569 27.4797 51.8776 27.4616 51.791C27.4435 51.7044 27.4516 51.6143 27.4849 51.5323C27.5183 51.4504 27.5753 51.3802 27.6487 51.3308C27.7221 51.2814 27.8086 51.2549 27.8971 51.2549C27.9548 51.2542 28.0121 51.2648 28.0657 51.2862C28.1193 51.3076 28.1681 51.3394 28.2095 51.3797C28.2508 51.42 28.2838 51.468 28.3065 51.521C28.3293 51.5741 28.3414 51.6311 28.3421 51.6888Z" fill="white"/>
<path d="M27.6392 51.9333C27.6884 51.9842 27.7518 52.0194 27.8211 52.0344C27.8904 52.0494 27.9625 52.0435 28.0285 52.0174C28.0944 51.9913 28.1511 51.9463 28.1914 51.8879C28.2318 51.8296 28.2539 51.7606 28.255 51.6897C28.2533 51.6067 28.2215 51.5271 28.1654 51.4658C27.9796 51.6095 27.8038 51.7657 27.6392 51.9333Z" fill="#263238"/>
<path d="M30.0863 51.6888C30.0885 51.7772 30.0643 51.8644 30.0168 51.939C29.9692 52.0137 29.9005 52.0724 29.8194 52.1079C29.7383 52.1433 29.6485 52.1537 29.5614 52.1378C29.4744 52.1219 29.394 52.0804 29.3307 52.0187C29.2673 51.9569 29.2238 51.8776 29.2057 51.791C29.1876 51.7044 29.1957 51.6143 29.2291 51.5323C29.2624 51.4504 29.3194 51.3802 29.3928 51.3308C29.4662 51.2814 29.5527 51.2549 29.6412 51.2549C29.6989 51.2542 29.7562 51.2648 29.8098 51.2862C29.8634 51.3076 29.9123 51.3394 29.9536 51.3797C29.9949 51.42 30.0279 51.468 30.0507 51.521C30.0734 51.5741 30.0855 51.6311 30.0863 51.6888Z" fill="white"/>
<path d="M29.375 51.9333C29.4085 51.9677 29.4485 51.9951 29.4928 52.0138C29.537 52.0325 29.5845 52.0423 29.6325 52.0424C29.6792 52.0428 29.7255 52.034 29.7688 52.0165C29.812 51.9989 29.8514 51.9731 29.8847 51.9403C29.918 51.9075 29.9445 51.8686 29.9627 51.8256C29.9809 51.7826 29.9904 51.7364 29.9908 51.6897C29.9892 51.6067 29.9573 51.5271 29.9012 51.4658C29.716 51.6103 29.5403 51.7664 29.375 51.9333Z" fill="#263238"/>
<path d="M31.8294 51.6888C31.8317 51.7772 31.8075 51.8644 31.7599 51.939C31.7124 52.0137 31.6437 52.0724 31.5626 52.1079C31.4815 52.1433 31.3917 52.1537 31.3046 52.1378C31.2176 52.1219 31.1372 52.0804 31.0738 52.0187C31.0105 51.9569 30.967 51.8776 30.9489 51.791C30.9308 51.7044 30.9389 51.6143 30.9722 51.5323C31.0056 51.4504 31.0626 51.3802 31.136 51.3308C31.2094 51.2814 31.2959 51.2549 31.3844 51.2549C31.4421 51.2542 31.4994 51.2648 31.553 51.2862C31.6066 51.3076 31.6554 51.3394 31.6968 51.3797C31.7381 51.42 31.7711 51.468 31.7938 51.521C31.8166 51.5741 31.8287 51.6311 31.8294 51.6888Z" fill="white"/>
<path d="M31.1299 51.9333C31.1627 51.9679 31.2022 51.9954 31.246 52.0141C31.2898 52.0329 31.3369 52.0425 31.3846 52.0424C31.4313 52.0428 31.4776 52.034 31.5209 52.0165C31.5641 51.9989 31.6035 51.9731 31.6368 51.9403C31.6701 51.9075 31.6966 51.8686 31.7148 51.8256C31.733 51.7826 31.7425 51.7364 31.7429 51.6897C31.7413 51.6067 31.7094 51.5271 31.6533 51.4658C31.4684 51.6095 31.2935 51.7657 31.1299 51.9333Z" fill="#263238"/>
<path d="M33.5737 51.6888C33.5765 51.7779 33.5526 51.8658 33.5051 51.9413C33.4577 52.0168 33.3887 52.0763 33.3072 52.1124C33.2256 52.1484 33.1352 52.1593 33.0474 52.1437C32.9596 52.128 32.8785 52.0865 32.8145 52.0244C32.7504 51.9624 32.7064 51.8827 32.6879 51.7954C32.6695 51.7082 32.6775 51.6174 32.7109 51.5348C32.7444 51.4521 32.8017 51.3813 32.8757 51.3315C32.9496 51.2816 33.0367 51.255 33.1259 51.2549C33.2427 51.2534 33.3554 51.2982 33.4393 51.3795C33.5232 51.4608 33.5715 51.572 33.5737 51.6888Z" fill="white"/>
<path d="M32.874 51.9333C32.9068 51.9679 32.9463 51.9954 32.9901 52.0141C33.0339 52.0329 33.0811 52.0425 33.1287 52.0424C33.1754 52.0428 33.2217 52.034 33.265 52.0165C33.3083 51.9989 33.3477 51.9731 33.3809 51.9403C33.4142 51.9075 33.4407 51.8686 33.4589 51.8256C33.4771 51.7826 33.4867 51.7364 33.487 51.6897C33.4854 51.6067 33.4536 51.5271 33.3975 51.4658C33.2131 51.6103 33.0383 51.7664 32.874 51.9333Z" fill="#263238"/>
<path d="M35.3206 51.6888C35.3229 51.7772 35.2987 51.8644 35.2511 51.939C35.2036 52.0137 35.1349 52.0724 35.0538 52.1079C34.9727 52.1433 34.8829 52.1537 34.7958 52.1378C34.7088 52.1219 34.6284 52.0804 34.5651 52.0187C34.5017 51.9569 34.4582 51.8776 34.4401 51.791C34.422 51.7044 34.4301 51.6143 34.4634 51.5323C34.4968 51.4504 34.5538 51.3802 34.6272 51.3308C34.7006 51.2814 34.7871 51.2549 34.8756 51.2549C34.9333 51.2542 34.9906 51.2648 35.0442 51.2862C35.0978 51.3076 35.1467 51.3394 35.188 51.3797C35.2293 51.42 35.2623 51.468 35.2851 51.521C35.3078 51.5741 35.3199 51.6311 35.3206 51.6888Z" fill="white"/>
<path d="M34.6177 51.9333C34.6666 51.9847 34.7297 52.0202 34.799 52.0354C34.8683 52.0506 34.9405 52.0448 35.0064 52.0186C35.0724 51.9924 35.1289 51.9471 35.1689 51.8885C35.2089 51.8299 35.2304 51.7607 35.2307 51.6897C35.2304 51.6064 35.1984 51.5264 35.1411 51.4658C34.9568 51.6103 34.782 51.7664 34.6177 51.9333Z" fill="#263238"/>
<path d="M37.0638 51.6888C37.066 51.7772 37.0418 51.8644 36.9943 51.939C36.9468 52.0137 36.8781 52.0724 36.797 52.1079C36.7159 52.1433 36.626 52.1537 36.539 52.1378C36.4519 52.1219 36.3716 52.0804 36.3082 52.0187C36.2449 51.9569 36.2013 51.8776 36.1832 51.791C36.1651 51.7044 36.1733 51.6143 36.2066 51.5323C36.2399 51.4504 36.297 51.3802 36.3704 51.3308C36.4438 51.2814 36.5303 51.2549 36.6188 51.2549C36.6765 51.2542 36.7338 51.2648 36.7874 51.2862C36.841 51.3076 36.8898 51.3394 36.9311 51.3797C36.9725 51.42 37.0055 51.468 37.0282 51.521C37.051 51.5741 37.0631 51.6311 37.0638 51.6888Z" fill="white"/>
<path d="M36.3726 51.9333C36.4218 51.9842 36.4851 52.0194 36.5545 52.0344C36.6238 52.0494 36.6959 52.0435 36.7619 52.0174C36.8278 51.9913 36.8845 51.9463 36.9248 51.8879C36.9652 51.8296 36.9873 51.7606 36.9884 51.6897C36.9867 51.6067 36.9549 51.5271 36.8988 51.4658C36.7136 51.6103 36.5378 51.7664 36.3726 51.9333Z" fill="#263238"/>
<path d="M38.808 51.6888C38.8102 51.7772 38.786 51.8644 38.7385 51.939C38.6909 52.0137 38.6222 52.0724 38.5411 52.1079C38.46 52.1433 38.3702 52.1537 38.2831 52.1378C38.1961 52.1219 38.1157 52.0804 38.0524 52.0187C37.989 51.9569 37.9455 51.8776 37.9274 51.791C37.9093 51.7044 37.9174 51.6143 37.9507 51.5323C37.9841 51.4504 38.0411 51.3802 38.1145 51.3308C38.1879 51.2814 38.2744 51.2549 38.3629 51.2549C38.4206 51.2542 38.4779 51.2648 38.5315 51.2862C38.5851 51.3076 38.634 51.3394 38.6753 51.3797C38.7166 51.42 38.7496 51.468 38.7724 51.521C38.7951 51.5741 38.8072 51.6311 38.808 51.6888Z" fill="white"/>
<path d="M38.1055 51.9333C38.139 51.9677 38.179 51.9951 38.2232 52.0138C38.2674 52.0325 38.315 52.0423 38.363 52.0424C38.4097 52.0428 38.456 52.034 38.4992 52.0165C38.5425 51.9989 38.5819 51.9731 38.6152 51.9403C38.6485 51.9075 38.6749 51.8686 38.6931 51.8256C38.7114 51.7826 38.7209 51.7364 38.7213 51.6897C38.7196 51.6067 38.6878 51.5271 38.6317 51.4658C38.4465 51.6103 38.2707 51.7664 38.1055 51.9333Z" fill="#263238"/>
<path d="M40.5521 51.6888C40.5543 51.7772 40.5301 51.8644 40.4826 51.939C40.4351 52.0137 40.3664 52.0724 40.2852 52.1079C40.2041 52.1433 40.1143 52.1537 40.0273 52.1378C39.9402 52.1219 39.8599 52.0804 39.7965 52.0187C39.7331 51.9569 39.6896 51.8776 39.6715 51.791C39.6534 51.7044 39.6616 51.6143 39.6949 51.5323C39.7282 51.4504 39.7852 51.3802 39.8586 51.3308C39.9321 51.2814 40.0185 51.2549 40.107 51.2549C40.1647 51.2542 40.222 51.2648 40.2756 51.2862C40.3292 51.3076 40.3781 51.3394 40.4194 51.3797C40.4608 51.42 40.4937 51.468 40.5165 51.521C40.5393 51.5741 40.5514 51.6311 40.5521 51.6888Z" fill="white"/>
<path d="M39.8521 51.9333C39.8848 51.9679 39.9243 51.9954 39.9681 52.0141C40.0119 52.0329 40.0591 52.0425 40.1068 52.0424C40.1535 52.0428 40.1998 52.034 40.243 52.0165C40.2863 51.9989 40.3257 51.9731 40.359 51.9403C40.3922 51.9075 40.4187 51.8686 40.4369 51.8256C40.4551 51.7826 40.4647 51.7364 40.4651 51.6897C40.4634 51.6067 40.4316 51.5271 40.3755 51.4658C40.1912 51.6103 40.0163 51.7664 39.8521 51.9333Z" fill="#263238"/>
<path d="M42.2983 51.6888C42.3011 51.778 42.2772 51.8661 42.2296 51.9416C42.182 52.0171 42.1129 52.0767 42.0311 52.1127C41.9494 52.1486 41.8588 52.1594 41.771 52.1435C41.6831 52.1276 41.602 52.0858 41.5381 52.0235C41.4741 51.9611 41.4303 51.8811 41.4122 51.7937C41.394 51.7063 41.4025 51.6154 41.4363 51.5328C41.4702 51.4502 41.528 51.3796 41.6023 51.3301C41.6766 51.2806 41.764 51.2544 41.8533 51.2549C41.911 51.2542 41.9683 51.2648 42.0219 51.2862C42.0755 51.3076 42.1243 51.3394 42.1657 51.3797C42.207 51.42 42.24 51.468 42.2628 51.521C42.2855 51.5741 42.2976 51.6311 42.2983 51.6888Z" fill="white"/>
<path d="M41.5967 51.9333C41.6456 51.9847 41.7087 52.0202 41.778 52.0354C41.8473 52.0506 41.9195 52.0448 41.9854 52.0186C42.0514 51.9924 42.1079 51.9471 42.1479 51.8885C42.1879 51.8299 42.2094 51.7607 42.2097 51.6897C42.2094 51.6064 42.1774 51.5264 42.1201 51.4658C41.9358 51.6103 41.761 51.7664 41.5967 51.9333Z" fill="#263238"/>
<path d="M44.0428 51.6888C44.045 51.7772 44.0208 51.8644 43.9733 51.939C43.9258 52.0137 43.8571 52.0724 43.776 52.1079C43.6949 52.1433 43.605 52.1537 43.518 52.1378C43.4309 52.1219 43.3506 52.0804 43.2872 52.0187C43.2239 51.9569 43.1803 51.8776 43.1622 51.791C43.1441 51.7044 43.1523 51.6143 43.1856 51.5323C43.2189 51.4504 43.276 51.3802 43.3494 51.3308C43.4228 51.2814 43.5093 51.2549 43.5978 51.2549C43.6555 51.2542 43.7128 51.2648 43.7664 51.2862C43.82 51.3076 43.8688 51.3394 43.9101 51.3797C43.9515 51.42 43.9845 51.468 44.0072 51.521C44.03 51.5741 44.0421 51.6311 44.0428 51.6888Z" fill="white"/>
<path d="M43.3398 51.9333C43.3891 51.9842 43.4524 52.0194 43.5217 52.0344C43.591 52.0494 43.6632 52.0435 43.7292 52.0174C43.7951 51.9913 43.8518 51.9463 43.8921 51.8879C43.9324 51.8296 43.9546 51.7606 43.9557 51.6897C43.954 51.6067 43.9222 51.5271 43.8661 51.4658C43.6803 51.6095 43.5045 51.7657 43.3398 51.9333Z" fill="#263238"/>
<path d="M45.786 51.6888C45.7882 51.7772 45.764 51.8644 45.7165 51.939C45.6689 52.0137 45.6002 52.0724 45.5191 52.1079C45.438 52.1433 45.3482 52.1537 45.2612 52.1378C45.1741 52.1219 45.0938 52.0804 45.0304 52.0187C44.967 51.9569 44.9235 51.8776 44.9054 51.791C44.8873 51.7044 44.8954 51.6143 44.9288 51.5323C44.9621 51.4504 45.0191 51.3802 45.0925 51.3308C45.1659 51.2814 45.2524 51.2549 45.3409 51.2549C45.3986 51.2542 45.4559 51.2648 45.5095 51.2862C45.5631 51.3076 45.612 51.3394 45.6533 51.3797C45.6946 51.42 45.7276 51.468 45.7504 51.521C45.7732 51.5741 45.7852 51.6311 45.786 51.6888Z" fill="white"/>
<path d="M45.0835 51.9333C45.117 51.9677 45.157 51.9951 45.2013 52.0138C45.2455 52.0325 45.293 52.0423 45.341 52.0424C45.3877 52.0428 45.434 52.034 45.4773 52.0165C45.5205 51.9989 45.5599 51.9731 45.5932 51.9403C45.6265 51.9075 45.653 51.8686 45.6712 51.8256C45.6894 51.7826 45.6989 51.7364 45.6993 51.6897C45.6977 51.6067 45.6658 51.5271 45.6097 51.4658C45.4245 51.6103 45.2488 51.7664 45.0835 51.9333Z" fill="#263238"/>
<path d="M65.1142 48.9162C65.1158 49.0046 65.0912 49.0914 65.0433 49.1657C64.9954 49.24 64.9265 49.2983 64.8453 49.3333C64.7642 49.3683 64.6744 49.3783 64.5875 49.3621C64.5007 49.3459 64.4206 49.3042 64.3575 49.2423C64.2944 49.1804 64.2512 49.1011 64.2333 49.0146C64.2154 48.928 64.2238 48.8381 64.2572 48.7563C64.2906 48.6745 64.3476 48.6044 64.421 48.5552C64.4944 48.5059 64.5807 48.4795 64.6691 48.4795C64.727 48.4788 64.7846 48.4895 64.8383 48.5111C64.8921 48.5327 64.9411 48.5647 64.9825 48.6053C65.0238 48.6459 65.0568 48.6942 65.0794 48.7476C65.102 48.8009 65.1138 48.8582 65.1142 48.9162Z" fill="white"/>
<path d="M64.4146 49.1559C64.4633 49.2072 64.5262 49.2427 64.5952 49.258C64.6642 49.2733 64.7362 49.2676 64.802 49.2418C64.8678 49.2159 64.9244 49.1711 64.9646 49.1129C65.0048 49.0547 65.0267 48.9859 65.0276 48.9152C65.0266 48.8312 64.9947 48.7505 64.938 48.6885C64.7537 48.8329 64.5788 48.9891 64.4146 49.1559Z" fill="#263238"/>
<path d="M66.8609 48.9162C66.8631 49.0053 66.8387 49.0931 66.7907 49.1683C66.7428 49.2435 66.6735 49.3026 66.5917 49.3381C66.5099 49.3737 66.4194 49.384 66.3317 49.3678C66.244 49.3515 66.1632 49.3095 66.0995 49.2471C66.0359 49.1846 65.9923 49.1046 65.9744 49.0172C65.9565 48.9299 65.9651 48.8392 65.9991 48.7567C66.0331 48.6743 66.0909 48.6039 66.1652 48.5545C66.2394 48.5051 66.3267 48.479 66.4159 48.4795C66.4738 48.4788 66.5313 48.4895 66.5851 48.5111C66.6389 48.5327 66.6879 48.5647 66.7292 48.6053C66.7706 48.6459 66.8035 48.6942 66.8261 48.7476C66.8487 48.8009 66.8606 48.8582 66.8609 48.9162Z" fill="white"/>
<path d="M66.1582 49.1559C66.2069 49.2072 66.2698 49.2427 66.3388 49.258C66.4079 49.2733 66.4799 49.2676 66.5457 49.2418C66.6115 49.2159 66.6681 49.1711 66.7083 49.1129C66.7484 49.0547 66.7704 48.9859 66.7712 48.9152C66.7714 48.831 66.7393 48.7499 66.6816 48.6885C66.4973 48.8329 66.3225 48.9891 66.1582 49.1559Z" fill="#263238"/>
<path d="M68.6049 48.9162C68.6066 49.0046 68.5819 49.0914 68.534 49.1657C68.4861 49.24 68.4172 49.2983 68.336 49.3333C68.2549 49.3683 68.1651 49.3783 68.0783 49.3621C67.9914 49.3459 67.9113 49.3042 67.8482 49.2423C67.7851 49.1804 67.7419 49.1011 67.724 49.0146C67.7062 48.928 67.7145 48.8381 67.7479 48.7563C67.7813 48.6745 67.8384 48.6044 67.9117 48.5552C67.9851 48.5059 68.0714 48.4795 68.1598 48.4795C68.2178 48.4788 68.2753 48.4895 68.3291 48.5111C68.3829 48.5327 68.4318 48.5647 68.4732 48.6053C68.5146 48.6459 68.5475 48.6942 68.5701 48.7476C68.5927 48.8009 68.6045 48.8582 68.6049 48.9162Z" fill="white"/>
<path d="M67.9023 49.1559C67.9515 49.2068 68.0145 49.2419 68.0836 49.257C68.1526 49.272 68.2246 49.2664 68.2904 49.2406C68.3562 49.2149 68.413 49.1703 68.4535 49.1124C68.494 49.0545 68.5165 48.9859 68.5181 48.9152C68.5172 48.8312 68.4853 48.7505 68.4286 48.6885C68.2428 48.8322 68.067 48.9884 67.9023 49.1559Z" fill="#263238"/>
<path d="M70.3485 48.9162C70.3502 49.0046 70.3255 49.0914 70.2776 49.1657C70.2298 49.24 70.1609 49.2983 70.0797 49.3333C69.9985 49.3683 69.9088 49.3783 69.8219 49.3621C69.735 49.3459 69.6549 49.3042 69.5919 49.2423C69.5288 49.1804 69.4855 49.1011 69.4677 49.0146C69.4498 48.928 69.4581 48.8381 69.4916 48.7563C69.525 48.6745 69.582 48.6044 69.6554 48.5552C69.7287 48.5059 69.8151 48.4795 69.9035 48.4795C69.9614 48.4788 70.0189 48.4895 70.0727 48.5111C70.1265 48.5327 70.1755 48.5647 70.2169 48.6053C70.2582 48.6459 70.2912 48.6942 70.3138 48.7476C70.3364 48.8009 70.3482 48.8582 70.3485 48.9162Z" fill="white"/>
<path d="M69.646 49.1559C69.6795 49.1903 69.7195 49.2177 69.7638 49.2365C69.808 49.2552 69.8555 49.2649 69.9035 49.2651C69.9501 49.2658 69.9963 49.2574 70.0396 49.2401C70.0828 49.2229 70.1222 49.1973 70.1555 49.1648C70.1888 49.1323 70.2154 49.0935 70.2336 49.0506C70.2519 49.0078 70.2614 48.9618 70.2618 48.9152C70.2609 48.8312 70.229 48.7505 70.1722 48.6885C69.987 48.8329 69.8113 48.9891 69.646 49.1559Z" fill="#263238"/>
<path d="M72.0922 48.9162C72.0939 49.0046 72.0692 49.0914 72.0213 49.1657C71.9734 49.24 71.9045 49.2983 71.8233 49.3333C71.7422 49.3683 71.6524 49.3783 71.5656 49.3621C71.4787 49.3459 71.3986 49.3042 71.3355 49.2423C71.2724 49.1804 71.2292 49.1011 71.2113 49.0146C71.1935 48.928 71.2018 48.8381 71.2352 48.7563C71.2686 48.6745 71.3257 48.6044 71.399 48.5552C71.4724 48.5059 71.5587 48.4795 71.6471 48.4795C71.7051 48.4788 71.7626 48.4895 71.8164 48.5111C71.8702 48.5327 71.9191 48.5647 71.9605 48.6053C72.0019 48.6459 72.0348 48.6942 72.0574 48.7476C72.08 48.8009 72.0918 48.8582 72.0922 48.9162Z" fill="white"/>
<path d="M71.3926 49.1559C71.4413 49.2072 71.5042 49.2427 71.5732 49.258C71.6423 49.2733 71.7143 49.2676 71.7801 49.2418C71.8459 49.2159 71.9025 49.1711 71.9426 49.1129C71.9828 49.0547 72.0047 48.9859 72.0056 48.9152C72.0046 48.8312 71.9728 48.7505 71.916 48.6885C71.7311 48.8322 71.5562 48.9884 71.3926 49.1559Z" fill="#263238"/>
<path d="M73.8389 48.9162C73.8412 49.0052 73.8168 49.0929 73.769 49.168C73.7211 49.2431 73.652 49.3022 73.5704 49.3379C73.4888 49.3735 73.3984 49.384 73.3108 49.368C73.2232 49.352 73.1423 49.3102 73.0786 49.2481C73.0148 49.1859 72.971 49.1061 72.9528 49.019C72.9346 48.9318 72.9428 48.8412 72.9763 48.7587C73.0099 48.6762 73.0673 48.6056 73.1411 48.5559C73.215 48.5061 73.302 48.4796 73.3911 48.4795C73.4492 48.4788 73.5068 48.4895 73.5608 48.511C73.6147 48.5326 73.6639 48.5645 73.7055 48.6051C73.7471 48.6456 73.7802 48.694 73.8031 48.7474C73.826 48.8007 73.8382 48.8581 73.8389 48.9162Z" fill="white"/>
<path d="M73.1367 49.1559C73.1854 49.2072 73.2483 49.2427 73.3174 49.258C73.3864 49.2733 73.4584 49.2676 73.5242 49.2418C73.59 49.2159 73.6466 49.1711 73.6868 49.1129C73.727 49.0547 73.7489 48.9859 73.7497 48.9152C73.7488 48.8312 73.7169 48.7505 73.6602 48.6885C73.4758 48.8329 73.301 48.9891 73.1367 49.1559Z" fill="#263238"/>
<path d="M75.5831 48.9162C75.5853 49.0053 75.5609 49.0931 75.5129 49.1683C75.465 49.2435 75.3956 49.3026 75.3139 49.3381C75.2321 49.3737 75.1416 49.384 75.0539 49.3678C74.9662 49.3515 74.8854 49.3095 74.8217 49.2471C74.7581 49.1846 74.7145 49.1046 74.6966 49.0172C74.6787 48.9299 74.6873 48.8392 74.7213 48.7567C74.7553 48.6743 74.8131 48.6039 74.8873 48.5545C74.9616 48.5051 75.0489 48.479 75.138 48.4795C75.196 48.4788 75.2535 48.4895 75.3073 48.5111C75.361 48.5327 75.41 48.5647 75.4514 48.6053C75.4928 48.6459 75.5257 48.6942 75.5483 48.7476C75.5709 48.8009 75.5827 48.8582 75.5831 48.9162Z" fill="white"/>
<path d="M74.8804 49.1559C74.9291 49.2072 74.992 49.2427 75.061 49.258C75.13 49.2733 75.2021 49.2676 75.2679 49.2418C75.3337 49.2159 75.3903 49.1711 75.4304 49.1129C75.4706 49.0547 75.4925 48.9859 75.4934 48.9152C75.4935 48.831 75.4615 48.7499 75.4038 48.6885C75.2195 48.8329 75.0446 48.9891 74.8804 49.1559Z" fill="#263238"/>
<path d="M77.3266 48.9162C77.3282 49.0046 77.3036 49.0914 77.2557 49.1657C77.2078 49.24 77.1389 49.2983 77.0577 49.3333C76.9766 49.3683 76.8868 49.3783 76.7999 49.3621C76.7131 49.3459 76.633 49.3042 76.5699 49.2423C76.5068 49.1804 76.4636 49.1011 76.4457 49.0146C76.4278 48.928 76.4362 48.8381 76.4696 48.7563C76.503 48.6745 76.56 48.6044 76.6334 48.5552C76.7068 48.5059 76.7931 48.4795 76.8815 48.4795C76.9394 48.4788 76.997 48.4895 77.0508 48.5111C77.1045 48.5327 77.1535 48.5647 77.1949 48.6053C77.2362 48.6459 77.2692 48.6942 77.2918 48.7476C77.3144 48.8009 77.3262 48.8582 77.3266 48.9162Z" fill="white"/>
<path d="M76.624 49.1559C76.6731 49.2068 76.7362 49.2419 76.8052 49.257C76.8743 49.272 76.9463 49.2664 77.0121 49.2406C77.0779 49.2149 77.1347 49.1703 77.1752 49.1124C77.2157 49.0545 77.2382 48.9859 77.2398 48.9152C77.2389 48.8312 77.207 48.7505 77.1503 48.6885C76.9645 48.8322 76.7886 48.9884 76.624 49.1559Z" fill="#263238"/>
<path d="M79.0712 48.9162C79.0729 49.0046 79.0482 49.0914 79.0003 49.1657C78.9524 49.24 78.8835 49.2983 78.8023 49.3333C78.7212 49.3683 78.6314 49.3783 78.5446 49.3621C78.4577 49.3459 78.3776 49.3042 78.3145 49.2423C78.2514 49.1804 78.2082 49.1011 78.1903 49.0146C78.1725 48.928 78.1808 48.8381 78.2142 48.7563C78.2476 48.6745 78.3047 48.6044 78.378 48.5552C78.4514 48.5059 78.5378 48.4795 78.6261 48.4795C78.6841 48.4788 78.7416 48.4895 78.7954 48.5111C78.8492 48.5327 78.8982 48.5647 78.9395 48.6053C78.9809 48.6459 79.0138 48.6942 79.0364 48.7476C79.059 48.8009 79.0708 48.8582 79.0712 48.9162Z" fill="white"/>
<path d="M78.3599 49.1559C78.3934 49.1903 78.4334 49.2177 78.4776 49.2365C78.5218 49.2552 78.5694 49.2649 78.6174 49.2651C78.6639 49.2658 78.7102 49.2574 78.7534 49.2401C78.7967 49.2229 78.8361 49.1973 78.8694 49.1648C78.9027 49.1323 78.9293 49.0935 78.9475 49.0506C78.9657 49.0078 78.9753 48.9618 78.9757 48.9152C78.9747 48.8312 78.9428 48.7505 78.8861 48.6885C78.7009 48.8329 78.5251 48.9891 78.3599 49.1559Z" fill="#263238"/>
<path d="M80.8144 48.9162C80.816 49.0046 80.7914 49.0914 80.7435 49.1657C80.6956 49.24 80.6267 49.2983 80.5455 49.3333C80.4644 49.3683 80.3746 49.3783 80.2877 49.3621C80.2009 49.3459 80.1208 49.3042 80.0577 49.2423C79.9946 49.1804 79.9514 49.1011 79.9335 49.0146C79.9156 48.928 79.9239 48.8381 79.9574 48.7563C79.9908 48.6745 80.0478 48.6044 80.1212 48.5552C80.1945 48.5059 80.2809 48.4795 80.3693 48.4795C80.4272 48.4788 80.4848 48.4895 80.5385 48.5111C80.5923 48.5327 80.6413 48.5647 80.6827 48.6053C80.724 48.6459 80.757 48.6942 80.7796 48.7476C80.8022 48.8009 80.814 48.8582 80.8144 48.9162Z" fill="white"/>
<path d="M80.1147 49.1559C80.1635 49.2072 80.2264 49.2427 80.2954 49.258C80.3644 49.2733 80.4364 49.2676 80.5022 49.2418C80.568 49.2159 80.6246 49.1711 80.6648 49.1129C80.705 49.0547 80.7269 48.9859 80.7278 48.9152C80.7268 48.8312 80.6949 48.7505 80.6382 48.6885C80.4533 48.8322 80.2784 48.9884 80.1147 49.1559Z" fill="#263238"/>
<path d="M82.5582 48.9162C82.5604 49.0052 82.536 49.0929 82.4882 49.168C82.4404 49.2431 82.3712 49.3022 82.2896 49.3379C82.208 49.3735 82.1176 49.384 82.03 49.368C81.9424 49.352 81.8616 49.3102 81.7978 49.2481C81.734 49.1859 81.6903 49.1061 81.6721 49.019C81.6538 48.9318 81.662 48.8412 81.6956 48.7587C81.7291 48.6762 81.7865 48.6056 81.8604 48.5559C81.9343 48.5061 82.0213 48.4796 82.1103 48.4795C82.1684 48.4788 82.2261 48.4895 82.28 48.511C82.3339 48.5326 82.3831 48.5645 82.4247 48.6051C82.4663 48.6456 82.4995 48.694 82.5224 48.7474C82.5453 48.8007 82.5574 48.8581 82.5582 48.9162Z" fill="white"/>
<path d="M81.8584 49.1559C81.9071 49.2072 81.97 49.2427 82.039 49.258C82.1081 49.2733 82.1801 49.2676 82.2459 49.2418C82.3117 49.2159 82.3683 49.1711 82.4085 49.1129C82.4486 49.0547 82.4706 48.9859 82.4714 48.9152C82.4705 48.8312 82.4386 48.7505 82.3818 48.6885C82.1975 48.8329 82.0227 48.9891 81.8584 49.1559Z" fill="#263238"/>
<path d="M84.3056 48.9162C84.3072 49.0046 84.2826 49.0914 84.2347 49.1657C84.1868 49.24 84.1179 49.2983 84.0367 49.3333C83.9556 49.3683 83.8658 49.3783 83.7789 49.3621C83.6921 49.3459 83.612 49.3042 83.5489 49.2423C83.4858 49.1804 83.4426 49.1011 83.4247 49.0146C83.4069 48.928 83.4152 48.8381 83.4486 48.7563C83.482 48.6745 83.539 48.6044 83.6124 48.5552C83.6858 48.5059 83.7721 48.4795 83.8605 48.4795C83.9185 48.4788 83.976 48.4895 84.0298 48.5111C84.0835 48.5327 84.1325 48.5647 84.1739 48.6053C84.2153 48.6459 84.2482 48.6942 84.2708 48.7476C84.2934 48.8009 84.3052 48.8582 84.3056 48.9162Z" fill="white"/>
<path d="M83.6025 49.1559C83.6359 49.1905 83.676 49.2179 83.7202 49.2367C83.7644 49.2554 83.812 49.2651 83.8601 49.2651C83.9064 49.2655 83.9523 49.2567 83.9952 49.2393C84.0382 49.2219 84.0773 49.1963 84.1103 49.1638C84.1433 49.1313 84.1696 49.0926 84.1876 49.05C84.2057 49.0073 84.2152 48.9615 84.2155 48.9152C84.2157 48.831 84.1836 48.7499 84.126 48.6885C83.9417 48.8329 83.7668 48.9891 83.6025 49.1559Z" fill="#263238"/>
<path d="M86.0487 48.9162C86.0504 49.0046 86.0257 49.0914 85.9778 49.1657C85.93 49.24 85.8611 49.2983 85.7799 49.3333C85.6987 49.3683 85.609 49.3783 85.5221 49.3621C85.4352 49.3459 85.3552 49.3042 85.2921 49.2423C85.229 49.1804 85.1857 49.1011 85.1679 49.0146C85.15 48.928 85.1583 48.8381 85.1918 48.7563C85.2252 48.6745 85.2822 48.6044 85.3556 48.5552C85.4289 48.5059 85.5153 48.4795 85.6037 48.4795C85.6616 48.4788 85.7191 48.4895 85.7729 48.5111C85.8267 48.5327 85.8757 48.5647 85.9171 48.6053C85.9584 48.6459 85.9914 48.6942 86.014 48.7476C86.0366 48.8009 86.0484 48.8582 86.0487 48.9162Z" fill="white"/>
<path d="M85.3574 49.1559C85.4065 49.2068 85.4696 49.2419 85.5386 49.257C85.6077 49.272 85.6797 49.2664 85.7455 49.2406C85.8113 49.2149 85.8681 49.1703 85.9086 49.1124C85.9491 49.0545 85.9716 48.9859 85.9732 48.9152C85.9723 48.8312 85.9404 48.7505 85.8837 48.6885C85.6985 48.8329 85.5227 48.9891 85.3574 49.1559Z" fill="#263238"/>
<path d="M87.7924 48.9162C87.7941 49.0046 87.7694 49.0914 87.7215 49.1657C87.6736 49.24 87.6047 49.2983 87.5235 49.3333C87.4424 49.3683 87.3526 49.3783 87.2658 49.3621C87.1789 49.3459 87.0988 49.3042 87.0357 49.2423C86.9726 49.1804 86.9294 49.1011 86.9115 49.0146C86.8937 48.928 86.902 48.8381 86.9354 48.7563C86.9688 48.6745 87.0259 48.6044 87.0992 48.5552C87.1726 48.5059 87.2589 48.4795 87.3473 48.4795C87.4053 48.4788 87.4628 48.4895 87.5166 48.5111C87.5704 48.5327 87.6193 48.5647 87.6607 48.6053C87.7021 48.6459 87.735 48.6942 87.7576 48.7476C87.7802 48.8009 87.792 48.8582 87.7924 48.9162Z" fill="white"/>
<path d="M87.0898 49.1559C87.1234 49.1903 87.1634 49.2177 87.2076 49.2365C87.2518 49.2552 87.2993 49.2649 87.3474 49.2651C87.3939 49.2658 87.4401 49.2574 87.4834 49.2401C87.5267 49.2229 87.5661 49.1973 87.5994 49.1648C87.6327 49.1323 87.6592 49.0935 87.6775 49.0506C87.6957 49.0078 87.7053 48.9618 87.7057 48.9152C87.7047 48.8312 87.6728 48.7505 87.6161 48.6885C87.4309 48.8329 87.2551 48.9891 87.0898 49.1559Z" fill="#263238"/>
<path d="M65.1141 51.6888C65.1163 51.7772 65.0921 51.8644 65.0446 51.939C64.9971 52.0137 64.9284 52.0724 64.8473 52.1079C64.7662 52.1433 64.6763 52.1537 64.5893 52.1378C64.5022 52.1219 64.4219 52.0804 64.3585 52.0187C64.2951 51.9569 64.2516 51.8776 64.2335 51.791C64.2154 51.7044 64.2236 51.6143 64.2569 51.5323C64.2902 51.4504 64.3472 51.3802 64.4207 51.3308C64.4941 51.2814 64.5805 51.2549 64.669 51.2549C64.7268 51.2542 64.784 51.2648 64.8376 51.2862C64.8912 51.3076 64.9401 51.3394 64.9814 51.3797C65.0228 51.42 65.0558 51.468 65.0785 51.521C65.1013 51.5741 65.1134 51.6311 65.1141 51.6888Z" fill="white"/>
<path d="M64.4146 51.9333C64.4473 51.9679 64.4868 51.9954 64.5306 52.0141C64.5744 52.0329 64.6216 52.0425 64.6693 52.0424C64.716 52.0428 64.7623 52.034 64.8055 52.0165C64.8488 51.9989 64.8882 51.9731 64.9215 51.9403C64.9547 51.9075 64.9812 51.8686 64.9994 51.8256C65.0176 51.7826 65.0272 51.7364 65.0276 51.6897C65.0259 51.6067 64.9941 51.5271 64.938 51.4658C64.7537 51.6103 64.5788 51.7664 64.4146 51.9333Z" fill="#263238"/>
<path d="M66.8608 51.6888C66.8636 51.778 66.8397 51.8661 66.7921 51.9416C66.7445 52.0171 66.6753 52.0767 66.5936 52.1127C66.5119 52.1486 66.4213 52.1594 66.3335 52.1435C66.2456 52.1276 66.1645 52.0858 66.1006 52.0235C66.0366 51.9611 65.9928 51.8811 65.9747 51.7937C65.9565 51.7063 65.9649 51.6154 65.9988 51.5328C66.0327 51.4502 66.0905 51.3796 66.1648 51.3301C66.2391 51.2806 66.3265 51.2544 66.4158 51.2549C66.4735 51.2542 66.5308 51.2648 66.5844 51.2862C66.638 51.3076 66.6868 51.3394 66.7282 51.3797C66.7695 51.42 66.8025 51.468 66.8252 51.521C66.848 51.5741 66.8601 51.6311 66.8608 51.6888Z" fill="white"/>
<path d="M66.1582 51.9333C66.2071 51.9847 66.2702 52.0202 66.3395 52.0354C66.4088 52.0506 66.4811 52.0448 66.547 52.0186C66.6129 51.9924 66.6695 51.9471 66.7094 51.8885C66.7494 51.8299 66.7709 51.7607 66.7712 51.6897C66.7709 51.6064 66.7389 51.5264 66.6816 51.4658C66.4973 51.6103 66.3225 51.7664 66.1582 51.9333Z" fill="#263238"/>
<path d="M68.6048 51.6888C68.607 51.7772 68.5829 51.8644 68.5353 51.939C68.4878 52.0137 68.4191 52.0724 68.338 52.1079C68.2569 52.1433 68.1671 52.1537 68.08 52.1378C67.9929 52.1219 67.9126 52.0804 67.8492 52.0187C67.7859 51.9569 67.7424 51.8776 67.7243 51.791C67.7062 51.7044 67.7143 51.6143 67.7476 51.5323C67.7809 51.4504 67.838 51.3802 67.9114 51.3308C67.9848 51.2814 68.0713 51.2549 68.1598 51.2549C68.2175 51.2542 68.2748 51.2648 68.3284 51.2862C68.382 51.3076 68.4308 51.3394 68.4722 51.3797C68.5135 51.42 68.5465 51.468 68.5692 51.521C68.592 51.5741 68.6041 51.6311 68.6048 51.6888Z" fill="white"/>
<path d="M67.9023 51.9333C67.9516 51.9842 68.0149 52.0194 68.0842 52.0344C68.1535 52.0494 68.2257 52.0435 68.2917 52.0174C68.3576 51.9913 68.4143 51.9463 68.4546 51.8879C68.4949 51.8296 68.5171 51.7606 68.5181 51.6897C68.5165 51.6067 68.4847 51.5271 68.4286 51.4658C68.2428 51.6095 68.067 51.7657 67.9023 51.9333Z" fill="#263238"/>
<path d="M70.3485 51.6888C70.3507 51.7772 70.3265 51.8644 70.279 51.939C70.2315 52.0137 70.1627 52.0724 70.0816 52.1079C70.0005 52.1433 69.9107 52.1537 69.8237 52.1378C69.7366 52.1219 69.6563 52.0804 69.5929 52.0187C69.5295 51.9569 69.486 51.8776 69.4679 51.791C69.4498 51.7044 69.4579 51.6143 69.4913 51.5323C69.5246 51.4504 69.5816 51.3802 69.655 51.3308C69.7284 51.2814 69.8149 51.2549 69.9034 51.2549C69.9611 51.2542 70.0184 51.2648 70.072 51.2862C70.1256 51.3076 70.1745 51.3394 70.2158 51.3797C70.2571 51.42 70.2901 51.468 70.3129 51.521C70.3357 51.5741 70.3478 51.6311 70.3485 51.6888Z" fill="white"/>
<path d="M69.646 51.9333C69.6795 51.9677 69.7195 51.9951 69.7638 52.0138C69.808 52.0325 69.8555 52.0423 69.9035 52.0424C69.9502 52.0428 69.9965 52.034 70.0398 52.0165C70.083 51.9989 70.1224 51.9731 70.1557 51.9403C70.189 51.9075 70.2155 51.8686 70.2337 51.8256C70.2519 51.7826 70.2614 51.7364 70.2618 51.6897C70.2602 51.6067 70.2283 51.5271 70.1722 51.4658C69.987 51.6103 69.8113 51.7664 69.646 51.9333Z" fill="#263238"/>
<path d="M72.0926 51.6888C72.0948 51.7772 72.0706 51.8644 72.0231 51.939C71.9756 52.0137 71.9069 52.0724 71.8258 52.1079C71.7447 52.1433 71.6549 52.1537 71.5678 52.1378C71.4807 52.1219 71.4004 52.0804 71.337 52.0187C71.2737 51.9569 71.2301 51.8776 71.212 51.791C71.1939 51.7044 71.2021 51.6143 71.2354 51.5323C71.2687 51.4504 71.3258 51.3802 71.3992 51.3308C71.4726 51.2814 71.5591 51.2549 71.6476 51.2549C71.7053 51.2542 71.7626 51.2648 71.8162 51.2862C71.8698 51.3076 71.9186 51.3394 71.96 51.3797C72.0013 51.42 72.0343 51.468 72.057 51.521C72.0798 51.5741 72.0919 51.6311 72.0926 51.6888Z" fill="white"/>
<path d="M71.3926 51.9333C71.4254 51.9679 71.4649 51.9954 71.5087 52.0141C71.5525 52.0329 71.5996 52.0425 71.6473 52.0424C71.694 52.0428 71.7403 52.034 71.7836 52.0165C71.8268 51.9989 71.8662 51.9731 71.8995 51.9403C71.9328 51.9075 71.9593 51.8686 71.9775 51.8256C71.9957 51.7826 72.0052 51.7364 72.0056 51.6897C72.004 51.6067 71.9721 51.5271 71.916 51.4658C71.7311 51.6095 71.5562 51.7657 71.3926 51.9333Z" fill="#263238"/>
<path d="M73.8389 51.6888C73.8416 51.7779 73.8178 51.8658 73.7703 51.9413C73.7228 52.0168 73.6539 52.0763 73.5723 52.1124C73.4908 52.1484 73.4003 52.1593 73.3125 52.1437C73.2247 52.128 73.1436 52.0865 73.0796 52.0244C73.0156 51.9624 72.9715 51.8827 72.953 51.7954C72.9346 51.7082 72.9426 51.6174 72.9761 51.5348C73.0095 51.4521 73.0669 51.3813 73.1408 51.3315C73.2147 51.2816 73.3018 51.255 73.391 51.2549C73.5078 51.2534 73.6205 51.2982 73.7044 51.3795C73.7883 51.4608 73.8367 51.572 73.8389 51.6888Z" fill="white"/>
<path d="M73.1367 51.9333C73.1695 51.9679 73.209 51.9954 73.2528 52.0141C73.2966 52.0329 73.3438 52.0425 73.3914 52.0424C73.4381 52.0428 73.4844 52.034 73.5277 52.0165C73.571 51.9989 73.6104 51.9731 73.6436 51.9403C73.6769 51.9075 73.7034 51.8686 73.7216 51.8256C73.7398 51.7826 73.7494 51.7364 73.7497 51.6897C73.7481 51.6067 73.7163 51.5271 73.6602 51.4658C73.4758 51.6103 73.301 51.7664 73.1367 51.9333Z" fill="#263238"/>
<path d="M75.583 51.6888C75.5858 51.778 75.5618 51.8661 75.5142 51.9416C75.4666 52.0171 75.3975 52.0767 75.3158 52.1127C75.2341 52.1486 75.1435 52.1594 75.0556 52.1435C74.9678 52.1276 74.8867 52.0858 74.8227 52.0235C74.7588 51.9611 74.715 51.8811 74.6968 51.7937C74.6787 51.7063 74.6871 51.6154 74.721 51.5328C74.7549 51.4502 74.8127 51.3796 74.887 51.3301C74.9613 51.2806 75.0487 51.2544 75.1379 51.2549C75.1957 51.2542 75.2529 51.2648 75.3065 51.2862C75.3601 51.3076 75.409 51.3394 75.4503 51.3797C75.4917 51.42 75.5247 51.468 75.5474 51.521C75.5702 51.5741 75.5823 51.6311 75.583 51.6888Z" fill="white"/>
<path d="M74.8804 51.9333C74.9293 51.9847 74.9924 52.0202 75.0617 52.0354C75.131 52.0506 75.2032 52.0448 75.2691 52.0186C75.3351 51.9924 75.3916 51.9471 75.4316 51.8885C75.4716 51.8299 75.4931 51.7607 75.4934 51.6897C75.4931 51.6064 75.4611 51.5264 75.4038 51.4658C75.2195 51.6103 75.0446 51.7664 74.8804 51.9333Z" fill="#263238"/>
<path d="M77.3265 51.6888C77.3287 51.7772 77.3045 51.8644 77.257 51.939C77.2095 52.0137 77.1408 52.0724 77.0597 52.1079C76.9786 52.1433 76.8887 52.1537 76.8017 52.1378C76.7146 52.1219 76.6343 52.0804 76.5709 52.0187C76.5075 51.9569 76.464 51.8776 76.4459 51.791C76.4278 51.7044 76.436 51.6143 76.4693 51.5323C76.5026 51.4504 76.5596 51.3802 76.6331 51.3308C76.7065 51.2814 76.7929 51.2549 76.8814 51.2549C76.9392 51.2542 76.9964 51.2648 77.05 51.2862C77.1037 51.3076 77.1525 51.3394 77.1938 51.3797C77.2352 51.42 77.2682 51.468 77.2909 51.521C77.3137 51.5741 77.3258 51.6311 77.3265 51.6888Z" fill="white"/>
<path d="M76.624 51.9333C76.6733 51.9842 76.7366 52.0194 76.8059 52.0344C76.8752 52.0494 76.9474 52.0435 77.0133 52.0174C77.0793 51.9913 77.136 51.9463 77.1763 51.8879C77.2166 51.8296 77.2387 51.7606 77.2398 51.6897C77.2382 51.6067 77.2064 51.5271 77.1503 51.4658C76.9645 51.6095 76.7886 51.7657 76.624 51.9333Z" fill="#263238"/>
<path d="M79.0711 51.6888C79.0734 51.7772 79.0492 51.8644 79.0016 51.939C78.9541 52.0137 78.8854 52.0724 78.8043 52.1079C78.7232 52.1433 78.6334 52.1537 78.5463 52.1378C78.4593 52.1219 78.3789 52.0804 78.3155 52.0187C78.2522 51.9569 78.2087 51.8776 78.1906 51.791C78.1725 51.7044 78.1806 51.6143 78.2139 51.5323C78.2473 51.4504 78.3043 51.3802 78.3777 51.3308C78.4511 51.2814 78.5376 51.2549 78.6261 51.2549C78.6838 51.2542 78.7411 51.2648 78.7947 51.2862C78.8483 51.3076 78.8971 51.3394 78.9385 51.3797C78.9798 51.42 79.0128 51.468 79.0356 51.521C79.0583 51.5741 79.0704 51.6311 79.0711 51.6888Z" fill="white"/>
<path d="M78.3599 51.9333C78.3934 51.9677 78.4334 51.9951 78.4776 52.0138C78.5218 52.0325 78.5694 52.0423 78.6174 52.0424C78.6641 52.0428 78.7104 52.034 78.7536 52.0165C78.7969 51.9989 78.8363 51.9731 78.8696 51.9403C78.9028 51.9075 78.9293 51.8686 78.9475 51.8256C78.9657 51.7826 78.9753 51.7364 78.9757 51.6897C78.974 51.6067 78.9422 51.5271 78.8861 51.4658C78.7009 51.6103 78.5251 51.7664 78.3599 51.9333Z" fill="#263238"/>
<path d="M80.8143 51.6888C80.8165 51.7772 80.7923 51.8644 80.7448 51.939C80.6973 52.0137 80.6286 52.0724 80.5475 52.1079C80.4663 52.1433 80.3765 52.1537 80.2895 52.1378C80.2024 52.1219 80.1221 52.0804 80.0587 52.0187C79.9953 51.9569 79.9518 51.8776 79.9337 51.791C79.9156 51.7044 79.9238 51.6143 79.9571 51.5323C79.9904 51.4504 80.0474 51.3802 80.1209 51.3308C80.1943 51.2814 80.2807 51.2549 80.3692 51.2549C80.4269 51.2542 80.4842 51.2648 80.5378 51.2862C80.5914 51.3076 80.6403 51.3394 80.6816 51.3797C80.723 51.42 80.756 51.468 80.7787 51.521C80.8015 51.5741 80.8136 51.6311 80.8143 51.6888Z" fill="white"/>
<path d="M80.1147 51.9333C80.1475 51.9679 80.187 51.9954 80.2308 52.0141C80.2746 52.0329 80.3218 52.0425 80.3695 52.0424C80.4162 52.0428 80.4625 52.034 80.5057 52.0165C80.549 51.9989 80.5884 51.9731 80.6217 51.9403C80.6549 51.9075 80.6814 51.8686 80.6996 51.8256C80.7178 51.7826 80.7274 51.7364 80.7278 51.6897C80.7261 51.6067 80.6943 51.5271 80.6382 51.4658C80.4533 51.6095 80.2784 51.7657 80.1147 51.9333Z" fill="#263238"/>
<path d="M82.5581 51.6888C82.5609 51.7779 82.537 51.8658 82.4895 51.9413C82.442 52.0168 82.3731 52.0763 82.2915 52.1124C82.21 52.1484 82.1195 52.1593 82.0318 52.1437C81.944 52.128 81.8629 52.0865 81.7988 52.0244C81.7348 51.9624 81.6907 51.8827 81.6723 51.7954C81.6538 51.7082 81.6619 51.6174 81.6953 51.5348C81.7287 51.4521 81.7861 51.3813 81.86 51.3315C81.934 51.2816 82.0211 51.255 82.1102 51.2549C82.2271 51.2534 82.3397 51.2982 82.4236 51.3795C82.5076 51.4608 82.5559 51.572 82.5581 51.6888Z" fill="white"/>
<path d="M81.8584 51.9333C81.8912 51.9679 81.9307 51.9954 81.9745 52.0141C82.0183 52.0329 82.0655 52.0425 82.1131 52.0424C82.1598 52.0428 82.2061 52.034 82.2494 52.0165C82.2926 51.9989 82.332 51.9731 82.3653 51.9403C82.3986 51.9075 82.4251 51.8686 82.4433 51.8256C82.4615 51.7826 82.471 51.7364 82.4714 51.6897C82.4698 51.6067 82.4379 51.5271 82.3818 51.4658C82.1975 51.6103 82.0227 51.7664 81.8584 51.9333Z" fill="#263238"/>
<path d="M84.3055 51.6888C84.3077 51.7772 84.2835 51.8644 84.236 51.939C84.1885 52.0137 84.1198 52.0724 84.0387 52.1079C83.9576 52.1433 83.8677 52.1537 83.7807 52.1378C83.6936 52.1219 83.6133 52.0804 83.5499 52.0187C83.4866 51.9569 83.443 51.8776 83.4249 51.791C83.4068 51.7044 83.415 51.6143 83.4483 51.5323C83.4816 51.4504 83.5387 51.3802 83.6121 51.3308C83.6855 51.2814 83.772 51.2549 83.8604 51.2549C83.9182 51.2542 83.9755 51.2648 84.0291 51.2862C84.0827 51.3076 84.1315 51.3394 84.1728 51.3797C84.2142 51.42 84.2472 51.468 84.2699 51.521C84.2927 51.5741 84.3048 51.6311 84.3055 51.6888Z" fill="white"/>
<path d="M83.6025 51.9333C83.6514 51.9847 83.7146 52.0202 83.7839 52.0354C83.8531 52.0506 83.9254 52.0448 83.9913 52.0186C84.0572 51.9924 84.1138 51.9471 84.1538 51.8885C84.1937 51.8299 84.2152 51.7607 84.2155 51.6897C84.2153 51.6064 84.1832 51.5264 84.126 51.4658C83.9417 51.6103 83.7668 51.7664 83.6025 51.9333Z" fill="#263238"/>
<path d="M86.0487 51.6888C86.0509 51.7772 86.0267 51.8644 85.9792 51.939C85.9316 52.0137 85.8629 52.0724 85.7818 52.1079C85.7007 52.1433 85.6109 52.1537 85.5239 52.1378C85.4368 52.1219 85.3565 52.0804 85.2931 52.0187C85.2297 51.9569 85.1862 51.8776 85.1681 51.791C85.15 51.7044 85.1581 51.6143 85.1915 51.5323C85.2248 51.4504 85.2818 51.3802 85.3552 51.3308C85.4286 51.2814 85.5151 51.2549 85.6036 51.2549C85.6613 51.2542 85.7186 51.2648 85.7722 51.2862C85.8258 51.3076 85.8747 51.3394 85.916 51.3797C85.9573 51.42 85.9903 51.468 86.0131 51.521C86.0358 51.5741 86.0479 51.6311 86.0487 51.6888Z" fill="white"/>
<path d="M85.3574 51.9333C85.4067 51.9842 85.47 52.0194 85.5393 52.0344C85.6086 52.0494 85.6808 52.0435 85.7467 52.0174C85.8127 51.9913 85.8694 51.9463 85.9097 51.8879C85.95 51.8296 85.9721 51.7606 85.9732 51.6897C85.9716 51.6067 85.9398 51.5271 85.8837 51.4658C85.6985 51.6103 85.5227 51.7664 85.3574 51.9333Z" fill="#263238"/>
<path d="M87.7923 51.6888C87.7946 51.7772 87.7704 51.8644 87.7228 51.939C87.6753 52.0137 87.6066 52.0724 87.5255 52.1079C87.4444 52.1433 87.3546 52.1537 87.2675 52.1378C87.1804 52.1219 87.1001 52.0804 87.0367 52.0187C86.9734 51.9569 86.9299 51.8776 86.9118 51.791C86.8937 51.7044 86.9018 51.6143 86.9351 51.5323C86.9685 51.4504 87.0255 51.3802 87.0989 51.3308C87.1723 51.2814 87.2588 51.2549 87.3473 51.2549C87.405 51.2542 87.4623 51.2648 87.5159 51.2862C87.5695 51.3076 87.6183 51.3394 87.6597 51.3797C87.701 51.42 87.734 51.468 87.7567 51.521C87.7795 51.5741 87.7916 51.6311 87.7923 51.6888Z" fill="white"/>
<path d="M87.0898 51.9333C87.1234 51.9677 87.1634 51.9951 87.2076 52.0138C87.2518 52.0325 87.2993 52.0423 87.3474 52.0424C87.394 52.0428 87.4403 52.034 87.4836 52.0165C87.5269 51.9989 87.5663 51.9731 87.5996 51.9403C87.6328 51.9075 87.6593 51.8686 87.6775 51.8256C87.6957 51.7826 87.7053 51.7364 87.7057 51.6897C87.704 51.6067 87.6722 51.5271 87.6161 51.4658C87.4309 51.6103 87.2551 51.7664 87.0898 51.9333Z" fill="#263238"/>
<path d="M61.9595 46.763H48.4649C48.1718 46.7631 47.8903 46.6482 47.681 46.443C47.4716 46.2379 47.3511 45.9588 47.3452 45.6658V39.4405C47.3452 35.1942 50.8749 31.7373 55.2136 31.7373C59.5522 31.7373 63.0847 35.1942 63.0847 39.4405V45.6658C63.0788 45.9598 62.9575 46.2397 62.747 46.445C62.5364 46.6503 62.2535 46.7645 61.9595 46.763ZM49.5845 44.5797H60.837V39.4405C60.837 37.9483 60.2442 36.5173 59.1891 35.4621C58.134 34.407 56.7029 33.8143 55.2108 33.8143C53.7186 33.8143 52.2875 34.407 51.2324 35.4621C50.1773 36.5173 49.5845 37.9483 49.5845 39.4405V44.5797Z" fill="white" stroke="#263238" stroke-width="0.210807" stroke-linecap="round" stroke-linejoin="round"/>
<path d="M63.6893 43.7627H46.5083V57.9767H63.6893V43.7627Z" fill="#92E3A9" stroke="#263238" stroke-width="0.210807" stroke-linecap="round" stroke-linejoin="round"/>
<path d="M56.8879 49.6655C56.8692 49.1817 56.6639 48.724 56.315 48.3884C55.9661 48.0527 55.5008 47.8652 55.0167 47.8652C54.5326 47.8652 54.0673 48.0527 53.7184 48.3884C53.3696 48.724 53.1642 49.1817 53.1455 49.6655C53.147 49.9982 53.2393 50.3242 53.4125 50.6083C53.5856 50.8924 53.833 51.1239 54.128 51.2778L53.8145 54.5052H56.2189L55.9054 51.2778C56.2004 51.1239 56.4479 50.8924 56.621 50.6083C56.7941 50.3242 56.8864 49.9982 56.8879 49.6655Z" fill="#263238" stroke="#263238" stroke-width="0.210807" stroke-linecap="round" stroke-linejoin="round"/>
<path d="M93.895 107C101.238 107 107.191 105.684 107.191 104.061C107.191 102.438 101.238 101.122 93.895 101.122C86.5519 101.122 80.5991 102.438 80.5991 104.061C80.5991 105.684 86.5519 107 93.895 107Z" fill="#92E3A9"/>
<path opacity="0.5" d="M93.895 107C101.238 107 107.191 105.684 107.191 104.061C107.191 102.438 101.238 101.122 93.895 101.122C86.5519 101.122 80.5991 102.438 80.5991 104.061C80.5991 105.684 86.5519 107 93.895 107Z" fill="white"/>
<path d="M86.9419 101.057C86.9419 101.057 83.7173 102.87 83.7173 103.744C83.7173 104.617 85.7075 104.08 87.0091 103.464C88.3106 102.848 89.3435 102.389 89.3435 101.18C89.3435 99.9705 86.9419 101.057 86.9419 101.057Z" fill="#92E3A9" stroke="#263238" stroke-width="0.210807" stroke-miterlimit="10"/>
<path d="M102.379 101.057C102.379 101.057 105.604 102.87 105.604 103.744C105.604 104.617 103.614 104.08 102.312 103.464C101.01 102.848 99.9775 102.389 99.9775 101.18C99.9775 99.9705 102.379 101.057 102.379 101.057Z" fill="#92E3A9" stroke="#263238" stroke-width="0.210807" stroke-miterlimit="10"/>
<path d="M88.246 71.3652L86.8716 101.403C87.0616 101.559 87.2814 101.675 87.5176 101.745C87.7538 101.814 88.0015 101.835 88.246 101.806C88.6725 101.743 89.062 101.528 89.3432 101.201L94.0094 76.6836H94.9694L99.9127 101.66C100.208 101.824 100.536 101.919 100.873 101.94C101.351 101.94 102.107 101.335 102.107 101.335L100.529 71.3848L88.246 71.3652Z" fill="#263238" stroke="#263238" stroke-width="0.210807" stroke-miterlimit="10"/>
<path d="M93.0495 53.1617L86.8047 55.7117L88.4506 70.2224H100.389L102.586 55.1743L95.7927 53.0273L93.0495 53.1617Z" fill="#92E3A9" stroke="#263238" stroke-width="0.210807" stroke-miterlimit="10"/>
<path d="M93.7354 55.242L94.4883 56.4512L93.2539 66.864L94.7626 69.0809L96.067 66.6624L95.0369 56.3169L95.9299 54.9089L94.6255 54.3379L93.7354 55.242Z" fill="#263238" stroke="#263238" stroke-width="0.210807" stroke-miterlimit="10"/>
<path d="M94.6253 54.3384L93.6232 56.0542L91.8374 53.675L92.8367 52.4854L94.6253 54.3384Z" fill="#92E3A9" stroke="#263238" stroke-width="0.210807" stroke-miterlimit="10"/>
<path d="M94.625 54.3377L95.8398 56.2271L97.3038 53.5343L96.4472 52.4482L94.625 54.3377Z" fill="#92E3A9" stroke="#263238" stroke-width="0.210807" stroke-miterlimit="10"/>
<path d="M92.2012 58.3994H87.9941V59.8326L90.0991 60.6387L92.2012 59.743V58.3994Z" fill="#92E3A9" stroke="#263238" stroke-width="0.210807" stroke-miterlimit="10"/>
<path d="M100.618 58.3994H96.4111V59.8326L98.5133 60.6387L100.618 59.743V58.3994Z" fill="#92E3A9" stroke="#263238" stroke-width="0.210807" stroke-miterlimit="10"/>
<path d="M100.529 69.9551H88.2461V71.3658H100.529V69.9551Z" fill="#263238" stroke="#263238" stroke-width="0.210807" stroke-miterlimit="10"/>
<path d="M88.0385 71.0967L85.9112 71.97C85.8763 72.578 85.9224 73.188 86.0483 73.7838C86.2555 74.59 86.5298 76.3366 86.7341 76.6725C86.9385 77.0084 87.9713 77.6802 88.1085 77.4787C88.2456 77.2771 88.9314 71.3654 88.9314 71.3654L88.0385 71.0967Z" fill="#263238" stroke="#263238" stroke-width="0.210807" stroke-miterlimit="10"/>
<path d="M92.8369 50.0354V52.4846L94.6256 54.3377L96.4478 52.4483V49.999L92.8369 50.0354Z" fill="white" stroke="#263238" stroke-width="0.210807" stroke-miterlimit="10"/>
<path d="M91.588 47.763C91.588 47.763 91.2661 47.0269 91.0505 47.4831C90.835 47.9394 91.0869 48.6364 91.4088 48.9163C91.6456 49.088 91.9388 49.163 92.2289 49.1262L92.0498 48.0765L91.588 47.763Z" fill="white" stroke="#263238" stroke-width="0.210807" stroke-miterlimit="10"/>
<path d="M97.4104 47.763C97.4104 47.763 97.7323 47.0269 97.9478 47.4831C98.1634 47.9394 97.9114 48.6364 97.5895 48.9163C97.3518 49.0881 97.0576 49.1632 96.7666 49.1262L96.9457 48.0765L97.4104 47.763Z" fill="white" stroke="#263238" stroke-width="0.210807" stroke-miterlimit="10"/>
<path d="M92.1955 42.9008C92.1955 42.9008 90.6924 43.5306 90.6924 44.5802C90.6924 45.6299 90.9079 46.8195 91.2662 47.2758C91.6245 47.7321 91.9072 48.0456 91.9072 48.0456L91.98 46.5396L93.0157 44.7566C93.0157 44.7566 94.7315 45.8399 95.5881 45.8399C96.0669 45.8441 96.5452 45.8095 97.0184 45.7363L97.3403 47.5193L97.805 46.2261V45.0365C97.805 45.0365 98.6615 44.2304 98.4824 43.7069C98.3032 43.1835 95.4033 41.5376 93.6231 41.9575C91.8428 42.3773 92.1955 42.9008 92.1955 42.9008Z" fill="#263238" stroke="#263238" stroke-width="0.210807" stroke-miterlimit="10"/>
<path d="M91.479 46.4327C91.479 46.4327 91.9073 49.0555 92.2656 49.7552C92.7367 50.5317 93.3142 51.2384 93.9814 51.8546C94.2305 52.0281 95.1599 51.8882 95.5181 51.8882C95.8764 51.8882 96.9177 49.7888 97.0885 49.4054C97.2592 49.0219 97.3684 45.7329 97.3684 45.7329L97.0549 45.1395C97.0549 45.1395 95.5181 45.5258 94.3033 45.0359C93.6439 44.7997 93.054 44.4023 92.5875 43.8799C92.5875 43.8799 92.4811 45.0695 92.05 45.7693C91.619 46.4691 91.479 46.4327 91.479 46.4327Z" fill="white" stroke="#263238" stroke-width="0.210807" stroke-miterlimit="10"/>
<path d="M94.2306 46.7123C93.7984 46.4865 93.3187 46.3666 92.831 46.3624C92.4125 46.3458 91.996 46.4293 91.6162 46.6059C91.6162 46.6059 91.6162 47.7956 92.0109 48.2518C92.4056 48.7081 93.5476 48.5653 93.8695 48.1818C94.1914 47.7984 94.2306 46.7123 94.2306 46.7123Z" fill="#263238" stroke="#263238" stroke-width="0.210807" stroke-miterlimit="10"/>
<path d="M94.7314 46.7123C95.1637 46.4865 95.6434 46.3666 96.131 46.3624C96.5496 46.3458 96.966 46.4293 97.3458 46.6059C97.3458 46.6059 97.3458 47.7956 96.9512 48.2518C96.5565 48.7081 95.4144 48.5653 95.0953 48.1818C94.7762 47.7984 94.7314 46.7123 94.7314 46.7123Z" fill="#263238" stroke="#263238" stroke-width="0.210807" stroke-miterlimit="10"/>
<path d="M94.231 46.7139H94.732" stroke="#263238" stroke-width="0.210807" stroke-miterlimit="10"/>
<path d="M86.8719 68.8787L89.1364 68.8115L90.8522 70.3566C90.8495 70.5542 90.7771 70.7446 90.6479 70.8941C90.4408 71.0956 89.8921 70.9612 89.8921 70.9612C89.8921 70.9612 89.4807 71.9689 88.7249 71.9689C87.9691 71.9689 85.9258 70.5694 85.9258 70.5694L86.8719 68.8787Z" fill="white" stroke="#263238" stroke-width="0.210807" stroke-miterlimit="10"/>
<path d="M86.8049 55.7119L79.1885 65.7216L85.912 70.5585L86.8721 68.879L84.8147 64.9154L87.6278 62.3626L86.8049 55.7119Z" fill="#92E3A9" stroke="#263238" stroke-width="0.210807" stroke-miterlimit="10"/>
<path d="M86.3231 67.7373L85.1587 69.8199" stroke="#263238" stroke-width="0.210807" stroke-linecap="round" stroke-linejoin="round"/>
<path d="M84.8148 64.9159L83.9219 62.6318" stroke="#263238" stroke-width="0.210807" stroke-linecap="round" stroke-linejoin="round"/>
<path d="M102.586 68.8787L100.321 68.8115L98.6055 70.3566C98.609 70.5546 98.6824 70.745 98.8126 70.8941C99.0169 71.0956 99.5656 70.9612 99.5656 70.9612C99.5656 70.9612 99.977 71.9689 100.733 71.9689C101.489 71.9689 103.546 70.5694 103.546 70.5694L102.586 68.8787Z" fill="white" stroke="#263238" stroke-width="0.210807" stroke-miterlimit="10"/>
<path d="M102.586 55.1748L110.27 65.7219L103.546 70.5588L102.586 68.8793L104.644 64.9158L101.419 62.2958L102.586 55.1748Z" fill="#92E3A9" stroke="#263238" stroke-width="0.210807" stroke-miterlimit="10"/>
<path d="M103.135 67.7373L104.3 69.8199" stroke="#263238" stroke-width="0.210807" stroke-linecap="round" stroke-linejoin="round"/>
<path d="M104.644 64.9159L105.536 62.6318" stroke="#263238" stroke-width="0.210807" stroke-linecap="round" stroke-linejoin="round"/>
<path d="M16.0791 107C23.4221 107 29.3749 105.684 29.3749 104.061C29.3749 102.438 23.4221 101.122 16.0791 101.122C8.73596 101.122 2.7832 102.438 2.7832 104.061C2.7832 105.684 8.73596 107 16.0791 107Z" fill="#92E3A9"/>
<path opacity="0.5" d="M16.0791 107C23.4221 107 29.3749 105.684 29.3749 104.061C29.3749 102.438 23.4221 101.122 16.0791 101.122C8.73596 101.122 2.7832 102.438 2.7832 104.061C2.7832 105.684 8.73596 107 16.0791 107Z" fill="white"/>
<path d="M9.17088 101.057C9.17088 101.057 5.94629 102.87 5.94629 103.744C5.94629 104.617 7.93647 104.08 9.24086 103.464C10.5453 102.848 11.5725 102.389 11.5725 101.18C11.5725 99.9705 9.17088 101.057 9.17088 101.057Z" fill="#92E3A9" stroke="#263238" stroke-width="0.210807" stroke-miterlimit="10"/>
<path d="M24.6165 101.057C24.6165 101.057 27.8411 102.87 27.8411 103.744C27.8411 104.617 25.8537 104.08 24.5493 103.464C23.2449 102.848 22.2148 102.389 22.2148 101.18C22.2148 99.9705 24.6165 101.057 24.6165 101.057Z" fill="#92E3A9" stroke="#263238" stroke-width="0.210807" stroke-miterlimit="10"/>
<path d="M10.4751 71.3652L9.10352 101.403C9.29299 101.559 9.51224 101.675 9.74799 101.745C9.98374 101.814 10.2311 101.835 10.4751 101.806C10.9016 101.743 11.2911 101.528 11.5723 101.201L16.2385 76.6836H17.1986L22.139 101.671C22.4343 101.835 22.7623 101.93 23.0991 101.951C23.5806 101.951 24.3336 101.347 24.3336 101.347L22.7549 71.396L10.4751 71.3652Z" fill="#263238" stroke="#263238" stroke-width="0.210807" stroke-miterlimit="10"/>
<path d="M15.2781 53.1617L9.0332 55.7117L10.6791 70.2224H22.6202L24.8147 55.1743L18.0212 53.0273L15.2781 53.1617Z" fill="#92E3A9" stroke="#263238" stroke-width="0.210807" stroke-miterlimit="10"/>
<path d="M22.7572 69.9551H10.4746V71.3658H22.7572V69.9551Z" fill="#263238" stroke="#263238" stroke-width="0.210807" stroke-miterlimit="10"/>
<path d="M10.2675 71.0967L8.14019 71.97C8.1053 72.578 8.15142 73.188 8.27735 73.7838C8.48448 74.59 8.75879 76.3366 8.96593 76.6725C9.17307 77.0084 10.2003 77.6802 10.3375 77.4787C10.4747 77.2771 11.1604 71.3654 11.1604 71.3654L10.2675 71.0967Z" fill="#263238" stroke="#263238" stroke-width="0.210807" stroke-miterlimit="10"/>
<path d="M15.0679 50.0354V52.4846L16.8537 54.3377L18.6759 52.4483V49.999L15.0679 50.0354Z" fill="white" stroke="#263238" stroke-width="0.210807" stroke-miterlimit="10"/>
<path d="M13.817 47.763C13.817 47.763 13.4951 47.0269 13.2795 47.4831C13.064 47.9394 13.3159 48.6364 13.6378 48.9163C13.8756 49.0881 14.1697 49.1632 14.4608 49.1262L14.2816 48.0765L13.817 47.763Z" fill="white" stroke="#263238" stroke-width="0.210807" stroke-miterlimit="10"/>
<path d="M19.639 47.763C19.639 47.763 19.9609 47.0269 20.1765 47.4831C20.392 47.9394 20.1401 48.6364 19.8182 48.9163C19.5814 49.088 19.2882 49.163 18.998 49.1262L19.1744 48.0765L19.639 47.763Z" fill="white" stroke="#263238" stroke-width="0.210807" stroke-miterlimit="10"/>
<path d="M14.4242 42.9008C14.4242 42.9008 12.9238 43.5306 12.9238 44.5802C12.9238 45.6299 13.1366 46.8195 13.4837 47.2758C13.8307 47.7321 14.1275 48.0456 14.1275 48.0456L14.1974 46.5396L15.2331 44.7566C15.2331 44.7566 16.949 45.8399 17.8055 45.8399C18.2843 45.8441 18.7627 45.8095 19.2359 45.7363L19.5578 47.5193L20.0224 46.2261V45.0365C20.0224 45.0365 20.8789 44.2304 20.6998 43.7069C20.5207 43.1835 17.6208 41.5376 15.8405 41.9575C14.0603 42.3773 14.4242 42.9008 14.4242 42.9008Z" fill="#263238" stroke="#263238" stroke-width="0.210807" stroke-miterlimit="10"/>
<path d="M13.6997 46.4327C13.6997 46.4327 14.1308 49.0555 14.4863 49.7552C14.9631 50.5332 15.5463 51.2408 16.2189 51.8574C16.468 52.0309 17.3974 51.891 17.7556 51.891C18.1139 51.891 19.1552 49.7916 19.3287 49.4082C19.5023 49.0247 19.6087 45.7357 19.6087 45.7357L19.298 45.1395C19.298 45.1395 17.7612 45.5258 16.5464 45.0359C15.887 44.7997 15.2971 44.4023 14.8306 43.8799C14.8306 43.8799 14.7242 45.0695 14.2959 45.7693C13.8677 46.4691 13.6997 46.4327 13.6997 46.4327Z" fill="white" stroke="#263238" stroke-width="0.210807" stroke-miterlimit="10"/>
<path d="M16.4596 46.7123C16.0274 46.4865 15.5477 46.3666 15.06 46.3624C14.6415 46.3458 14.225 46.4293 13.8452 46.6059C13.8452 46.6059 13.8452 47.7956 14.2371 48.2518C14.629 48.7081 15.7738 48.5653 16.0957 48.1818C16.4176 47.7984 16.4596 46.7123 16.4596 46.7123Z" fill="#263238" stroke="#263238" stroke-width="0.210807" stroke-miterlimit="10"/>
<path d="M16.9604 46.7123C17.3927 46.4865 17.8724 46.3666 18.36 46.3624C18.7786 46.3458 19.195 46.4293 19.5748 46.6059C19.5748 46.6059 19.5748 47.7956 19.1802 48.2518C18.7855 48.7081 17.6462 48.5653 17.3243 48.1818C17.0024 47.7984 16.9604 46.7123 16.9604 46.7123Z" fill="#263238" stroke="#263238" stroke-width="0.210807" stroke-miterlimit="10"/>
<path d="M16.4595 46.7139H16.9605" stroke="#263238" stroke-width="0.210807" stroke-miterlimit="10"/>
<path d="M15.9639 55.242L16.7168 56.4512L15.4824 66.864L16.9939 69.0809L18.2955 66.6624L17.2683 56.3169L18.1584 54.9089L16.854 54.3379L15.9639 55.242Z" fill="#263238" stroke="#263238" stroke-width="0.210807" stroke-miterlimit="10"/>
<path d="M16.8548 54.3384L15.8527 56.0542L14.0669 53.675L15.069 52.4854L16.8548 54.3384Z" fill="#92E3A9" stroke="#263238" stroke-width="0.210807" stroke-miterlimit="10"/>
<path d="M16.854 54.3377L18.0688 56.2271L19.5328 53.5343L18.6762 52.4482L16.854 54.3377Z" fill="#92E3A9" stroke="#263238" stroke-width="0.210807" stroke-miterlimit="10"/>
<path d="M9.03341 55.7119L1.41699 65.7216L8.14049 70.5585L9.10339 68.879L7.04323 64.9154L9.85635 62.3626L9.03341 55.7119Z" fill="#92E3A9" stroke="#263238" stroke-width="0.210807" stroke-miterlimit="10"/>
<path d="M9.1032 68.8787L11.3649 68.8115L13.0808 70.3566C13.078 70.5542 13.0057 70.7446 12.8764 70.8941C12.6693 71.0956 12.1207 70.9612 12.1207 70.9612C12.1207 70.9612 11.7092 71.9689 10.9534 71.9689C10.1977 71.9689 8.1543 70.5694 8.1543 70.5694L9.1032 68.8787Z" fill="white" stroke="#263238" stroke-width="0.210807" stroke-miterlimit="10"/>
<path d="M8.55493 67.7373L7.3877 69.8199" stroke="#263238" stroke-width="0.210807" stroke-linecap="round" stroke-linejoin="round"/>
<path d="M7.04295 64.9159L6.15283 62.6318" stroke="#263238" stroke-width="0.210807" stroke-linecap="round" stroke-linejoin="round"/>
<path d="M24.8152 55.1748L32.4988 65.7219L25.7753 70.5588L24.8152 68.8793L26.8725 64.9158L23.6479 62.2958L24.8152 55.1748Z" fill="#92E3A9" stroke="#263238" stroke-width="0.210807" stroke-miterlimit="10"/>
<path d="M24.8153 68.8787L22.5508 68.8115L20.835 70.3566C20.8385 70.5546 20.9119 70.745 21.0421 70.8941C21.2464 71.0956 21.7951 70.9612 21.7951 70.9612C21.7951 70.9612 22.2065 71.9689 22.9623 71.9689C23.7181 71.9689 25.7614 70.5694 25.7614 70.5694L24.8153 68.8787Z" fill="white" stroke="#263238" stroke-width="0.210807" stroke-miterlimit="10"/>
<path d="M25.3638 67.7373L26.531 69.8199" stroke="#263238" stroke-width="0.210807" stroke-linecap="round" stroke-linejoin="round"/>
<path d="M26.8721 64.9159L27.765 62.6318" stroke="#263238" stroke-width="0.210807" stroke-linecap="round" stroke-linejoin="round"/>
<path d="M14.4302 58.3994H10.2231V59.8326L12.3281 60.6387L14.4302 59.743V58.3994Z" fill="#92E3A9" stroke="#263238" stroke-width="0.210807" stroke-miterlimit="10"/>
<path d="M22.8467 58.3994H18.6396V59.8326L20.7446 60.6387L22.8467 59.743V58.3994Z" fill="#92E3A9" stroke="#263238" stroke-width="0.210807" stroke-miterlimit="10"/>
</svg>
