<svg width="144" height="107" viewBox="0 0 144 107" fill="none" xmlns="http://www.w3.org/2000/svg">
<path d="M143.601 94.0312H0V94.1031H143.601V94.0312Z" fill="#EBEBEB"/>
<path d="M49.7486 95.8623H43.0913V95.9341H49.7486V95.8623Z" fill="#EBEBEB"/>
<path d="M131.76 97.4014H115.484V97.4732H131.76V97.4014Z" fill="#EBEBEB"/>
<path d="M28.5448 97.4014H12.269V97.4732H28.5448V97.4014Z" fill="#EBEBEB"/>
<path d="M68.0669 81.2206H12.6112C12.1767 81.2198 11.7604 81.0467 11.4534 80.7393C11.1465 80.4318 10.9741 80.0151 10.9741 79.5807V1.62556C10.9779 1.19362 11.152 0.780608 11.4585 0.476243C11.765 0.171878 12.1792 0.000739943 12.6112 0H68.0669C68.5019 0 68.919 0.172777 69.2265 0.480322C69.5341 0.787867 69.7068 1.20499 69.7068 1.63992V79.5807C69.7068 80.0156 69.5341 80.4327 69.2265 80.7403C68.919 81.0478 68.5019 81.2206 68.0669 81.2206ZM12.6112 0.0574405C12.1958 0.0582013 11.7977 0.223749 11.5042 0.517746C11.2107 0.811743 11.0459 1.21017 11.0459 1.62556V79.5807C11.0459 79.9961 11.2107 80.3945 11.5042 80.6885C11.7977 80.9825 12.1958 81.148 12.6112 81.1488H68.0669C68.4824 81.1473 68.8803 80.9816 69.1741 80.6878C69.4678 80.3941 69.6335 79.9961 69.635 79.5807V1.62556C69.6335 1.21014 69.4678 0.812157 69.1741 0.518404C68.8803 0.224652 68.4824 0.0589539 68.0669 0.0574405H12.6112Z" fill="#EBEBEB"/>
<path d="M130.191 81.2206H74.7327C74.2982 81.2191 73.882 81.0458 73.5748 80.7386C73.2676 80.4314 73.0943 80.0151 73.0928 79.5807V1.62556C73.0973 1.19335 73.272 0.780349 73.579 0.476063C73.8859 0.171778 74.3005 0.000731873 74.7327 0H130.191C130.623 0.00149474 131.036 0.172967 131.342 0.477251C131.648 0.781535 131.822 1.19411 131.825 1.62556V79.5807C131.826 79.7957 131.784 80.0086 131.702 80.2074C131.62 80.4061 131.5 80.5868 131.348 80.7391C131.196 80.8914 131.016 81.0123 130.818 81.0949C130.619 81.1775 130.406 81.2202 130.191 81.2206ZM74.7327 0.0574405C74.3173 0.0589539 73.9193 0.224652 73.6255 0.518404C73.3318 0.812157 73.1661 1.21014 73.1646 1.62556V79.5807C73.1661 79.9961 73.3318 80.3941 73.6255 80.6878C73.9193 80.9816 74.3173 81.1473 74.7327 81.1488H130.191C130.607 81.1473 131.005 80.9816 131.298 80.6878C131.592 80.3941 131.758 79.9961 131.759 79.5807V1.62556C131.758 1.21014 131.592 0.812157 131.298 0.518404C131.005 0.224652 130.607 0.0589539 130.191 0.0574405H74.7327Z" fill="#EBEBEB"/>
<path d="M28.3464 21.6582H52.2703C52.511 21.6578 52.7494 21.705 52.9719 21.7969C53.1944 21.8889 53.3965 22.0238 53.5668 22.194C53.737 22.3643 53.8719 22.5664 53.9639 22.7889C54.0558 23.0114 54.103 23.2498 54.1026 23.4905V93.9641H26.5312V23.4877C26.532 23.0052 26.723 22.5424 27.0628 22.1999C27.4027 21.8574 27.8639 21.6627 28.3464 21.6582Z" fill="#F5F5F5"/>
<path d="M32.3617 25.9287H28.8062V33.844H32.3617V25.9287Z" fill="#EBEBEB"/>
<path d="M51.8056 25.9287H48.25V33.844H51.8056V25.9287Z" fill="#EBEBEB"/>
<path d="M38.8412 25.9287H35.2856V33.844H38.8412V25.9287Z" fill="#EBEBEB"/>
<path d="M45.3226 25.9287H41.7671V33.844H45.3226V25.9287Z" fill="#EBEBEB"/>
<path d="M32.3617 38.4248H28.8062V46.3401H32.3617V38.4248Z" fill="#EBEBEB"/>
<path d="M51.8056 38.4248H48.25V46.3401H51.8056V38.4248Z" fill="#EBEBEB"/>
<path d="M38.8412 38.4248H35.2856V46.3401H38.8412V38.4248Z" fill="#EBEBEB"/>
<path d="M45.3226 38.4248H41.7671V46.3401H45.3226V38.4248Z" fill="#EBEBEB"/>
<path d="M32.3617 50.918H28.8062V58.8332H32.3617V50.918Z" fill="#EBEBEB"/>
<path d="M51.8056 50.918H48.25V58.8332H51.8056V50.918Z" fill="#EBEBEB"/>
<path d="M38.8412 50.918H35.2856V58.8332H38.8412V50.918Z" fill="#EBEBEB"/>
<path d="M45.3226 50.918H41.7671V58.8332H45.3226V50.918Z" fill="#EBEBEB"/>
<path d="M32.3617 63.4131H28.8062V71.3284H32.3617V63.4131Z" fill="#EBEBEB"/>
<path d="M51.8056 63.4131H48.25V71.3284H51.8056V63.4131Z" fill="#EBEBEB"/>
<path d="M38.8412 63.4131H35.2856V71.3284H38.8412V63.4131Z" fill="#EBEBEB"/>
<path d="M45.3226 63.4131H41.7671V71.3284H45.3226V63.4131Z" fill="#EBEBEB"/>
<path d="M32.3617 75.9072H28.8062V83.8225H32.3617V75.9072Z" fill="#EBEBEB"/>
<path d="M51.8056 75.9072H48.25V83.8225H51.8056V75.9072Z" fill="#EBEBEB"/>
<path d="M38.8412 75.9072H35.2856V83.8225H38.8412V75.9072Z" fill="#EBEBEB"/>
<path d="M45.3226 75.9072H41.7671V83.8225H45.3226V75.9072Z" fill="#EBEBEB"/>
<path d="M113.14 28.2266H130.269C130.664 28.2273 131.043 28.3846 131.322 28.664C131.601 28.9434 131.759 29.322 131.759 29.7171V93.9641H111.655V29.72C111.655 29.3254 111.811 28.9468 112.09 28.667C112.368 28.3872 112.746 28.2288 113.14 28.2266Z" fill="#F5F5F5"/>
<path d="M117.442 32.1123H114.211V39.3067H117.442V32.1123Z" fill="#EBEBEB"/>
<path d="M123.336 32.1123H120.104V39.3067H123.336V32.1123Z" fill="#EBEBEB"/>
<path d="M129.226 32.1123H125.995V39.3067H129.226V32.1123Z" fill="#EBEBEB"/>
<path d="M117.442 43.4707H114.211V50.6651H117.442V43.4707Z" fill="#EBEBEB"/>
<path d="M123.336 43.4707H120.104V50.6651H123.336V43.4707Z" fill="#EBEBEB"/>
<path d="M129.226 43.4707H125.995V50.6651H129.226V43.4707Z" fill="#EBEBEB"/>
<path d="M117.442 54.833H114.211V62.0274H117.442V54.833Z" fill="#EBEBEB"/>
<path d="M123.336 54.833H120.104V62.0274H123.336V54.833Z" fill="#EBEBEB"/>
<path d="M129.226 54.833H125.995V62.0274H129.226V54.833Z" fill="#EBEBEB"/>
<path d="M117.442 66.1885H114.211V73.3829H117.442V66.1885Z" fill="#EBEBEB"/>
<path d="M123.336 66.1885H120.104V73.3829H123.336V66.1885Z" fill="#EBEBEB"/>
<path d="M129.226 66.1885H125.995V73.3829H129.226V66.1885Z" fill="#EBEBEB"/>
<path d="M117.442 77.5498H114.211V84.7442H117.442V77.5498Z" fill="#EBEBEB"/>
<path d="M123.336 77.5498H120.104V84.7442H123.336V77.5498Z" fill="#EBEBEB"/>
<path d="M129.226 77.5498H125.995V84.7442H129.226V77.5498Z" fill="#EBEBEB"/>
<path d="M73.8996 9.83984H101.724C102.289 9.83984 102.831 10.0644 103.231 10.464C103.63 10.8637 103.855 11.4057 103.855 11.9709V93.964H71.7715V11.9709C71.7715 11.4062 71.9956 10.8646 72.3946 10.465C72.7937 10.0655 73.335 9.8406 73.8996 9.83984Z" fill="#F5F5F5"/>
<path d="M78.5693 14.8115H74.4336V24.0192H78.5693V14.8115Z" fill="#EBEBEB"/>
<path d="M101.19 14.8115H97.0542V24.0192H101.19V14.8115Z" fill="#EBEBEB"/>
<path d="M86.1088 14.8115H81.9731V24.0192H86.1088V14.8115Z" fill="#EBEBEB"/>
<path d="M93.6508 14.8115H89.5151V24.0192H93.6508V14.8115Z" fill="#EBEBEB"/>
<path d="M78.5693 29.3496H74.4336V38.5573H78.5693V29.3496Z" fill="#EBEBEB"/>
<path d="M101.19 29.3496H97.0542V38.5573H101.19V29.3496Z" fill="#EBEBEB"/>
<path d="M86.1088 29.3496H81.9731V38.5573H86.1088V29.3496Z" fill="#EBEBEB"/>
<path d="M93.6508 29.3496H89.5151V38.5573H93.6508V29.3496Z" fill="#EBEBEB"/>
<path d="M78.5693 43.8867H74.4336V53.0944H78.5693V43.8867Z" fill="#EBEBEB"/>
<path d="M101.19 43.8867H97.0542V53.0944H101.19V43.8867Z" fill="#EBEBEB"/>
<path d="M86.1088 43.8867H81.9731V53.0944H86.1088V43.8867Z" fill="#EBEBEB"/>
<path d="M93.6508 43.8867H89.5151V53.0944H93.6508V43.8867Z" fill="#EBEBEB"/>
<path d="M78.5693 58.4219H74.4336V67.6296H78.5693V58.4219Z" fill="#EBEBEB"/>
<path d="M101.19 58.4219H97.0542V67.6296H101.19V58.4219Z" fill="#EBEBEB"/>
<path d="M86.1088 58.4219H81.9731V67.6296H86.1088V58.4219Z" fill="#EBEBEB"/>
<path d="M93.6508 58.4219H89.5151V67.6296H93.6508V58.4219Z" fill="#EBEBEB"/>
<path d="M78.5693 72.958H74.4336V82.1657H78.5693V72.958Z" fill="#EBEBEB"/>
<path d="M101.19 72.958H97.0542V82.1657H101.19V72.958Z" fill="#EBEBEB"/>
<path d="M86.1088 72.958H81.9731V82.1657H86.1088V72.958Z" fill="#EBEBEB"/>
<path d="M93.6508 72.958H89.5151V82.1657H93.6508V72.958Z" fill="#EBEBEB"/>
<path d="M71.7686 39.9697H54.0942V93.9665H71.7686V39.9697Z" fill="#E6E6E6"/>
<path d="M111.666 45.751H103.857V93.9635H111.666V45.751Z" fill="#E6E6E6"/>
<path d="M26.5141 93.9637H11.0454V71.4213L26.5141 66.1885V93.9637Z" fill="#E6E6E6"/>
<path d="M71.8008 107C102.555 107 127.486 104.957 127.486 102.437C127.486 99.9163 102.555 97.873 71.8008 97.873C41.0465 97.873 16.1152 99.9163 16.1152 102.437C16.1152 104.957 41.0465 107 71.8008 107Z" fill="#F5F5F5"/>
<path d="M85.4938 84.415H80.6113C78.0696 84.415 76.0161 88.0998 76.0161 92.6462C76.0161 97.1926 78.0753 100.875 80.6113 100.875H85.4938C88.0355 100.875 90.089 97.1898 90.089 92.6462C90.089 88.1027 88.0355 84.415 85.4938 84.415Z" fill="#263238"/>
<mask id="mask0_427_11538" style="mask-type:luminance" maskUnits="userSpaceOnUse" x="76" y="84" width="15" height="17">
<path d="M85.4943 84.4141H80.6118C78.0701 84.4141 76.0166 88.0989 76.0166 92.6453C76.0166 97.1917 78.0758 100.874 80.6118 100.874H85.4943C88.036 100.874 90.0895 97.1888 90.0895 92.6453C90.0895 88.1017 88.036 84.4141 85.4943 84.4141Z" fill="white"/>
</mask>
<g mask="url(#mask0_427_11538)">
<path opacity="0.05" d="M91.2384 84.4141H86.356C83.8142 84.4141 81.7607 88.0989 81.7607 92.6453C81.7607 97.1917 83.82 100.874 86.356 100.874H91.2384C93.7801 100.874 95.8336 97.1888 95.8336 92.6453C95.8336 88.1017 93.7801 84.4141 91.2384 84.4141Z" fill="white"/>
</g>
<path d="M125.045 86.1785L39.5479 86.1182V31.5068H125.045V86.1785Z" fill="#407BFF"/>
<path opacity="0.3" d="M125.044 31.5068H67.0986V86.1757H125.044V31.5068Z" fill="#263238"/>
<path opacity="0.2" d="M67.0991 31.5068H39.5479V87.2555H67.0991V31.5068Z" fill="white"/>
<path opacity="0.1" d="M39.7544 34.0449H125.045" stroke="white" stroke-width="0.554081" stroke-linecap="round" stroke-linejoin="round"/>
<path opacity="0.1" d="M39.7544 36.4092H125.045" stroke="white" stroke-width="0.554081" stroke-linecap="round" stroke-linejoin="round"/>
<path opacity="0.1" d="M39.7544 38.7695H125.045" stroke="white" stroke-width="0.554081" stroke-linecap="round" stroke-linejoin="round"/>
<path opacity="0.1" d="M39.7544 41.1309H125.045" stroke="white" stroke-width="0.554081" stroke-linecap="round" stroke-linejoin="round"/>
<path opacity="0.1" d="M39.7544 43.4951H125.045" stroke="white" stroke-width="0.554081" stroke-linecap="round" stroke-linejoin="round"/>
<path opacity="0.1" d="M39.7544 45.8555H125.045" stroke="white" stroke-width="0.554081" stroke-linecap="round" stroke-linejoin="round"/>
<path opacity="0.1" d="M39.7544 48.2158H125.045" stroke="white" stroke-width="0.554081" stroke-linecap="round" stroke-linejoin="round"/>
<path opacity="0.1" d="M39.7544 50.5771H125.045" stroke="white" stroke-width="0.554081" stroke-linecap="round" stroke-linejoin="round"/>
<path opacity="0.1" d="M39.7544 52.9414H125.045" stroke="white" stroke-width="0.554081" stroke-linecap="round" stroke-linejoin="round"/>
<path opacity="0.1" d="M39.7544 55.3008H125.045" stroke="white" stroke-width="0.554081" stroke-linecap="round" stroke-linejoin="round"/>
<path opacity="0.1" d="M39.7544 57.6621H125.045" stroke="white" stroke-width="0.554081" stroke-linecap="round" stroke-linejoin="round"/>
<path opacity="0.1" d="M39.7544 60.0264H125.045" stroke="white" stroke-width="0.554081" stroke-linecap="round" stroke-linejoin="round"/>
<path opacity="0.1" d="M39.7544 62.3877H125.045" stroke="white" stroke-width="0.554081" stroke-linecap="round" stroke-linejoin="round"/>
<path opacity="0.1" d="M39.7544 64.7471H125.045" stroke="white" stroke-width="0.554081" stroke-linecap="round" stroke-linejoin="round"/>
<path opacity="0.1" d="M39.7544 67.1084H125.045" stroke="white" stroke-width="0.554081" stroke-linecap="round" stroke-linejoin="round"/>
<path opacity="0.1" d="M39.7544 69.4717H125.045" stroke="white" stroke-width="0.554081" stroke-linecap="round" stroke-linejoin="round"/>
<path opacity="0.1" d="M39.7544 71.833H125.045" stroke="white" stroke-width="0.554081" stroke-linecap="round" stroke-linejoin="round"/>
<path opacity="0.1" d="M39.7544 74.1934H125.045" stroke="white" stroke-width="0.554081" stroke-linecap="round" stroke-linejoin="round"/>
<path opacity="0.1" d="M39.7544 76.5566H125.045" stroke="white" stroke-width="0.554081" stroke-linecap="round" stroke-linejoin="round"/>
<path opacity="0.1" d="M39.7544 78.918H125.045" stroke="white" stroke-width="0.554081" stroke-linecap="round" stroke-linejoin="round"/>
<path opacity="0.1" d="M39.7544 81.2793H125.045" stroke="white" stroke-width="0.554081" stroke-linecap="round" stroke-linejoin="round"/>
<path opacity="0.1" d="M39.7544 83.6426H125.045" stroke="white" stroke-width="0.554081" stroke-linecap="round" stroke-linejoin="round"/>
<path d="M23.8579 85.4893H19.3402C16.9851 85.4893 15.0781 88.9012 15.0781 93.1116C15.0781 97.322 16.9851 100.731 19.3402 100.731H23.8579C26.2129 100.731 28.12 97.3191 28.12 93.1116C28.12 88.9041 26.2129 85.4893 23.8579 85.4893Z" fill="#263238"/>
<path opacity="0.05" d="M29.6049 85.4893H25.0843C22.7293 85.4893 20.8223 88.9012 20.8223 93.1116C20.8223 97.322 22.7293 100.731 25.0843 100.731H29.6049C31.9571 100.731 33.867 97.3191 33.867 93.1116C33.867 88.9041 31.9571 85.4893 29.6049 85.4893Z" fill="white"/>
<path d="M21.3448 70.6042H19.208C18.7887 70.6186 18.4441 70.1706 18.4354 69.6019C18.4297 69.5427 18.4297 69.4831 18.4354 69.4239L19.0099 62.9704C19.0817 62.307 19.4923 61.8216 19.9863 61.79H22.1432C22.5597 61.79 22.9043 62.2295 22.9129 62.7981C22.9129 62.8556 22.9129 62.913 22.9129 62.9704L22.3385 69.4239C22.2524 70.0787 21.8273 70.587 21.3448 70.6042Z" fill="#263238"/>
<path d="M23.4807 49.288L19.3594 71.5145L64.2289 89.0913L63.9158 45.2873L54.0476 45.0001H27.0162C25.3906 44.9857 23.9575 46.7319 23.4807 49.288Z" fill="#407BFF"/>
<path d="M56.8658 52.8633C55.1914 52.7886 53.6894 54.1614 53.1983 56.2092L49.8035 70.4314H43.2697L42.9136 89.1943H64.4049" fill="#407BFF"/>
<path d="M24.1246 69.2367C23.4669 69.2367 22.9356 68.3923 22.9356 67.3527C22.9353 67.1714 22.9526 66.9906 22.9872 66.8127L25.4543 53.7623C25.6611 52.6795 26.2929 51.9385 27.0081 51.9414H50.6103C50.8659 51.9414 51.0756 52.2688 51.0756 52.6766C51.0761 52.7489 51.0694 52.8211 51.0555 52.8921C50.5385 55.5803 48.8584 64.4864 48.215 67.8926C48.0657 68.691 47.6004 69.2367 47.0662 69.2367H24.1246Z" fill="#263238"/>
<path d="M45.843 75.0207C45.8426 75.2494 45.8262 75.4778 45.7942 75.7042L45.6707 76.5457L45.5989 77.0426L45.0704 80.6728L44.2088 86.5748L43.9705 88.2147H10.5718V86.5748L10.5948 80.6728L10.6263 77.1431V75.7071C10.3391 73.8116 11.2553 71.9735 12.6511 71.5915C12.8149 71.5468 12.984 71.5246 13.1537 71.5255H43.2697C44.6913 71.514 45.843 73.0878 45.843 75.0207Z" fill="#407BFF"/>
<path d="M62.8191 53.7061V67.6957C62.8191 68.5429 62.3854 69.2322 61.8483 69.2351H53.6861C53.149 69.2351 52.7153 68.5458 52.7153 67.6957C52.7152 67.5571 52.7267 67.4187 52.7498 67.2821L55.2657 52.9795C55.3863 52.293 55.7884 51.8307 56.2364 51.8565L61.8828 52.1667C62.4055 52.1983 62.8191 52.8789 62.8191 53.7061Z" fill="#263238"/>
<path opacity="0.1" d="M37.8934 51.9414H33.3843L28.2061 69.2367H32.718L37.8934 51.9414Z" fill="white"/>
<path opacity="0.1" d="M41.4026 51.9414H39.2486L34.0732 69.2367H36.2244L41.4026 51.9414Z" fill="white"/>
<path d="M54.4965 80.6729V86.5748H10.5776L10.6006 80.6729H54.4965Z" fill="black"/>
<path d="M48.3787 80.6729H44.3177L37.0142 84.9636V86.5748H54.4961V80.6729H48.3787Z" fill="white"/>
<path d="M18.1483 84.9636V86.5748H10.5776L10.6006 80.6729H10.8476L18.1483 84.9636Z" fill="white"/>
<path opacity="0.3" d="M64.2498 89.1949L63.9167 45.2876L57.8854 45.0004C56.3805 44.9257 54.6429 46.6747 54.2035 48.7024L49.8323 71.5148H48.1292C46.2164 71.5148 44.9068 72.9077 44.9097 74.3868L44.9355 89.2007H64.2498" fill="#263238"/>
<path d="M45.7311 76.7528C45.7305 76.8073 45.7184 76.861 45.6957 76.9105C45.6729 76.96 45.64 77.0041 45.599 77.04C45.5288 77.1052 45.4363 77.1412 45.3405 77.1406H10.6265V76.3594H45.3491C45.4152 76.3596 45.4802 76.3765 45.538 76.4087C45.5958 76.4408 45.6444 76.4871 45.6794 76.5432C45.7157 76.6069 45.7336 76.6795 45.7311 76.7528Z" fill="white"/>
<path d="M16.7494 76.3623V77.1435H10.6147L10.6176 76.3623H16.7494Z" fill="#263238"/>
<path d="M45.7308 76.7528C45.7302 76.8073 45.7181 76.861 45.6953 76.9105C45.6726 76.96 45.6396 77.0041 45.5987 77.04C45.5284 77.1052 45.436 77.1412 45.3402 77.1406H36.9194V76.3594H45.3402C45.4063 76.3596 45.4713 76.3765 45.529 76.4087C45.5868 76.4408 45.6355 76.4871 45.6705 76.5432C45.7098 76.6061 45.7307 76.6787 45.7308 76.7528Z" fill="#263238"/>
<path d="M126.578 87.5971V87.7522C126.578 88.1331 126.427 88.4983 126.157 88.7676C125.888 89.0369 125.523 89.1882 125.142 89.1882H11.0654C10.6845 89.1882 10.3193 89.0369 10.05 88.7676C9.78069 88.4983 9.62939 88.1331 9.62939 87.7522V87.5971C9.62939 87.2163 9.78069 86.851 10.05 86.5817C10.3193 86.3124 10.6845 86.1611 11.0654 86.1611H125.142C125.523 86.1611 125.888 86.3124 126.157 86.5817C126.427 86.851 126.578 87.2163 126.578 87.5971Z" fill="#263238"/>
<path d="M36.3617 87.3418H19.3594V88.1718H36.3617V87.3418Z" fill="black"/>
<path d="M14.8364 87.7542C14.8364 87.8478 14.8087 87.9393 14.7568 88.0171C14.7048 88.095 14.631 88.1557 14.5446 88.1917C14.4581 88.2276 14.363 88.2372 14.2712 88.2191C14.1793 88.2011 14.0949 88.1562 14.0285 88.0903C13.9621 88.0243 13.9167 87.9401 13.8981 87.8484C13.8795 87.7566 13.8885 87.6614 13.9239 87.5748C13.9594 87.4882 14.0196 87.414 14.0972 87.3615C14.1747 87.3091 14.2661 87.2808 14.3597 87.2803C14.4222 87.2799 14.4841 87.2919 14.5419 87.3155C14.5997 87.3392 14.6523 87.374 14.6966 87.4181C14.7409 87.4621 14.7761 87.5145 14.8001 87.5722C14.8241 87.6298 14.8364 87.6917 14.8364 87.7542Z" fill="white"/>
<path d="M40.4229 87.7542C40.4229 87.8479 40.3951 87.9395 40.343 88.0174C40.2909 88.0954 40.2169 88.1561 40.1303 88.192C40.0437 88.2278 39.9485 88.2372 39.8565 88.2189C39.7646 88.2007 39.6802 88.1555 39.6139 88.0892C39.5476 88.023 39.5025 87.9385 39.4842 87.8466C39.4659 87.7547 39.4753 87.6594 39.5112 87.5728C39.547 87.4862 39.6078 87.4122 39.6857 87.3601C39.7636 87.3081 39.8553 87.2803 39.949 87.2803C40.0112 87.2803 40.0728 87.2925 40.1303 87.3163C40.1878 87.3402 40.2401 87.3751 40.2841 87.4191C40.3281 87.4631 40.363 87.5153 40.3868 87.5728C40.4106 87.6303 40.4229 87.6919 40.4229 87.7542Z" fill="white"/>
<path d="M54.1632 92.4588C54.1632 87.8895 56.2339 84.1846 58.79 84.1846H53.8818C51.3285 84.1846 49.2578 87.8895 49.2578 92.4588C49.2578 97.0282 51.3285 100.73 53.8818 100.73H58.79C56.2339 100.739 54.1632 97.0368 54.1632 92.4588Z" fill="black"/>
<path opacity="0.7" d="M54.1632 92.4588C54.1632 87.8895 56.2339 84.1846 58.79 84.1846H53.8818C51.3285 84.1846 49.2578 87.8895 49.2578 92.4588C49.2578 97.0282 51.3285 100.73 53.8818 100.73H58.79C56.2339 100.739 54.1632 97.0368 54.1632 92.4588Z" fill="#263238"/>
<path d="M58.7899 100.743C61.3452 100.743 63.4167 97.0384 63.4167 92.4686C63.4167 87.8989 61.3452 84.1943 58.7899 84.1943C56.2346 84.1943 54.1631 87.8989 54.1631 92.4686C54.1631 97.0384 56.2346 100.743 58.7899 100.743Z" fill="#263238"/>
<path d="M59.1607 98.9187C60.9721 98.9187 62.4405 96.0307 62.4405 92.4681C62.4405 88.9056 60.9721 86.0176 59.1607 86.0176C57.3493 86.0176 55.8809 88.9056 55.8809 92.4681C55.8809 96.0307 57.3493 98.9187 59.1607 98.9187Z" fill="white"/>
<path d="M58.8618 98.0512C60.5955 98.0512 62.0009 95.5515 62.0009 92.468C62.0009 89.3844 60.5955 86.8848 58.8618 86.8848C57.1281 86.8848 55.7227 89.3844 55.7227 92.468C55.7227 95.5515 57.1281 98.0512 58.8618 98.0512Z" fill="#263238"/>
<path d="M58.1727 96.5443C59.4385 96.5443 60.4646 94.7197 60.4646 92.4689C60.4646 90.2182 59.4385 88.3936 58.1727 88.3936C56.907 88.3936 55.8809 90.2182 55.8809 92.4689C55.8809 94.7197 56.907 96.5443 58.1727 96.5443Z" fill="black"/>
<path opacity="0.5" d="M126.578 87.5971V87.7522C126.578 88.1331 126.427 88.4983 126.157 88.7676C125.888 89.0369 125.523 89.1882 125.142 89.1882H67.0986V86.1611H125.142C125.523 86.1611 125.888 86.3124 126.157 86.5817C126.427 86.851 126.578 87.2163 126.578 87.5971Z" fill="black"/>
<path d="M108.539 92.4588C108.539 87.8895 110.61 84.1846 113.163 84.1846H108.258C105.702 84.1846 103.631 87.8895 103.631 92.4588C103.631 97.0282 105.702 100.73 108.258 100.73H113.157C110.61 100.739 108.539 97.0368 108.539 92.4588Z" fill="black"/>
<path opacity="0.7" d="M108.539 92.4588C108.539 87.8895 110.61 84.1846 113.163 84.1846H108.258C105.702 84.1846 103.631 87.8895 103.631 92.4588C103.631 97.0282 105.702 100.73 108.258 100.73H113.157C110.61 100.739 108.539 97.0368 108.539 92.4588Z" fill="#263238"/>
<path d="M113.163 100.743C115.718 100.743 117.79 97.0384 117.79 92.4686C117.79 87.8989 115.718 84.1943 113.163 84.1943C110.608 84.1943 108.536 87.8989 108.536 92.4686C108.536 97.0384 110.608 100.743 113.163 100.743Z" fill="#263238"/>
<path d="M113.536 98.9187C115.348 98.9187 116.816 96.0307 116.816 92.4681C116.816 88.9056 115.348 86.0176 113.536 86.0176C111.725 86.0176 110.256 88.9056 110.256 92.4681C110.256 96.0307 111.725 98.9187 113.536 98.9187Z" fill="white"/>
<path d="M113.234 98.0512C114.968 98.0512 116.373 95.5515 116.373 92.468C116.373 89.3844 114.968 86.8848 113.234 86.8848C111.501 86.8848 110.095 89.3844 110.095 92.468C110.095 95.5515 111.501 98.0512 113.234 98.0512Z" fill="#263238"/>
<path d="M112.545 96.5443C113.811 96.5443 114.837 94.7197 114.837 92.4689C114.837 90.2182 113.811 88.3936 112.545 88.3936C111.279 88.3936 110.253 90.2182 110.253 92.4689C110.253 94.7197 111.279 96.5443 112.545 96.5443Z" fill="black"/>
<path d="M94.4492 51.9837C94.3918 53.0894 94.2913 54.1578 94.1276 55.2463C93.9861 56.3706 93.74 57.4792 93.3923 58.5577C93.2827 58.8718 93.1452 59.1756 92.9816 59.4653C92.8677 59.6607 92.7287 59.8403 92.5681 59.9995L92.4877 60.0741L92.4417 60.1086L92.4187 60.1287L92.3211 60.1948L92.1287 60.3298C91.6409 60.6428 91.1279 60.9146 90.595 61.1425C89.5836 61.587 88.5326 61.9351 87.4559 62.1822L87.0825 61.1598C87.9958 60.6543 88.9321 60.1373 89.7851 59.6003C90.202 59.3445 90.6029 59.0635 90.9856 58.7588L91.112 58.6525L91.1751 58.5979C91.1751 58.5979 91.201 58.5549 91.2326 58.4859C91.3165 58.3002 91.3856 58.1081 91.4394 57.9115C91.5692 57.4391 91.6718 56.9597 91.7467 56.4755C91.8357 55.9758 91.9075 55.4674 91.9678 54.9505C92.0856 53.9252 92.1861 52.874 92.255 51.8516L94.4492 51.9837Z" fill="#CE7A63"/>
<path d="M87.7634 61.1746L86 60.6289L86.3303 62.7628C86.3303 62.7628 87.4791 62.6192 88.0535 61.9759L87.7634 61.1746Z" fill="#CE7A63"/>
<path d="M83.8626 62.0017L83.9603 62.2889C84.0154 62.4475 84.1205 62.584 84.2599 62.6777C84.3992 62.7715 84.5652 62.8175 84.7329 62.8088L85.6318 62.7686L85.2987 60.6289L84.3107 61.0166C84.1233 61.0912 83.972 61.2354 83.8884 61.419C83.8049 61.6026 83.7957 61.8114 83.8626 62.0017Z" fill="#CE7A63"/>
<path d="M96.5339 49.9132C96.5339 50.5795 96.2123 51.8949 95.9366 52.8829C95.7326 53.5922 95.5632 54.1322 95.5632 54.1322L95.1582 54.0317L91.821 53.1873C91.7693 51.4641 91.8353 49.5887 93.5442 48.4628C94.6126 47.7563 96.5253 48.727 96.5339 49.9132Z" fill="#263238"/>
<path opacity="0.3" d="M96.5315 50.0282C96.3132 49.7984 95.8192 49.7582 94.7422 50.1C93.1999 50.5882 92.7691 52.277 92.749 53.4229L95.1586 54.0318L95.3654 54.0864L95.5636 54.1323C95.5636 54.1323 95.6469 53.8623 95.7675 53.4516C95.8163 53.2851 95.8766 53.0898 95.9341 52.8772C96.2215 51.9482 96.4215 50.9944 96.5315 50.0282Z" fill="black"/>
<path d="M89.6842 103.528L87.6479 102.816L88.9289 98.4043L90.9623 99.1194L89.6842 103.528Z" fill="#CE7A63"/>
<path d="M116.891 98.3001L115.234 99.5351L111.842 96.0973L113.499 94.8623L116.891 98.3001Z" fill="#CE7A63"/>
<path d="M114.556 99.0325L116.346 97.5534C116.376 97.5272 116.415 97.5127 116.455 97.5127C116.495 97.5127 116.534 97.5272 116.564 97.5534L117.937 98.7999C117.968 98.8306 117.992 98.8671 118.009 98.9072C118.025 98.9474 118.034 98.9905 118.034 99.034C118.034 99.0775 118.025 99.1205 118.009 99.1607C117.992 99.2009 117.968 99.2373 117.937 99.268L117.908 99.2939C117.276 99.7993 116.943 100.012 116.156 100.661C115.674 101.06 114.66 102.017 113.991 102.568C113.321 103.119 112.741 102.49 112.971 102.2C113.996 100.902 114.235 100.046 114.355 99.3456C114.384 99.2212 114.455 99.1106 114.556 99.0325Z" fill="#263238"/>
<path d="M87.5105 102.179L89.7736 103.124C89.814 103.141 89.8476 103.171 89.8693 103.21C89.8911 103.248 89.8998 103.292 89.8943 103.336L89.6387 105.332C89.6286 105.412 89.5873 105.485 89.5238 105.534C89.4603 105.584 89.3797 105.606 89.2998 105.596C89.27 105.593 89.241 105.586 89.2136 105.573C88.4123 105.249 88.0361 105.088 87.0424 104.672L83.9923 103.394C83.1651 103.046 83.3432 102.138 83.7051 102.205C85.3795 102.509 86.4593 102.408 87.1199 102.159C87.1831 102.136 87.2502 102.126 87.3172 102.13C87.3843 102.133 87.45 102.15 87.5105 102.179Z" fill="#263238"/>
<path opacity="0.2" d="M88.9292 98.4072L88.2715 100.679L90.2532 101.575L90.9654 99.1195L88.9292 98.4072Z" fill="black"/>
<path opacity="0.2" d="M113.502 94.8623L111.842 96.0973L113.591 97.8693L115.248 96.6343L113.502 94.8623Z" fill="black"/>
<path d="M102.795 60.6949L94.4092 60.8155C93.2604 54.3219 92.9732 51.223 92.9732 49.7324C92.9717 49.3606 93.1 49 93.3359 48.7127C93.5718 48.4254 93.9006 48.2294 94.2656 48.1585C94.7768 48.058 95.4144 47.9431 96.0548 47.8541C96.2731 47.8254 96.4942 47.7966 96.7125 47.7737C97.979 47.665 99.2517 47.6468 100.521 47.7191C100.71 47.7191 100.897 47.7363 101.095 47.7478C101.957 47.8024 102.744 47.9115 103.304 47.9977C103.505 48.0301 103.686 48.1412 103.805 48.3066C103.925 48.4719 103.974 48.6779 103.941 48.8794C103.943 48.8937 103.943 48.9081 103.941 48.9225C103.694 50.0713 103.493 51.0908 103.333 51.9984C103.077 53.4344 102.916 54.6062 102.821 55.6286C102.678 57.314 102.669 59.0081 102.795 60.6949Z" fill="#263238"/>
<path opacity="0.1" d="M102.818 55.6371C102.396 54.3706 102.419 51.7427 102.873 50.8926L103.335 52.0041C103.074 53.4487 102.913 54.6147 102.818 55.6371Z" fill="black"/>
<path d="M94.4087 60.8162C94.4087 60.8162 92.9727 73.0251 91.6774 80.6331C90.6521 86.5896 88.0615 98.9881 88.0615 98.9881L91.4247 100.18C91.4247 100.18 95.276 87.2559 95.951 81.7359C98.665 73.7776 100.618 60.7559 100.618 60.7559L94.4087 60.8162Z" fill="#407BFF"/>
<path d="M87.5156 99.8196L91.4072 101.19L91.927 99.9403L87.7052 98.3262L87.5156 99.8196Z" fill="#263238"/>
<path opacity="0.1" d="M98.6592 64.4428L97.4013 66.8524C96.9418 68.6675 97.0509 73.0847 97.6339 75.8763C98.6793 71.6688 99.5151 67.2401 100.035 64.2676L98.6592 64.4428Z" fill="black"/>
<path d="M96.23 60.815C96.23 60.815 97.732 74.4801 100.538 82.0679C101.945 85.8734 112.385 97.1546 112.385 97.1546L114.74 95.2706C114.74 95.2706 108.12 83.8888 105.225 80.9105C104.045 74.3049 105.53 64.4022 102.787 60.6973L96.23 60.815Z" fill="#407BFF"/>
<path d="M112.583 97.9622L115.346 95.699L114.599 94.4727L111.575 97.1063L112.583 97.9622Z" fill="#263238"/>
<path d="M102.928 60.2041L103.315 60.948C103.344 61.0054 103.278 61.0686 103.18 61.0686L94.3806 61.195C94.3031 61.195 94.2428 61.1576 94.2342 61.1117L94.1509 60.3621C94.1509 60.3104 94.2112 60.2644 94.2916 60.2644L102.787 60.1409C102.814 60.1393 102.841 60.1442 102.865 60.1552C102.89 60.1662 102.911 60.183 102.928 60.2041Z" fill="#263238"/>
<path d="M101.787 61.1737H102.019C102.063 61.1737 102.097 61.1478 102.094 61.122L101.971 60.1455C101.971 60.1168 101.93 60.0967 101.884 60.0967H101.669C101.623 60.0967 101.589 60.1225 101.594 60.1484L101.715 61.122C101.701 61.145 101.744 61.1737 101.787 61.1737Z" fill="#407BFF"/>
<path d="M95.0115 61.2664H95.2413C95.2872 61.2664 95.3188 61.2406 95.316 61.2118L95.1982 60.2382C95.1982 60.2095 95.1523 60.1865 95.1063 60.1865H94.8765C94.8306 60.1865 94.7961 60.2124 94.799 60.2411L94.9196 61.2147C94.9254 61.2434 94.9656 61.2664 95.0115 61.2664Z" fill="#407BFF"/>
<path d="M98.4011 61.212H98.6308C98.6768 61.212 98.7112 61.1861 98.7084 61.1574L98.5877 60.1838C98.5877 60.1522 98.5447 60.1292 98.4987 60.1321H98.2689C98.223 60.1321 98.1914 60.1579 98.1914 60.1866L98.312 61.1603C98.3092 61.1947 98.3551 61.212 98.4011 61.212Z" fill="#407BFF"/>
<path d="M83.1851 52.2196L95.6324 50.5107L97.3556 62.7312L85.1323 64.4084L83.1851 52.2196Z" fill="#407BFF"/>
<path opacity="0.8" d="M83.1851 52.2196L95.6324 50.5107L97.3556 62.7312L85.1323 64.4084L83.1851 52.2196Z" fill="white"/>
<path opacity="0.2" d="M95.8028 49.9206L92.479 50.3906L94.2618 62.9978L97.5857 62.5278L95.8028 49.9206Z" fill="#407BFF"/>
<path d="M99.1622 61.1925L97.439 60.5176L97.6084 62.6716C97.6084 62.6716 98.7572 62.6142 99.3747 62.0139L99.1622 61.1925Z" fill="#CE7A63"/>
<path d="M104.581 50.4678C105.044 51.7602 105.443 53.0526 105.782 54.3737C105.954 55.0372 106.115 55.7035 106.244 56.3841C106.307 56.7288 106.362 57.0792 106.402 57.4439C106.448 57.825 106.465 58.2091 106.451 58.5927C106.443 58.8425 106.404 59.0904 106.336 59.3308C106.242 59.6265 106.084 59.898 105.874 60.1264C105.567 60.4554 105.201 60.7251 104.797 60.9219C104.134 61.2435 103.436 61.4873 102.717 61.6485C101.374 61.9602 100.003 62.1439 98.6247 62.1971L98.4897 61.1143C99.1187 60.965 99.7621 60.7984 100.388 60.6232C101.014 60.448 101.637 60.2527 102.235 60.0345C102.805 59.8384 103.356 59.5873 103.878 59.2849C104.067 59.174 104.236 59.0311 104.377 58.8627C104.415 58.8052 104.415 58.7909 104.409 58.7909C104.415 58.7058 104.415 58.6204 104.409 58.5353C104.398 58.2569 104.368 57.9796 104.32 57.7053C104.274 57.4181 104.211 57.0964 104.142 56.7805C103.998 56.1659 103.837 55.5369 103.657 54.9079C103.298 53.6615 102.893 52.3949 102.488 51.1743L104.581 50.4678Z" fill="#CE7A63"/>
<path d="M95.8508 61.5795L95.9858 62.0792C96.0263 62.2397 96.1181 62.3826 96.2471 62.4862C96.3762 62.5899 96.5355 62.6487 96.7009 62.6536L97.6257 62.6795L97.4563 60.5283L96.5142 60.6346C96.4142 60.6446 96.3172 60.6743 96.2287 60.7219C96.1402 60.7695 96.0619 60.8342 95.9984 60.9121C95.9349 60.99 95.8874 61.0796 95.8587 61.1759C95.8299 61.2722 95.8204 61.3732 95.8307 61.4732C95.8349 61.5091 95.8416 61.5446 95.8508 61.5795Z" fill="#CE7A63"/>
<path d="M103.602 48.0612C104.567 48.4547 105.357 51.6254 105.357 51.6254L102.692 53.7076C102.692 53.7076 100.802 50.7494 101.187 49.4656C101.514 48.38 102.373 47.5643 103.602 48.0612Z" fill="#263238"/>
<path d="M113.904 99.9302H113.87C113.821 99.9268 113.775 99.9114 113.734 99.8853C113.694 99.8592 113.66 99.8233 113.637 99.7808C113.62 99.7563 113.61 99.7278 113.607 99.698C113.605 99.6683 113.61 99.6384 113.623 99.6114C113.74 99.3816 114.484 99.2897 114.565 99.2811C114.574 99.2793 114.584 99.2805 114.593 99.2846C114.602 99.2888 114.609 99.2956 114.614 99.3041C114.619 99.3121 114.622 99.3216 114.622 99.3313C114.622 99.3411 114.619 99.3506 114.614 99.3586C114.458 99.5683 114.157 99.9129 113.904 99.9302ZM114.464 99.3931C114.177 99.4362 113.772 99.5309 113.715 99.6573C113.708 99.668 113.704 99.6805 113.704 99.6932C113.704 99.706 113.708 99.7184 113.715 99.7291C113.728 99.7586 113.749 99.7838 113.776 99.802C113.803 99.8202 113.834 99.8308 113.867 99.8325C114.01 99.8325 114.24 99.6774 114.47 99.3931H114.464Z" fill="#263238"/>
<path d="M114.53 99.3714C114.281 99.3714 113.781 99.2824 113.669 99.0842C113.651 99.0499 113.645 99.0105 113.652 98.9724C113.66 98.9344 113.68 98.8999 113.709 98.8746C113.734 98.8468 113.765 98.8249 113.8 98.8105C113.835 98.7961 113.872 98.7895 113.91 98.7913C114.212 98.7913 114.594 99.2537 114.605 99.2795C114.609 99.2864 114.612 99.2944 114.612 99.3025C114.612 99.3106 114.609 99.3186 114.605 99.3255C114.603 99.3339 114.598 99.3415 114.591 99.3471C114.585 99.3527 114.576 99.3562 114.568 99.3571L114.53 99.3714ZM113.893 98.8947C113.852 98.8986 113.815 98.917 113.787 98.9464C113.743 98.9923 113.752 99.0211 113.764 99.044C113.83 99.1704 114.223 99.2738 114.476 99.2738C114.332 99.093 114.137 98.9599 113.916 98.8918L113.893 98.8947Z" fill="#263238"/>
<path d="M86.3531 102.132C86.1934 102.08 86.0539 101.98 85.9539 101.845C85.9311 101.805 85.9173 101.761 85.9133 101.715C85.9093 101.67 85.9153 101.624 85.9309 101.581C85.9387 101.556 85.9529 101.533 85.9721 101.516C85.9912 101.498 86.0146 101.486 86.04 101.48C86.3042 101.431 86.9275 102.1 87.0481 102.235C87.0538 102.244 87.0568 102.254 87.0568 102.264C87.0568 102.274 87.0538 102.284 87.0481 102.293C87.0433 102.302 87.0356 102.309 87.0262 102.313C87.0168 102.317 87.0063 102.318 86.9964 102.316C86.7763 102.276 86.5607 102.215 86.3531 102.132ZM86.1549 101.592C86.1254 101.578 86.0927 101.572 86.0601 101.575C86.0601 101.575 86.0343 101.575 86.0228 101.609C86.0112 101.639 86.0068 101.671 86.0097 101.703C86.0127 101.735 86.0231 101.766 86.04 101.793C86.129 101.948 86.4364 102.095 86.8729 102.189C86.668 101.954 86.4277 101.753 86.1606 101.592H86.1549Z" fill="#263238"/>
<path d="M86.9935 102.311H86.9763C86.7666 102.102 86.4249 101.473 86.5426 101.272C86.5685 101.229 86.623 101.183 86.7465 101.217C87.2089 101.352 87.0682 102.248 87.0596 102.286C87.0596 102.295 87.0561 102.304 87.0497 102.311C87.0433 102.318 87.0345 102.322 87.0251 102.323C87.0193 102.324 87.0133 102.324 87.0077 102.322C87.0021 102.32 86.9972 102.316 86.9935 102.311ZM86.7638 101.309H86.735C86.6891 101.295 86.6546 101.309 86.6431 101.309C86.5742 101.427 86.7954 101.901 86.9964 102.153C86.9935 101.932 87.0222 101.424 86.7638 101.309Z" fill="#263238"/>
<path d="M95.6613 39.127C95.6613 39.127 94.5125 41.0483 95.3741 41.8898C96.2357 42.7313 96.4885 39.7473 96.4885 39.7473L95.6613 39.127Z" fill="#263238"/>
<path d="M100.997 43.635C100.997 43.635 102.433 41.3891 101.836 39.1575C101.238 36.926 98.4467 38.3677 97.2691 37.756C96.8377 37.4938 96.3782 37.2809 95.8992 37.1213C95.8222 37.0985 95.741 37.0936 95.6619 37.107C95.5827 37.1205 95.5077 37.1519 95.4425 37.1988C95.1553 37.4516 95.6551 37.9254 95.8102 38.1035C95.7148 37.9932 95.6046 37.8965 95.4827 37.8163C95.3305 37.7158 95.1266 37.7072 95.1955 37.9628C95.3137 38.2374 95.5253 38.4613 95.7929 38.5946C95.6809 38.5314 95.0175 38.1954 94.9715 38.4051C94.9658 38.4559 94.9791 38.5071 95.0089 38.5487C95.4397 39.3528 96.307 40.3638 97.3065 40.3839C98.5098 40.4011 99.6587 43.7872 100.997 43.635Z" fill="#263238"/>
<path d="M101.505 43.7362C101.431 44.4945 100.305 44.5031 100.305 44.5031C100.121 44.937 99.8144 45.3082 99.4233 45.5715C99.3886 46.0294 99.404 46.4897 99.4692 46.9443C99.6588 47.6594 99.9 47.9064 100.202 48.0672L99.9603 48.3056C99.4986 48.572 98.9769 48.7173 98.4439 48.7278L98.128 48.544L97.7144 48.6101C96.5656 48.2338 96.8528 47.4612 96.8528 47.4612C97.0623 46.9366 97.0736 46.3536 96.8844 45.8213C95.7815 45.4767 95.3306 44.5174 95.1755 42.9034C95.0205 41.2893 95.928 39.7441 95.928 39.7441C97.1745 40.9475 99.6444 40.1749 99.6444 40.1749C99.5381 42.4381 100.595 43.2738 100.595 43.2738C100.943 42.9637 101.577 42.9809 101.505 43.7362Z" fill="#CE7A63"/>
<path d="M97.496 43.9423C97.7924 43.8594 98.0486 43.6716 98.2169 43.4139C98.2305 43.3935 98.2357 43.3687 98.2314 43.3446C98.2271 43.3206 98.2137 43.2991 98.1939 43.2846C98.1841 43.2774 98.173 43.2722 98.1612 43.2693C98.1494 43.2664 98.1371 43.2658 98.1251 43.2677C98.1131 43.2696 98.1015 43.2738 98.0912 43.2802C98.0808 43.2865 98.0718 43.2949 98.0647 43.3048C97.9677 43.479 97.8176 43.6176 97.6362 43.7002C97.4548 43.7829 97.2517 43.8054 97.0566 43.7643C97.0334 43.7571 97.0082 43.7594 96.9867 43.7707C96.9652 43.782 96.949 43.8014 96.9417 43.8246C96.9344 43.8482 96.9367 43.8737 96.9479 43.8957C96.9592 43.9177 96.9786 43.9345 97.002 43.9423C97.164 43.9847 97.3341 43.9847 97.496 43.9423Z" fill="#263238"/>
<path d="M97.8237 41.9656C97.8237 42.1121 97.7663 42.2385 97.6686 42.2528C97.571 42.2672 97.4819 42.1466 97.4704 42.0001C97.459 41.8536 97.5308 41.7129 97.6284 41.7129C97.7261 41.7129 97.8122 41.8163 97.8237 41.9656Z" fill="#263238"/>
<path d="M96.066 41.8916C96.066 42.0381 96.0086 42.1645 95.9109 42.1788C95.8133 42.1932 95.7271 42.0726 95.7156 41.9261C95.7041 41.7796 95.773 41.6532 95.8707 41.6389C95.9683 41.6245 96.0574 41.7423 96.066 41.8916Z" fill="#263238"/>
<path d="M96.531 43.3126L96.5109 42.25L95.9824 43.1461C96.0555 43.2133 96.1427 43.2631 96.2377 43.292C96.3327 43.3208 96.4329 43.3279 96.531 43.3126Z" fill="#BA4D3C"/>
<path d="M98.6249 41.0701C98.6374 41.0667 98.6491 41.0609 98.6594 41.0529C98.6734 41.0447 98.6856 41.0337 98.6953 41.0206C98.705 41.0075 98.7119 40.9926 98.7156 40.9768C98.7194 40.9609 98.7199 40.9445 98.7171 40.9285C98.7144 40.9124 98.7084 40.8971 98.6996 40.8834C98.6039 40.7231 98.4652 40.5929 98.2992 40.5076C98.1331 40.4223 97.9465 40.3853 97.7604 40.4009C97.7443 40.4027 97.7286 40.4077 97.7145 40.4157C97.7003 40.4236 97.6879 40.4344 97.6779 40.4472C97.668 40.4601 97.6608 40.4749 97.6567 40.4906C97.6526 40.5063 97.6518 40.5227 97.6542 40.5388C97.6585 40.5711 97.6754 40.6004 97.7012 40.6204C97.727 40.6403 97.7597 40.6491 97.792 40.6451C97.9309 40.6364 98.0695 40.6661 98.1926 40.731C98.3156 40.7958 98.4185 40.8933 98.4899 41.0127C98.5033 41.0354 98.5237 41.0533 98.548 41.0636C98.5723 41.074 98.5992 41.0762 98.6249 41.0701Z" fill="#263238"/>
<path d="M95.5093 40.952C95.5416 40.9436 95.5694 40.923 95.5868 40.8946C95.6383 40.8167 95.7113 40.7554 95.797 40.7182C95.8826 40.681 95.9772 40.6694 96.0693 40.6849C96.0852 40.6882 96.1016 40.6883 96.1175 40.6852C96.1334 40.682 96.1485 40.6757 96.1619 40.6666C96.1753 40.6575 96.1867 40.6458 96.1955 40.6321C96.2043 40.6185 96.2102 40.6032 96.2129 40.5873C96.2188 40.5553 96.2119 40.5223 96.1936 40.4954C96.1753 40.4685 96.1472 40.4499 96.1153 40.4437C95.9732 40.4173 95.8264 40.4345 95.6942 40.4929C95.562 40.5513 95.4505 40.6483 95.3743 40.7711C95.3583 40.7994 95.3538 40.8329 95.3618 40.8645C95.3698 40.896 95.3897 40.9233 95.4174 40.9405C95.4455 40.9556 95.4783 40.9597 95.5093 40.952Z" fill="#263238"/>
<path d="M100.67 48.1656L100.053 48.7687L98.9527 49.8486L98.5391 49.1909L98.1284 48.5418L99.5644 46.8301L100.61 48.0938L100.67 48.1656Z" fill="white"/>
<path d="M98.1282 48.5434L97.8094 49.0747L97.3412 49.8501L96.2671 47.9115L96.9535 47.1045L98.1282 48.5434Z" fill="white"/>
</svg>
