<svg width="124" height="91" viewBox="0 0 124 91" fill="none" xmlns="http://www.w3.org/2000/svg">
<path d="M111.038 84.7754H102.864V84.8371H111.038V84.7754Z" fill="#EBEBEB"/>
<path d="M81.7478 85.4473H79.603V85.509H81.7478V85.4473Z" fill="#EBEBEB"/>
<path d="M102.618 82.4854H97.8813V82.5471H102.618V82.4854Z" fill="#EBEBEB"/>
<path d="M23.6073 82.8994H12.9478V82.9611H23.6073V82.8994Z" fill="#EBEBEB"/>
<path d="M27.3689 82.8994H25.8066V82.9611H27.3689V82.8994Z" fill="#EBEBEB"/>
<path d="M55.5691 83.9424H32.4482V84.0041H55.5691V83.9424Z" fill="#EBEBEB"/>
<path d="M58.8392 69.797H11.1808C10.807 69.797 10.4485 69.6485 10.1842 69.3842C9.91996 69.1199 9.77148 68.7615 9.77148 68.3877V1.39693C9.77474 1.02531 9.92465 0.670018 10.1886 0.408393C10.4525 0.146767 10.8091 -1.42472e-05 11.1808 1.03722e-09H58.8392C59.0242 1.03722e-09 59.2075 0.0364515 59.3785 0.107274C59.5494 0.178096 59.7048 0.281902 59.8357 0.412765C59.9665 0.543627 60.0703 0.698984 60.1411 0.869964C60.212 1.04094 60.2484 1.2242 60.2484 1.40927V68.3877C60.2484 68.5728 60.212 68.756 60.1411 68.927C60.0703 69.098 59.9665 69.2534 59.8357 69.3842C59.7048 69.5151 59.5494 69.6189 59.3785 69.6897C59.2075 69.7605 59.0242 69.797 58.8392 69.797ZM11.1808 0.0493616C10.8236 0.050014 10.4812 0.192198 10.2286 0.444775C9.97602 0.697351 9.83384 1.03973 9.83319 1.39693V68.3877C9.83384 68.7449 9.97602 69.0873 10.2286 69.3399C10.4812 69.5924 10.8236 69.7346 11.1808 69.7353H58.8392C59.1964 69.7346 59.5387 69.5924 59.7913 69.3399C60.0439 69.0873 60.1861 68.7449 60.1867 68.3877V1.39693C60.1861 1.03973 60.0439 0.697351 59.7913 0.444775C59.5387 0.192198 59.1964 0.050014 58.8392 0.0493616H11.1808Z" fill="#EBEBEB"/>
<path d="M112.223 69.797H64.565C64.1913 69.797 63.8328 69.6485 63.5685 69.3842C63.3042 69.1199 63.1558 68.7615 63.1558 68.3877V1.39693C63.159 1.02531 63.3089 0.670018 63.5729 0.408393C63.8368 0.146767 64.1934 -1.42472e-05 64.565 1.03722e-09H112.223C112.597 1.03722e-09 112.956 0.148476 113.22 0.412765C113.484 0.677054 113.633 1.03551 113.633 1.40927V68.3877C113.633 68.7615 113.484 69.1199 113.22 69.3842C112.956 69.6485 112.597 69.797 112.223 69.797ZM64.565 0.0493616C64.2078 0.050014 63.8655 0.192198 63.6129 0.444775C63.3603 0.697351 63.2181 1.03973 63.2175 1.39693V68.3877C63.2181 68.7449 63.3603 69.0873 63.6129 69.3399C63.8655 69.5924 64.2078 69.7346 64.565 69.7353H112.223C112.581 69.7346 112.923 69.5924 113.176 69.3399C113.428 69.0873 113.57 68.7449 113.571 68.3877V1.39693C113.57 1.03973 113.428 0.697351 113.176 0.444775C112.923 0.192198 112.581 0.050014 112.223 0.0493616H64.565Z" fill="#EBEBEB"/>
<path d="M123.403 80.8047H0V80.8664H123.403V80.8047Z" fill="#EBEBEB"/>
<path d="M52.0272 42.7568C50.5637 43.0308 47.8315 43.2159 44.6897 43.2159C41.5478 43.2159 38.8157 43.0308 37.3521 42.7568C37.2907 42.9086 37.1992 43.0463 37.0831 43.1616C36.6067 43.6379 35.6639 43.4676 35.3554 43.1616C35.0469 42.8556 34.8791 41.9276 35.3554 41.4339C35.4566 41.3328 35.6343 41.3204 35.696 41.1871C36.1896 40.1654 35.3011 38.2255 35.3011 36.1177C35.3011 34.01 36.1995 32.0726 35.696 31.0508C35.4936 30.6411 34.9976 30.4387 34.9976 29.9525C34.9976 29.4663 35.4912 29.2639 35.696 28.8542C36.1896 27.8349 35.3011 25.8925 35.3011 23.7873C35.3011 21.682 36.1995 19.7396 35.696 18.7203C35.6343 18.5969 35.4492 18.5846 35.3554 18.4735C34.8791 17.9972 35.0494 17.0544 35.3554 16.7459C35.6615 16.4373 36.5895 16.2695 37.0831 16.7459C37.2015 16.8643 37.2114 17.0741 37.3521 17.1506C38.6577 17.8664 41.5478 16.694 44.6897 16.694C47.8315 16.694 50.7216 17.8664 52.0272 17.1506C52.1654 17.0741 52.1753 16.8643 52.2962 16.7459C52.7701 16.2695 53.7129 16.4398 54.0239 16.7459C54.3349 17.0519 54.5002 17.9799 54.0239 18.4735C53.9227 18.5747 53.7425 18.587 53.6833 18.7203C53.1773 19.7396 54.0757 21.682 54.0757 23.7873C54.0757 25.8925 53.1798 27.8349 53.6833 28.8542C53.8832 29.2639 54.3818 29.4663 54.3818 29.9525C54.3818 30.4387 53.8882 30.6411 53.6833 31.0508C53.1897 32.0726 54.0757 34.0125 54.0757 36.1177C54.0757 38.223 53.1773 40.1654 53.6833 41.1871C53.7425 41.3081 53.9301 41.3204 54.0239 41.4339C54.5002 41.9103 54.3275 42.8531 54.0239 43.1616C53.7203 43.4701 52.7751 43.6379 52.2962 43.1616C52.1793 43.0469 52.0877 42.909 52.0272 42.7568Z" fill="#E6E6E6"/>
<path d="M52.5824 42.6981C51.1188 42.9721 48.3867 43.1547 45.2448 43.1547C42.103 43.1547 39.3708 42.9721 37.9073 42.6981C37.8468 42.8503 37.7552 42.9882 37.6383 43.1029C37.1619 43.5792 36.2191 43.4089 35.9106 43.1029C35.6021 42.7968 35.4343 41.8689 35.9106 41.3752C36.0118 41.274 36.192 41.2617 36.2512 41.1284C36.7448 40.1067 35.8563 38.1668 35.8563 36.059C35.8563 33.9513 36.7547 32.0139 36.2512 30.9921C36.0488 30.5824 35.5527 30.38 35.5527 29.8938C35.5527 29.4076 36.0463 29.2052 36.2512 28.7955C36.7448 27.7737 35.8563 25.8338 35.8563 23.7285C35.8563 21.6233 36.7547 19.6809 36.2512 18.6591C36.192 18.5382 36.0044 18.5259 35.9106 18.4247C35.4343 17.9483 35.6046 17.0055 35.9106 16.697C36.2166 16.3885 37.1446 16.2207 37.6383 16.697C37.7592 16.8155 37.7666 17.0253 37.9073 17.1018C39.2129 17.8175 42.103 16.6427 45.2448 16.6427C48.3867 16.6427 51.2768 17.8175 52.5824 17.1018C52.7206 17.0253 52.7305 16.8155 52.8514 16.697C53.3278 16.2207 54.2706 16.391 54.5791 16.697C54.8876 17.0031 55.0554 17.9311 54.5791 18.4247C54.4779 18.5259 54.2977 18.5382 54.2385 18.6591C53.7325 19.6809 54.6309 21.6208 54.6309 23.7285C54.6309 25.8363 53.735 27.7737 54.2385 28.7955C54.4409 29.2052 54.9369 29.4076 54.9369 29.8938C54.9369 30.38 54.4433 30.5824 54.2385 30.9921C53.7449 32.0139 54.6309 33.9538 54.6309 36.059C54.6309 38.1643 53.7325 40.1067 54.2385 41.1284C54.2977 41.2494 54.4853 41.2617 54.5791 41.3752C55.0554 41.8516 54.8851 42.7944 54.5791 43.1029C54.273 43.4114 53.3327 43.5792 52.8514 43.1029C52.7345 42.9882 52.6429 42.8503 52.5824 42.6981Z" fill="#F5F5F5"/>
<path d="M37.9024 40.8516H52.5874V18.9623L37.9024 18.9623V40.8516Z" fill="#EBEBEB"/>
<path d="M38.917 39.3408H51.5757V20.4724H38.917V39.3408Z" fill="#FAFAFA"/>
<path d="M46.0599 34.7624C47.425 34.4402 48.2704 33.0724 47.9482 31.7073C47.626 30.3422 46.2582 29.4968 44.8931 29.819C43.528 30.1412 42.6826 31.509 43.0048 32.8741C43.327 34.2392 44.6948 35.0846 46.0599 34.7624Z" fill="#E0E0E0"/>
<path d="M42.9375 22.415L46.6519 26.8576L48.0168 22.415H42.9375Z" fill="#EBEBEB"/>
<path d="M41.1481 35.4439C39.3711 32.5489 40.6545 28.9554 42.6758 26.5959C42.9868 26.2331 43.5075 26.7588 43.199 27.1191C41.3973 29.2269 40.1954 32.4748 41.7898 35.0712C42.0366 35.4785 41.3974 35.8487 41.1481 35.4439Z" fill="#EBEBEB"/>
<path d="M48.626 37.3791L47.2686 35.9896L48.626 34.8271L49.86 36.1031L48.626 37.3791Z" fill="#EBEBEB"/>
<path d="M56.9437 43.1055H54.9693L54.5151 43.5596V48.6759H57.3929V43.5596L56.9437 43.1055ZM55.9565 43.8755C55.9077 43.8755 55.86 43.861 55.8194 43.8339C55.7788 43.8068 55.7471 43.7682 55.7285 43.7231C55.7098 43.6781 55.7049 43.6284 55.7144 43.5806C55.7239 43.5327 55.7475 43.4887 55.782 43.4542C55.8165 43.4197 55.8605 43.3962 55.9083 43.3866C55.9562 43.3771 56.0058 43.382 56.0509 43.4007C56.096 43.4194 56.1346 43.451 56.1617 43.4916C56.1888 43.5322 56.2033 43.5799 56.2033 43.6287C56.2033 43.6937 56.1776 43.7561 56.1319 43.8024C56.0861 43.8486 56.024 43.8749 55.959 43.8755H55.9565Z" fill="#FAFAFA"/>
<path d="M57.4003 46.6592H54.52V48.6756H57.4003V46.6592Z" fill="#E0E0E0"/>
<path d="M56.346 45.7921C56.2647 45.8632 56.1624 45.9057 56.0547 45.9131V46.1006H55.8894V45.918C55.8055 45.9146 55.7224 45.8996 55.6426 45.8736C55.578 45.8541 55.5172 45.8241 55.4624 45.7847L55.5537 45.5799C55.5991 45.613 55.649 45.6396 55.7018 45.6589C55.7591 45.6796 55.8188 45.6928 55.8795 45.6983V45.412C55.8102 45.3969 55.7425 45.3754 55.6771 45.3479C55.6242 45.3259 55.5775 45.2912 55.5414 45.2467C55.5023 45.195 55.4822 45.1313 55.4846 45.0665C55.4831 45.0206 55.4914 44.9748 55.5088 44.9323C55.5262 44.8897 55.5525 44.8514 55.5858 44.8197C55.6677 44.7481 55.771 44.7056 55.8795 44.6988V44.5137H56.0449V44.6963C56.1651 44.7011 56.2822 44.7359 56.3855 44.7975L56.3015 45.0023C56.2257 44.9577 56.1419 44.9284 56.0547 44.916V45.1998C56.1227 45.2157 56.1895 45.2363 56.2547 45.2615C56.3076 45.2834 56.3542 45.3182 56.3904 45.3627C56.4288 45.4146 56.448 45.4783 56.4447 45.5429C56.4474 45.5891 56.4399 45.6353 56.4228 45.6784C56.4058 45.7214 56.3796 45.7603 56.346 45.7921ZM55.7956 45.1282C55.8238 45.1488 55.8556 45.1639 55.8894 45.1726V44.9258C55.8542 44.9321 55.8217 44.9484 55.7956 44.9727C55.7854 44.9827 55.7773 44.9946 55.7718 45.0077C55.7662 45.0209 55.7634 45.035 55.7635 45.0492C55.7618 45.064 55.7639 45.079 55.7695 45.0928C55.7751 45.1066 55.7841 45.1188 55.7956 45.1282ZM56.1461 45.649C56.1556 45.6397 56.1631 45.6285 56.1682 45.6162C56.1733 45.6039 56.1758 45.5907 56.1757 45.5774C56.1763 45.5644 56.1739 45.5514 56.1688 45.5395C56.1636 45.5275 56.1559 45.5168 56.1461 45.5083C56.1187 45.4873 56.0878 45.4714 56.0547 45.4614V45.6909C56.0877 45.6896 56.1195 45.6784 56.1461 45.6589V45.649Z" fill="#E0E0E0"/>
<path d="M56.0255 43.5225H55.9021C55.9416 41.9997 55.4085 41.0939 54.9692 40.6003C54.6986 40.2899 54.361 40.0452 53.9819 39.8846L54.0214 39.7686C54.051 39.7735 56.102 40.5213 56.0255 43.5225Z" fill="#E0E0E0"/>
<path d="M23.1087 37.8135H22.3584V80.9874H23.1087V37.8135Z" fill="#F5F5F5"/>
<path d="M28.2477 81.0339C28.2624 80.8836 28.245 80.732 28.1969 80.5889C28.1487 80.4458 28.0707 80.3145 27.9681 80.2038C27.8655 80.093 27.7406 80.0052 27.6016 79.9463C27.4626 79.8873 27.3127 79.8584 27.1617 79.8616H18.3088C18.1578 79.8584 18.0079 79.8873 17.8689 79.9463C17.73 80.0052 17.6051 80.093 17.5024 80.2038C17.3998 80.3145 17.3219 80.4458 17.2737 80.5889C17.2255 80.732 17.2082 80.8836 17.2228 81.0339H28.2477Z" fill="#EBEBEB"/>
<path d="M19.7774 32.1291C19.816 31.8696 19.7499 31.6053 19.5937 31.3945C19.4375 31.1837 19.2039 31.0435 18.9444 31.0049C18.6849 30.9663 18.4206 31.0324 18.2098 31.1886C17.999 31.3448 17.8588 31.5784 17.8202 31.8379C17.1291 35.4248 16.4438 39.0126 15.7643 42.6011C15.6656 43.1145 16.2209 43.655 16.9983 43.7759C17.7758 43.8969 18.4792 43.5291 18.531 43.0232L19.7774 32.1291Z" fill="#EBEBEB"/>
<path d="M21.7468 32.2779C21.7664 32.0161 21.6812 31.7572 21.51 31.5582C21.3387 31.3591 21.0954 31.2363 20.8336 31.2166C20.5717 31.197 20.3128 31.2822 20.1138 31.4534C19.9148 31.6247 19.7919 31.868 19.7723 32.1298L18.5383 43.0239C18.479 43.5422 19.0714 44.0407 19.8611 44.1C20.6509 44.1592 21.3124 43.7569 21.342 43.2337C21.4753 39.5859 21.6102 35.9339 21.7468 32.2779Z" fill="#F5F5F5"/>
<path d="M23.7206 32.2773C23.7206 32.0154 23.6166 31.7643 23.4314 31.5792C23.2463 31.394 22.9952 31.29 22.7333 31.29C22.4715 31.29 22.2204 31.394 22.0353 31.5792C21.8501 31.7643 21.7461 32.0154 21.7461 32.2773C21.6079 35.93 21.4705 39.5819 21.3339 43.233C21.3142 43.7563 21.9411 44.2203 22.7333 44.2203C23.5256 44.2203 24.1525 43.7686 24.1327 43.233C24.0044 39.5852 23.867 35.9333 23.7206 32.2773Z" fill="#EBEBEB"/>
<path d="M25.693 32.1298C25.6734 31.868 25.5506 31.6247 25.3515 31.4534C25.1525 31.2822 24.8936 31.197 24.6318 31.2166C24.37 31.2363 24.1266 31.3591 23.9554 31.5582C23.7841 31.7572 23.699 32.0161 23.7186 32.2779C23.8667 35.9339 24.0049 39.5859 24.1332 43.2337C24.153 43.7569 24.8119 44.1592 25.6141 44.1C26.4162 44.0407 26.9962 43.5422 26.937 43.0239C26.519 39.3909 26.1044 35.7595 25.693 32.1298Z" fill="#F5F5F5"/>
<path d="M27.6423 31.8377C27.6227 31.7092 27.578 31.5858 27.5107 31.4745C27.4434 31.3633 27.3549 31.2664 27.2501 31.1894C27.1454 31.1124 27.0265 31.0568 26.9003 31.0257C26.7741 30.9947 26.6429 30.9888 26.5144 31.0084C26.3859 31.028 26.2625 31.0727 26.1513 31.14C26.0401 31.2073 25.9432 31.2959 25.8662 31.4006C25.7107 31.6121 25.6456 31.8768 25.6852 32.1363C26.0965 35.766 26.5078 39.3974 26.9192 43.0304C26.9784 43.5487 27.6596 43.9016 28.4543 43.7831C29.249 43.6647 29.7945 43.1217 29.6884 42.6083C29.0154 39.0132 28.3334 35.4229 27.6423 31.8377Z" fill="#EBEBEB"/>
<path d="M29.2323 43.5908H27.2578L26.8037 44.0449V49.1613H29.6815V44.0449L29.2323 43.5908ZM28.2451 44.3609C28.1963 44.3609 28.1485 44.3464 28.1079 44.3193C28.0674 44.2921 28.0357 44.2536 28.017 44.2085C27.9984 44.1634 27.9935 44.1138 28.003 44.0659C28.0125 44.018 28.036 43.9741 28.0705 43.9395C28.1051 43.905 28.149 43.8815 28.1969 43.872C28.2448 43.8625 28.2944 43.8674 28.3395 43.886C28.3846 43.9047 28.4232 43.9363 28.4503 43.9769C28.4774 44.0175 28.4919 44.0652 28.4919 44.1141C28.4919 44.1791 28.4662 44.2415 28.4205 44.2877C28.3747 44.3339 28.3126 44.3602 28.2475 44.3609H28.2451Z" fill="#FAFAFA"/>
<path d="M29.6888 47.1455H26.8086V49.1619H29.6888V47.1455Z" fill="#E0E0E0"/>
<path d="M28.6302 46.2779C28.5492 46.3499 28.4469 46.3933 28.3389 46.4013V46.5889H28.1736V46.3989C28.0896 46.3955 28.0066 46.3805 27.9268 46.3545C27.8616 46.3352 27.8006 46.3043 27.7466 46.2631L27.8379 46.0608C27.8839 46.093 27.9336 46.1195 27.986 46.1397C28.0433 46.1604 28.103 46.1737 28.1637 46.1792V45.9053C28.0947 45.889 28.0271 45.8675 27.9613 45.8411C27.9082 45.8183 27.8616 45.7827 27.8256 45.7374C27.7857 45.6861 27.7655 45.6222 27.7688 45.5573C27.7673 45.5113 27.7755 45.4656 27.793 45.423C27.8104 45.3805 27.8367 45.3421 27.87 45.3105C27.9519 45.2389 28.0551 45.1964 28.1637 45.1895V45.002H28.329V45.1846C28.4493 45.1909 28.5662 45.2265 28.6696 45.2882L28.5857 45.4931C28.5099 45.4485 28.426 45.4191 28.3389 45.4067V45.6905C28.4075 45.7042 28.4745 45.7248 28.5388 45.7522C28.5918 45.7742 28.6384 45.809 28.6746 45.8534C28.7132 45.9043 28.7325 45.9673 28.7289 46.0311C28.7315 46.077 28.724 46.1229 28.707 46.1655C28.6899 46.2082 28.6637 46.2466 28.6302 46.2779ZM28.0798 45.6165C28.1079 45.6371 28.1398 45.6522 28.1736 45.6609V45.4141C28.1381 45.4193 28.1052 45.4358 28.0798 45.461C28.0694 45.4709 28.0613 45.4828 28.0557 45.4959C28.0502 45.5091 28.0475 45.5232 28.0477 45.5375C28.0468 45.5527 28.0497 45.5679 28.0562 45.5817C28.0626 45.5955 28.0724 45.6075 28.0847 45.6165H28.0798ZM28.4302 46.1373C28.4398 46.1275 28.4474 46.1159 28.4525 46.1032C28.4575 46.0905 28.46 46.0769 28.4599 46.0632C28.4602 46.0506 28.4578 46.0381 28.4527 46.0265C28.4475 46.015 28.4399 46.0047 28.4302 45.9966C28.4034 45.9747 28.3723 45.9587 28.3389 45.9497V46.1792C28.3747 46.1761 28.4085 46.1613 28.4352 46.1373H28.4302Z" fill="#E0E0E0"/>
<path d="M74.7359 21.6494H68.2227V81.0311H74.7359V21.6494Z" fill="#E6E6E6"/>
<path d="M107.31 22.2197H90.9834V57.9993H107.31V22.2197Z" fill="#EBEBEB"/>
<path d="M90.9855 22.2197H74.6592V57.9993H90.9855V22.2197Z" fill="#EBEBEB"/>
<path d="M107.312 58H74.6592V69.2717H107.312V58Z" fill="#EBEBEB"/>
<path d="M107.312 69.2705H74.6592V80.5422H107.312V69.2705Z" fill="#EBEBEB"/>
<path d="M107.312 59.7321V58.5918H74.6595V59.7321H107.312Z" fill="#E0E0E0"/>
<path d="M90.9834 23.8531V22.7129H74.6571V23.8531H90.9834Z" fill="#E0E0E0"/>
<path d="M107.31 23.8561V22.7158H90.9833V23.8561H107.31Z" fill="#E0E0E0"/>
<path d="M107.312 70.9147V69.7744H74.6595V70.9147H107.312Z" fill="#E0E0E0"/>
<path d="M107.31 21.6494H74.0894V81.0336H107.88V21.6494H107.31ZM106.739 58.6976V68.7254H75.2296V58.6976H106.739ZM91.5657 57.5573V22.7897H106.752V57.5573H91.5657ZM90.4255 22.7897V57.5573H75.2296V22.7897H90.4255ZM75.2296 79.8934V69.8656H106.739V79.8934H75.2296Z" fill="#F5F5F5"/>
<path d="M88.6413 38.423C88.6307 38.2446 88.5524 38.077 88.4224 37.9545C88.2923 37.8319 88.1204 37.7637 87.9417 37.7637C87.763 37.7637 87.591 37.8319 87.4609 37.9545C87.3309 38.077 87.2526 38.2446 87.242 38.423V40.8097C87.2363 40.905 87.2502 41.0006 87.2828 41.0904C87.3154 41.1802 87.366 41.2624 87.4315 41.3319C87.4971 41.4015 87.5761 41.4569 87.6638 41.4948C87.7516 41.5326 87.8461 41.5522 87.9417 41.5522C88.0372 41.5522 88.1317 41.5326 88.2195 41.4948C88.3072 41.4569 88.3862 41.4015 88.4518 41.3319C88.5173 41.2624 88.5679 41.1802 88.6005 41.0904C88.6331 41.0006 88.647 40.905 88.6413 40.8097V38.423Z" fill="#E0E0E0"/>
<path d="M89.1345 38.423C89.1239 38.2446 89.0456 38.077 88.9155 37.9545C88.7855 37.8319 88.6135 37.7637 88.4348 37.7637C88.2561 37.7637 88.0842 37.8319 87.9541 37.9545C87.8241 38.077 87.7457 38.2446 87.7351 38.423V40.8097C87.7295 40.905 87.7433 41.0006 87.7759 41.0904C87.8085 41.1802 87.8592 41.2624 87.9247 41.3319C87.9902 41.4015 88.0693 41.4569 88.157 41.4948C88.2447 41.5326 88.3393 41.5522 88.4348 41.5522C88.5304 41.5522 88.6249 41.5326 88.7126 41.4948C88.8004 41.4569 88.8794 41.4015 88.9449 41.3319C89.0105 41.2624 89.0611 41.1802 89.0937 41.0904C89.1263 41.0006 89.1402 40.905 89.1345 40.8097V38.423Z" fill="#F5F5F5"/>
<path d="M89.2975 62.6895C89.1192 62.7001 88.9515 62.7784 88.829 62.9084C88.7064 63.0385 88.6382 63.2104 88.6382 63.3891C88.6382 63.5679 88.7064 63.7398 88.829 63.8699C88.9515 63.9999 89.1192 64.0783 89.2975 64.0889H91.6842C91.8626 64.0783 92.0301 63.9999 92.1527 63.8699C92.2753 63.7398 92.3435 63.5679 92.3435 63.3891C92.3435 63.2104 92.2753 63.0385 92.1527 62.9084C92.0301 62.7784 91.8626 62.7001 91.6842 62.6895H89.2975Z" fill="#E0E0E0"/>
<path d="M89.7912 62.6895C89.6128 62.7001 89.4452 62.7784 89.3226 62.9084C89.2001 63.0385 89.1318 63.2104 89.1318 63.3891C89.1318 63.5679 89.2001 63.7398 89.3226 63.8699C89.4452 63.9999 89.6128 64.0783 89.7912 64.0889H92.1778C92.3562 64.0783 92.5238 63.9999 92.6464 63.8699C92.7689 63.7398 92.8372 63.5679 92.8372 63.3891C92.8372 63.2104 92.7689 63.0385 92.6464 62.9084C92.5238 62.7784 92.3562 62.7001 92.1778 62.6895H89.7912Z" fill="#F5F5F5"/>
<path d="M89.2975 74.2051C89.1192 74.2157 88.9515 74.294 88.829 74.4241C88.7064 74.5541 88.6382 74.7261 88.6382 74.9048C88.6382 75.0835 88.7064 75.2554 88.829 75.3855C88.9515 75.5155 89.1192 75.5939 89.2975 75.6045H91.6842C91.8626 75.5939 92.0301 75.5155 92.1527 75.3855C92.2753 75.2554 92.3435 75.0835 92.3435 74.9048C92.3435 74.7261 92.2753 74.5541 92.1527 74.4241C92.0301 74.294 91.8626 74.2157 91.6842 74.2051H89.2975Z" fill="#E0E0E0"/>
<path d="M89.7912 74.2051C89.6128 74.2157 89.4452 74.294 89.3226 74.4241C89.2001 74.5541 89.1318 74.7261 89.1318 74.9048C89.1318 75.0835 89.2001 75.2554 89.3226 75.3855C89.4452 75.5155 89.6128 75.5939 89.7912 75.6045H92.1778C92.3562 75.5939 92.5238 75.5155 92.6464 75.3855C92.7689 75.2554 92.8372 75.0835 92.8372 74.9048C92.8372 74.7261 92.7689 74.5541 92.6464 74.4241C92.5238 74.294 92.3562 74.2157 92.1778 74.2051H89.7912Z" fill="#F5F5F5"/>
<path d="M93.7869 38.423C93.7763 38.2446 93.6979 38.077 93.5679 37.9545C93.4378 37.8319 93.2659 37.7637 93.0872 37.7637C92.9085 37.7637 92.7365 37.8319 92.6065 37.9545C92.4764 38.077 92.3981 38.2446 92.3875 38.423V40.8097C92.3818 40.905 92.3957 41.0006 92.4283 41.0904C92.4609 41.1802 92.5115 41.2624 92.577 41.3319C92.6426 41.4015 92.7216 41.4569 92.8094 41.4948C92.8971 41.5326 92.9916 41.5522 93.0872 41.5522C93.1827 41.5522 93.2773 41.5326 93.365 41.4948C93.4527 41.4569 93.5318 41.4015 93.5973 41.3319C93.6628 41.2624 93.7134 41.1802 93.746 41.0904C93.7786 41.0006 93.7925 40.905 93.7869 40.8097V38.423Z" fill="#E0E0E0"/>
<path d="M94.2805 38.423C94.2699 38.2446 94.1916 38.077 94.0615 37.9545C93.9315 37.8319 93.7595 37.7637 93.5808 37.7637C93.4021 37.7637 93.2302 37.8319 93.1001 37.9545C92.9701 38.077 92.8917 38.2446 92.8811 38.423V40.8097C92.8754 40.905 92.8893 41.0006 92.9219 41.0904C92.9545 41.1802 93.0052 41.2624 93.0707 41.3319C93.1362 41.4015 93.2153 41.4569 93.303 41.4948C93.3907 41.5326 93.4853 41.5522 93.5808 41.5522C93.6764 41.5522 93.7709 41.5326 93.8586 41.4948C93.9464 41.4569 94.0254 41.4015 94.0909 41.3319C94.1565 41.2624 94.2071 41.1802 94.2397 41.0904C94.2723 41.0006 94.2862 40.905 94.2805 40.8097V38.423Z" fill="#F5F5F5"/>
<path d="M79.4896 24.042H77.5152L77.061 24.4961V29.6174H79.9413V24.4961L79.4896 24.042ZM78.5024 24.812C78.4369 24.812 78.3741 24.786 78.3279 24.7397C78.2816 24.6935 78.2556 24.6307 78.2556 24.5652C78.2556 24.4998 78.2816 24.437 78.3279 24.3907C78.3741 24.3444 78.4369 24.3184 78.5024 24.3184C78.5678 24.3184 78.6306 24.3444 78.6769 24.3907C78.7232 24.437 78.7492 24.4998 78.7492 24.5652C78.7492 24.6307 78.7232 24.6935 78.6769 24.7397C78.6306 24.786 78.5678 24.812 78.5024 24.812Z" fill="#FAFAFA"/>
<path d="M79.9432 27.5947H77.063V29.6111H79.9432V27.5947Z" fill="#E0E0E0"/>
<path d="M78.8899 26.7291C78.8093 26.7996 78.708 26.8421 78.6012 26.85V27.0376H78.4333V26.8549C78.3495 26.851 78.2665 26.8361 78.1865 26.8105C78.1218 26.7915 78.0608 26.7614 78.0063 26.7217L78.0977 26.5168C78.1443 26.5494 78.1949 26.576 78.2482 26.5958C78.3044 26.6174 78.3634 26.6307 78.4235 26.6353V26.3564C78.3551 26.3409 78.2882 26.3194 78.2235 26.2922C78.1695 26.271 78.1219 26.2361 78.0853 26.191C78.0469 26.1391 78.0277 26.0754 78.031 26.0109C78.029 25.9648 78.0371 25.919 78.0545 25.8763C78.072 25.8337 78.0985 25.7954 78.1322 25.764C78.2126 25.6917 78.3154 25.649 78.4235 25.6431V25.458H78.5913V25.6406C78.7106 25.6457 78.8269 25.6805 78.9294 25.7418L78.8455 25.9467C78.7698 25.9018 78.6859 25.8724 78.5987 25.8603V26.1614C78.6658 26.1776 78.7317 26.1983 78.7961 26.2231C78.8497 26.2451 78.8966 26.2808 78.9319 26.3268C78.9714 26.3773 78.9915 26.4404 78.9886 26.5045C78.9879 26.5466 78.9787 26.5881 78.9618 26.6267C78.9448 26.6652 78.9204 26.7 78.8899 26.7291ZM78.342 26.0652C78.3691 26.0867 78.4001 26.1026 78.4333 26.112V25.8652C78.3978 25.8718 78.3651 25.889 78.3395 25.9146C78.33 25.9244 78.3224 25.936 78.3173 25.9487C78.3122 25.9614 78.3097 25.975 78.3099 25.9886C78.3079 26.0031 78.3098 26.0178 78.3155 26.0313C78.3211 26.0448 78.3303 26.0564 78.342 26.0652ZM78.69 26.5859C78.6998 26.5767 78.7078 26.5657 78.7133 26.5534C78.7188 26.5411 78.7218 26.5278 78.7221 26.5143C78.722 26.5012 78.7191 26.4882 78.7136 26.4763C78.7081 26.4644 78.7 26.4538 78.69 26.4452C78.6633 26.4246 78.6332 26.4088 78.6012 26.3983V26.6303C78.6342 26.6238 78.6649 26.6084 78.69 26.5859Z" fill="#E0E0E0"/>
<path d="M61.702 90.9998C88.1307 90.9998 109.555 89.749 109.555 88.206C109.555 86.663 88.1307 85.4121 61.702 85.4121C35.2733 85.4121 13.8486 86.663 13.8486 88.206C13.8486 89.749 35.2733 90.9998 61.702 90.9998Z" fill="#F5F5F5"/>
<path d="M18.4046 79.7409H25.6113L27.4895 87.9152H28.1707L26.5788 78.7734H17.4371L15.8477 87.9152H16.5264L18.4046 79.7409Z" fill="#263238"/>
<path opacity="0.4" d="M18.4046 79.7409H25.6113L27.4895 87.9152H28.1707L26.5788 78.7734H17.4371L15.8477 87.9152H16.5264L18.4046 79.7409Z" fill="white"/>
<path d="M25.8094 79.7409H33.0161L34.8943 87.9152H35.573L33.9836 78.7734H24.8419L23.2524 87.9152H23.9312L25.8094 79.7409Z" fill="#263238"/>
<path opacity="0.6" d="M25.8094 79.7409H33.0161L34.8943 87.9152H35.573L33.9836 78.7734H24.8419L23.2524 87.9152H23.9312L25.8094 79.7409Z" fill="white"/>
<path d="M36.8167 68.4219H22.0083V81.7865H36.8167V68.4219Z" fill="#407BFF"/>
<path opacity="0.5" d="M36.8167 68.4219H22.0083V81.7865H36.8167V68.4219Z" fill="white"/>
<path d="M22.0081 68.4219H14.9741V81.7865H22.0081V68.4219Z" fill="#407BFF"/>
<path opacity="0.5" d="M22.0081 68.4219H14.9741V81.7865H22.0081V68.4219Z" fill="white"/>
<path opacity="0.1" d="M22.0081 68.4219H14.9741V81.7865H22.0081V68.4219Z" fill="black"/>
<path opacity="0.7" d="M35.7063 69.5332H23.1191V74.5508H35.7063V69.5332Z" fill="white"/>
<path opacity="0.7" d="M35.7063 75.6582H23.1191V80.6758H35.7063V75.6582Z" fill="white"/>
<path d="M30.0195 72.0407C30.0195 72.1608 29.9839 72.2782 29.9171 72.3781C29.8504 72.4779 29.7556 72.5557 29.6447 72.6017C29.5337 72.6476 29.4116 72.6596 29.2939 72.6362C29.1761 72.6128 29.0679 72.555 28.983 72.4701C28.8981 72.3851 28.8403 72.277 28.8168 72.1592C28.7934 72.0414 28.8054 71.9193 28.8514 71.8084C28.8973 71.6975 28.9752 71.6026 29.075 71.5359C29.1749 71.4692 29.2922 71.4336 29.4123 71.4336C29.5733 71.4336 29.7278 71.4976 29.8416 71.6114C29.9555 71.7253 30.0195 71.8797 30.0195 72.0407Z" fill="#263238"/>
<path d="M30.0195 78.1687C30.0195 78.2887 29.9839 78.4061 29.9171 78.506C29.8504 78.6058 29.7556 78.6836 29.6447 78.7296C29.5337 78.7755 29.4116 78.7876 29.2939 78.7641C29.1761 78.7407 29.0679 78.6829 28.983 78.598C28.8981 78.5131 28.8403 78.4049 28.8168 78.2871C28.7934 78.1693 28.8054 78.0473 28.8514 77.9363C28.8973 77.8254 28.9752 77.7306 29.075 77.6638C29.1749 77.5971 29.2922 77.5615 29.4123 77.5615C29.5733 77.5615 29.7278 77.6255 29.8416 77.7394C29.9555 77.8532 30.0195 78.0076 30.0195 78.1687Z" fill="#263238"/>
<path d="M21.4725 75.3818H19.4981L19.0439 75.836V80.9523H21.9242V75.836L21.4725 75.3818ZM20.4853 76.1519C20.4365 76.1519 20.3888 76.1374 20.3482 76.1103C20.3076 76.0832 20.276 76.0446 20.2573 75.9995C20.2386 75.9544 20.2337 75.9048 20.2432 75.8569C20.2528 75.809 20.2763 75.7651 20.3108 75.7306C20.3453 75.696 20.3893 75.6725 20.4371 75.663C20.485 75.6535 20.5346 75.6584 20.5797 75.6771C20.6248 75.6957 20.6634 75.7274 20.6905 75.7679C20.7176 75.8085 20.7321 75.8563 20.7321 75.9051C20.7321 75.9705 20.7061 76.0333 20.6598 76.0796C20.6135 76.1259 20.5508 76.1519 20.4853 76.1519Z" fill="#263238"/>
<path opacity="0.8" d="M21.4725 75.3818H19.4981L19.0439 75.836V80.9523H21.9242V75.836L21.4725 75.3818ZM20.4853 76.1519C20.4365 76.1519 20.3888 76.1374 20.3482 76.1103C20.3076 76.0832 20.276 76.0446 20.2573 75.9995C20.2386 75.9544 20.2337 75.9048 20.2432 75.8569C20.2528 75.809 20.2763 75.7651 20.3108 75.7306C20.3453 75.696 20.3893 75.6725 20.4371 75.663C20.485 75.6535 20.5346 75.6584 20.5797 75.6771C20.6248 75.6957 20.6634 75.7274 20.6905 75.7679C20.7176 75.8085 20.7321 75.8563 20.7321 75.9051C20.7321 75.9705 20.7061 76.0333 20.6598 76.0796C20.6135 76.1259 20.5508 76.1519 20.4853 76.1519Z" fill="white"/>
<path d="M21.9242 78.9365H19.0439V80.9529H21.9242V78.9365Z" fill="#407BFF"/>
<path d="M20.8704 78.0704C20.7907 78.1424 20.6888 78.1851 20.5816 78.1913V78.3789H20.4138V78.1963C20.3299 78.1945 20.2467 78.1803 20.167 78.1543C20.1021 78.1346 20.0411 78.1037 19.9868 78.063L20.0806 77.8606C20.1261 77.8929 20.176 77.9187 20.2287 77.9371C20.2851 77.9583 20.344 77.9724 20.4039 77.9791V77.6977C20.3356 77.683 20.2687 77.6623 20.204 77.636C20.1507 77.6124 20.1034 77.5769 20.0658 77.5324C20.0272 77.4805 20.008 77.4167 20.0115 77.3522C20.009 77.3061 20.0168 77.2601 20.0343 77.2174C20.0518 77.1747 20.0786 77.1364 20.1127 77.1054C20.1936 77.0334 20.2959 76.9901 20.4039 76.982V76.7969H20.5717V76.9795C20.691 76.9855 20.807 77.0202 20.9099 77.0807L20.8284 77.288C20.7529 77.2427 20.6689 77.2133 20.5816 77.2016V77.4978C20.6493 77.5118 20.7155 77.5324 20.7791 77.5595C20.832 77.5815 20.8787 77.6162 20.9148 77.6607C20.9543 77.7113 20.9745 77.7743 20.9716 77.8384C20.9716 77.882 20.9626 77.9251 20.9452 77.965C20.9278 78.0049 20.9023 78.0408 20.8704 78.0704ZM20.3225 77.409C20.3497 77.4296 20.3807 77.4447 20.4138 77.4534V77.2066C20.3785 77.2124 20.3458 77.2288 20.32 77.2535C20.3007 77.2743 20.2901 77.3016 20.2904 77.33C20.2884 77.3448 20.2904 77.3599 20.296 77.3737C20.3016 77.3875 20.3108 77.3997 20.3225 77.409ZM20.6705 77.9272C20.6808 77.9184 20.689 77.9075 20.6946 77.8951C20.7001 77.8827 20.7029 77.8692 20.7026 77.8557C20.7022 77.8426 20.6992 77.8297 20.6936 77.8178C20.6881 77.8059 20.6802 77.7953 20.6705 77.7866C20.6438 77.766 20.6137 77.7501 20.5816 77.7397V77.9717C20.6147 77.9651 20.6454 77.9498 20.6705 77.9272Z" fill="#263238"/>
<path d="M17.2474 66.9707H15.273L14.8188 67.4248V72.5411H17.7016V67.4248L17.2474 66.9707ZM16.2602 67.7383C16.2114 67.7383 16.1637 67.7238 16.1231 67.6967C16.0825 67.6696 16.0509 67.631 16.0322 67.5859C16.0135 67.5408 16.0086 67.4912 16.0181 67.4433C16.0277 67.3954 16.0512 67.3515 16.0857 67.3169C16.1202 67.2824 16.1642 67.2589 16.212 67.2494C16.2599 67.2399 16.3095 67.2448 16.3546 67.2634C16.3997 67.2821 16.4383 67.3138 16.4654 67.3543C16.4925 67.3949 16.507 67.4426 16.507 67.4915C16.507 67.5569 16.481 67.6197 16.4347 67.666C16.3884 67.7123 16.3257 67.7383 16.2602 67.7383Z" fill="#263238"/>
<path opacity="0.8" d="M17.2474 66.9707H15.273L14.8188 67.4248V72.5411H17.7016V67.4248L17.2474 66.9707ZM16.2602 67.7383C16.2114 67.7383 16.1637 67.7238 16.1231 67.6967C16.0825 67.6696 16.0509 67.631 16.0322 67.5859C16.0135 67.5408 16.0086 67.4912 16.0181 67.4433C16.0277 67.3954 16.0512 67.3515 16.0857 67.3169C16.1202 67.2824 16.1642 67.2589 16.212 67.2494C16.2599 67.2399 16.3095 67.2448 16.3546 67.2634C16.3997 67.2821 16.4383 67.3138 16.4654 67.3543C16.4925 67.3949 16.507 67.4426 16.507 67.4915C16.507 67.5569 16.481 67.6197 16.4347 67.666C16.3884 67.7123 16.3257 67.7383 16.2602 67.7383Z" fill="white"/>
<path d="M17.7015 70.5254H14.8213V72.5418H17.7015V70.5254Z" fill="#407BFF"/>
<path d="M16.6472 69.6587C16.5667 69.7293 16.4653 69.7718 16.3585 69.7797V69.9673H16.1906V69.7846C16.1068 69.781 16.0237 69.766 15.9438 69.7402C15.8795 69.7202 15.8187 69.6902 15.7637 69.6513L15.855 69.4465C15.9013 69.4796 15.952 69.5062 16.0055 69.5255C16.062 69.5462 16.1209 69.5594 16.1808 69.565V69.2861C16.1117 69.2702 16.044 69.2487 15.9784 69.2219C15.9248 69.1999 15.878 69.1642 15.8427 69.1182C15.804 69.0673 15.7848 69.0043 15.7884 68.9405C15.7864 68.8945 15.7944 68.8486 15.8119 68.806C15.8293 68.7634 15.8558 68.7251 15.8895 68.6937C15.97 68.6214 16.0727 68.5787 16.1808 68.5728V68.3877H16.3486V68.5703C16.468 68.5754 16.5842 68.6102 16.6867 68.6715L16.6028 68.8764C16.5269 68.8318 16.4431 68.8025 16.356 68.79V69.0738C16.4234 69.0889 16.4895 69.1095 16.5535 69.1355C16.6064 69.1575 16.653 69.1922 16.6892 69.2367C16.7273 69.2879 16.7464 69.3507 16.7435 69.4144C16.7458 69.4596 16.7383 69.5048 16.7217 69.547C16.7051 69.5891 16.6797 69.6272 16.6472 69.6587ZM16.0993 68.9948C16.1266 69.0155 16.1576 69.0306 16.1906 69.0393V68.7925C16.1557 68.7994 16.1233 68.8156 16.0969 68.8394C16.0776 68.8601 16.067 68.8875 16.0672 68.9159C16.0648 68.9307 16.0665 68.9459 16.0721 68.9599C16.0778 68.9738 16.0872 68.9859 16.0993 68.9948ZM16.4473 69.5156C16.4568 69.5063 16.4644 69.4951 16.4694 69.4828C16.4745 69.4705 16.4771 69.4573 16.4769 69.444C16.4775 69.431 16.4752 69.418 16.47 69.4061C16.4649 69.3941 16.4572 69.3835 16.4473 69.3749C16.4206 69.3544 16.3905 69.3385 16.3585 69.328V69.5576C16.3917 69.5529 16.4226 69.5383 16.4473 69.5156Z" fill="#263238"/>
<path d="M16.2158 67.4726L16.3294 67.522C16.9365 66.1275 17.7954 65.5253 18.4099 65.2686C18.787 65.1015 19.1973 65.023 19.6094 65.0391V64.9157C19.5995 64.9107 17.4128 64.7182 16.2158 67.4726Z" fill="#263238"/>
<path d="M22.3193 68.4445H23.0598C23.1193 68.4441 23.1774 68.4261 23.2268 68.3929C23.2763 68.3597 23.3148 68.3126 23.3377 68.2576C23.3606 68.2027 23.3668 68.1422 23.3556 68.0837C23.3443 68.0252 23.3161 67.9713 23.2745 67.9287L22.3267 66.9785L22.3193 68.4445Z" fill="#407BFF"/>
<path d="M21.4725 61.9805H20.0188C19.1771 62.0037 18.3777 62.3544 17.7906 62.958C17.2035 63.5616 16.875 64.3704 16.875 65.2124C16.875 66.0544 17.2035 66.8632 17.7906 67.4668C18.3777 68.0704 19.1771 68.4211 20.0188 68.4443H21.4725C22.3142 68.4211 23.1137 68.0704 23.7008 67.4668C24.2879 66.8632 24.6164 66.0544 24.6164 65.2124C24.6164 64.3704 24.2879 63.5616 23.7008 62.958C23.1137 62.3544 22.3142 62.0037 21.4725 61.9805Z" fill="#407BFF"/>
<path opacity="0.3" d="M21.4725 61.9805H20.0188C19.1771 62.0037 18.3777 62.3544 17.7906 62.958C17.2035 63.5616 16.875 64.3704 16.875 65.2124C16.875 66.0544 17.2035 66.8632 17.7906 67.4668C18.3777 68.0704 19.1771 68.4211 20.0188 68.4443H21.4725C22.3142 68.4211 23.1137 68.0704 23.7008 67.4668C24.2879 66.8632 24.6164 66.0544 24.6164 65.2124C24.6164 64.3704 24.2879 63.5616 23.7008 62.958C23.1137 62.3544 22.3142 62.0037 21.4725 61.9805Z" fill="white"/>
<path d="M23.7547 67.4983C25.0164 66.2367 25.0164 64.1911 23.7547 62.9294C22.4931 61.6677 20.4475 61.6677 19.1858 62.9294C17.9242 64.1911 17.9242 66.2367 19.1858 67.4983C20.4475 68.76 22.4931 68.76 23.7547 67.4983Z" fill="#407BFF"/>
<path opacity="0.5" d="M23.7547 67.4983C25.0164 66.2367 25.0164 64.1911 23.7547 62.9294C22.4931 61.6677 20.4475 61.6677 19.1858 62.9294C17.9242 64.1911 17.9242 66.2367 19.1858 67.4983C20.4475 68.76 22.4931 68.76 23.7547 67.4983Z" fill="white"/>
<path d="M21.4705 67.812C22.9058 67.812 24.0693 66.6485 24.0693 65.2131C24.0693 63.7778 22.9058 62.6143 21.4705 62.6143C20.0351 62.6143 18.8716 63.7778 18.8716 65.2131C18.8716 66.6485 20.0351 67.812 21.4705 67.812Z" fill="#407BFF"/>
<path d="M18.7209 67.6523L18.4445 67.9288C18.4028 67.9714 18.3746 68.0252 18.3634 68.0837C18.3521 68.1422 18.3583 68.2027 18.3812 68.2577C18.4041 68.3127 18.4427 68.3597 18.4921 68.393C18.5415 68.4262 18.5996 68.4441 18.6592 68.4446H19.3996V68.1015C19.1561 67.9797 18.9282 67.8289 18.7209 67.6523Z" fill="#407BFF"/>
<path d="M21.7193 65.4633H21.2183L21.4651 63.4814H21.4725L21.7193 65.4633Z" fill="#263238"/>
<path d="M21.3267 65.7149V65.2139L22.8149 65.4607V65.4681L21.3267 65.7149Z" fill="#263238"/>
<path d="M34.7284 61.3232H32.7539L32.2998 61.7774V66.8863H35.18V61.7774L34.7284 61.3232ZM33.7412 62.0933C33.6923 62.0933 33.6446 62.0788 33.604 62.0517C33.5635 62.0246 33.5318 61.986 33.5131 61.9409C33.4945 61.8958 33.4896 61.8462 33.4991 61.7983C33.5086 61.7505 33.5321 61.7065 33.5666 61.672C33.6012 61.6374 33.6451 61.6139 33.693 61.6044C33.7409 61.5949 33.7905 61.5998 33.8356 61.6185C33.8807 61.6371 33.9193 61.6688 33.9464 61.7094C33.9735 61.7499 33.988 61.7977 33.988 61.8465C33.988 61.9119 33.962 61.9747 33.9157 62.021C33.8694 62.0673 33.8066 62.0933 33.7412 62.0933Z" fill="#263238"/>
<path opacity="0.8" d="M34.7284 61.3232H32.7539L32.2998 61.7774V66.8863H35.18V61.7774L34.7284 61.3232ZM33.7412 62.0933C33.6923 62.0933 33.6446 62.0788 33.604 62.0517C33.5635 62.0246 33.5318 61.986 33.5131 61.9409C33.4945 61.8958 33.4896 61.8462 33.4991 61.7983C33.5086 61.7505 33.5321 61.7065 33.5666 61.672C33.6012 61.6374 33.6451 61.6139 33.693 61.6044C33.7409 61.5949 33.7905 61.5998 33.8356 61.6185C33.8807 61.6371 33.9193 61.6688 33.9464 61.7094C33.9735 61.7499 33.988 61.7977 33.988 61.8465C33.988 61.9119 33.962 61.9747 33.9157 62.021C33.8694 62.0673 33.8066 62.0933 33.7412 62.0933Z" fill="white"/>
<path d="M35.1825 64.876H32.3022V66.8924H35.1825V64.876Z" fill="#407BFF"/>
<path d="M34.1287 64.0099C34.0484 64.0813 33.947 64.1247 33.8399 64.1333V64.3184H33.6721V64.1382C33.5882 64.1348 33.5051 64.1198 33.4253 64.0938C33.3604 64.074 33.2994 64.0431 33.2451 64.0024L33.3364 63.8001C33.3829 63.8324 33.4335 63.8581 33.487 63.8766C33.5433 63.8981 33.6022 63.9122 33.6622 63.9185V63.6396C33.5935 63.6226 33.5259 63.6012 33.4598 63.5755C33.4072 63.5518 33.3608 63.5163 33.3241 63.4718C33.2842 63.4205 33.2641 63.3566 33.2673 63.2916C33.2658 63.2457 33.2741 63.1999 33.2915 63.1574C33.309 63.1149 33.3352 63.0765 33.3685 63.0448C33.4496 62.9719 33.5533 62.9292 33.6622 62.9239V62.7363H33.8301V62.9362C33.9495 62.943 34.0655 62.9785 34.1682 63.0399L34.0843 63.2447C34.0089 63.1992 33.9248 63.1698 33.8375 63.1584V63.4299C33.9052 63.4438 33.9713 63.4645 34.0349 63.4916C34.0878 63.5135 34.1345 63.5483 34.1706 63.5927C34.2093 63.6437 34.2285 63.7066 34.2249 63.7704C34.2268 63.8149 34.2192 63.8592 34.2026 63.9005C34.186 63.9418 34.1608 63.9791 34.1287 64.0099ZM33.5783 63.3484C33.6065 63.369 33.6383 63.3841 33.6721 63.3928V63.146C33.6368 63.1519 33.6041 63.1682 33.5783 63.1929C33.559 63.2137 33.5484 63.2411 33.5487 63.2694C33.5471 63.284 33.549 63.2987 33.5541 63.3124C33.5593 63.3262 33.5675 63.3385 33.5783 63.3484ZM33.9288 63.8667C33.9385 63.8576 33.9462 63.8465 33.9513 63.8341C33.9564 63.8218 33.9588 63.8085 33.9584 63.7951C33.9585 63.7822 33.9559 63.7694 33.9508 63.7575C33.9457 63.7456 33.9382 63.7349 33.9288 63.726C33.9018 63.7064 33.8718 63.6913 33.8399 63.6816V63.9235C33.8749 63.9146 33.906 63.8947 33.9288 63.8667Z" fill="#263238"/>
<path d="M33.8423 61.8264L33.7288 61.8757C33.1241 60.4788 32.2652 59.8791 31.6507 59.6199C31.2732 59.4542 30.8632 59.3757 30.4512 59.3904V59.2694C30.461 59.267 32.6453 59.072 33.8423 61.8264Z" fill="#263238"/>
<path d="M27.4967 67.9608H26.8526V61.6845C26.8515 61.5014 26.8867 61.3199 26.9562 61.1504C27.0257 60.981 27.128 60.827 27.2573 60.6973L29.9722 57.9824L30.4288 58.439L27.9015 60.9614C27.7722 61.0911 27.6699 61.2451 27.6004 61.4145C27.5309 61.584 27.4957 61.7655 27.4967 61.9486V67.9608Z" fill="#263238"/>
<g opacity="0.5">
<path d="M27.4972 67.9618H26.853V61.6855C26.852 61.5024 26.8872 61.3209 26.9567 61.1514C27.0262 60.982 27.1285 60.828 27.2578 60.6983L29.9727 57.9834L30.4293 58.44L27.902 60.9624C27.7727 61.092 27.6703 61.2461 27.6009 61.4155C27.5314 61.5849 27.4962 61.7665 27.4972 61.9496V67.9618Z" fill="white"/>
</g>
<path opacity="0.2" d="M27.4967 66.9941H26.8525V67.9616H27.4967V66.9941Z" fill="black"/>
<path opacity="0.2" d="M28.9452 59.9286L30.426 58.4478L29.9694 57.9912L28.9106 59.05C28.9279 59.2598 28.9378 59.5856 28.9452 59.9286Z" fill="black"/>
<path d="M30.7202 68.445H23.627C23.6276 68.1886 23.7297 67.9429 23.911 67.7616C24.0923 67.5803 24.338 67.4782 24.5944 67.4775H29.7527C30.0093 67.4775 30.2554 67.5795 30.4368 67.7609C30.6183 67.9423 30.7202 68.1884 30.7202 68.445Z" fill="#407BFF"/>
<path opacity="0.3" d="M30.7202 68.445H23.627C23.6276 68.1886 23.7297 67.9429 23.911 67.7616C24.0923 67.5803 24.338 67.4782 24.5944 67.4775H29.7527C30.0093 67.4775 30.2554 67.5795 30.4368 67.7609C30.6183 67.9423 30.7202 68.1884 30.7202 68.445Z" fill="white"/>
<path d="M33.21 58.2469C33.1987 57.9827 33.1334 57.7236 33.018 57.4856C32.9027 57.2476 32.7398 57.0358 32.5394 56.8632C32.339 56.6907 32.1053 56.561 31.8529 56.4823C31.6004 56.4035 31.3345 56.3774 31.0715 56.4054C30.8085 56.4335 30.5541 56.5152 30.3239 56.6454C30.0937 56.7756 29.8927 56.9517 29.7332 57.1626C29.5737 57.3736 29.4592 57.615 29.3967 57.872C29.3341 58.1289 29.3249 58.396 29.3697 58.6566L29.3968 58.9207C29.4116 59.054 29.6757 61.5616 29.6905 61.6948C29.7102 61.9021 30.5913 61.9787 31.665 61.8676C32.7386 61.7565 33.5703 61.4974 33.5506 61.2901C33.5358 61.1568 33.2717 58.6492 33.2569 58.516L33.21 58.2469Z" fill="#407BFF"/>
<path opacity="0.3" d="M33.21 58.2469C33.1987 57.9827 33.1334 57.7236 33.018 57.4856C32.9027 57.2476 32.7398 57.0358 32.5394 56.8632C32.339 56.6907 32.1053 56.561 31.8529 56.4823C31.6004 56.4035 31.3345 56.3774 31.0715 56.4054C30.8085 56.4335 30.5541 56.5152 30.3239 56.6454C30.0937 56.7756 29.8927 56.9517 29.7332 57.1626C29.5737 57.3736 29.4592 57.615 29.3967 57.872C29.3341 58.1289 29.3249 58.396 29.3697 58.6566L29.3968 58.9207C29.4116 59.054 29.6757 61.5616 29.6905 61.6948C29.7102 61.9021 30.5913 61.9787 31.665 61.8676C32.7386 61.7565 33.5703 61.4974 33.5506 61.2901C33.5358 61.1568 33.2717 58.6492 33.2569 58.516L33.21 58.2469Z" fill="white"/>
<path d="M33.5313 61.2906C33.5511 61.4979 32.7095 61.7571 31.6457 61.8681C30.582 61.9792 29.7034 61.9027 29.6713 61.6954C29.6392 61.4881 30.4932 61.2314 31.5544 61.1203C32.6157 61.0093 33.5091 61.0858 33.5313 61.2906Z" fill="#407BFF"/>
<path d="M88.8688 43.4102H96.0533V87.9144H83.8413L88.8688 43.4102ZM95.3474 44.116H89.5006L84.6336 87.2085H95.3474V44.116Z" fill="#263238"/>
<g opacity="0.4">
<path d="M88.8688 43.4102H96.0533V87.9144H83.8413L88.8688 43.4102ZM95.3474 44.116H89.5006L84.6336 87.2085H95.3474V44.116Z" fill="white"/>
</g>
<path d="M103.931 54.2422H85.8354V55.185H103.931V54.2422Z" fill="#407BFF"/>
<g opacity="0.5">
<path d="M103.931 54.2422H85.8354V55.185H103.931V54.2422Z" fill="white"/>
</g>
<g opacity="0.2">
<path d="M103.931 54.2422H94.0586V55.185H103.931V54.2422Z" fill="black"/>
</g>
<path d="M103.932 65.1904H85.3052V66.1332H103.932V65.1904Z" fill="#407BFF"/>
<g opacity="0.5">
<path d="M103.932 65.1904H85.3052V66.1332H103.932V65.1904Z" fill="white"/>
</g>
<g opacity="0.2">
<path d="M103.934 65.1904H93.5312V66.1332H103.934V65.1904Z" fill="black"/>
</g>
<path d="M103.934 76.1406H84.7769V77.0834H103.934V76.1406Z" fill="#407BFF"/>
<g opacity="0.5">
<path d="M103.934 76.1406H84.7769V77.0834H103.934V76.1406Z" fill="white"/>
</g>
<g opacity="0.2">
<path d="M103.934 76.1406H93V77.0834H103.934V76.1406Z" fill="black"/>
</g>
<path d="M97.0997 43.4102H104.287V87.9144H92.0747L97.0997 43.4102ZM103.578 44.116H97.7365L92.8694 87.2085H103.583L103.578 44.116Z" fill="#263238"/>
<g opacity="0.6">
<path d="M97.0997 43.4102H104.287V87.9144H92.0747L97.0997 43.4102ZM103.578 44.116H97.7365L92.8694 87.2085H103.583L103.578 44.116Z" fill="white"/>
</g>
<path d="M93.9995 41.2153L94.9867 39.5049L94.8164 38.8854L90.3739 36.3408L88.9424 38.8385L93.3849 41.3831L93.9995 41.2153ZM93.8218 39.9812C93.8545 39.9243 93.9085 39.8827 93.9719 39.8655C94.0353 39.8484 94.1029 39.8572 94.1599 39.8899C94.2168 39.9226 94.2584 39.9766 94.2756 40.0401C94.2927 40.1035 94.2839 40.1711 94.2512 40.228C94.235 40.2562 94.2134 40.281 94.1876 40.3008C94.1619 40.3207 94.1324 40.3352 94.1011 40.3437C94.0697 40.3522 94.0369 40.3544 94.0046 40.3502C93.9724 40.346 93.9413 40.3356 93.9131 40.3193C93.8849 40.3031 93.8601 40.2815 93.8403 40.2558C93.8204 40.23 93.8059 40.2006 93.7974 40.1692C93.7889 40.1378 93.7867 40.105 93.7909 40.0728C93.7951 40.0405 93.8056 40.0094 93.8218 39.9812Z" fill="#263238"/>
<path opacity="0.8" d="M93.9995 41.2153L94.9867 39.5049L94.8164 38.8854L90.3739 36.3408L88.9424 38.8385L93.3849 41.3831L93.9995 41.2153ZM93.8218 39.9812C93.8545 39.9243 93.9085 39.8827 93.9719 39.8655C94.0353 39.8484 94.1029 39.8572 94.1599 39.8899C94.2168 39.9226 94.2584 39.9766 94.2756 40.0401C94.2927 40.1035 94.2839 40.1711 94.2512 40.228C94.235 40.2562 94.2134 40.281 94.1876 40.3008C94.1619 40.3207 94.1324 40.3352 94.1011 40.3437C94.0697 40.3522 94.0369 40.3544 94.0046 40.3502C93.9724 40.346 93.9413 40.3356 93.9131 40.3193C93.8849 40.3031 93.8601 40.2815 93.8403 40.2558C93.8204 40.23 93.8059 40.2006 93.7974 40.1692C93.7889 40.1378 93.7867 40.105 93.7909 40.0728C93.7951 40.0405 93.8056 40.0094 93.8218 39.9812Z" fill="white"/>
<path d="M90.3741 36.3405L88.9409 38.8389L90.69 39.8422L92.1231 37.3438L90.3741 36.3405Z" fill="#407BFF"/>
<path d="M91.9662 39.3627C91.9446 39.2567 91.9585 39.1465 92.0057 39.0492L91.8428 38.9579L91.9267 38.8123L92.0846 38.9036C92.1283 38.8354 92.1805 38.7732 92.2401 38.7185C92.2892 38.672 92.346 38.6344 92.408 38.6074L92.5388 38.7901C92.4869 38.8124 92.4386 38.8423 92.3956 38.8789C92.3496 38.9179 92.309 38.9627 92.2747 39.0122L92.5215 39.1504C92.57 39.0992 92.6219 39.0513 92.677 39.0073C92.7235 38.9727 92.7777 38.9498 92.8349 38.9406C92.8989 38.9327 92.9635 38.9475 93.0176 38.9826C93.0568 39.0034 93.091 39.0325 93.1179 39.0679C93.1447 39.1032 93.1636 39.144 93.1731 39.1874C93.1968 39.2933 93.1828 39.4042 93.1336 39.5009L93.294 39.5946L93.2126 39.7403L93.0546 39.6489C92.9897 39.7512 92.9007 39.8359 92.7955 39.8958L92.6597 39.7205C92.739 39.6753 92.808 39.6139 92.8621 39.5404L92.6153 39.3997C92.5697 39.4512 92.5193 39.4983 92.4647 39.5404C92.4189 39.5767 92.3645 39.6005 92.3068 39.6095C92.2436 39.6177 92.1796 39.6028 92.1266 39.5675C92.0868 39.5467 92.052 39.5177 92.0243 39.4824C91.9967 39.447 91.9768 39.4062 91.9662 39.3627ZM92.8152 39.2146C92.7828 39.2285 92.7535 39.2486 92.7288 39.2738L92.9361 39.3923C92.9469 39.3577 92.9469 39.3207 92.9361 39.2861C92.9277 39.2589 92.9092 39.2359 92.8843 39.222C92.8739 39.216 92.8624 39.2123 92.8505 39.211C92.8386 39.2097 92.8266 39.2109 92.8152 39.2146ZM92.1908 39.259C92.1936 39.2724 92.1992 39.2851 92.2073 39.2961C92.2154 39.3072 92.2257 39.3164 92.2377 39.3232C92.2492 39.3287 92.2619 39.3315 92.2747 39.3315C92.2875 39.3315 92.3001 39.3287 92.3117 39.3232C92.344 39.3113 92.3734 39.2928 92.3981 39.2689L92.1957 39.1553C92.1848 39.1888 92.1831 39.2246 92.1908 39.259Z" fill="#263238"/>
<path d="M94.9179 44.2195L94.7994 44.18C95.2807 42.7361 95.0462 41.7119 94.76 41.1146C94.5911 40.7379 94.3377 40.4052 94.0195 40.1422L94.0936 40.041C94.1108 40.0534 95.8681 41.3713 94.9179 44.2195Z" fill="#263238"/>
<path d="M73.5487 66.3008H61.5539C60.891 66.3015 60.2554 66.5651 59.7867 67.0338C59.318 67.5025 59.0544 68.1381 59.0537 68.8009V87.9137H76.0587V68.8009C76.0587 68.4718 75.9937 68.1459 75.8674 67.8419C75.7412 67.5379 75.5561 67.2619 75.3229 67.0296C75.0897 66.7973 74.8129 66.6133 74.5085 66.4883C74.204 66.3632 73.8778 66.2995 73.5487 66.3008Z" fill="#407BFF"/>
<path opacity="0.5" d="M73.5487 66.3008H61.5539C60.891 66.3015 60.2554 66.5651 59.7867 67.0338C59.318 67.5025 59.0544 68.1381 59.0537 68.8009V87.9137H76.0587V68.8009C76.0587 68.4718 75.9937 68.1459 75.8674 67.8419C75.7412 67.5379 75.5561 67.2619 75.3229 67.0296C75.0897 66.7973 74.8129 66.6133 74.5085 66.4883C74.204 66.3632 73.8778 66.2995 73.5487 66.3008Z" fill="white"/>
<path opacity="0.1" d="M73.5487 66.3008H61.5539C60.891 66.3015 60.2554 66.5651 59.7867 67.0338C59.318 67.5025 59.0544 68.1381 59.0537 68.8009V87.9137H76.0587V68.8009C76.0587 68.4718 75.9937 68.1459 75.8674 67.8419C75.7412 67.5379 75.5561 67.2619 75.3229 67.0296C75.0897 66.7973 74.8129 66.6133 74.5085 66.4883C74.204 66.3632 73.8778 66.2995 73.5487 66.3008Z" fill="black"/>
<path d="M73.2182 66.3008H73.8993C74.4721 66.3008 75.0214 66.5283 75.4264 66.9333C75.8314 67.3383 76.0589 67.8876 76.0589 68.4603V87.9137H71.0586V68.4603C71.0586 67.8876 71.2861 67.3383 71.6911 66.9333C72.0961 66.5283 72.6454 66.3008 73.2182 66.3008Z" fill="#407BFF"/>
<path opacity="0.6" d="M73.2182 66.3008H73.8993C74.4721 66.3008 75.0214 66.5283 75.4264 66.9333C75.8314 67.3383 76.0589 67.8876 76.0589 68.4603V87.9137H71.0586V68.4603C71.0586 67.8876 71.2861 67.3383 71.6911 66.9333C72.0961 66.5283 72.6454 66.3008 73.2182 66.3008Z" fill="white"/>
<path d="M61.4106 79.3969L58.7228 60.2842C58.6128 59.6008 58.268 58.9773 57.7476 58.5209C57.2273 58.0645 56.5641 57.8039 55.8722 57.784H44.0255C43.7098 57.7754 43.3962 57.8372 43.1074 57.965C42.8186 58.0928 42.5619 58.2833 42.356 58.5228C42.1501 58.7622 42.0002 59.0446 41.9171 59.3493C41.834 59.654 41.8199 59.9733 41.8758 60.2842L44.5635 79.3969H61.4106Z" fill="#407BFF"/>
<path opacity="0.5" d="M61.4106 79.3969L58.7228 60.2842C58.6128 59.6008 58.268 58.9773 57.7476 58.5209C57.2273 58.0645 56.5641 57.8039 55.8722 57.784H44.0255C43.7098 57.7754 43.3962 57.8372 43.1074 57.965C42.8186 58.0928 42.5619 58.2833 42.356 58.5228C42.1501 58.7622 42.0002 59.0446 41.9171 59.3493C41.834 59.654 41.8199 59.9733 41.8758 60.2842L44.5635 79.3969H61.4106Z" fill="white"/>
<path opacity="0.1" d="M49.5687 79.3969H44.5684L41.8807 60.2842C41.8248 59.9733 41.8389 59.654 41.922 59.3493C42.0051 59.0446 42.155 58.7622 42.3609 58.5228C42.5668 58.2833 42.8235 58.0928 43.1122 57.965C43.401 57.8372 43.7147 57.7754 44.0304 57.784C44.7242 57.8016 45.3901 58.061 45.9129 58.5176C46.4357 58.9741 46.7825 59.599 46.8933 60.2842L49.5687 79.3969Z" fill="black"/>
<path d="M58.4937 74.125H73.0553C73.2837 74.125 73.5028 74.2157 73.6643 74.3773C73.8259 74.5388 73.9166 74.7579 73.9166 74.9864V76.9781C73.9166 77.2065 73.8259 77.4256 73.6643 77.5872C73.5028 77.7487 73.2837 77.8394 73.0553 77.8394H58.4937V74.125Z" fill="#407BFF"/>
<path opacity="0.7" d="M58.4937 74.125H73.0553C73.2837 74.125 73.5028 74.2157 73.6643 74.3773C73.8259 74.5388 73.9166 74.7579 73.9166 74.9864V76.9781C73.9166 77.2065 73.8259 77.4256 73.6643 77.5872C73.5028 77.7487 73.2837 77.8394 73.0553 77.8394H58.4937V74.125Z" fill="white"/>
<path d="M72.774 77.8408H58.4839V87.9155H72.774V77.8408Z" fill="#407BFF"/>
<path opacity="0.5" d="M72.774 77.8408H58.4839V87.9155H72.774V77.8408Z" fill="white"/>
<path d="M63.6195 69.6777H61.645L61.1909 70.1319V75.2482H64.0712V70.1319L63.6195 69.6777ZM62.6323 70.4478C62.5835 70.4478 62.5357 70.4333 62.4952 70.4062C62.4546 70.3791 62.4229 70.3405 62.4043 70.2954C62.3856 70.2503 62.3807 70.2007 62.3902 70.1528C62.3997 70.1049 62.4232 70.061 62.4578 70.0264C62.4923 69.9919 62.5362 69.9684 62.5841 69.9589C62.632 69.9494 62.6816 69.9543 62.7267 69.9729C62.7718 69.9916 62.8104 70.0233 62.8375 70.0638C62.8646 70.1044 62.8791 70.1522 62.8791 70.201C62.8791 70.266 62.8534 70.3284 62.8077 70.3746C62.7619 70.4208 62.6998 70.4471 62.6347 70.4478H62.6323Z" fill="#263238"/>
<path opacity="0.8" d="M63.6195 69.6777H61.645L61.1909 70.1319V75.2482H64.0712V70.1319L63.6195 69.6777ZM62.6323 70.4478C62.5835 70.4478 62.5357 70.4333 62.4952 70.4062C62.4546 70.3791 62.4229 70.3405 62.4043 70.2954C62.3856 70.2503 62.3807 70.2007 62.3902 70.1528C62.3997 70.1049 62.4232 70.061 62.4578 70.0264C62.4923 69.9919 62.5362 69.9684 62.5841 69.9589C62.632 69.9494 62.6816 69.9543 62.7267 69.9729C62.7718 69.9916 62.8104 70.0233 62.8375 70.0638C62.8646 70.1044 62.8791 70.1522 62.8791 70.201C62.8791 70.266 62.8534 70.3284 62.8077 70.3746C62.7619 70.4208 62.6998 70.4471 62.6347 70.4478H62.6323Z" fill="white"/>
<path d="M64.0741 73.2324H61.1938V75.2488H64.0741V73.2324Z" fill="#407BFF"/>
<path d="M63.0198 72.3658C62.9402 72.4378 62.8383 72.4805 62.7311 72.4867V72.6743H62.5632V72.4917C62.4793 72.4904 62.3961 72.4762 62.3164 72.4497C62.2506 72.4304 62.1887 72.3995 62.1338 72.3584L62.2276 72.1535C62.2724 72.1876 62.3224 72.2142 62.3757 72.2325C62.4321 72.2537 62.491 72.2678 62.5509 72.2745V71.9931C62.4826 71.9783 62.4157 71.9577 62.351 71.9314C62.2977 71.9078 62.2504 71.8723 62.2128 71.8277C62.1742 71.7759 62.1549 71.7121 62.1585 71.6476C62.1573 71.6017 62.1657 71.556 62.1831 71.5135C62.2005 71.471 62.2266 71.4326 62.2597 71.4008C62.3409 71.3297 62.4432 71.2872 62.5509 71.2798V71.0947H62.7187V71.2774C62.8379 71.2833 62.9539 71.3181 63.0568 71.3786L62.9754 71.5859C62.8995 71.5408 62.8158 71.5107 62.7286 71.497V71.7833C62.796 71.7973 62.8621 71.8171 62.926 71.8426C62.9795 71.8647 63.0263 71.9005 63.0618 71.9462C63.1013 71.9968 63.1214 72.0598 63.1185 72.1239C63.1203 72.1689 63.1124 72.2138 63.0954 72.2555C63.0783 72.2972 63.0526 72.3348 63.0198 72.3658ZM62.4719 71.7019C62.4983 71.7243 62.5296 71.7404 62.5632 71.7488V71.502C62.528 71.5078 62.4953 71.5241 62.4694 71.5489C62.4502 71.5696 62.4396 71.597 62.4398 71.6254C62.4376 71.6398 62.4394 71.6547 62.445 71.6682C62.4507 71.6817 62.46 71.6933 62.4719 71.7019ZM62.8199 72.2226C62.8302 72.2138 62.8385 72.2028 62.844 72.1905C62.8496 72.1781 62.8523 72.1646 62.852 72.1511C62.8516 72.138 62.8486 72.1251 62.8431 72.1132C62.8376 72.1013 62.8297 72.0907 62.8199 72.082C62.7932 72.0613 62.7632 72.0455 62.7311 72.0351V72.2671C62.7641 72.2605 62.7948 72.2452 62.8199 72.2226Z" fill="#263238"/>
<path d="M62.736 70.1818L62.6225 70.2287C62.0153 68.8342 61.1564 68.2345 60.5419 67.9754C60.1644 67.8097 59.7544 67.7312 59.3424 67.7458L59.3301 67.6224C59.3523 67.6249 61.539 67.4274 62.736 70.1818Z" fill="#263238"/>
<path d="M57.5537 66.3008H45.5514C44.8881 66.3008 44.252 66.5641 43.7827 67.0329C43.3134 67.5017 43.0495 68.1376 43.0488 68.8009V87.9137H60.0538V68.8009C60.0538 68.4726 59.9892 68.1475 59.8635 67.8442C59.7379 67.5408 59.5537 67.2652 59.3215 67.0331C59.0894 66.8009 58.8138 66.6167 58.5104 66.4911C58.2071 66.3654 57.882 66.3008 57.5537 66.3008Z" fill="#407BFF"/>
<path opacity="0.5" d="M57.5537 66.3008H45.5514C44.8881 66.3008 44.252 66.5641 43.7827 67.0329C43.3134 67.5017 43.0495 68.1376 43.0488 68.8009V87.9137H60.0538V68.8009C60.0538 68.4726 59.9892 68.1475 59.8635 67.8442C59.7379 67.5408 59.5537 67.2652 59.3215 67.0331C59.0894 66.8009 58.8138 66.6167 58.5104 66.4911C58.2071 66.3654 57.882 66.3008 57.5537 66.3008Z" fill="white"/>
<path opacity="0.1" d="M57.5537 66.3008H45.5514C44.8881 66.3008 44.252 66.5641 43.7827 67.0329C43.3134 67.5017 43.0495 68.1376 43.0488 68.8009V87.9137H60.0538V68.8009C60.0538 68.4726 59.9892 68.1475 59.8635 67.8442C59.7379 67.5408 59.5537 67.2652 59.3215 67.0331C59.0894 66.8009 58.8138 66.6167 58.5104 66.4911C58.2071 66.3654 57.882 66.3008 57.5537 66.3008Z" fill="black"/>
<path d="M57.2123 66.3008H57.8935C58.4662 66.3008 59.0155 66.5283 59.4205 66.9333C59.8255 67.3383 60.053 67.8876 60.053 68.4603V87.9137H55.0527V68.4603C55.0527 67.8876 55.2803 67.3383 55.6853 66.9333C56.0903 66.5283 56.6395 66.3008 57.2123 66.3008Z" fill="#407BFF"/>
<path opacity="0.6" d="M57.2123 66.3008H57.8935C58.4662 66.3008 59.0155 66.5283 59.4205 66.9333C59.8255 67.3383 60.053 67.8876 60.053 68.4603V87.9137H55.0527V68.4603C55.0527 67.8876 55.2803 67.3383 55.6853 66.9333C56.0903 66.5283 56.6395 66.3008 57.2123 66.3008Z" fill="white"/>
<path d="M77.9742 30.9395C77.3884 31.0299 76.8422 31.2906 76.4034 31.6891C75.9646 32.0875 75.6526 32.6061 75.5061 33.1805C75.5061 33.1805 73.9044 33.6445 74.5189 35.1549C74.5189 35.1549 73.1417 36.5765 74.7904 37.8402C74.7904 37.8402 74.5633 39.7603 76.518 38.9014C76.518 38.9014 77.3325 40.1034 78.9491 39.1236C78.9491 39.1236 80.3337 39.9405 81.1704 38.8348C81.1704 38.8348 82.1403 38.9705 82.0046 37.8624C82.0046 37.8624 82.8931 37.2602 81.9182 36.2631C80.9433 35.266 77.9742 30.9395 77.9742 30.9395Z" fill="#263238"/>
<path d="M89.2724 39.6942L89.2305 38.5811L91.0346 38.8698C91.0346 38.8698 90.8619 39.9508 90.2448 40.5456L90.0202 40.4617C89.8445 40.4007 89.6855 40.2995 89.5556 40.1663C89.4258 40.0331 89.3289 39.8714 89.2724 39.6942Z" fill="#FFB573"/>
<path d="M90.1436 37.7614L90.7557 37.9441C90.8898 37.9836 91.0027 38.0746 91.0698 38.1972C91.1368 38.3197 91.1526 38.4639 91.1136 38.5981L91.0346 38.8721L89.2305 38.5833L89.5242 38.023C89.5817 37.9149 89.6746 37.8299 89.7875 37.7822C89.9003 37.7346 90.0261 37.7272 90.1436 37.7614Z" fill="#FFB573"/>
<path d="M90.0431 42.3737L90.6601 39.9723L89.273 39.6934C89.273 39.6934 89.1916 40.8188 87.9106 42.4304L89.7419 43.2252L90.0431 42.3737Z" fill="#FFB573"/>
<path d="M88.9322 40.1503C88.5818 40.7945 88.2338 41.4411 87.8734 42.0458C87.6558 42.4243 87.4168 42.7902 87.1577 43.1416C87.1108 43.2058 87.0614 43.265 87.0146 43.3193L86.8294 43.2749C86.6749 43.228 86.5233 43.172 86.3753 43.1071C86.0535 42.9551 85.749 42.7689 85.4671 42.5518C85.1577 42.3102 84.8657 42.0471 84.5934 41.7645C84.4527 41.6188 84.3194 41.4658 84.1862 41.3153L83.9936 41.0833L83.8382 40.8883L83.732 40.755C83.4706 40.4272 83.0922 40.2133 82.6765 40.1585C82.2607 40.1036 81.8399 40.2119 81.5023 40.4607C81.1647 40.7095 80.9366 41.0794 80.866 41.4928C80.7953 41.9062 80.8875 42.3308 81.1233 42.6776L81.2714 42.8948L81.4022 43.0775C81.4886 43.1959 81.5799 43.3095 81.6712 43.4205C81.8538 43.6451 82.0513 43.8549 82.2536 44.0622C82.6698 44.4821 83.127 44.8591 83.6185 45.1877C84.1386 45.5383 84.7041 45.8164 85.2992 46.0145C85.6123 46.1205 85.9346 46.1973 86.2618 46.244C86.4254 46.2689 86.5901 46.2853 86.7554 46.2934C86.8376 46.298 86.92 46.298 87.0022 46.2934H87.1923H87.3255C87.7294 46.2678 88.1163 46.1217 88.4362 45.8738C88.6207 45.7353 88.7866 45.5735 88.9298 45.3925C89.1337 45.1338 89.3122 44.8561 89.4629 44.5632C89.7123 44.0729 89.9227 43.5638 90.0922 43.0404C90.3137 42.3637 90.4925 41.6738 90.6278 40.9747C90.0251 40.7849 89.4538 40.5071 88.9322 40.1503Z" fill="#407BFF"/>
<path opacity="0.2" d="M83.5965 42.0527L82.9622 42.5266L82.481 44.2789C82.8339 44.6132 83.2145 44.9171 83.6187 45.1872C84.1082 45.5152 84.6373 45.7798 85.1934 45.9745C85.7585 44.7923 84.5788 43.0128 84.5788 43.0128L83.5965 42.0527Z" fill="black"/>
<path d="M77.5322 83.6252L77.7025 86.4191H79.329L79.8201 83.4229L77.5322 83.6252Z" fill="#FFB573"/>
<path opacity="0.2" d="M77.6309 85.2546C78.2589 85.33 78.8936 85.33 79.5215 85.2546L79.8201 83.4307L77.5322 83.633L77.6309 85.2546Z" fill="black"/>
<path d="M79.6178 86.1703C79.6099 86.1679 79.6027 86.1635 79.5971 86.1574C79.5915 86.1513 79.5875 86.1439 79.5857 86.1358C79.5848 86.1276 79.5862 86.1194 79.5897 86.112C79.5932 86.1046 79.5986 86.0983 79.6055 86.0938C79.6301 86.079 80.2175 85.7261 80.5038 85.7977C80.5564 85.8112 80.6022 85.8437 80.6322 85.889C80.6503 85.915 80.6601 85.946 80.6601 85.9778C80.6601 86.0096 80.6503 86.0406 80.6322 86.0667C80.4897 86.1709 80.3146 86.2208 80.1386 86.2074C79.9642 86.2097 79.79 86.1973 79.6178 86.1703ZM79.7486 86.1111C80.067 86.1457 80.489 86.1333 80.5729 86.0198C80.5729 86.005 80.5952 85.9803 80.5729 85.9309C80.5644 85.9163 80.5526 85.9037 80.5385 85.8943C80.5244 85.8849 80.5083 85.8789 80.4915 85.8766C80.4661 85.8728 80.4404 85.8728 80.415 85.8766C80.1801 85.9124 79.9541 85.9919 79.7486 86.1111Z" fill="#407BFF"/>
<path d="M79.5979 86.1678C79.5918 86.1637 79.5868 86.1582 79.5834 86.1518C79.5799 86.1453 79.5781 86.1381 79.5781 86.1308C79.5888 85.8891 79.6752 85.6569 79.8249 85.4669C79.8548 85.4398 79.89 85.4193 79.9282 85.4065C79.9665 85.3938 80.0069 85.3891 80.0471 85.3928C80.1581 85.3928 80.1951 85.457 80.2001 85.5014C80.2396 85.6939 79.8397 86.0716 79.6374 86.1678H79.6201C79.6129 86.1703 79.6051 86.1703 79.5979 86.1678ZM80.0273 85.4693C79.976 85.4693 79.9266 85.4887 79.8891 85.5236C79.7639 85.6719 79.6888 85.8559 79.6744 86.0493C79.8817 85.921 80.1433 85.6273 80.131 85.5113C80.131 85.5113 80.131 85.4718 80.0495 85.4669L80.0273 85.4693Z" fill="#407BFF"/>
<path d="M79.44 85.9328L77.5791 85.9748C77.5452 85.9762 77.5127 85.9889 77.4868 86.0108C77.4609 86.0327 77.443 86.0625 77.4359 86.0957L77.1323 87.616C77.1255 87.6482 77.1252 87.6813 77.1313 87.7136C77.1375 87.7458 77.15 87.7765 77.1681 87.8039C77.1863 87.8312 77.2097 87.8547 77.2371 87.8728C77.2644 87.891 77.2951 87.9036 77.3273 87.9097H77.3791C78.048 87.8826 78.6453 87.8332 79.4795 87.816C80.4667 87.7962 80.2199 87.9196 81.375 87.9097C82.0734 87.9097 82.1845 87.1076 81.8883 87.0755C80.5284 86.9349 80.3803 86.5276 79.8472 86.0562C79.7307 85.9675 79.5861 85.9237 79.44 85.9328Z" fill="#263238"/>
<path d="M76.9325 51.2939C76.9325 51.2939 76.5944 57.2519 77.5865 66.8033C76.4734 74.3186 77.1991 81.8289 77.4878 84.2328C78.2523 84.324 79.0246 84.3306 79.7905 84.2525C80.3804 81.4167 82.3499 71.7123 82.6115 66.8995C83.9097 60.1963 84.1812 51.2939 84.1812 51.2939H76.9325Z" fill="#263238"/>
<path d="M77.2085 84.124L77.3023 84.8644C78.174 84.9483 79.0517 84.9483 79.9234 84.8644L80.1233 84.124C79.154 84.2194 78.1778 84.2194 77.2085 84.124Z" fill="#407BFF"/>
<path opacity="0.4" d="M77.5866 66.8039C77.4015 68.0379 77.2682 69.2867 77.1769 70.506C80.0769 63.6299 80.5285 55.6235 80.5285 55.6235L78.6676 55.1299L76.9399 57.4375C77.0165 59.9204 77.2016 63.0894 77.5866 66.8039Z" fill="black"/>
<path d="M67.9266 80.4238L66.5864 83.7804L67.7242 84.9404L69.674 81.9145L67.9266 80.4238Z" fill="#FFB573"/>
<path opacity="0.2" d="M68.642 83.5147L69.6737 81.9154L67.9263 80.4346L66.9761 82.8138C67.4915 83.1327 68.0536 83.3692 68.642 83.5147Z" fill="black"/>
<path d="M68.119 84.7734C68.1143 84.7665 68.1118 84.7583 68.1118 84.7499C68.1118 84.7416 68.1143 84.7334 68.119 84.7265C68.1234 84.7198 68.1299 84.7147 68.1375 84.7121C68.1451 84.7094 68.1533 84.7093 68.1609 84.7117C68.1906 84.7117 68.8545 84.8894 69.0025 85.1461C69.0304 85.1928 69.0392 85.2485 69.0272 85.3015C69.0235 85.3331 69.0097 85.3626 68.9879 85.3857C68.9662 85.4088 68.9375 85.4243 68.9063 85.4299C68.7928 85.4447 68.6101 85.3213 68.4571 85.1831C68.3328 85.0565 68.2197 84.9194 68.119 84.7734ZM68.2498 84.8277C68.4497 85.0745 68.7582 85.3756 68.894 85.3509C68.9112 85.3509 68.9359 85.3386 68.9482 85.2818C68.9529 85.2655 68.9538 85.2484 68.9508 85.2317C68.9478 85.215 68.941 85.1992 68.931 85.1855C68.9175 85.1634 68.9018 85.1427 68.8841 85.1238C68.692 84.9849 68.475 84.8844 68.2449 84.8277H68.2498Z" fill="#407BFF"/>
<path d="M68.0989 84.7579C68.0976 84.7509 68.098 84.7436 68.1002 84.7367C68.1023 84.7298 68.1061 84.7235 68.1112 84.7185C68.2928 84.5564 68.5207 84.4553 68.7628 84.4297C68.8435 84.437 68.9181 84.476 68.9701 84.5383C69.0417 84.6247 69.0293 84.6888 68.9997 84.7234C68.8911 84.8863 68.3407 84.8665 68.131 84.7876C68.1269 84.7886 68.1227 84.7886 68.1186 84.7876C68.1086 84.7805 68.1015 84.7699 68.0989 84.7579ZM68.8985 84.5753C68.8626 84.5384 68.8142 84.5164 68.7628 84.5136C68.5696 84.5291 68.3859 84.6041 68.2371 84.7283C68.4839 84.7876 68.8689 84.7678 68.943 84.679C68.943 84.679 68.9627 84.6444 68.9158 84.5901L68.8985 84.5753Z" fill="#407BFF"/>
<path d="M68.1563 84.482L66.8235 83.1838C66.798 83.1622 66.7661 83.1495 66.7326 83.1477C66.6992 83.1459 66.6661 83.1551 66.6384 83.174L65.3427 84.023C65.3146 84.0403 65.2903 84.0631 65.2712 84.09C65.2521 84.1169 65.2386 84.1474 65.2314 84.1796C65.2243 84.2118 65.2237 84.2451 65.2297 84.2776C65.2356 84.31 65.248 84.3409 65.2662 84.3685L65.3007 84.408C65.7943 84.8695 66.241 85.2595 66.8383 85.8419C67.5442 86.5305 67.2826 86.4392 68.0995 87.2611C68.5931 87.7547 69.2397 87.2759 69.0546 87.0414C68.2032 85.9728 68.3883 85.5828 68.3537 84.8695C68.3382 84.7203 68.2679 84.5822 68.1563 84.482Z" fill="#263238"/>
<path d="M75.6933 51.2939C75.6933 51.2939 73.435 52.5058 73.3437 57.7899C73.3018 60.2802 71.9073 63.4122 71.5963 67.6005C69.5799 72.5366 67.7511 79.3781 67.1538 81.6981C67.7692 82.2033 68.4766 82.5846 69.2369 82.8211C70.582 80.7306 75.064 73.7238 76.7423 68.9456C78.5982 63.6639 82.0832 51.2939 82.0832 51.2939H75.6933Z" fill="#263238"/>
<path d="M66.9959 81.5205L66.7837 82.2313C67.5463 82.6617 68.3489 83.0172 69.1802 83.2926L69.6615 82.6978C68.7364 82.3939 67.8436 81.9996 66.9959 81.5205Z" fill="#407BFF"/>
<path d="M84.5297 42.6284C84.4976 43.3515 85.6403 45.0249 84.2311 45.9948C84.4927 46.5847 85.5465 51.0371 84.4532 52.1082C82.8366 53.6878 78.9198 52.0268 75.425 51.5652C75.2769 50.1214 76.3431 46.8586 75.3682 42.1866C75.3166 41.932 75.3188 41.6695 75.3747 41.4159C75.4306 41.1622 75.539 40.9231 75.6929 40.7139C75.8468 40.5047 76.0428 40.33 76.2683 40.201C76.4937 40.0721 76.7437 39.9918 77.0021 39.9653C77.2958 39.9357 77.6068 39.911 77.9276 39.8962C79.0401 39.8171 80.1569 39.8171 81.2694 39.8962C81.6297 39.9283 82.0098 39.9752 82.3603 40.0246C82.9804 40.1122 83.5459 40.4272 83.9468 40.9084C84.3477 41.3896 84.5554 42.0026 84.5297 42.6284Z" fill="#407BFF"/>
<path d="M77.8237 36.1279C78.0903 37.204 78.3494 38.9588 77.9274 39.8917C77.9274 39.8917 79.5144 39.9608 81.5431 41.5824C82.4983 40.178 81.3926 39.9041 81.3926 39.9041C80.5485 39.7066 80.4053 38.67 80.4177 37.8803L77.8237 36.1279Z" fill="#FFB573"/>
<path opacity="0.2" d="M80.4174 37.8798L78.9366 36.8926C78.9225 37.1185 78.9685 37.3442 79.0698 37.5466C79.379 38.1282 79.8845 38.5813 80.4964 38.8251C80.4367 38.5137 80.4102 38.1968 80.4174 37.8798Z" fill="black"/>
<path d="M77.1222 34.1557C77.5418 35.9031 77.6825 36.6534 78.7191 37.4061C80.2789 38.5365 82.2928 37.6529 82.394 35.8068C82.4854 34.1507 81.782 31.5691 79.9605 31.1669C78.1391 30.7646 76.7027 32.4058 77.1222 34.1557Z" fill="#FFB573"/>
<path d="M80.2569 34.7995C80.2816 34.9426 80.3779 35.0463 80.4741 35.0315C80.5704 35.0167 80.6222 34.8834 80.5975 34.7402C80.5728 34.5971 80.4741 34.4934 80.3803 34.5082C80.2865 34.5231 80.2322 34.6539 80.2569 34.7995Z" fill="#263238"/>
<path d="M81.8217 34.5778C81.8488 34.7234 81.9451 34.8246 82.0389 34.8098C82.1327 34.795 82.1894 34.6617 82.1623 34.5186C82.1351 34.3754 82.0414 34.2718 81.9476 34.2866C81.8538 34.3014 81.797 34.4347 81.8217 34.5778Z" fill="#263238"/>
<path d="M81.9058 34.3064L82.234 34.1436C82.234 34.1436 82.1057 34.4447 81.9058 34.3064Z" fill="#263238"/>
<path d="M81.3921 34.6963C81.5783 35.0018 81.8058 35.28 82.0683 35.5231C82.0048 35.5885 81.9276 35.6392 81.8423 35.6716C81.7571 35.704 81.6657 35.7174 81.5747 35.7107L81.3921 34.6963Z" fill="#ED893E"/>
<path d="M81.1014 36.4093C81.1841 36.4087 81.2667 36.4012 81.3482 36.387C81.3584 36.3836 81.367 36.3765 81.3724 36.3672C81.3777 36.3578 81.3795 36.3468 81.3774 36.3363C81.3753 36.3257 81.3694 36.3163 81.3609 36.3097C81.3523 36.3032 81.3417 36.2999 81.3309 36.3007C81.1528 36.3371 80.9685 36.3305 80.7934 36.2816C80.6183 36.2327 80.4574 36.1428 80.3239 36.0193C80.3157 36.0113 80.3046 36.0068 80.2931 36.0068C80.2816 36.0068 80.2705 36.0113 80.2622 36.0193C80.2544 36.0272 80.25 36.0378 80.25 36.0489C80.25 36.06 80.2544 36.0707 80.2622 36.0785C80.4884 36.2935 80.7893 36.4121 81.1014 36.4093Z" fill="#263238"/>
<path d="M79.8821 34.2369C79.8934 34.2336 79.9038 34.2279 79.9127 34.2202C79.9216 34.2126 79.9289 34.2031 79.9339 34.1925C79.9796 34.0939 80.0482 34.0077 80.1341 33.9411C80.22 33.8745 80.3206 33.8295 80.4275 33.81C80.4502 33.8069 80.4709 33.7951 80.4851 33.7772C80.4994 33.7593 80.5062 33.7365 80.504 33.7137C80.5028 33.7024 80.4994 33.6915 80.4938 33.6816C80.4883 33.6717 80.4808 33.663 80.4718 33.6561C80.4628 33.6491 80.4525 33.6441 80.4415 33.6413C80.4305 33.6385 80.419 33.6379 80.4078 33.6397C80.2738 33.6632 80.1475 33.7189 80.0396 33.8018C79.9317 33.8848 79.8455 33.9925 79.7883 34.116C79.7779 34.1363 79.776 34.1599 79.7829 34.1816C79.7898 34.2034 79.8051 34.2215 79.8253 34.232C79.8431 34.2402 79.8632 34.242 79.8821 34.2369Z" fill="#263238"/>
<path d="M82.3302 33.687C82.341 33.6857 82.3514 33.6821 82.3607 33.6766C82.3701 33.6711 82.3782 33.6637 82.3845 33.6549C82.3976 33.6364 82.4032 33.6135 82.4 33.591C82.3967 33.5685 82.385 33.5481 82.3672 33.534C82.2609 33.4488 82.1356 33.3906 82.0019 33.3644C81.8683 33.3382 81.7303 33.3447 81.5997 33.3834C81.5784 33.3909 81.561 33.4066 81.5513 33.427C81.5415 33.4473 81.5403 33.4707 81.5478 33.492C81.5554 33.5133 81.571 33.5307 81.5914 33.5404C81.6118 33.5501 81.6352 33.5514 81.6564 33.5438C81.7606 33.5154 81.8699 33.5122 81.9755 33.5346C82.0811 33.5569 82.1799 33.6041 82.2636 33.6722C82.273 33.6793 82.2838 33.6843 82.2953 33.6869C82.3068 33.6895 82.3187 33.6895 82.3302 33.687Z" fill="#263238"/>
<path d="M80.3408 34.5232L80.6691 34.3604C80.6691 34.3604 80.5383 34.6615 80.3408 34.5232Z" fill="#263238"/>
<path opacity="0.2" d="M80.1758 48.3101L79.8772 47.2686L75.7333 47.7005C75.6642 48.7494 75.5433 49.633 75.4692 50.3438C76.185 50.5313 77.8139 50.5684 80.1758 48.3101Z" fill="black"/>
<path opacity="0.2" d="M78.3147 41.5812C78.4032 42.2091 78.4032 42.8463 78.3147 43.4742C78.1765 44.6588 77.4311 46.5222 77.8038 47.2676H76.6858L76.3477 44.1776L76.8758 42.1118L77.3694 41.1641L78.3147 41.5812Z" fill="black"/>
<path d="M80.6076 45.9579L81.2716 45.0645L82.5056 46.4244C82.5056 46.4244 81.6911 47.1648 80.8372 47.2314L80.7162 47.0241C80.6165 46.867 80.5548 46.6889 80.5359 46.5038C80.5171 46.3188 80.5416 46.1318 80.6076 45.9579Z" fill="#FFB573"/>
<path d="M82.4982 45.0011L82.861 45.5268C82.9012 45.584 82.9297 45.6485 82.9448 45.7167C82.96 45.7849 82.9615 45.8554 82.9494 45.9242C82.9372 45.993 82.9116 46.0587 82.874 46.1176C82.8364 46.1764 82.7875 46.2273 82.7302 46.2672L82.4958 46.4301L81.2617 45.0702L81.8442 44.8234C81.9566 44.7711 82.084 44.7603 82.2037 44.7928C82.3234 44.8253 82.4277 44.8991 82.4982 45.0011Z" fill="#FFB573"/>
<path d="M79.5188 48.5273L81.5105 47.0464L80.6072 45.958C80.6072 45.958 79.8372 46.7823 77.8257 47.2315L78.7512 49.0011L79.5188 48.5273Z" fill="#FFB573"/>
<path d="M80.1879 46.1233L79.2007 46.4664C78.791 46.6046 78.3887 46.7379 77.9938 46.8489C77.7308 46.9269 77.4639 46.9911 77.1942 47.0414C77.1942 46.9131 77.1942 46.7946 77.1942 46.6441C77.2262 46.1778 77.2905 45.7144 77.3867 45.257C77.4903 44.7634 77.6113 44.2846 77.7569 43.7935C77.826 43.5466 77.905 43.2998 77.9815 43.053C78.058 42.8062 78.1444 42.5594 78.2135 42.3546L78.2308 42.3027C78.361 41.9051 78.333 41.4726 78.1526 41.0951C77.9722 40.7176 77.6533 40.4241 77.262 40.2757C76.8708 40.1273 76.4375 40.1353 76.0521 40.2982C75.6666 40.461 75.3588 40.7662 75.1926 41.1501C75.0618 41.4735 74.963 41.7351 74.8668 42.0288C74.7705 42.3225 74.6842 42.6063 74.6002 42.8975C74.4366 43.49 74.3081 44.0916 74.2152 44.6992C74.1131 45.3422 74.0718 45.9934 74.0918 46.6441C74.1016 47.409 74.2644 48.1643 74.5706 48.8653L74.5978 48.9246C74.6638 49.0734 74.7576 49.2082 74.8742 49.3219C75.1327 49.571 75.4504 49.7503 75.7972 49.8427C76.0336 49.9064 76.2784 49.933 76.5229 49.9217C76.8584 49.9048 77.1903 49.8443 77.5101 49.7415C78.0109 49.5786 78.4931 49.3635 78.949 49.0998C79.3682 48.8613 79.7736 48.5992 80.1633 48.315C80.4397 48.1101 80.7062 47.9053 80.9654 47.6807C80.6252 47.2061 80.3628 46.6804 80.1879 46.1233Z" fill="#407BFF"/>
<path d="M77.5348 32.0703C77.5348 32.0703 78.0284 34.2916 77.4928 35.6095C76.9573 36.9275 76.3477 32.9317 76.3477 32.9317V32.0703H77.5348Z" fill="#263238"/>
<path d="M78.1862 35.6438C78.1862 35.6438 78.2775 36.1596 78.7193 36.0066C79.161 35.8536 78.6008 34.9404 78.6008 34.9404C78.6914 34.742 78.7329 34.5247 78.7217 34.3069C78.7105 34.0891 78.647 33.8772 78.5366 33.6891C78.7837 33.5696 78.9957 33.3881 79.1518 33.1623C79.308 32.9365 79.403 32.6741 79.4276 32.4007C79.4276 32.4007 79.393 33.3658 79.8768 33.3485C80.3605 33.3312 80.2963 32.4847 80.2963 32.4847C80.2963 32.4847 80.6986 33.6027 81.1725 33.3485C81.6464 33.0943 81.1725 32.2304 81.1725 32.2304C81.1725 32.2304 81.6809 32.9413 82.0709 32.6031C82.4608 32.265 81.3922 31.6554 81.3922 31.6554C81.3922 31.6554 82.3029 31.6381 82.0684 31.1963C81.834 30.7545 81.2885 31.6751 79.9607 31.1667C78.6329 30.6583 77.9393 32.0453 77.9393 32.0453L77.5667 33.1288L77.3618 35.2045L78.1862 35.6438Z" fill="#263238"/>
<path d="M77.8238 35.2044C77.8238 35.2044 77.2265 32.1638 80.5017 31.2555C80.5017 31.2555 78.9369 29.9006 76.5059 31.2555C76.5059 31.2555 77.4733 33.2942 77.3623 35.2044H77.8238Z" fill="#407BFF"/>
<path opacity="0.5" d="M77.8238 35.2044C77.8238 35.2044 77.2265 32.1638 80.5017 31.2555C80.5017 31.2555 78.9369 29.9006 76.5059 31.2555C76.5059 31.2555 77.4733 33.2942 77.3623 35.2044H77.8238Z" fill="white"/>
<path d="M77.0042 35.7865C77.0712 35.9358 77.1689 36.0692 77.2909 36.178C77.413 36.2869 77.5566 36.3688 77.7125 36.4184C78.1123 36.5294 78.3098 36.0901 78.2061 35.6459C78.1049 35.246 77.7742 34.708 77.3744 34.7968C76.9746 34.8857 76.8092 35.3916 77.0042 35.7865Z" fill="#FFB573"/>
<path d="M32.4329 41.3615L32.2824 39.6758L30.688 40.5692C30.688 40.5692 30.8287 41.9908 31.7048 41.9365L32.4329 41.3615Z" fill="#FF8B7B"/>
<path d="M31.3717 38.9684L30.6634 39.2424C30.6034 39.2652 30.5487 39.2998 30.5024 39.3442C30.4561 39.3886 30.4192 39.4419 30.3939 39.5008C30.3685 39.5597 30.3553 39.6231 30.355 39.6873C30.3546 39.7514 30.3672 39.815 30.3919 39.8742L30.6881 40.5751L32.2824 39.6817L31.9394 39.1585C31.8808 39.0666 31.7924 38.9977 31.6891 38.9631C31.5858 38.9285 31.4738 38.9304 31.3717 38.9684Z" fill="#FF8B7B"/>
<path d="M32.4331 41.362L33.714 42.0876L32.9835 43.26L31.2139 41.7791L31.9716 41.0264L32.3048 41.2164L32.4331 41.362Z" fill="#FF8B7B"/>
<path d="M40.0173 36.7586C39.7021 36.648 39.3559 36.667 39.0547 36.8114C38.7535 36.9557 38.5218 37.2137 38.4106 37.5287L38.3637 37.6619L38.1613 38.2395C38.0823 38.4542 37.9959 38.6714 37.9145 38.891C37.7417 39.3303 37.5566 39.7721 37.374 40.2164C37.1913 40.6606 36.9988 41.1074 36.8014 41.5516L36.5101 42.2205L36.4583 42.3365C36.4515 42.3559 36.4432 42.3749 36.4336 42.3932C36.4211 42.4198 36.4054 42.4446 36.3867 42.4673C36.3511 42.5203 36.2962 42.5575 36.2337 42.5709C36.1005 42.6078 35.9617 42.6204 35.824 42.6079C35.4226 42.5733 35.028 42.4827 34.6517 42.3389C33.9779 42.0921 33.277 41.5022 32.6057 41.132C32.4675 41.4011 32.2108 42.0576 31.7739 42.4944C32.413 43.0871 33.1216 43.6001 33.8841 44.0221C34.3995 44.3137 34.9563 44.5251 35.5353 44.649C35.8879 44.7198 36.2499 44.7315 36.6064 44.6836C37.0389 44.6247 37.4488 44.4546 37.796 44.19C37.9691 44.0548 38.1242 43.898 38.2575 43.7235C38.3217 43.6396 38.3785 43.5532 38.4328 43.4767L38.5537 43.2644L38.9289 42.6055C39.1757 42.1588 39.4225 41.7145 39.6347 41.2554C39.847 40.7964 40.074 40.3324 40.2764 39.8536C40.3727 39.6068 40.4689 39.36 40.5602 39.1132C40.6047 38.9898 40.6491 38.8663 40.6935 38.7306L40.7552 38.5282L40.8219 38.2814C40.9046 37.9729 40.8676 37.6445 40.7184 37.3621C40.5692 37.0797 40.3187 36.8642 40.0173 36.7586Z" fill="#263238"/>
<path opacity="0.4" d="M39.6276 41.251C39.853 40.7953 40.0669 40.328 40.2693 39.8492C40.3187 39.7258 40.3656 39.6024 40.4149 39.4716L39.6449 38.4424L38.8872 38.9064C39.0411 40.0513 39.0973 41.2072 39.055 42.3617C39.2426 41.989 39.445 41.6237 39.6276 41.251Z" fill="black"/>
<path d="M42.5072 86.5633L40.893 86.5386L40.8042 82.7871L42.4208 82.8118L42.5072 86.5633Z" fill="#FF8B7B"/>
<path d="M40.8315 86.0488L42.5962 86.076C42.6281 86.0757 42.659 86.0871 42.6831 86.108C42.7072 86.1289 42.7228 86.1579 42.727 86.1895L42.9516 87.6309C42.957 87.6662 42.9546 87.7023 42.9446 87.7367C42.9346 87.7711 42.9173 87.8028 42.8938 87.8298C42.8704 87.8568 42.8413 87.8784 42.8087 87.8931C42.776 87.9077 42.7406 87.9151 42.7048 87.9147C42.068 87.8949 41.1499 87.8431 40.3503 87.8308C39.4149 87.816 39.5087 87.853 38.4104 87.8308C37.7465 87.8308 37.6058 87.1471 37.8871 87.0904C39.1705 86.8435 39.2989 86.8213 40.4367 86.1624C40.5556 86.0894 40.6921 86.0502 40.8315 86.0488Z" fill="#263238"/>
<path opacity="0.2" d="M40.8042 82.7871L40.8486 84.7221L42.4652 84.7468L42.4208 82.8143L40.8042 82.7871Z" fill="black"/>
<path d="M40.5455 86.1926C40.5525 86.1899 40.5585 86.1851 40.5628 86.179C40.567 86.1728 40.5693 86.1655 40.5693 86.158C40.5693 86.1505 40.567 86.1432 40.5628 86.1371C40.5585 86.1309 40.5525 86.1261 40.5455 86.1235C40.4715 86.084 39.8051 85.7434 39.6151 85.8495C39.5973 85.8598 39.5824 85.8745 39.5721 85.8923C39.5617 85.91 39.5561 85.9301 39.5558 85.9507C39.5531 85.986 39.5588 86.0214 39.5726 86.0541C39.5863 86.0867 39.6077 86.1156 39.6348 86.1383C39.8175 86.2987 40.279 86.2419 40.5381 86.195L40.5455 86.1926ZM39.6718 85.9112C39.7928 85.8717 40.1506 86.0124 40.4123 86.1383C40.0569 86.1926 39.7903 86.1728 39.6891 86.0815C39.6709 86.0669 39.6566 86.0479 39.6476 86.0264C39.6385 86.0048 39.635 85.9814 39.6373 85.9581C39.6371 85.9501 39.6391 85.9423 39.643 85.9353C39.6469 85.9284 39.6526 85.9226 39.6595 85.9186L39.6718 85.9112Z" fill="#407BFF"/>
<path d="M40.5458 86.1923C40.5508 86.1881 40.5547 86.1828 40.5573 86.1768C40.5598 86.1708 40.561 86.1642 40.5606 86.1577C40.5347 85.9259 40.4392 85.7073 40.2866 85.5308C40.2267 85.4808 40.1497 85.4561 40.0719 85.4617C39.9683 85.4617 39.9386 85.5234 39.9337 85.5679C39.909 85.7505 40.3089 86.1059 40.5063 86.1972L40.5458 86.1923ZM40.0522 85.5407H40.0917C40.1197 85.5383 40.148 85.5417 40.1747 85.5506C40.2015 85.5595 40.2261 85.5738 40.2472 85.5925C40.3717 85.7305 40.4524 85.9023 40.4792 86.0862C40.2743 85.9652 40.0028 85.6839 40.0176 85.5753C40.0201 85.5679 40.0226 85.5506 40.0546 85.5407H40.0522Z" fill="#407BFF"/>
<path d="M43.4872 66.5933C45.4616 58.3351 46.8364 54.4997 46.0935 50.4102L40.8834 50.7261C40.8834 50.7261 38.635 61.9583 39.1138 66.8006C39.6074 71.8355 40.3478 83.5563 40.3478 83.5563L42.9492 83.5933C42.9492 83.5933 44.4571 72.218 43.4872 66.5933Z" fill="#407BFF"/>
<path d="M39.9434 82.9785L40.1581 84.0941L43.0235 84.1459L43.137 83.0896L39.9434 82.9785Z" fill="#263238"/>
<path opacity="0.2" d="M43.5192 66.4508C45.0321 60.1425 46.1847 56.433 46.2884 53.1924C44.9655 54.3178 41.6114 58.1112 43.5192 66.4508Z" fill="black"/>
<path d="M50.9261 86.5633L49.307 86.5386L48.7739 82.7871L50.393 82.8118L50.9261 86.5633Z" fill="#FF8B7B"/>
<path d="M49.1913 86.0494L50.956 86.0765C50.9872 86.0758 51.0176 86.0873 51.0406 86.1084C51.0636 86.1296 51.0775 86.1588 51.0794 86.19L51.2349 87.6314C51.2376 87.6679 51.2327 87.7046 51.2205 87.7391C51.2083 87.7736 51.1891 87.8053 51.164 87.8319C51.139 87.8586 51.1086 87.8798 51.0749 87.8942C51.0412 87.9085 51.0049 87.9157 50.9683 87.9152C50.334 87.8955 50.1341 87.8436 49.3345 87.8313C48.3991 87.8165 48.8409 87.8535 47.7352 87.8313C47.0712 87.8313 46.9651 87.1501 47.2415 87.0909C48.1399 86.9033 48.3769 86.5454 48.7816 86.1629C48.8986 86.0739 49.0452 86.0332 49.1913 86.0494Z" fill="#263238"/>
<path opacity="0.2" d="M48.7739 82.7871L49.0479 84.7221L50.6669 84.7468L50.393 82.8143L48.7739 82.7871Z" fill="black"/>
<path d="M49.512 86.1706C49.5191 86.1713 49.5262 86.1698 49.5324 86.1662C49.5386 86.1627 49.5435 86.1573 49.5465 86.1509C49.5508 86.1447 49.5531 86.1374 49.5531 86.1299C49.5531 86.1224 49.5508 86.1151 49.5465 86.1089C49.4923 86.0472 49.0011 85.5067 48.779 85.5363C48.7581 85.5398 48.7383 85.5483 48.7215 85.5612C48.7047 85.5742 48.6914 85.591 48.6827 85.6104C48.6663 85.6411 48.6577 85.6755 48.6577 85.7103C48.6577 85.7452 48.6663 85.7795 48.6827 85.8103C48.7913 86.0201 49.2454 86.1262 49.5095 86.1706H49.512ZM48.8012 85.6128C48.9295 85.6128 49.2109 85.8596 49.4059 86.0744C49.0505 86.0028 48.8086 85.8917 48.7469 85.7733C48.7354 85.7534 48.7294 85.7308 48.7294 85.7079C48.7294 85.6849 48.7354 85.6623 48.7469 85.6425C48.7496 85.6345 48.7546 85.6275 48.7611 85.6223C48.7677 85.617 48.7756 85.6138 48.7839 85.6128H48.8012Z" fill="#407BFF"/>
<path d="M49.5118 86.1699C49.5183 86.1683 49.5243 86.1649 49.5291 86.1601C49.5339 86.1553 49.5373 86.1493 49.5389 86.1427C49.6091 85.9245 49.6091 85.6897 49.5389 85.4714C49.5204 85.4378 49.4954 85.4083 49.4653 85.3845C49.4352 85.3608 49.4007 85.3433 49.3637 85.3332C49.26 85.3061 49.2131 85.3456 49.1909 85.3826C49.0996 85.543 49.3341 86.007 49.4846 86.16C49.4883 86.1634 49.4925 86.166 49.4972 86.1677C49.5019 86.1694 49.5068 86.1702 49.5118 86.1699ZM49.3045 85.4023H49.3439C49.3712 85.4093 49.3967 85.422 49.4188 85.4394C49.4409 85.4568 49.4591 85.4787 49.4723 85.5035C49.5351 85.6781 49.542 85.8678 49.492 86.0465C49.3489 85.8639 49.2033 85.5134 49.2576 85.4171C49.2625 85.4147 49.2699 85.3949 49.3045 85.3949V85.4023Z" fill="#407BFF"/>
<path d="M48.7744 66.594C49.6605 58.3358 50.4552 53.6761 49.1743 49.5791L43.7223 50.7268C43.7223 50.7268 43.3151 61.9491 44.4257 66.8013C45.5857 71.8361 48.2956 83.557 48.2956 83.557L50.9019 83.594C50.9019 83.594 50.4873 72.2187 48.7744 66.594Z" fill="#407BFF"/>
<path d="M47.9199 82.9785L48.0902 84.0941L51.0124 84.1459L51.1778 83.0896L47.9199 82.9785Z" fill="#263238"/>
<path d="M37.4972 29.7725C37.4972 29.7725 36.2163 29.7577 36.2163 30.2044C36.2163 30.6512 36.9197 30.8807 36.9197 30.8807C36.9197 30.8807 36.4779 31.9074 37.7885 32.0037C39.099 32.0999 37.4972 29.7725 37.4972 29.7725Z" fill="#263238"/>
<g opacity="0.18">
<path d="M37.5319 29.748C37.5319 29.748 36.5027 30.5082 37.1148 30.876C37.1148 30.876 37.2332 32.3839 37.7071 31.9298C38.181 31.4757 37.5319 29.748 37.5319 29.748Z" fill="#263238"/>
<path opacity="0.4" d="M37.5319 29.748C37.5319 29.748 36.5027 30.5082 37.1148 30.876C37.1148 30.876 37.2332 32.3839 37.7071 31.9298C38.181 31.4757 37.5319 29.748 37.5319 29.748Z" fill="black"/>
</g>
<path d="M40.3774 37.0875C41.3499 36.5001 41.3943 35.7326 41.0858 35.0415C41.0113 34.871 40.9247 34.706 40.8266 34.5479L41.7867 33.03L42.4901 31.9219C42.6061 33.1707 43.4527 35.2735 44.4991 35.7967C43.776 36.5372 42.5247 37.2529 41.725 37.9168C40.5749 37.7021 40.3774 37.0875 40.3774 37.0875Z" fill="#FF8B7B"/>
<path opacity="0.2" d="M40.8267 34.5385C40.9248 34.6966 41.0114 34.8616 41.0858 35.0321C41.5473 34.7853 42.1446 34.0992 42.036 33.5216C41.9738 33.3423 41.891 33.1709 41.7892 33.0107L40.8267 34.5385Z" fill="black"/>
<path d="M41.636 29.5873C42.3419 31.0977 42.833 31.9418 42.5048 33.1117C42.4021 33.4925 42.1974 33.838 41.9128 34.1111C41.6282 34.3842 41.2745 34.5744 40.8897 34.6612C40.505 34.7481 40.1039 34.7283 39.7296 34.6039C39.3553 34.4796 39.022 34.2555 38.7656 33.9558C37.7414 32.8254 36.7714 30.5424 37.8599 29.1529C38.0905 28.8454 38.3977 28.6037 38.7508 28.4517C39.1039 28.2998 39.4907 28.243 39.8725 28.2869C40.2544 28.3308 40.6182 28.474 40.9275 28.7021C41.2369 28.9303 41.4812 29.2354 41.636 29.5873Z" fill="#FF8B7B"/>
<path d="M39.6002 31.6136C39.6643 31.7345 39.6545 31.8604 39.578 31.9097C39.5014 31.9591 39.3879 31.8949 39.3139 31.774C39.2788 31.7317 39.2616 31.6774 39.2657 31.6227C39.2699 31.5679 39.2951 31.5169 39.3361 31.4803C39.4126 31.4359 39.536 31.4976 39.6002 31.6136Z" fill="#263238"/>
<path d="M38.2551 32.3307C38.3193 32.4491 38.3094 32.5775 38.2329 32.6244C38.1564 32.6713 38.0428 32.6071 37.9688 32.4886C37.8948 32.3702 37.9145 32.2418 37.991 32.1925C38.0675 32.1431 38.1983 32.1999 38.2551 32.3307Z" fill="#263238"/>
<path d="M38.645 32.1172C38.6944 32.5535 38.6944 32.9939 38.645 33.4302C38.7583 33.4434 38.8731 33.4322 38.9817 33.3973C39.0902 33.3624 39.1901 33.3046 39.2744 33.2278L38.645 32.1172Z" fill="#FF5652"/>
<path d="M39.9952 33.6421C40.1222 33.5521 40.23 33.4376 40.3122 33.3054C40.3945 33.1732 40.4495 33.0259 40.474 32.8721C40.4755 32.8617 40.473 32.8511 40.4671 32.8424C40.4612 32.8337 40.4522 32.8276 40.4419 32.8252C40.4324 32.823 40.4224 32.8246 40.4141 32.8297C40.4058 32.8347 40.3998 32.8429 40.3975 32.8524C40.3696 33.0193 40.3043 33.1777 40.2064 33.3158C40.1085 33.4539 39.9806 33.568 39.8323 33.6495C39.8235 33.6538 39.8165 33.6613 39.8129 33.6704C39.8092 33.6795 39.8091 33.6897 39.8126 33.6989C39.8182 33.7077 39.8268 33.714 39.8369 33.7168C39.8469 33.7195 39.8576 33.7184 39.8669 33.7137C39.9112 33.6928 39.9541 33.6689 39.9952 33.6421Z" fill="#263238"/>
<path d="M39.5234 30.4897C39.5309 30.4794 39.5359 30.4676 39.5383 30.4552C39.5417 30.4455 39.5432 30.4351 39.5425 30.4249C39.5419 30.4146 39.5392 30.4045 39.5346 30.3953C39.53 30.3861 39.5236 30.3779 39.5157 30.3712C39.5079 30.3645 39.4987 30.3595 39.4889 30.3564C39.3668 30.3358 39.2416 30.345 39.1238 30.3832C39.006 30.4215 38.8993 30.4877 38.8126 30.5761C38.7988 30.5908 38.791 30.6102 38.791 30.6304C38.791 30.6506 38.7988 30.67 38.8126 30.6847C38.8274 30.6993 38.8474 30.7075 38.8682 30.7075C38.889 30.7075 38.9089 30.6993 38.9237 30.6847C38.9919 30.6142 39.0765 30.5617 39.17 30.532C39.2635 30.5023 39.3629 30.4962 39.4593 30.5144C39.4711 30.5154 39.4831 30.5137 39.4942 30.5094C39.5053 30.5051 39.5153 30.4984 39.5234 30.4897Z" fill="#263238"/>
<path d="M37.9074 31.2187C37.9098 31.2065 37.9098 31.1939 37.9074 31.1817C37.9032 31.1723 37.8971 31.1639 37.8896 31.157C37.882 31.15 37.8731 31.1446 37.8634 31.1412C37.8538 31.1377 37.8435 31.1362 37.8332 31.1368C37.823 31.1374 37.813 31.1401 37.8038 31.1447C37.6915 31.1965 37.5933 31.2743 37.5174 31.3718C37.4414 31.4692 37.3898 31.5835 37.3669 31.7049C37.3654 31.7254 37.3717 31.7456 37.3845 31.7616C37.3974 31.7777 37.4157 31.7882 37.436 31.7913C37.4566 31.7934 37.4772 31.7873 37.4933 31.7744C37.5095 31.7615 37.5199 31.7427 37.5224 31.7222C37.5391 31.6255 37.5793 31.5343 37.6396 31.4568C37.6998 31.3793 37.7783 31.3179 37.8679 31.2779C37.8784 31.2716 37.8874 31.263 37.8943 31.2527C37.9011 31.2425 37.9056 31.2309 37.9074 31.2187Z" fill="#263238"/>
<path opacity="0.22" d="M42.3124 30.8314C42.3124 30.8314 41.0784 30.6611 40.8118 29.8442C40.5453 29.0272 40.0714 28.5287 39.4544 29.1185C38.8374 29.7084 38.0279 30.7327 37.3146 30.3304C36.1793 29.6936 37.2652 29.0963 37.2652 29.0963C37.2652 29.0963 36.9937 28.5608 38.1315 28.3559C38.1315 28.3559 38.2771 27.7438 39.3458 27.9561C39.5534 27.819 39.8037 27.7619 40.0502 27.7955C40.2967 27.8291 40.5226 27.9511 40.686 28.1387C40.686 28.1387 41.3992 27.8919 41.6066 28.8791C41.6977 28.8877 41.7859 28.9159 41.8651 28.9618C41.9443 29.0077 42.0126 29.0702 42.0653 29.145C42.1181 29.2198 42.154 29.3052 42.1707 29.3952C42.1874 29.4852 42.1844 29.5777 42.1619 29.6665C42.1619 29.6665 42.4704 29.933 42.3124 30.8314Z" fill="#263238"/>
<path d="M42.6088 32.3984C42.6088 32.3984 41.4612 31.2927 40.9824 30.3548C40.5036 29.4169 40.2419 28.331 39.1585 29.2985C38.075 30.266 37.3568 31.1594 36.3695 29.3873C35.3823 27.6153 37.4012 28.6222 37.4012 28.6222C37.4012 28.6222 36.9742 27.5017 38.344 28.0126C38.344 28.0126 41.0292 26.6724 41.9079 28.3384C42.7865 30.0043 42.6088 32.3984 42.6088 32.3984Z" fill="#263238"/>
<path d="M42.88 30.7319C42.9166 31.1424 42.8083 31.5528 42.574 31.8919C42.2704 32.3114 41.8558 32.0548 41.7151 31.5463C41.5892 31.0897 41.5966 30.3123 42.0088 30.0852C42.421 29.8582 42.8331 30.2161 42.88 30.7319Z" fill="#FF8B7B"/>
<path d="M40.6785 51.1779C40.6785 51.1779 43.6698 52.0343 49.6327 50.6842C49.6327 50.6842 49.2476 40.9428 47.1868 35.8758C47.0912 35.6409 46.9281 35.4395 46.7181 35.2972C46.5082 35.1549 46.2607 35.078 46.0071 35.0762C43.54 35.0741 41.1154 35.7192 38.9755 36.947C38.7094 37.1038 38.5088 37.3515 38.4108 37.6445C38.3129 37.9375 38.3241 38.256 38.4424 38.5413C39.3112 40.6219 41.1425 45.758 40.6785 51.1779Z" fill="#263238"/>
<path opacity="0.4" d="M45.3335 36.8205L45.6889 37.83C45.6889 37.83 47.4857 39.2985 48.5321 40.7917C48.3322 39.7403 48.1002 38.7086 47.8262 37.7535L46.5922 36.6182L45.3335 36.8205Z" fill="black"/>
<path d="M50.3833 48.4355L48.8481 49.1464L50.2229 50.3458C50.2229 50.3458 51.5161 49.7362 51.1706 48.9292L50.3833 48.4355Z" fill="#FF8B7B"/>
<path d="M48.4874 50.2398L48.981 50.8174C49.0223 50.8662 49.0731 50.9063 49.1303 50.935C49.1875 50.9637 49.2499 50.9805 49.3138 50.9844C49.3777 50.9883 49.4418 50.9793 49.502 50.9578C49.5623 50.9363 49.6176 50.9028 49.6646 50.8593L50.2249 50.346L48.8502 49.1465L48.4726 49.6401C48.4059 49.7266 48.371 49.8334 48.3737 49.9426C48.3764 50.0518 48.4165 50.1567 48.4874 50.2398Z" fill="#FF8B7B"/>
<path d="M50.3835 48.4361L50.6353 46.9873L51.9878 47.281L51.1857 49.4455L50.2256 48.984L50.2898 48.6064L50.3835 48.4361Z" fill="#FF8B7B"/>
<path d="M52.6931 42.1273C52.629 41.7398 52.5196 41.3613 52.3673 40.9994L52.2266 40.7106C52.1797 40.6193 52.1427 40.56 52.1007 40.4811L51.8539 40.0442C51.6738 39.7604 51.4961 39.4741 51.2937 39.2051C50.9007 38.6634 50.4658 38.1534 49.993 37.6798C49.5217 37.2068 49.0151 36.7703 48.4776 36.3742C48.2086 36.1767 47.9297 35.9916 47.6434 35.8115C47.4978 35.7226 47.3571 35.6338 47.2041 35.5499C47.13 35.5079 47.0511 35.4684 46.9721 35.4265L46.8487 35.3648L46.7055 35.2956C46.3897 35.1586 46.0336 35.1468 45.7094 35.2628C45.3853 35.3789 45.1174 35.6139 44.9603 35.9203C44.8032 36.2266 44.7686 36.5813 44.8636 36.9122C44.9585 37.2432 45.1759 37.5255 45.4715 37.702L45.5653 37.7538L45.7035 37.8304L45.8689 37.9266C45.9799 37.9908 46.0959 38.0624 46.2095 38.1315C46.4341 38.2746 46.6586 38.4252 46.8783 38.5856C47.314 38.9035 47.731 39.2463 48.1271 39.6123C48.5271 39.9793 48.9031 40.3717 49.2526 40.7871C49.3439 40.8858 49.4229 40.9944 49.4994 41.103C49.5759 41.2116 49.6672 41.3128 49.7462 41.4239L49.9757 41.7546C50.0128 41.8089 50.0596 41.8731 50.0868 41.915L50.1559 42.0285C50.3607 42.446 50.4903 42.8963 50.5385 43.3588C50.6091 43.9021 50.638 44.45 50.6248 44.9976C50.6006 46.0069 50.5182 47.0139 50.378 48.0136C50.872 47.9989 51.3587 48.1358 51.7725 48.406C52.1736 47.3638 52.4656 46.2827 52.6437 45.1803C52.7526 44.523 52.8022 43.8572 52.7918 43.191C52.7848 42.8345 52.7518 42.479 52.6931 42.1273Z" fill="#263238"/>
<path d="M40.9058 36.305L40.6393 35.8386C40.6119 35.7915 40.5962 35.7387 40.5933 35.6844C40.5904 35.6301 40.6004 35.5758 40.6226 35.5262C40.6448 35.4765 40.6784 35.4328 40.7208 35.3988C40.7632 35.3647 40.8131 35.3411 40.8663 35.3301C41.7825 35.1127 42.6746 34.8043 43.5294 34.4095C43.5718 34.3915 43.6174 34.382 43.6634 34.3818C43.7095 34.3816 43.7552 34.3907 43.7977 34.4084C43.8403 34.4261 43.8788 34.4521 43.9112 34.485C43.9435 34.5178 43.9689 34.5568 43.986 34.5996L44.4228 35.6979C44.4228 35.6979 42.4015 36.6974 40.9058 36.305Z" fill="#263238"/>
<path opacity="0.4" d="M41.0737 36.1124L43.2752 35.6484C43.2752 35.6484 41.7426 36.7912 41.0737 36.1124Z" fill="black"/>
</svg>
